<?xml version="1.0" encoding="UTF-8"?>
<svg id="Layer_1" xmlns="http://www.w3.org/2000/svg" version="1.1" viewBox="0 0 57.14 26.43">
  <!-- Generator: Adobe Illustrator 30.2.1, SVG Export Plug-In . SVG Version: 2.1.1 Build 1)  -->
  <defs>
    <style>
      .st0 {
        fill: #fff;
      }

      .st1 {
        fill: #ffcb06;
      }

      .st2 {
        opacity: .8;
      }
    </style>
  </defs>
  <g>
    <path class="st1" d="M10.32,4.89c.52,0,1,.1,1.46.3.46.2.86.47,1.21.81l-1.06,1.06c-.46-.45-1-.68-1.64-.67-.59,0-1.14.25-1.56.67-.44.44-.66.98-.66,1.6s.22,1.16.66,1.6.97.66,1.6.66c.49,0,.93-.14,1.31-.42.38-.28.66-.64.81-1.08h-2.13c0-.83.67-1.5,1.5-1.5h2.19c.05.24.07.49.07.75,0,1.04-.37,1.93-1.11,2.66s-1.63,1.11-2.67,1.11-1.93-.37-2.66-1.11-1.11-1.63-1.11-2.66.37-1.93,1.11-2.67c.74-.74,1.63-1.11,2.66-1.11h.02Z"/>
    <path class="st1" d="M14.64,4.9h2.43c.72,0,1.43.25,1.94.76.51.51.72,1,.72,1.71v.23c0,.56-.16.96-.47,1.41s-.58.57-1.07.76l1.69,2.6h-1.82l-1.91-2.92v2.92h-1.5v-7.47h-.01ZM17.21,8.5c.31,0,.47-.08.69-.3.22-.22.3-.47.3-.78,0-.29-.07-.49-.26-.7s-.49-.34-.79-.34h-1v2.1h1.07v.02Z"/>
    <path class="st1" d="M28.25,12.37h-1.84l-.68-1.72h-3.03l-.69,1.72h-1.83l3.01-7.52h2.04l3.01,7.52h.01ZM25.14,9.16l-.92-2.3-.91,2.3h1.83Z"/>
    <path class="st1" d="M28.62,10.13v-5.22h2.61c.72,0,1.33.25,1.85.77.51.51.77,1.13.77,1.85s-.25,1.33-.77,1.84c-.51.51-1.13.76-1.85.76h-1.12v2.24h-1.5v-2.24h.01ZM31.24,8.65c.31,0,.57-.11.79-.33.22-.22.33-.48.33-.79s-.11-.57-.33-.79-.51-.33-.81-.33h-1.1v2.24h1.12Z"/>
    <path class="st1" d="M36,4.91v2.99h2.24v-2.99h1.5v7.46h-1.5v-2.99h-2.24v2.99h-1.5v-7.46h1.5Z"/>
    <path class="st1" d="M40.47,4.91h1.5v7.46h-1.5v-7.46Z"/>
    <path class="st1" d="M44.23,4.91l1.27,2.22,1.27-2.22h1.72l-2.13,3.73,2.13,3.74h-1.72l-1.27-2.23-1.27,2.23h-1.71l2.12-3.74-2.12-3.73s1.71,0,1.71,0Z"/>
  </g>
  <g>
    <path class="st0" d="M34.32,13.68l-2.05,5.12h-1.39l-.4-1.01-.4,1.01h-1.39l-2.05-5.12h1.25l1.49,3.75.47-1.2-1.02-2.56h1.25l.4.99.4-.99h1.24l-1.02,2.55.47,1.21,1.49-3.75h1.26Z"/>
    <path class="st0" d="M38.57,18.79h-1.25l-.46-1.17h-2.06l-.47,1.17h-1.24l2.05-5.12h1.39l2.05,5.12h0ZM36.45,16.61l-.63-1.57-.62,1.57h1.25Z"/>
    <path class="st0" d="M42.81,18.79h-3.29c-.2,0-.37-.07-.52-.22-.14-.14-.22-.32-.22-.52v-4.39h1.1v4.1h2.92v1.02h.01Z"/>
    <path class="st0" d="M48.52,18.79h-1.25l-.46-1.17h-2.06l-.47,1.17h-1.24l2.05-5.12h1.39l2.05,5.12h0ZM46.4,16.61l-.63-1.57-.62,1.57h1.25Z"/>
  </g>
  <g class="st2">
    <rect class="st0" x="51.03" y="1.9" width=".25" height="22.65"/>
    <path class="st0" d="M52.19,2.11h-2.11V0h2.11v2.11ZM50.33,1.86h1.61V.25h-1.61v1.61Z"/>
    <path class="st0" d="M52.19,26.43h-2.11v-2.11h2.11v2.11ZM50.33,26.18h1.61v-1.61h-1.61v1.61Z"/>
    <g>
      <rect class="st0" x="1.91" y="20.89" width="53.27" height=".23"/>
      <path class="st0" d="M57.14,22.12h-2.11v-2.11h2.11v2.11ZM55.28,21.87h1.61v-1.61h-1.61v1.61Z"/>
      <path class="st0" d="M2.11,22.12H0v-2.11h2.11v2.11ZM.25,21.87h1.61v-1.61H.25v1.61Z"/>
    </g>
  </g>
</svg>