<?xml version="1.0" encoding="UTF-8"?>
<svg id="Layer_1" data-name="Layer 1" xmlns="http://www.w3.org/2000/svg" viewBox="0 0 320 120">
  <defs>
    <style>
      .cls-1 {
        fill: #fff;
      }
    </style>
  </defs>
  <path class="cls-1" d="M159.91,107.29c-1.15,0-2.29,0-3.44,0-.7,0-1.4.06-2.09-.22-.3-.12-.67-.04-1.01-.08-2.32-.28-4.61-.68-6.86-1.28-2.14-.57-4.25-1.22-6.27-2.13-.41-.19-.84-.36-1.26-.51-1.81-.64-3.45-1.63-5.12-2.54-1.19-.65-2.3-1.46-3.43-2.22-.92-.63-1.84-1.27-2.72-1.94-.7-.53-1.37-1.1-2.01-1.7-1.32-1.24-2.61-2.5-3.91-3.76-.19-.18-.35-.39-.52-.58-.51-.57-1.02-1.14-1.53-1.72-1.51-1.71-2.83-3.55-4.03-5.47-.93-1.49-1.69-3.08-2.55-4.61-.87-1.52-1.55-3.12-2.16-4.75-.51-1.35-.97-2.73-1.41-4.1-.92-2.84-1.35-5.77-1.8-8.71-.15-.99-.18-2-.22-3-.06-1.62-.09-3.25-.11-4.87-.03-2.3.21-4.57.56-6.84.21-1.42.43-2.85.74-4.25.26-1.19.63-2.36,1.02-3.52.45-1.36.93-2.72,1.47-4.05.49-1.21,1.05-2.39,1.6-3.58,1.04-2.25,2.28-4.39,3.67-6.44.9-1.32,1.86-2.6,2.83-3.87.39-.51.86-.95,1.31-1.41,1.47-1.49,2.94-2.99,4.43-4.47,1.16-1.15,2.46-2.14,3.78-3.11,2.57-1.88,5.25-3.59,8.12-4.97,1.84-.88,3.71-1.73,5.69-2.31,1.21-.36,2.38-.83,3.59-1.16,1.49-.4,2.99-.75,4.51-1.01,1.59-.27,3.21-.38,4.81-.61,1.87-.27,3.74-.24,5.61-.18,1.87.06,3.73.22,5.59.44,1.54.18,3.07.49,4.59.79,1.06.21,2.11.47,3.14.79,1.03.31,2.03.73,3.04,1.09.77.27,1.55.5,2.3.81.82.34,1.6.75,2.39,1.14,1.21.6,2.43,1.18,3.63,1.82.69.37,1.32.84,1.99,1.25.32.2.69.35.99.57,1.35.98,2.71,1.94,4.01,2.97,1.02.82,1.98,1.72,2.94,2.61.91.85,1.81,1.71,2.66,2.62,1.24,1.34,2.44,2.72,3.45,4.25.79,1.2,1.64,2.37,2.44,3.57.5.75.97,1.51,1.39,2.3.68,1.26,1.31,2.55,1.96,3.83.11.21.19.43.29.64.72,1.51,1.28,3.09,1.77,4.68.17.56.4,1.1.57,1.66.25.84.48,1.68.69,2.52.13.55.19,1.12.29,1.68.2,1.02.5,2.03.6,3.07.15,1.55.51,3.08.47,4.66-.03,1.21.18,2.43.15,3.64-.06,2.38-.16,4.77-.56,7.13-.3,1.79-.6,3.58-1.02,5.34-.37,1.56-.87,3.09-1.38,4.61-.38,1.15-.9,2.25-1.28,3.39-.6,1.79-1.54,3.43-2.46,5.06-.92,1.64-1.89,3.26-2.98,4.8-1.2,1.69-2.52,3.29-3.85,4.89-.79.95-1.65,1.87-2.56,2.71-1.37,1.24-2.84,2.37-4.22,3.6-1.23,1.11-2.64,1.95-4,2.88-.98.67-2.04,1.21-3.07,1.81-.51.3-1.01.61-1.54.86-2.16,1.03-4.32,2.1-6.61,2.82-2.89.91-5.81,1.76-8.83,2.14-.79.1-1.59.16-2.39.24-.1,0-.2-.02-.29.02-1.4.51-2.85.17-4.27.26-.44.03-.88,0-1.31,0,0,0,0,0,0,0ZM159.9,104.53c1.25-.06,2.44-.12,3.63-.17,1.65-.07,3.28-.3,4.91-.57,1.84-.31,3.64-.78,5.44-1.27,2.34-.63,4.57-1.52,6.75-2.53,1.79-.83,3.5-1.81,5.19-2.83,2.45-1.47,4.7-3.19,6.81-5.07,2.17-1.93,4.21-3.98,5.97-6.29.98-1.29,1.9-2.61,2.82-3.94.55-.8,1.07-1.62,1.54-2.46.49-.87.94-1.76,1.36-2.66.69-1.47,1.36-2.94,2.01-4.43.22-.51.34-1.07.51-1.6.13-.38.34-.74.41-1.12.24-1.23.67-2.4.98-3.61.38-1.52.56-3.08.89-4.6.16-.74.18-1.51.24-2.27.1-1.31.27-2.62.26-3.92-.02-2.03-.1-4.06-.29-6.08-.16-1.73-.48-3.44-.79-5.15-.16-.91-.44-1.8-.68-2.69-.53-1.96-1.12-3.9-1.88-5.78-.18-.46-.5-.86-.67-1.32-.81-2.19-2-4.2-3.18-6.21-.62-1.06-1.32-2.07-2.06-3.06-1.3-1.74-2.55-3.51-4.14-5.02-1.37-1.31-2.63-2.75-4.17-3.9-1.07-.8-2.08-1.68-3.15-2.49-1.14-.86-2.37-1.6-3.62-2.31-.99-.57-1.97-1.17-3.02-1.64-1.14-.51-2.24-1.12-3.39-1.63-.75-.33-1.54-.54-2.32-.8-.96-.33-1.92-.69-2.89-.98-.83-.25-1.69-.42-2.54-.61-1.09-.24-2.17-.54-3.27-.7-1.49-.21-2.99-.36-4.49-.43-1.9-.09-3.8-.16-5.7-.08-1.67.07-3.32.38-4.98.54-1.87.19-3.66.71-5.47,1.16-1.2.3-2.35.78-3.54,1.15-1.9.6-3.72,1.4-5.49,2.29-2.5,1.26-4.92,2.68-7.13,4.4-.86.66-1.75,1.28-2.56,2-1.31,1.18-2.56,2.41-3.83,3.64-.55.53-1.11,1.07-1.6,1.66-.92,1.12-1.78,2.28-2.67,3.42-.27.35-.59.68-.84,1.04-.42.6-.79,1.23-1.19,1.84-.95,1.44-1.84,2.92-2.53,4.5-.63,1.44-1.35,2.85-1.86,4.34-.51,1.49-1.08,2.96-1.56,4.46-.24.76-.34,1.56-.49,2.34-.34,1.8-.82,3.57-.91,5.41-.08,1.62-.28,3.23-.35,4.85-.04,1.14.03,2.29.09,3.44.09,1.6.21,3.19.33,4.78,0,.09.04.18.06.28.1.51.21,1.02.31,1.53.21,1.09.37,2.18.63,3.25.27,1.13.61,2.24.94,3.34.22.72.46,1.43.73,2.13.24.61.54,1.2.8,1.8.29.7.51,1.42.84,2.1.41.85.91,1.65,1.34,2.48.81,1.55,1.69,3.06,2.7,4.48.25.35.56.65.81.99.52.7.99,1.45,1.56,2.12,1.01,1.18,2.05,2.35,3.13,3.47,1.6,1.65,3.26,3.24,5.15,4.59,1.04.75,2.01,1.61,3.08,2.31,1.5.97,3.06,1.86,4.63,2.72,2.29,1.25,4.76,2.1,7.21,2.99,2.32.84,4.76,1.29,7.21,1.68.66.11,1.31.33,1.97.37,2.01.13,4.03.2,5.99.3Z"/>
  <path class="cls-1" d="M159.82,35.41c-2.98,3.29-5.89,6.49-8.9,9.81-.06-.33-.1-.51-.13-.69-.17-1.04-.33-2.07-.52-3.11-.15-.86-.32-1.72-.51-2.58-.11-.52-.05-.96.27-1.41,1.03-1.44,2.03-2.9,3.04-4.35.95-1.35,1.9-2.7,2.84-4.05.49-.71.95-1.45,1.44-2.16.63-.91,1.28-1.81,1.91-2.72.11-.16.19-.33.29-.49.23-.37.47-.39.71-.03.54.8,1.07,1.62,1.61,2.42.84,1.25,1.7,2.5,2.54,3.75.75,1.11,1.5,2.23,2.25,3.35.68,1.02,1.37,2.03,2.06,3.05.41.61.79,1.24,1.23,1.82.29.38.34.79.25,1.21-.15.7-.37,1.38-.53,2.07-.13.55-.22,1.11-.32,1.66-.14.79-.28,1.58-.45,2.56-1.72-1.69-3.14-3.4-4.6-5.07-1.45-1.66-2.93-3.29-4.49-5.04Z"/>
  <path class="cls-1" d="M174.66,51.58c-.37-.43-.73-.88-1.13-1.29-1.08-1.14-2.17-2.26-3.26-3.39-.3-.31-.32-.66-.24-1.07.31-1.5.6-3,.88-4.5.1-.54.18-1.08.28-1.69.56.49.87,1.04,1.22,1.58.7,1.08,1.45,2.13,2.18,3.19.26.39.49.8.76,1.17.66.9,1.35,1.77,1.99,2.68.55.77,1.05,1.57,1.55,2.37.1.17.2.41.15.58-.35,1.16-.74,2.32-1.11,3.47-.03.09-.09.16-.16.28-.13-.15-.26-.29-.39-.42-.56-.6-1.2-.83-2.09-.82-10.42.04-20.83.03-31.25.02-.58,0-1.11,0-1.46.58-.09.14-.3.21-.52.35-.19-.51-.38-.99-.54-1.48-.22-.68-.39-1.37-.62-2.05-.11-.3-.1-.54.08-.81.63-.92,1.25-1.84,1.88-2.76.74-1.08,1.5-2.16,2.24-3.24.93-1.35,1.84-2.71,2.77-4.06.19-.27.44-.5.77-.87.18.87.33,1.59.48,2.31.11.53.21,1.06.3,1.59.1.58.12,1.18.3,1.74.25.75.35,1.38-.44,1.89-.26.17-.39.54-.63.76-1.23,1.17-2.35,2.45-3.5,3.7-.05.05-.07.12-.16.27.17.08.31.2.47.22.29.04.58.02.88.01,1-.03,1.99-.1,2.99-.1,7.61,0,15.22,0,22.83,0,.58,0,1.16.08,1.75.09.22,0,.44-.07.67-.12.01-.07.02-.14.04-.21Z"/>
  <path class="cls-1" d="M167.6,29.73c-.28-.27-.45-.4-.57-.56-1.12-1.5-2.23-3.01-3.35-4.51-1.12-1.5-2.26-2.99-3.39-4.48-.34-.46-.6-.44-.94.02-.51.69-1.06,1.35-1.58,2.02-.44.56-.86,1.12-1.3,1.68-.86,1.11-1.73,2.21-2.58,3.32-.49.64-.95,1.29-1.43,1.93-.04.05-.12.07-.24.13-.1-.4-.22-.77-.27-1.16-.24-1.7-.45-3.4-.69-5.1-.06-.44-.03-.85.21-1.23.5-.83,1-1.65,1.48-2.49.63-1.09,1.24-2.19,1.88-3.28.59-1,1.2-1.99,1.79-2.99.83-1.41,1.65-2.82,2.47-4.23.27-.46.56-.9.9-1.43.31.52.55.92.78,1.33.67,1.18,1.35,2.36,2.01,3.56.41.74.77,1.5,1.18,2.24.62,1.12,1.26,2.23,1.9,3.34.36.63.74,1.24,1.11,1.86.4.66.79,1.32,1.19,1.98.2.34.42.67.59,1.02.07.16.1.37.06.54-.06.25-.24.47-.28.72-.17.95-.32,1.91-.47,2.86-.14.91-.28,1.82-.45,2.92Z"/>
  <path class="cls-1" d="M129.12,75.16c-.47-.04-.93-.07-1.45-.11,0-.14-.04-.29,0-.4.3-.64.67-1.25.93-1.91.2-.52.48-.74,1.07-.73,1.93.03,3.85.01,5.78.01.19,0,.38.03.54.05,1.17,4.42,1.92,8.89,3.29,13.29h-4c-.17-.74-.34-1.5-.52-2.31-1.26,0-2.47,0-3.68,0-.27,0-.46.14-.52.42-.1.46-.22.91-.29,1.37-.08.54-.15.63-.67.64-.95.01-1.9,0-2.85,0-.12,0-.23-.04-.43-.08.3-1.17.57-2.31.88-3.44.31-1.11.66-2.21.98-3.32.32-1.13.6-2.26.93-3.49ZM133.16,75.61c-.07,0-.15,0-.22.01-.4,1.29-.81,2.57-1.2,3.86-.04.14.02.32.04.56.55.01,1.08.04,1.61.03.71,0,.8-.11.66-.81-.22-1.09-.45-2.17-.69-3.25-.03-.14-.13-.27-.2-.41Z"/>
  <path class="cls-1" d="M193.64,85.6c-.99,0-1.81.02-2.63,0-.47-.02-.61-.22-.72-.65-.23-.93-.5-1.84-.75-2.76-.1-.36-.41-.39-.7-.37-.32.02-.34.29-.34.54,0,.79,0,1.58,0,2.37,0,.23,0,.46,0,.74h-2.58c0-.86-.02-1.72-.02-2.57,0-.86,0-1.72,0-2.58,0-.86,0-1.72,0-2.6-.24-.1-.46-.18-.77-.31.21-.42.39-.83.63-1.2.07-.11.28-.19.43-.19,1.63-.01,3.27-.07,4.9.02,1.06.06,1.74.77,2.11,1.79.19.53.47,1.09.22,1.72-.26.65-.51,1.3-1.14,1.67-.39.23-.4.46-.23.82.43.88.84,1.78,1.25,2.67.12.26.2.52.35.91ZM188.49,79.55h0c0,.12,0,.24,0,.36,0,1,.23,1.17,1.22.89.2-.06.4-.14.58-.24.42-.24.62-.76.53-1.23-.17-.93-1.17-1.31-2.02-1.12-.13.03-.28.26-.3.42-.05.3-.01.62-.01.92Z"/>
  <path class="cls-1" d="M147.88,77.72c.14-.47.23-.91.41-1.32.08-.18.34-.38.53-.39.87-.04,1.75-.02,2.71-.02v2.75c.64,0,1.19,0,1.74,0,.3,0,.43-.2.42-.48,0-.36-.04-.71-.04-1.07,0-.37,0-.75,0-1.15h2.52v9.43c-.82.07-1.63.02-2.47.03-.32-1.4.34-2.8-.22-4.14h-1.92c-.1,1.36-.07,2.68,0,4.11-.82.06-1.63.03-2.54.02-.01-.29-.04-.54-.04-.79,0-1.96,0-3.92,0-5.88q0-.9-.89-.99s-.09-.04-.24-.1Z"/>
  <path class="cls-1" d="M144.65,38.97c-.17-.51-.34-.94-.45-1.38-.17-.64-.24-1.32-.46-1.94-.24-.68.03-1.2.35-1.74.7-1.2,1.42-2.39,2.13-3.58.66-1.11,1.34-2.21,2-3.32.48-.81.95-1.63,1.43-2.44.17-.29.38-.57.72-.84.08.52.16,1.05.25,1.57.19,1.2.28,2.43.61,3.59.35,1.24-.11,2.11-.9,2.97-.5.54-.89,1.16-1.35,1.74-.31.39-.66.74-.97,1.14-1.03,1.32-2.05,2.65-3.07,3.98-.06.07-.14.12-.29.26Z"/>
  <path class="cls-1" d="M175.1,39.08c-.55-.68-1.11-1.35-1.65-2.04-1.03-1.31-2.04-2.64-3.06-3.96-.59-.77-1.19-1.53-1.77-2.3-.09-.12-.14-.31-.11-.45.33-1.39.6-2.78.71-4.21.05-.72.28-1.43.44-2.2.31.24.43.58.61.87.26.44.54.88.8,1.32.32.56.6,1.13.92,1.68.53.92,1.06,1.82,1.6,2.73.66,1.11,1.33,2.21,1.99,3.32.22.36.47.71.63,1.09.08.2.07.47,0,.69-.2.72-.45,1.43-.66,2.15-.11.4-.17.82-.25,1.23-.07.02-.15.04-.22.07Z"/>
  <path class="cls-1" d="M168.3,76.15h2.84c.59,1.47.68,3.06,1.34,4.65.86-1.56.83-3.21,1.31-4.79.72,0,1.43-.12,2.21.11-.19.63-.37,1.18-.52,1.75-.25.95-.46,1.92-.71,2.87-.2.75-.47,1.48-.67,2.22-.15.57-.26,1.15-.33,1.72-.09.72-.16.81-.89.82-.41,0-.83-.01-1.24,0-.39.02-.64-.09-.75-.5-.24-.91-.51-1.81-.78-2.71-.51-1.68-1.04-3.36-1.55-5.05-.1-.34-.15-.69-.24-1.09Z"/>
  <path class="cls-1" d="M183.09,85.46h-5.02c0-.3,0-.55,0-.8,0-2.01,0-4.02,0-6.03,0-.63,0-.65-.64-.8-.32-.07-.39-.24-.31-.52.01-.05.03-.09.05-.14q.36-1.19,1.62-1.19c1.39,0,2.78,0,4.21,0,.23.76.07,1.48-.06,2.23h-2.33c0,.38-.02.7,0,1.03.03.42.11.46.55.46.6,0,1.21,0,1.81,0,.25.5.11.97.12,1.52h-2.37c-.2.62-.1,1.17-.1,1.71,0,.26.18.39.43.39.27,0,.53-.04.8-.04.38,0,.76,0,1.21,0,.11.74.05,1.43.05,2.19Z"/>
  <path class="cls-1" d="M179,94.81v.58c-.23.17-9.33.2-10.27.05q-.1-.67.72-.86c.22-.55.24-3.47.01-4.13-.15,0-.33.05-.47-.01-.15-.07-.31-.23-.35-.38-.03-.11.09-.34.19-.39.62-.24,1.25-.47,1.89-.64.42-.11.56.17.51.61.57-.26.97-.7,1.6-.66.63.04,1.1.3,1.46.8.34-.2.63-.4.95-.54,1.33-.58,2.73-.21,2.86,1.67.06.93,0,1.86.02,2.8.03.98,0,.84.87,1.11ZM176.38,94.7c.21-1.35.12-2.56.09-3.76,0-.02-.02-.04-.03-.06-.14-.41-.34-.55-.75-.52-.51.04-1.04.38-1.04.72-.02,1.05,0,2.09,0,3.14,0,.24.11.43.38.44.42.03.84.03,1.35.05ZM173.04,92.68h0c0-.53.02-1.05,0-1.58-.03-.51-.29-.77-.7-.76-.49.01-1.08.41-1.09.78-.02,1.03,0,2.06,0,3.08,0,.24.11.42.38.45.28.03.58.07.85.03.53-.08.55-.12.57-.64.01-.45,0-.91,0-1.36Z"/>
  <path class="cls-1" d="M167.17,76.08c.12.7.08,1.39-.15,2.07-.57,0-1.1,0-1.63,0-.59.01-.66.09-.67.68,0,.28.04.56.06.83.65,0,1.22,0,1.8,0,.58,0,.61.05.63.62,0,.21,0,.43-.01.64,0,.07-.04.13-.1.29-.53,0-1.08,0-1.63,0-.69,0-.75.06-.75.74,0,.42.02.85.04,1.33.39,0,.71,0,1.02,0,.34,0,.68-.03,1.02-.05.26,0,.42.12.42.38,0,.59,0,1.18,0,1.82h-5.02c0-.75-.01-1.46,0-2.17.02-.95.07-1.91.1-2.86.01-.6,0-1.19,0-1.79,0-.69-.04-.72-.73-.78-.09,0-.19-.03-.36-.05.15-.57.29-1.11.44-1.66.47-.18,4.58-.24,5.52-.06Z"/>
  <path class="cls-1" d="M146.69,82.38v2.46c-.41.09-.82.23-1.25.26-.8.05-1.61.11-2.4.03-.81-.09-1.46-.57-2.03-1.14-.75-.75-.99-1.7-1.08-2.69-.07-.75-.09-1.53.04-2.26.1-.56.38-1.15.76-1.58.96-1.11,2.25-1.63,3.74-1.55.55.03,1.1.17,1.64.31.55.14.62.26.62.81,0,.66,0,1.33,0,2.12-.37-.15-.63-.24-.88-.35-.81-.35-1.63-.46-2.49-.2-.93.29-1.43.98-1.49,1.88-.06.79.28,1.54.97,1.98.47.3,1.06.47,1.66.33.59-.13,1.18-.26,1.77-.38.11-.02.23-.01.4-.02Z"/>
  <path class="cls-1" d="M129.27,68.07c3.5-5.34,7.01-10.68,10.58-16.13.14.28.22.42.27.56.31.89.59,1.79.98,2.65.18.4.11.72-.21,1.03-.81.79-1.63,1.58-2.41,2.39-1.4,1.46-2.79,2.94-4.18,4.4-1.18,1.23-2.37,2.45-3.55,3.69-.3.31-.54.67-.83.99-.16.19-.35.36-.52.54-.05-.04-.09-.09-.14-.13Z"/>
  <path class="cls-1" d="M141.01,95.44v-.65c.26-.07.52-.14.84-.23-.05-.68-.39-1.26-.65-1.92-.93,0-1.85,0-2.78.01-.14,0-.34.11-.4.22-.22.42-.41.86-.56,1.31-.11.33.04.52.41.58.12.02.23.02.34.03.07.58.04.7-.31.71-.87.02-1.74,0-2.64,0-.03-.45-.13-.75.44-.92.45-.14.67-.69.84-1.17.25-.69.52-1.38.8-2.06.16-.39.36-.77.54-1.15.23-.5.45-1,.69-1.49.29-.63.6-1.25.89-1.87.08-.17.16-.35.23-.53.07-.19.17-.33.41-.33.26,0,.39.13.48.35.36.85.73,1.7,1.09,2.55.72,1.69,1.47,3.37,2.14,5.07.22.57.69.67,1.14.85.05.64.03.69-.48.7-1.05.01-2.1,0-3.14,0-.09,0-.19-.04-.34-.07ZM140.74,91.56c-.36-.84-.68-1.57-1.02-2.38-.38.82-.71,1.55-1.05,2.29,0,.02.01.04.03.09h2.04Z"/>
  <path class="cls-1" d="M179.98,52.24c.27.29.44.42.55.6.46.71.91,1.43,1.37,2.15.78,1.22,1.57,2.44,2.36,3.65.7,1.09,1.38,2.19,2.1,3.27.65.98,1.34,1.94,2.01,2.91.64.94,1.27,1.88,1.91,2.82.13.19.23.4.25.68-.33-.3-.67-.58-.98-.9-.58-.61-1.11-1.25-1.69-1.86-1.62-1.71-3.25-3.4-4.88-5.1-1.13-1.19-2.26-2.37-3.4-3.56-.32-.33-.64-.65-.94-.95.43-1.19.85-2.37,1.33-3.7Z"/>
  <path class="cls-1" d="M160.82,89.15v-1.52c-.19-.03-.38-.04-.55-.09-.14-.05-.35-.14-.37-.25-.04-.18-.14-.43.16-.55.57-.23,1.12-.54,1.71-.71.54-.16.68,0,.68.59,0,2.25,0,4.49,0,6.74,0,.25,0,.51,0,.75q.85.11.87.76c-.61.22-1.25.43-1.87.69-.34.14-.56.09-.68-.29-.74.52-1.54.48-2.28.29-.81-.21-1.4-.84-1.68-1.61-.48-1.36-.28-2.71.61-3.84.81-1.03,1.99-1.33,3.39-.96ZM160.85,92.45h0c0-.45.02-.91,0-1.36-.04-.59-.41-1.02-.93-1.14-.4-.1-.79.12-1.12.62-.6.91-.51,2.47.2,3.29.32.37.72.56,1.22.5.45-.05.64-.25.65-.69.01-.41,0-.81,0-1.22Z"/>
  <path class="cls-1" d="M177.08,36.56c.13.05.2.05.21.09,2.94,5.21,5.88,10.42,8.82,15.63.03.05,0,.13,0,.31-.52-.63-.97-1.18-1.42-1.73-1.24-1.51-2.48-3-3.71-4.52-1.01-1.25-1.99-2.53-3-3.79-.3-.37-.64-.71-.96-1.07-.31-.36-.66-.69-.91-1.09-.12-.19-.09-.51-.02-.74.3-1.02.64-2.02.98-3.08Z"/>
  <path class="cls-1" d="M142.68,36.32c.41.52.43.99.57,1.4.18.53.35,1.06.53,1.59.12.35.16.67-.12,1-1.31,1.57-2.6,3.16-3.9,4.74-1.83,2.24-3.65,4.48-5.48,6.72-.15.18-.31.35-.52.48,2.78-5.36,5.96-10.5,8.91-15.94Z"/>
  <path class="cls-1" d="M160.71,85.46h-2.62c0-.51-.01-.98,0-1.45.03-1.05.08-2.1.1-3.15.02-.72,0-1.44,0-2.15,0-.8-.01-.8-.8-.86-.09,0-.19-.03-.33-.05.1-.51.17-1,.31-1.47.05-.15.31-.33.49-.33.8-.04,1.61-.03,2.41-.01.37,0,.45.16.43.59-.04.86-.09,1.72-.09,2.57-.02,1.58-.01,3.16,0,4.74,0,.5.06.99.09,1.56Z"/>
  <path class="cls-1" d="M155.59,94.32c.24-.32.52-.51.92-.37.12.6-.28,1.24-1,1.58-.6.29-1.04.16-1.57-.47-.34.16-.66.36-1.02.48-.66.22-1.29.22-1.82-.32-.56-.56-.58-1.22-.39-1.93.2-.73.78-1.08,1.42-1.36.55-.24,1.11-.45,1.69-.69,0-.23.01-.44,0-.65-.04-.48-.28-.69-.75-.68-.44.01-.62.2-.66.67,0,.02,0,.05,0,.07-.05.62-.39.98-.86.92-.51-.06-.74-.42-.67-1.08.05-.54.82-1.41,1.37-1.46.55-.05,1.12-.07,1.67,0,.99.13,1.49.71,1.52,1.69.03.93,0,1.86.01,2.79,0,.24,0,.47,0,.71.05.02.09.05.14.07ZM153.83,92.19c-.54.34-.97.55-1.33.85-.35.29-.37.78-.12,1.09.21.27.54.29.99.1.32-.14.5-.34.47-.71-.02-.38,0-.76,0-1.33Z"/>
  <path class="cls-1" d="M182.22,92.78c.3-.89.61-1.78.91-2.66q-.56-.2-.52-.94c.64,0,1.29-.04,1.93,0,.32.02.44.5.15.64-.45.21-.51.6-.65.97-.66,1.75-1.29,3.5-1.97,5.24-.21.54-.52,1.07-.88,1.53-.44.57-1.4.75-2.06.48-.31-.13-.44-.45-.38-.98.04-.38.29-.67.69-.69.35-.02.71.07,1.15.12.41-.27.51-.81.73-1.27.04-.09,0-.24-.06-.34-.37-.8-.76-1.58-1.12-2.39-.26-.57-.47-1.16-.7-1.75-.16-.42-.42-.75-.92-.89.01-.22.03-.42.04-.69.92,0,1.8-.01,2.67.01.13,0,.33.15.36.26.03.13-.05.33-.16.43-.13.12-.33.16-.56.26.4.89.79,1.77,1.18,2.65.05,0,.11.02.16.02Z"/>
  <path class="cls-1" d="M168.59,91.92h-3.73c-.04.99.62,1.94,1.28,2.12.44.12.9.09,1.23-.25.3-.3.53-.66.79-.99.54.17.57.2.48.66-.28,1.44-1.49,2.39-2.99,2.18-1.35-.19-2.28-1.3-2.26-2.64,0-.41,0-.81.01-1.22.02-.27.02-.57.14-.8.26-.5.5-1.05.9-1.42.58-.54,1.39-.68,2.17-.53,1.68.31,2.26,1.62,1.98,2.88ZM166.71,90.89c-.22-.67-.46-.89-.88-.86-.42.02-.68.29-.83.86h1.72Z"/>
  <path class="cls-1" d="M149.76,92.61c.26.08.45.14.63.19.03.08.08.15.08.22-.08,1.44-1.44,2.64-2.89,2.66-1.41.01-2.05-.82-2.47-2.16-.42-1.36-.13-2.63.84-3.74.8-.92,3.13-1.15,4.08.06.31.39.38.86.2,1.2-.24.43-.63.44-1.06.43-.47,0-.6-.39-.72-.7-.28-.71-.25-.72-.75-.73-.46,0-.9.28-1.04.74-.22.75-.23,1.52.04,2.25.22.58.66,1.01,1.35,1.04.59.03,1.12-.13,1.42-.68.12-.22.17-.47.28-.78Z"/>
  <path class="cls-1" d="M148.56,74.64c-1.61.03-2.47-1.01-2.43-2.47.05-1.6.8-2.37,2.33-2.4,1.59-.03,2.37,1.36,2.36,2.46,0,1.28-1.08,2.4-2.27,2.4ZM149.88,72.17c-.12-.44-.19-.9-.36-1.31-.18-.41-.55-.67-1.04-.66-.51,0-.89.24-1.1.69-.4.87-.4,1.75.01,2.62.2.41.55.7,1.01.7.5,0,.95-.25,1.13-.73.16-.42.23-.87.34-1.32Z"/>
  <path class="cls-1" d="M142.88,72.93c.08.12.17.24.25.36.14.22.24.47.42.65.35.35.93.32,1.26-.05.21-.23.19-.52-.02-.71-.27-.25-.56-.53-.9-.65-.67-.22-1-.71-1.26-1.26-.25-.53.38-1.39,1.05-1.47.21-.03.44-.02.66,0,.36.02.73.06,1.12.09.12.54.11,1.03-.09,1.64-.13-.3-.21-.53-.33-.74-.31-.56-.89-.74-1.33-.43-.33.23-.36.57-.03.81.45.33.92.61,1.38.93.7.49.91,1.09.62,1.71-.3.66-1.03.97-1.84.76-.34-.09-.67-.27-1.05.18v-1.78s.07-.03.11-.04Z"/>
  <path class="cls-1" d="M155.82,72.17c.08-.62.16-1.2.5-1.72.66-1.01,1.79-.72,2.18.04.63,1.2.67,2.4-.12,3.57-.28.42-.7.65-1.16.55-.46-.11-.98-.28-1.06-.91-.07-.51-.22-1.01-.33-1.52ZM158.12,72.27c-.02-.37,0-.7-.06-1.03-.05-.27-.15-.55-.3-.78-.26-.39-.62-.36-.83.06-.07.12-.12.27-.13.4-.01.85-.02,1.7,0,2.56,0,.18.1.37.21.52.21.29.51.31.72,0,.16-.23.27-.5.32-.77.07-.32.05-.66.07-.96Z"/>
  <path class="cls-1" d="M170.55,72.04c0-.64.03-1.26.49-1.78.51-.58,1.32-.61,1.84-.06.15.15.29.34.36.53.34.89.46,1.8.09,2.71-.1.24-.22.48-.39.68-.67.79-1.56.65-2.02-.28-.32-.67-.38-.93-.38-1.8ZM171.34,72.2c.06.5.11.99.2,1.48.05.26.18.52.51.52.32,0,.46-.25.51-.52.21-.99.23-1.98,0-2.96-.06-.27-.19-.51-.52-.52-.34-.01-.46.25-.51.51-.09.49-.13.98-.2,1.48Z"/>
  <path class="cls-1" d="M159.03,72.13c.17-.55.31-1.12.54-1.66.28-.68,1.14-.88,1.73-.42.18.14.36.34.46.54.49,1.07.54,2.15,0,3.21-.1.19-.24.36-.4.5-.62.53-1.55.36-1.85-.4-.22-.54-.3-1.14-.46-1.77ZM161.37,72.16c-.08-.5-.13-1.02-.27-1.52-.05-.18-.3-.38-.49-.42-.28-.06-.42.2-.47.44-.24,1.01-.25,2.02-.01,3.03.06.27.19.52.52.5.31-.01.45-.26.5-.53.09-.49.15-.98.23-1.5Z"/>
  <path class="cls-1" d="M152.69,74.43c.39-.18.82-.29,1.13-.55.31-.26.5-.66.8-1.09-.27.01-.46.02-.66.03-.53.02-.93-.25-1.08-.7-.22-.66-.22-1.35.23-1.95.4-.52,1.33-.54,1.87-.05.69.63.75,1.46.56,2.25-.25,1.05-.88,1.87-2,2.22-.3.09-.61.18-.86-.16ZM154.9,71.66c-.13-.4-.2-.84-.4-1.21-.21-.41-.7-.37-.9.05-.22.46-.15.93.03,1.39.15.39.37.53.71.46.35-.07.49-.27.57-.7Z"/>
  <path class="cls-1" d="M170.39,73.6c-.12.3-.24.6-.37.91h-2.7c.08-.3.6-.98.96-1.27.54-.44.94-.97,1.04-1.66.06-.42-.2-.9-.56-1.04-.31-.12-.57,0-.78.24-.13.15-.24.31-.46.59-.11-.66.26-.98.41-1.39.23-.06.46-.15.7-.17,1.08-.08,1.66.78,1.42,1.66-.15.57-.51,1.02-.89,1.46-.23.26-.47.52-.73.8,1.01.18,1.2.16,1.96-.12Z"/>
  <path class="cls-1" d="M177.35,71.73c.27-.62.5-1.17.77-1.78h1.7c-.16.58-.16.57-.7.6-.34.02-.75-.15-.97.35.31.19.63.39.94.6.64.43.87,1.14.64,1.88-.2.63-1.08,1.31-1.72,1.25-.29-.03-.58-.19-.85-.35-.07-.04-.04-.26-.06-.51.31.06.57.06.79.17.35.17.62.18.9-.11.37-.38.44-.65.28-1.06-.23-.6-.65-.91-1.29-.97-.12-.01-.24-.04-.45-.07Z"/>
  <path class="cls-1" d="M140.77,74.02v-3.6c-.2-.1-.42-.21-.65-.33.36-.24,1.11-.28,2.2-.11-.13.09-.2.19-.28.2-.27.05-.36.22-.37.45,0,1.03.02,2.05-.01,3.07-.02.48.45.41.65.63-.4.24-1.19.28-2.17.13-.07-.48.35-.34.62-.46Z"/>
  <path class="cls-1" d="M163.46,70.56c-.18.03-.33.05-.54.08.01-.14-.01-.26.04-.3.36-.28.76-.48,1.3-.57,0,.68,0,1.32,0,1.96,0,.6,0,1.19,0,1.79,0,.4-.02.78.61.8-.47.27-.96.3-1.87.16-.14-.42.29-.33.46-.48v-3.44Z"/>
  <path class="cls-1" d="M174.87,70.61c-.27-.04-.47-.06-.7-.09.27-.36.71-.57,1.45-.72,0,.26,0,.51,0,.76,0,.93.01,1.86,0,2.79,0,.43-.02.84.53,1.06-.68.19-1.3.14-1.92.1,0-.05-.01-.1-.02-.15.22-.11.44-.23.67-.35v-3.4Z"/>
  <path class="cls-1" d="M166.21,73.69c.36.09.55.2.53.49-.02.28-.22.46-.52.46-.35,0-.41-.26-.35-.48.05-.19.24-.34.34-.47Z"/>
  <path class="cls-1" d="M165.93,72.05c-.13-.3-.12-.56.14-.72.12-.07.35-.07.46,0,.28.17.2.44.12.72h-.71Z"/>
</svg>