<?xml version="1.0" encoding="UTF-8"?>
<svg id="Layer_1" xmlns="http://www.w3.org/2000/svg" version="1.1" xmlns:xlink="http://www.w3.org/1999/xlink" viewBox="0 0 320 120">
  <!-- Generator: Adobe Illustrator 30.2.1, SVG Export Plug-In . SVG Version: 2.1.1 Build 1)  -->
  <defs>
    <style>
      .st0 {
        font-family: AdobeSongStd-Light-GBpc-EUC-H, 'Adobe Song Std';
        font-weight: 300;
      }

      .st1 {
        fill: url(#linear-gradient2);
      }

      .st2 {
        fill: url(#linear-gradient10);
      }

      .st3 {
        font-size: 84.21px;
      }

      .st4 {
        fill: url(#linear-gradient21);
      }

      .st5 {
        font-family: AbeatbyKai, abeatbyKai;
        font-size: 14.86px;
      }

      .st6 {
        fill: url(#linear-gradient1);
      }

      .st7 {
        fill: url(#linear-gradient9);
      }

      .st8 {
        fill: url(#linear-gradient18);
      }

      .st9 {
        fill: url(#linear-gradient8);
      }

      .st10 {
        fill: url(#linear-gradient11);
      }

      .st11 {
        fill: url(#linear-gradient16);
      }

      .st12 {
        fill: url(#linear-gradient19);
      }

      .st13 {
        fill: url(#linear-gradient12);
      }

      .st14 {
        fill: url(#linear-gradient7);
      }

      .st15 {
        fill: url(#linear-gradient20);
      }

      .st16 {
        fill: url(#linear-gradient4);
      }

      .st17 {
        font-family: advent-Regular, advent;
      }

      .st18 {
        fill: url(#linear-gradient14);
      }

      .st19 {
        fill: url(#linear-gradient5);
      }

      .st20 {
        fill: url(#linear-gradient3);
      }

      .st21 {
        fill: url(#linear-gradient15);
      }

      .st22 {
        fill: url(#linear-gradient17);
      }

      .st23 {
        fill: url(#linear-gradient6);
      }

      .st24 {
        fill: url(#linear-gradient13);
      }

      .st25 {
        fill: url(#linear-gradient);
      }
    </style>
    <linearGradient id="linear-gradient" x1="141.07" y1="98.5" x2="255.33" y2="98.5" gradientUnits="userSpaceOnUse">
      <stop offset="0" stop-color="#a66f2a"/>
      <stop offset=".32" stop-color="#a98744"/>
      <stop offset=".5" stop-color="#a98744"/>
      <stop offset=".72" stop-color="#a98744"/>
      <stop offset="1" stop-color="#8e5d21"/>
    </linearGradient>
    <linearGradient id="linear-gradient1" x1="141.07" y1="101.35" x2="255.33" y2="101.35" xlink:href="#linear-gradient"/>
    <linearGradient id="linear-gradient2" y1="99.95" x2="255.33" y2="99.95" xlink:href="#linear-gradient"/>
    <linearGradient id="linear-gradient3" x1="141.07" y1="99.88" x2="255.33" y2="99.88" xlink:href="#linear-gradient"/>
    <linearGradient id="linear-gradient4" x1="141.07" y1="98.47" x2="255.33" y2="98.47" xlink:href="#linear-gradient"/>
    <linearGradient id="linear-gradient5" x1="141.07" y1="98.47" x2="255.33" y2="98.47" xlink:href="#linear-gradient"/>
    <linearGradient id="linear-gradient6" x1="141.07" y1="99.94" x2="255.33" y2="99.94" xlink:href="#linear-gradient"/>
    <linearGradient id="linear-gradient7" x1="141.07" y1="98.47" x2="255.33" y2="98.47" xlink:href="#linear-gradient"/>
    <linearGradient id="linear-gradient8" x1="141.07" y1="99.94" x2="255.33" y2="99.94" xlink:href="#linear-gradient"/>
    <linearGradient id="linear-gradient9" x1="141.07" y1="99.95" x2="255.33" y2="99.95" xlink:href="#linear-gradient"/>
    <linearGradient id="linear-gradient10" x1="141.07" y1="100.07" x2="255.33" y2="100.07" xlink:href="#linear-gradient"/>
    <linearGradient id="linear-gradient11" x1="141.07" y1="98.56" x2="255.33" y2="98.56" xlink:href="#linear-gradient"/>
    <linearGradient id="linear-gradient12" x1="141.07" y1="101.44" x2="255.33" y2="101.44" xlink:href="#linear-gradient"/>
    <linearGradient id="linear-gradient13" x1="20.26" y1="56.88" x2="255.37" y2="56.88" xlink:href="#linear-gradient"/>
    <linearGradient id="linear-gradient14" x1="20.26" y1="64.9" x2="255.37" y2="64.9" xlink:href="#linear-gradient"/>
    <linearGradient id="linear-gradient15" x1="20.26" y1="73.72" x2="255.37" y2="73.72" xlink:href="#linear-gradient"/>
    <linearGradient id="linear-gradient16" x1="20.26" y1="65.37" x2="255.37" y2="65.37" xlink:href="#linear-gradient"/>
    <linearGradient id="linear-gradient17" x1="20.26" y1="64.91" x2="255.37" y2="64.91" xlink:href="#linear-gradient"/>
    <linearGradient id="linear-gradient18" x1="20.26" y1="60" x2="255.37" y2="60" xlink:href="#linear-gradient"/>
    <linearGradient id="linear-gradient19" x1="237.18" y1="63.91" x2="263.81" y2="63.91" xlink:href="#linear-gradient"/>
    <linearGradient id="linear-gradient20" x1="261.75" y1="27.84" x2="279.09" y2="27.84" xlink:href="#linear-gradient"/>
    <linearGradient id="linear-gradient21" x1="226.62" y1="47.87" x2="300.85" y2="47.87" xlink:href="#linear-gradient"/>
  </defs>
  <g>
    <g>
      <text class="st5" transform="translate(141.06 104.48) scale(1.09 1)"><tspan x="0" y="0">Sparkle Beauty</tspan></text>
      <g>
        <path class="st25" d="M148.53,101.03c.01.93-.35,1.73-1.08,2.38-.73.66-1.61.99-2.65.99s-1.92-.33-2.64-.98c-.72-.65-1.09-1.47-1.1-2.45h1.31c0,.63.22,1.17.69,1.63.47.46,1.04.69,1.71.7.7.01,1.3-.21,1.8-.65s.74-.99.72-1.64c-.03-1.06-.79-1.8-2.29-2.23l-1.33-.38c-.7-.2-1.25-.54-1.63-1.03-.39-.49-.59-1.08-.6-1.76-.01-.84.33-1.56,1.02-2.15s1.51-.88,2.44-.87c.93,0,1.72.32,2.36.93.65.61.97,1.34.97,2.19h-1.31c.01-.54-.18-1-.57-1.39-.39-.39-.87-.6-1.45-.63-.6-.03-1.13.15-1.59.54-.46.39-.68.86-.65,1.41.02.9.5,1.48,1.42,1.75l1.5.43c1.92.55,2.89,1.62,2.91,3.21Z"/>
        <path class="st6" d="M159.07,99.95c0,1.24-.48,2.3-1.44,3.19-.96.89-2.1,1.31-3.43,1.27-1.36-.05-2.5-.55-3.42-1.5v4.27h-1.2v-7.21c0-1.22.48-2.27,1.45-3.16.97-.89,2.11-1.31,3.44-1.27,1.28.03,2.37.48,3.26,1.34.89.86,1.33,1.89,1.33,3.08ZM157.84,100.04c.01-.9-.31-1.68-.98-2.35-.66-.67-1.47-1.02-2.42-1.05-1.02-.05-1.89.27-2.61.97s-1.07,1.51-1.05,2.45c.02.9.37,1.66,1.04,2.3.67.64,1.49.96,2.44.96s1.81-.32,2.5-.96c.69-.64,1.05-1.41,1.07-2.31Z"/>
        <path class="st1" d="M169.74,99.95v4.25h-1.23v-1.32c-1,1.05-2.22,1.56-3.68,1.52-1.27-.04-2.35-.49-3.24-1.35-.89-.86-1.34-1.89-1.34-3.08s.48-2.3,1.44-3.19c.96-.89,2.11-1.31,3.45-1.26,1.29.04,2.39.49,3.3,1.36s1.34,1.89,1.3,3.07ZM168.51,99.86c-.02-.89-.37-1.66-1.04-2.29-.67-.64-1.48-.95-2.42-.95s-1.82.32-2.52.95c-.69.64-1.04,1.41-1.05,2.31-.02.89.3,1.68.97,2.35.66.67,1.47,1.03,2.41,1.06,1.02.04,1.88-.29,2.61-.98.72-.69,1.07-1.51,1.05-2.45Z"/>
        <path class="st20" d="M174.66,96.69c-.57.02-1.04.16-1.39.43s-.6.5-.73.7c-.21.33-.31.76-.31,1.31v5.07h-1.3v-8.47h1.15v1.2c.26-.46.64-.81,1.15-1.06.46-.23.94-.33,1.42-.31v1.13Z"/>
        <path class="st16" d="M183,104.2h-1.6l-3-3.33-1.47,1.71v1.62h-1.33v-11.46h1.28v8.07l4.28-5.09h1.53l-3.52,4.27,3.82,4.2Z"/>
        <path class="st19" d="M185.13,104.2h-1.23v-11.46h1.23v11.46Z"/>
        <path class="st23" d="M196.07,100.35h-8.29c.1.85.49,1.56,1.18,2.11.69.56,1.5.83,2.44.82,1.46-.02,2.5-.64,3.12-1.86h1.31c-.34.91-.93,1.63-1.75,2.17s-1.73.81-2.73.82c-1.26.02-2.38-.4-3.35-1.27-.97-.87-1.47-1.9-1.49-3.1-.03-1.27.45-2.36,1.46-3.28,1.01-.92,2.2-1.34,3.57-1.27,1.23.07,2.3.53,3.2,1.4.87.85,1.31,1.8,1.31,2.85v.61ZM194.86,99.31c-.17-.79-.58-1.43-1.21-1.92-.64-.49-1.4-.74-2.28-.75-.89,0-1.66.23-2.32.73s-1.08,1.14-1.26,1.95h7.07Z"/>
        <path class="st14" d="M210.43,100.94c.03.91-.34,1.68-1.12,2.31-.78.63-1.7.94-2.74.94h-3.97v-11.44h3.53c.99,0,1.85.27,2.57.8.77.56,1.15,1.28,1.15,2.14,0,1.02-.48,1.81-1.42,2.38,1.28.56,1.95,1.51,2.01,2.87ZM206.1,93.82h-2.21v3.82h2.27c.65,0,1.22-.18,1.71-.53s.74-.8.74-1.36c0-.61-.26-1.09-.78-1.44-.47-.33-1.05-.49-1.74-.49ZM209.15,100.83c-.04-.72-.36-1.27-.94-1.64-.53-.34-1.24-.5-2.12-.5h-2.2v4.41h2.27c.96,0,1.71-.21,2.25-.62s.79-.96.75-1.64Z"/>
        <path class="st9" d="M221.16,100.35h-8.29c.1.85.49,1.56,1.18,2.11.69.56,1.5.83,2.44.82,1.46-.02,2.5-.64,3.12-1.86h1.31c-.34.91-.93,1.63-1.75,2.17s-1.73.81-2.73.82c-1.26.02-2.38-.4-3.35-1.27-.97-.87-1.47-1.9-1.49-3.1-.03-1.27.45-2.36,1.46-3.28,1.01-.92,2.2-1.34,3.57-1.27,1.23.07,2.3.53,3.2,1.4.87.85,1.31,1.8,1.31,2.85v.61ZM219.94,99.31c-.17-.79-.58-1.43-1.21-1.92-.64-.49-1.4-.74-2.28-.75-.89,0-1.66.23-2.32.73s-1.08,1.14-1.26,1.95h7.07Z"/>
        <path class="st7" d="M231.73,99.95v4.25h-1.23v-1.32c-1,1.05-2.22,1.56-3.68,1.52-1.27-.04-2.35-.49-3.24-1.35-.89-.86-1.34-1.89-1.34-3.08s.48-2.3,1.44-3.19c.96-.89,2.11-1.31,3.45-1.26,1.29.04,2.39.49,3.3,1.36s1.34,1.89,1.3,3.07ZM230.5,99.86c-.02-.89-.37-1.66-1.04-2.29-.67-.64-1.48-.95-2.42-.95s-1.82.32-2.52.95c-.69.64-1.04,1.41-1.05,2.31-.02.89.3,1.68.97,2.35.66.67,1.47,1.03,2.41,1.06,1.02.04,1.88-.29,2.61-.98.72-.69,1.07-1.51,1.05-2.45Z"/>
        <path class="st2" d="M241.18,100.56c0,1.1-.39,2.02-1.16,2.75-.77.73-1.75,1.1-2.92,1.1s-2.15-.37-2.92-1.1-1.16-1.65-1.16-2.75v-4.83h1.23v4.97c0,.71.29,1.33.86,1.84.57.51,1.23.77,1.99.77s1.43-.25,1.99-.77c.57-.51.86-1.12.86-1.84v-4.97h1.23v4.83Z"/>
        <path class="st10" d="M245.93,104.38c-2.24,0-3.37-.88-3.37-2.63v-8.99h1.23v2.96h2.14v1.06h-2.14v4.79c0,1.26.71,1.89,2.14,1.89v.94Z"/>
        <path class="st13" d="M255.33,95.73l-5.23,11.43h-1.32l1.38-3.22-3.53-8.21h1.34l2.95,6.74,3.12-6.74h1.28Z"/>
      </g>
    </g>
    <g>
      <text class="st3" transform="translate(19.15 86.36) scale(1.1 1)"><tspan class="st17" x="0" y="0">Aryan</tspan><tspan class="st0" x="179.53" y="0">S</tspan></text>
      <g>
        <path class="st24" d="M61.37,86.36l-7.39-20.63h-21.06l-7.21,20.63h-5.45l20.69-58.95h4.9l21.06,58.95h-5.54ZM43.35,34.74l-8.96,26.36h18.2l-9.24-26.36Z"/>
        <path class="st18" d="M70.24,86.36v-42.19h5.17l-.28,2.95c5.54-4.72,13.3-3.87,18.2-2.95l-1.39,4.29c-5.73-1.77-16.54-1.01-16.54,4.88v33.01h-5.17Z"/>
        <path class="st21" d="M118.92,100.42c4.16-1.43,6.19-4.38,6.19-8.76v-9.43c-2.59,3.87-8.04,5.14-12.84,5.14-10.72,0-16.91-5.31-16.91-15.83v-27.37h4.99v28.21c0,7.41,4.99,10.69,11.92,10.69s12.75-3.03,12.75-10.69v-16.59c0-5.73-.37-10.36,6.74-12.38l1.39,3.2c-2.31.93-3.14,3.2-3.14,5.9v38.99c0,6.82-2.68,10.53-9.7,12.55l-1.38-3.62Z"/>
        <path class="st11" d="M172.32,86.36c-14.69,1.26-35.57,3.79-35.57-14.23v-6.99c0-6.06,2.59-9.52,6.37-11.2,6.56-2.95,18.01-1.01,24.02,3.28,0-5.05-1.94-10.1-14.32-10.1l.28-3.62c19.21,0,19.21,9.68,19.21,17.77v25.09ZM167.14,60.84c-8.22-3.54-25.31-8.59-25.31,4.55v7.33c0,9.85,10.44,11.62,25.31,9.77v-21.64Z"/>
        <path class="st22" d="M209.09,86.36v-28.88c0-12.38-15.98-10.95-23.83-6.91v35.79h-5.17v-42.19h5.17l-.37,2.86c5.27-4.04,15.52-4.55,21.43-2.02,4.62,1.94,7.85,5.81,7.85,12.21v29.14h-5.08Z"/>
        <path class="st8" d="M251.03,45.85c-1.57-4.88-3.79-11.54-12.75-11.54-6.65,0-9.98,3.96-9.98,9.43,0,7.07,5.64,9.85,11.64,12.63,4.07,1.85,15.43,5.47,15.43,16,0,8.76-7.39,15.07-19.03,15.24-3.79-.17-7.02-.67-9.33-1.35-2.22-.67-3.42-1.26-3.97-1.6-.74-2.19-1.66-8.25-2.22-13.31h1.48c1.48,4.55,5.45,14.06,16.26,14.06,7.11,0,11.46-3.54,11.46-10.95,0-8.51-7.57-11.37-12.47-13.89-.83-.42-14.41-4.38-14.41-14.65,0-6.99,6.28-13.56,17.18-13.56,3.05,0,5.73.25,10.81,1.77.37,2.86.83,5.98,1.48,11.7h-1.57Z"/>
      </g>
    </g>
  </g>
  <polygon class="st12" points="237.18 82.24 258.87 48.83 263.81 45.57 237.18 82.24"/>
  <path class="st15" d="M265.13,41.29c.15-.18,4.45-12.63,9.02-16.44.85-.71,1.8-1.88,2.4-2.51.37-.39.77-.33,1.13-.32.24,0,.46.09.69.12.23.03.5-.03.63-.23.16-.26.07-.43-.06-.6-.16-.21-1.4-1.16-1.36-1.88,0,0,0-1.53,0-2.03.03-2.65-.9-3.09-1.73-3.49-1.7-.82-3.52-1.43-5.51-1.41-3.42.03-5.43,2.91-6.17,5.42-.63,2.12-.51,4.64,3.11,7.73,2.01,1.71,2.71,2.93,1.52,5.16-4.04,7.6-7.06,12.39-7.06,12.39,2.77-2.2,3.38-1.9,3.38-1.9ZM274.05,23.33c-2.11,2.16-4.38,2.01-6.12,1.03-2.83-1.6-3.45-3.85-2.71-6.33.76-2.53,2.94-4.47,5.9-4.41,1.86.04,3.92,1.12,4.7,3.31.93,2.6-.36,4.79-1.78,6.4Z"/>
  <path class="st4" d="M295.49,25.12c3.01-1.53,5.36,0,5.36,0-.32-.82-2.97-2.38-6.05-.94-2.15,1.01-2.34,1.89-4.16,1.97-2.29.11-4.19.22-6.87,2.33-4.27,3.37-12.88,12.82-17.85,12.9-.01,0-.02,0-.03,0-.2-.01-.39-.03-.58-.03-.38,0-.7.02-1.09.26-.31.19-.62.45-.95.72l-.96.81-3.33,2.78,1,1.31-1.12-1.2-.19.16.98,1.28-1.1-1.18-.1.08-.1.08.97,1.26-1.08-1.16-.2.16.95,1.24-1.07-1.14-.2.17.94,1.22-1.05-1.13-.2.17.92,1.2-1.04-1.11-.21.17.91,1.18-1.02-1.09-.21.17.89,1.16-1-1.07-.21.17.87,1.14-.98-1.05-.21.17.86,1.12-.96-1.03-.21.18.84,1.1-.94-1.01-.22.18.82,1.07-.93-.99-.22.18.82,1.07-.92-.99-.22.18.8,1.05-.9-.96-.22.18.79,1.02-.88-.94-.22.18.77,1-.86-.92-.23.19.75.98-.85-.91-.23.19.74.96-.83-.89-.23.19.72.94-.81-.87-.23.19.7.92-.79-.85-.23.19.69.9-.77-.83-.23.19.67.87-.75-.81-.24.19.65.85-.73-.79-.24.2.65.84-.72-.78-.24.2.63.82-.71-.76-.24.2.61.8-.69-.74-.24.2.6.78-.67-.72-.25.2.58.76-.65-.7-.25.2.56.74-.63-.68-.25.21.55.71-.61-.66-.25.21.53.69-.6-.64-.26.21.53.69-.59-.63-.25.21.51.66-.57-.61-.26.21.49.64-.55-.59-.26.21.48.62-.53-.57-.26.21.46.6-.52-.55-.26.22.44.58-.5-.53-.26.22.43.56-.48-.51-.27.22.41.54-.46-.49-.27.22.4.52-.45-.48-.27.22.38.5-.43-.46-.27.22.37.48-.41-.44-.27.23.35.46-.39-.42-.28.23.34.44-.38-.4-.28.23.32.42-.36-.38-.28.23.3.39-.34-.36-.28.23.29.37-.32-.34-.29.24.28.37-.32-.34-.28.23.26.34-.3-.32-.29.24.25.32-.28-.3-.29.24.23.3-.26-.28-.08.07-.21.18.22.28-.24-.26-.29.24.2.26-.22-.24-.29.24.18.24-.2-.22-.3.25.16.21-.18-.2-.3.25.15.19-.16-.18-14.77,11.76s17.12-12.48,21.11-15.35l12.34-8.93,1.62-1.17c4.82-3.41,10.75-7.32,15.64-11.01.75-.56,1.36-.67,2.52-.49,1.27.21,1.89,1.74,4.9,3.48.61.35,2.52,1.19,4.54,1.1,4.61-.22,9.51-4.64,5.9-10.38-1.12-1.79-1.12-3.56.3-4.29ZM263.25,44.44c-.13.14-.35.14-.48,0-.14-.13-.14-.35,0-.48.13-.14.35-.14.48,0,.14.13.14.35,0,.48ZM294.86,33.48c-.05,2.16-1.5,4.11-3.69,4.87-2.22.77-4.38.56-6.38-.65-1.55-.94-2.89-2.16-2.81-4.16.08-2.14,1.25-3.69,3-4.74.01,0,.02-.01.04-.02,2.06-.97,4.11-1.27,6.22-.51,2.21.8,3.67,2.95,3.62,5.22Z"/>
</svg>