<?xml version="1.0" encoding="UTF-8"?>
<svg id="Layer_1" xmlns="http://www.w3.org/2000/svg" version="1.1" viewBox="0 0 320 120">
  <!-- Generator: Adobe Illustrator 30.2.1, SVG Export Plug-In . SVG Version: 2.1.1 Build 1)  -->
  <defs>
    <style>
      .st0 {
        fill: #fff;
      }
    </style>
  </defs>
  <g>
    <g>
      <g>
        <path class="st0" d="M111.11,79.26h-3.8v2.9h2.56c.29.43.43.91.43,1.42,0,.78-.3,1.5-.91,2.16-.64.7-1.38,1.05-2.23,1.05-1.01,0-1.93-.35-2.77-1.06s-1.26-1.51-1.26-2.41v-3.34h.91v.37c0,.15,0,.32-.01.52,0,.19-.02.36-.02.51,0,.15,0,.27,0,.37,0,1.28.17,2.23.51,2.85.48.91,1.34,1.36,2.57,1.36.58,0,1.12-.25,1.62-.75.48-.49.72-1.01.72-1.55,0-.26-.07-.49-.19-.7h-2.82v-3.73h-4.3v-.82h6.93c-.19-1.11-1.09-1.67-2.7-1.67-.48,0-.97.11-1.47.32-.58.25-.93.56-1.04.92h-1c.09-.58.56-1.07,1.41-1.47.73-.35,1.46-.52,2.2-.52,1.98,0,3.15.81,3.51,2.42h1.15v.82Z"/>
        <path class="st0" d="M114.51,82.35c.23,0,.42-.03.57-.1.15-.07.28-.17.38-.3.2-.23.3-.52.3-.86,0-.43-.16-.77-.47-1.03-.31-.25-.71-.38-1.19-.38-1.25,0-1.88.61-1.88,1.84,0,.57.35,1.06,1.05,1.5l1.94,1.22c.7.61,1.05,1.4,1.05,2.39h-.91c.03-.11.04-.23.04-.36,0-.67-.35-1.22-1.05-1.65l-1.96-1.2c-.71-.57-1.07-1.31-1.07-2.24,0-.63.24-1.16.72-1.6.47-.43,1.06-.65,1.76-.65.84,0,1.5.19,1.99.56.52.4.77.97.77,1.72,0,.45-.14.84-.43,1.17-.3.37-.69.56-1.16.56l-.46-.61Z"/>
        <path class="st0" d="M125.24,79.26h-1.02v7.6h-.9v-4.66c-.18-.26-.42-.39-.73-.39-.35,0-.62.27-.82.81.14.3.21.63.21.98,0,.67-.23,1.24-.69,1.71-.47.49-1.08.74-1.83.74-.63,0-1.2-.2-1.72-.59v-.96c.49.54,1.02.81,1.6.81.5,0,.92-.16,1.27-.49.35-.34.53-.74.53-1.18,0-.62-.3-1.08-.9-1.38l-1.65-.64c-.59-.28-.89-.74-.89-1.37,0-.4.15-.73.46-1h-1.38v-.82h8.45v.82ZM123.32,79.26h-4.15c-.41.15-.61.48-.61.98,0,.24.18.47.53.69.1.07.25.14.44.23.19.09.42.19.68.31.25.11.46.2.62.29.17.08.29.16.37.22.17-.61.6-.91,1.3-.91.25,0,.52.07.82.21v-2.02Z"/>
        <path class="st0" d="M129.27,79.26h-1.01v.98c-.73.53-1.24.98-1.52,1.36-.38.52-.57,1.12-.57,1.82,0,.64.17,1.21.51,1.72.41.6.96.9,1.63.9v.77c-1.96-.26-2.95-1.52-2.95-3.78,0-1.05.66-2.06,1.98-3.05v-.72h-2.67v-.82h4.59v.82Z"/>
        <path class="st0" d="M135.09,79.26h-.94v7.32c-3.17,0-4.76-1.13-4.76-3.4,0-.97.37-1.75,1.12-2.34.7-.56,1.61-.83,2.73-.83v-.74h-4.73v-.82h6.58v.82ZM133.24,80.88c-.88,0-1.58.19-2.12.56-.6.42-.9,1-.9,1.76s.29,1.42.86,1.88c.54.44,1.26.66,2.16.66v-4.86Z"/>
        <path class="st0" d="M141.28,79.26h-1.13v7.32c-3.17,0-4.76-1.13-4.76-3.4,0-.97.37-1.75,1.12-2.34.7-.56,1.61-.83,2.73-.83v-.74h-4.86v-.82h6.9v.82ZM137.46,87.28c-.41,0-.83-.17-1.29-.51-.41-.32-.71-.66-.89-1.02h.91c.17.33.45.6.84.79.38.2.8.29,1.24.29l-.82.45ZM139.23,80.88c-.88,0-1.58.19-2.12.56-.6.42-.9,1-.9,1.76s.29,1.42.86,1.88c.54.44,1.26.66,2.16.66v-4.86Z"/>
        <path class="st0" d="M154.74,79.26h-1.08v7.35h-1.29c-1.36,0-2.61-.43-3.75-1.28-1.16-.86-1.9-1.89-2.23-3.09.89.26,1.62.39,2.21.39s1.1-.13,1.54-.37c.51-.28.76-.68.76-1.18,0-.35-.12-.62-.37-.81-.29.96-1.01,1.43-2.19,1.43-.51,0-.94-.17-1.3-.5-.37-.33-.55-.73-.55-1.2,0-.38.12-.72.36-1,.24-.29.57-.47.98-.55v.82c-.34.08-.51.34-.51.76,0,.58.46.87,1.37.87.36,0,.65-.17.86-.51.17-.28.26-.6.26-.96,0-.32-.07-.63-.21-.95.58,0,1.09.3,1.52.9.38.54.57,1.09.57,1.66,0,.75-.29,1.34-.87,1.77-.54.42-1.23.62-2.06.62-.23,0-.44-.03-.64-.09.25.78.87,1.4,1.85,1.87.86.4,1.78.6,2.77.6v-7.37h1.99v.82Z"/>
        <path class="st0" d="M155.37,89.61c-.13-.73-.49-1.24-1.08-1.53-.47.84-1.08,1.26-1.84,1.26-.47,0-.87-.12-1.19-.36-.32-.27-.48-.61-.48-1.03,0-.46.19-.81.58-1.05.34-.22.77-.32,1.29-.32.82,0,1.61.33,2.38.98.77.65,1.16,1.33,1.16,2.06h-.82ZM153.46,87.86c-.2-.36-.49-.54-.87-.54-.23,0-.44.07-.63.2-.19.13-.28.3-.28.5,0,.38.22.57.66.57.59,0,.96-.25,1.12-.74Z"/>
        <path class="st0" d="M162.65,77.78c-.99-1.1-2.08-1.65-3.29-1.65-.8,0-1.52.2-2.16.6-.72.45-1.08,1.02-1.08,1.71h.86v.82h-1.01v7.63h-.91v-7.63h-1v-.82h1c.25-.97.75-1.73,1.49-2.27.75-.54,1.67-.81,2.78-.81.42,0,.85.06,1.27.17.42.12.82.28,1.2.49.38.21.72.47,1.04.77s.58.63.79.98h-.97Z"/>
        <path class="st0" d="M164.68,79.26h-1.12v7.88h-.91v-6.37c0-.31-.12-.61-.36-.9-.25-.32-.54-.49-.86-.49s-.59.15-.79.46c-.18.28-.28.57-.28.86,0,.8.53,1.2,1.6,1.2v.97s-.13.01-.25.01c-.75,0-1.41-.48-1.99-1.45-.13.27-.26.49-.4.67s-.3.32-.48.44c-.18.11-.4.19-.64.24-.24.05-.52.07-.83.07v-.96c.57,0,.96-.06,1.18-.17.3-.16.46-.48.46-.96,0-.62-.22-1.05-.66-1.27-.3-.16-.81-.24-1.55-.24h-.46v-.82h.73c1.36,0,2.21.57,2.56,1.72.38-1.06.94-1.6,1.67-1.6.6,0,1.05.25,1.34.75v-.87h2.03v.82Z"/>
        <path class="st0" d="M167.08,87.04c0,.76-.4,1.44-1.2,2.04l-.68-.44c.73-.43,1.09-.91,1.09-1.43l-.04-.17c-.1.25-.31.37-.62.37-.27,0-.49-.07-.66-.22-.18-.15-.26-.34-.26-.59,0-.29.1-.54.29-.75s.45-.31.76-.31c.41,0,.75.16,1,.49.22.27.33.61.33,1.01Z"/>
        <path class="st0" d="M180.13,86.9h-.91v-.86c-.24,0-.57.01-1,.04-.22,0-.41.01-.58.02-.17,0-.3,0-.41,0-1.26,0-2.23-.24-2.91-.71-.27-.19-.52-.45-.76-.79-.24-.37-.36-.69-.36-.96v-3.71h.87v3.55c0,.52.24.94.72,1.27.44.3.96.45,1.55.45h2.88v-5.91h-.68c-.44,0-.86.14-1.24.41-.42.29-.62.63-.62,1.01,0,.45.12.83.36,1.15.27.37.65.53,1.15.49v.83h-.17c-.67.05-1.22-.23-1.63-.82-.34-.51-.51-1.08-.51-1.73,0-.6.3-1.12.91-1.56.59-.42,1.22-.62,1.9-.62h1.45v8.45Z"/>
        <path class="st0" d="M189.49,79.26h-3.55v.72c.89.12,1.57.48,2.02,1.08.42.56.64,1.25.64,2.08,0,.56-.1,1.02-.29,1.4h-.97c.28-.46.41-.99.41-1.6s-.14-1.06-.41-1.43c-.31-.46-.78-.69-1.4-.69v5.75c-1.37,0-2.48-.26-3.32-.79-.98-.61-1.47-1.5-1.47-2.69,0-.94.39-1.7,1.18-2.28.73-.55,1.63-.82,2.7-.82v-.74h-4.7v-.82h9.17v.82ZM185.02,80.83c-.88,0-1.6.2-2.16.59-.61.42-.91,1.02-.91,1.8s.3,1.37.91,1.84c.57.46,1.29.69,2.16.69v-4.91Z"/>
        <path class="st0" d="M202.46,77.78c-.99-1.1-2.08-1.65-3.29-1.65-.8,0-1.52.2-2.16.6-.72.45-1.08,1.02-1.08,1.71h.86v.82h-1.01v7.63h-.91v-7.63h-1v-.82h1c.25-.97.75-1.73,1.49-2.27.75-.54,1.67-.81,2.78-.81.42,0,.85.06,1.27.17.42.12.82.28,1.2.49.38.21.72.47,1.04.77s.58.63.79.98h-.97Z"/>
        <path class="st0" d="M205.45,79.26h-3.47v.72c.89.1,1.57.42,2.02.97.42.49.64,1.11.64,1.86,0,.5-.1.91-.29,1.25h-.97c.28-.41.42-.89.42-1.43,0-.51-.14-.93-.42-1.27-.31-.41-.78-.61-1.4-.61v5.12c-1.36,0-2.47-.23-3.32-.7-.98-.55-1.47-1.35-1.47-2.41,0-.83.39-1.51,1.18-2.03.74-.49,1.64-.74,2.7-.74v-.74h-4.99v-.82h9.38v.82ZM201.98,89.61h-.9v-1.7c-.18-.43-.43-.76-.75-.97-.21.17-.5.55-.86,1.15-.38-.54-.82-.92-1.33-1.15-.33.24-.5.53-.5.86,0,.79.45,1.18,1.36,1.18h.26v.8h-.21c-.6.04-1.11-.16-1.54-.6-.41-.42-.61-.89-.61-1.42,0-.36.1-.7.3-1.02.2-.32.48-.55.83-.7.52.2.97.53,1.36,1,.13-.22.27-.4.42-.55.15-.15.31-.28.46-.39.39.22.65.49.79.82v-1.37h.9v4.06ZM201.06,80.74c-.89,0-1.6.17-2.16.52-.61.37-.91.91-.91,1.6s.3,1.22.91,1.65c.57.41,1.29.61,2.16.61v-4.38Z"/>
        <path class="st0" d="M209.5,79.26h-1.01v.98c-.73.53-1.24.98-1.52,1.36-.38.52-.57,1.12-.57,1.82,0,.64.17,1.21.51,1.72.41.6.96.9,1.63.9v.77c-1.96-.26-2.95-1.52-2.95-3.78,0-1.05.66-2.06,1.98-3.05v-.72h-2.67v-.82h4.59v.82Z"/>
        <path class="st0" d="M217.9,79.26h-3.55v.72c.89.12,1.57.48,2.02,1.08.42.56.64,1.25.64,2.08,0,.56-.1,1.02-.29,1.4h-.97c.28-.46.41-.99.41-1.6s-.14-1.06-.41-1.43c-.31-.46-.78-.69-1.4-.69v5.75c-1.37,0-2.48-.26-3.32-.79-.98-.61-1.47-1.5-1.47-2.69,0-.94.39-1.7,1.18-2.28.73-.55,1.63-.82,2.7-.82v-.74h-4.7v-.82h9.17v.82ZM213.43,80.83c-.88,0-1.6.2-2.16.59-.61.42-.91,1.02-.91,1.8s.3,1.37.91,1.84c.57.46,1.29.69,2.16.69v-4.91Z"/>
      </g>
      <rect class="st0" x="33.67" y="82" width="64.78" height="1.15"/>
      <rect class="st0" x="221.55" y="82" width="64.78" height="1.15"/>
    </g>
    <path class="st0" d="M94.53,34.34c-.1,1.6-.96,2.81-1.97,3.95-.17.19-.29.08-.4-.05-2.55-2.88-2.54-5,0-7.88.12-.13.23-.24.4-.04,1.02,1.16,1.89,2.39,1.96,4.02Z"/>
  </g>
  <g>
    <path class="st0" d="M42.48,50.05v8.66c0,1.54,1.03,2.57,2.53,2.57h.13v.9h-10.75v-.9h.13c1.54,0,2.57-1.03,2.57-2.57v-24.51c0-1.5-1.03-2.53-2.57-2.53h-.13v-.9h15.3c5.74,0,9.55,3.81,9.55,9.73s-3.81,9.55-9.55,9.55h-7.2ZM45.18,49.15c5.23,0,8.7-3.43,8.7-8.83s-3.47-8.66-8.7-8.66h-2.7v17.48h2.7Z"/>
    <path class="st0" d="M76.16,40.63v-.9h8.1v18.98c0,1.54,1.03,2.57,2.57,2.57h.13v.9h-8.1v-4.29c-3.04,2.36-6.38,4.71-10.16,4.71-3.51,0-5.27-2.14-5.27-6.68v-12.73c0-1.54-1.03-2.57-2.57-2.57h-.13v-.9h8.1v14.48c0,3.51,1.41,5.4,4.03,5.4,2.4,0,4.58-1.59,6-2.83v-13.58c0-1.54-1.03-2.57-2.57-2.57h-.13Z"/>
    <path class="st0" d="M87.73,40.63v-.9h8.1v22.02c0,5.87-3.04,9.85-8.91,9.85-3.73,0-5.78-1.63-6.13-3.73-.6-3.68,4.63-4.58,5.01.3.04.51.3,2.53,1.97,2.53,1.93,0,2.66-2.53,2.66-8.31v-19.2c0-1.54-1.03-2.57-2.53-2.57h-.17Z"/>
    <path class="st0" d="M120,58.71c0,1.54,1.03,2.57,2.57,2.57h.13v.9h-8.06v-3.04c-1.63,2.23-3.98,3.47-7.37,3.47-5.01,0-8.4-2.7-8.4-6.51s3.47-7.37,8.96-7.37c3,0,5.48.99,6.81,2.91v-4.03c0-5.83-2.53-7.41-4.97-7.41-3,0-3.64,2.44-3.64,4.24,0,4.93-5.23,4.07-4.67-.21.39-2.91,3.13-4.93,8.61-4.93s10.03,1.97,10.03,8.96v10.46ZM114.64,54.6c0-2.49-2.53-4.07-5.1-4.07-3.3,0-5.27,2.74-5.27,5.61s1.89,5.14,4.76,5.14c1.97,0,4.03-1.07,5.61-3.86v-2.83Z"/>
    <path class="st0" d="M142.84,50.05v8.66c0,1.54,1.03,2.57,2.53,2.57h.13v.9h-10.75v-.9h.13c1.54,0,2.57-1.03,2.57-2.57v-24.51c0-1.5-1.03-2.53-2.57-2.53h-.13v-.9h15.3c5.74,0,9.55,3.81,9.55,9.73s-3.81,9.55-9.55,9.55h-7.2ZM145.54,49.15c5.23,0,8.7-3.43,8.7-8.83s-3.47-8.66-8.7-8.66h-2.7v17.48h2.7Z"/>
    <path class="st0" d="M181.32,58.71c0,1.54,1.03,2.57,2.57,2.57h.13v.9h-8.06v-3.04c-1.63,2.23-3.98,3.47-7.37,3.47-5.01,0-8.4-2.7-8.4-6.51s3.47-7.37,8.96-7.37c3,0,5.48.99,6.81,2.91v-4.03c0-5.83-2.53-7.41-4.97-7.41-3,0-3.64,2.44-3.64,4.24,0,4.93-5.23,4.07-4.67-.21.39-2.91,3.13-4.93,8.61-4.93s10.03,1.97,10.03,8.96v10.46ZM175.96,54.6c0-2.49-2.53-4.07-5.1-4.07-3.3,0-5.27,2.74-5.27,5.61s1.89,5.14,4.76,5.14c1.97,0,4.03-1.07,5.61-3.86v-2.83Z"/>
    <path class="st0" d="M196.27,61.28v.9h-10.76v-.9h.13c1.54,0,2.57-1.03,2.57-2.57v-15.51c0-1.54-1.03-2.57-2.57-2.57h-.13v-.9h8.1v3.3c2.31-1.97,5.01-3.73,7.63-3.73,2.83,0,4.37,2.01,4.71,4.37.56,4.84-4.63,5.7-4.63.77,0-1.8-.69-3.34-2.49-3.34-1.67,0-3.51,1.33-5.23,3v14.61c0,1.54,1.03,2.57,2.53,2.57h.13Z"/>
    <path class="st0" d="M214.4,45.94c1.33-4.07,4.16-6.64,8.06-6.64,5.27,0,9.04,4.71,9.04,11.74s-3.68,11.57-9.17,11.57c-4.16,0-6.64-2.66-8.31-5.78l-4.11,5.36h-.9v-27.98c0-1.5-1.03-2.53-2.57-2.53h-.13v-.9h8.1v15.17ZM220.48,61.28c3.08,0,5.61-4.33,5.61-10.11s-2.53-10.07-5.78-10.07c-3.43,0-5.91,4.76-5.91,10.8v3.81c1.59,3.13,3.68,5.57,6.08,5.57Z"/>
    <path class="st0" d="M255.19,58.71c0,1.54,1.03,2.57,2.57,2.57h.13v.9h-8.06v-3.04c-1.63,2.23-3.98,3.47-7.37,3.47-5.01,0-8.4-2.7-8.4-6.51s3.47-7.37,8.96-7.37c3,0,5.48.99,6.81,2.91v-4.03c0-5.83-2.53-7.41-4.97-7.41-3,0-3.64,2.44-3.64,4.24,0,4.93-5.23,4.07-4.67-.21.39-2.91,3.13-4.93,8.61-4.93s10.03,1.97,10.03,8.96v10.46ZM249.83,54.6c0-2.49-2.53-4.07-5.1-4.07-3.3,0-5.27,2.74-5.27,5.61s1.89,5.14,4.76,5.14c1.97,0,4.03-1.07,5.61-3.86v-2.83Z"/>
    <path class="st0" d="M270.14,61.28v.9h-10.76v-.9h.13c1.54,0,2.57-1.03,2.57-2.57v-15.51c0-1.54-1.03-2.57-2.57-2.57h-.13v-.9h8.1v4.29c3.04-2.36,6.34-4.71,10.11-4.71,3.56,0,5.31,2.14,5.31,6.68v12.73c0,1.54,1.03,2.57,2.57,2.57h.13v.9h-10.8v-.9h.13c1.54,0,2.57-1.03,2.57-2.57v-10.97c0-3.56-1.41-5.44-4.03-5.44-2.44,0-4.58,1.63-6,2.83v13.58c0,1.54,1.03,2.57,2.53,2.57h.13Z"/>
  </g>
</svg>