<?xml version="1.0" encoding="UTF-8"?>
<svg id="Layer_1" data-name="Layer 1" xmlns="http://www.w3.org/2000/svg" viewBox="0 0 320 120">
  <defs>
    <style>
      .cls-1 {
        fill: #fff;
      }
    </style>
  </defs>
  <path class="cls-1" d="M72.1,41.83c-3.39,0-6.78.02-10.17.02-1.53,0-3.07-.01-4.6-.02-.1,0-.21,0-.31,0-.19,0-.37,0-.56,0-.14-.03-.28-.05-.43-.08,0-3.93,0-7.87,0-11.8.18.19.36.38.54.57.14.16.25.45.42.48.45.1.93.13,1.39.13,14.06,0,28.12,0,42.18,0,.44,0,.89,0,1.33,0,.64-.02,1.28,0,1.91-.11.44-.08.84-.35,1.26-.53,0,.25.02.5.02.75,0,3.43.01,6.86.02,10.29,0,.11-.01.21-.02.32-.51,0-1.01-.01-1.52-.02-.03,0-.07,0-.1,0h-1.31s-.07,0-.1,0c-.7,0-1.4.02-2.11.02-3.03,0-6.05-.01-9.08-.02-.03,0-.07,0-.1,0-.4,0-.8,0-1.2,0-.03,0-.07,0-.1,0-.11,0-.22,0-.34,0-.03,0-.07,0-.1.01-.39.06-.34.35-.34.62,0,1.89,0,3.78-.01,5.67-.03,0-.06,0-.08.01-.43.34-.44,1.07-.02,1.51,0,.22,0,.43,0,.65-.07.14-.19.29-.19.43-.05,2.46-.1,4.93-.11,7.39,0,1.06.09,2.12.09,3.18,0,.93-.08,1.87-.1,2.8-.02.93,0,1.86,0,2.78,0,3.62-.01,7.25.01,10.87,0,.48.19.97.29,1.45,0,.18,0,.36,0,.54-.05.04-.1.07-.16.11.05.04.1.07.15.11,0,1.84,0,3.68,0,5.52-.07.13-.19.25-.19.38-.04,1.47-.08,2.94-.09,4.42,0,.13.18.26.28.4.01.17.03.35.04.52-.04.39-.34.35-.61.35-1.51,0-3.02.02-4.53.02-.09.02-.19.03-.28.05-.4-.01-.81-.03-1.21-.04-2.82,0-5.63,0-8.45,0-.05,0-.1.03-.16.04-.17-.03-.34-.06-.51-.09l-.03-.31s.02-.07,0-.1c0-1.01,0-2.02,0-3.03,0-.07,0-.14,0-.22,0-.07,0-.14,0-.22,0-.07,0-.14,0-.22,0-.07,0-.14,0-.22,0-.07,0-.14,0-.22,0-.07,0-.14,0-.22,0-.07,0-.14,0-.22,0-.07,0-.14,0-.22,0-.07,0-.14,0-.22,0-.07,0-.14,0-.22,0-.07,0-.14,0-.22,0-.07,0-.14,0-.22,0-.07,0-.14,0-.22,0-.07,0-.14,0-.22,0-.07,0-.14,0-.22,0-.07,0-.14,0-.22,0-.07,0-.14,0-.22,0-.07,0-.14,0-.22,0-.07,0-.14,0-.22,0-.07,0-.14,0-.22,0-.07,0-.14,0-.22,0-.07,0-.14,0-.22,0-.07,0-.14,0-.22,0-.07,0-.14,0-.22,0-.07,0-.14,0-.22,0-.07,0-.14,0-.22,0-.07,0-.14,0-.22,0-.07,0-.14,0-.22,0-.07,0-.14,0-.22,0-.07,0-.14,0-.22,0-.07,0-.14,0-.22,0-.07,0-.14,0-.22,0-.07,0-.14,0-.22,0-.07,0-.14,0-.22,0-.07,0-.14,0-.22,0-.07,0-.14,0-.22,0-.07,0-.14,0-.22,0-.07,0-.14,0-.22,0-.07,0-.14,0-.22,0-.07,0-.14,0-.22,0-.07,0-.14,0-.22,0-.07,0-.14,0-.22,0-.07,0-.14,0-.22,0-.07,0-.14,0-.22,0-.07,0-.14,0-.22,0-.07,0-.14,0-.22,0-.07,0-.14,0-.22,0-.07,0-.14,0-.22,0-.07,0-.14,0-.22,0-.07,0-.14,0-.22,0-.07,0-.14,0-.22,0-.07,0-.14,0-.22,0-.07,0-.14,0-.22,0-.07,0-.14,0-.22,0-.07,0-.14,0-.22,0-.07,0-.14,0-.22,0-.07,0-.14,0-.22,0-.07,0-.14,0-.22,0-.07,0-.14,0-.22,0-.07,0-.14,0-.22,0-.07,0-.14,0-.22,0-.07,0-.14,0-.22,0-.07,0-.14,0-.22,0-.07,0-.14,0-.22,0-.07,0-.14,0-.22,0-.07,0-.14,0-.22,0-.07,0-.14,0-.22,0-.07,0-.14,0-.22,0-.07,0-.14,0-.22,0-.07,0-.14,0-.22,0-.07,0-.14,0-.22,0-.07,0-.14,0-.22,0-.07,0-.14,0-.22,0-.07,0-.14,0-.22,0-.07,0-.14,0-.22,0-.07,0-.14,0-.22,0-.07,0-.14,0-.22,0-.07,0-.14,0-.22,0-.07,0-.14,0-.22,0-.07,0-.14,0-.22,0-.07,0-.14,0-.22,0-.07,0-.14,0-.22,0-.07,0-.14,0-.22,0-.07,0-.14,0-.22,0-.07,0-.14,0-.22,0-.07,0-.14,0-.22,0-.07,0-.14,0-.22,0-.07,0-.14,0-.22,0-.07,0-.14,0-.22,0-.07,0-.14,0-.22,0-.07,0-.14,0-.22,0-.07,0-.14,0-.22,0-.07,0-.14,0-.22,0-.07,0-.14,0-.22,0-.07,0-.14,0-.22,0-.07,0-.14,0-.22,0-.07,0-.14,0-.22,0-.07,0-.14,0-.22,0-.07,0-.14,0-.22,0-.07,0-.14,0-.22,0-.07,0-.14,0-.22,0-.07,0-.14,0-.22,0-.07,0-.14,0-.22,0-.07,0-.14,0-.22,0-.07,0-.14,0-.22,0-.07,0-.14,0-.22,0-.07,0-.14,0-.22,0-.07,0-.14,0-.22,0-.07,0-.14,0-.22,0-.07,0-.14,0-.22,0-.07,0-.14,0-.22,0-.22,0-.43,0-.65v-.22c0-.07,0-.14,0-.22,0-.07,0-.14,0-.22,0-.07,0-.14,0-.22,0-.07,0-.14,0-.22,0-.07,0-.14,0-.22v-.22c0-.07,0-.14,0-.22,0-.07,0-.14,0-.22,0-.07,0-.14,0-.22,0-.07,0-.14,0-.22,0-.07,0-.14,0-.22,0-.07,0-.14,0-.22,0-.07,0-.14,0-.22,0-.07,0-.14,0-.22,0-.07,0-.14,0-.22,0-.07,0-.14,0-.22,0-.07,0-.14,0-.22,0-.07,0-.14,0-.22,0-.07,0-.14,0-.22,0-.07,0-.14,0-.22,0-.07,0-.14,0-.22,0-.07,0-.14,0-.22,0-.07,0-.14,0-.22,0-.07,0-.14,0-.22,0-.07,0-.14,0-.22,0-.07,0-.14,0-.22,0-.07,0-.14,0-.22,0-.07,0-.14,0-.22,0-.07,0-.14,0-.22,0-.07,0-.14,0-.22,0-.07,0-.14,0-.22,0-.07,0-.14,0-.22,0-.07,0-.14,0-.22,0-.07,0-.14,0-.22,0-.07,0-.14,0-.22,0-.07,0-.14,0-.22,0-.07,0-.14,0-.22,0-.07,0-.14,0-.22,0-.07,0-.14,0-.22,0-.07,0-.14,0-.22,0-.07,0-.14,0-.22,0-.07,0-.14,0-.22,0-.07,0-.14,0-.22,0-.07,0-.14,0-.22,0-.07,0-.14,0-.22,0-.07,0-.14,0-.22,0-.07,0-.14,0-.22,0-.07,0-.14,0-.22,0-.07,0-.14,0-.22,0-.07,0-.14,0-.22,0-.07,0-.14,0-.22,0-.07,0-.14,0-.22,0-.07,0-.14,0-.22,0-.07,0-.14,0-.22,0-.07,0-.14,0-.22,0-.07,0-.14,0-.22,0-.07,0-.14,0-.22,0-.07,0-.14,0-.22,0-.07,0-.14,0-.22,0-.07,0-.14,0-.22,0-.07,0-.14,0-.22,0-.07,0-.14,0-.22,0-.07,0-.14,0-.22,0-.07,0-.14,0-.22,0-.07,0-.14,0-.22,0-.07,0-.14,0-.22,0-.07,0-.14,0-.22,0-.07,0-.14,0-.22,0-.07,0-.14,0-.22,0-.07,0-.14,0-.22,0-.07,0-.14,0-.22,0-.07,0-.14,0-.22,0-.07,0-.14,0-.22,0-.07,0-.14,0-.22,0-.07,0-.14,0-.22,0-.07,0-.14,0-.22,0-.07,0-.14,0-.22,0-.07,0-.14,0-.22,0-.07,0-.14,0-.22,0-.07,0-.14,0-.22,0-.36,0-.72,0-1.08,0-.07,0-.14,0-.22,0-.36,0-.72,0-1.08,0-.07,0-.14,0-.22,0-.25,0-.51,0-.76-.01-.25.17-.6-.31-.63-.07-.02-.15-.03-.22-.05-.07,0-.14,0-.21,0Z"/>
  <path class="cls-1" d="M56.58,25.61c1.04-.03,2.08-.09,3.12-.09,14.95,0,29.89,0,44.84,0,.42,0,.56.11.55.55-.04,1.12-.02,2.23-.03,3.35-.17.12-.39.21-.5.36-.51.72-1.22,1.04-2.08,1.04-14.3,0-28.59,0-42.89-.01-.64,0-1.28-.18-1.9-.33-.21-.05-.46-.2-.56-.38-.25-.44-.63-.62-1.09-.68v-3.79c.18,0,.36-.01.54-.02Z"/>
  <path class="cls-1" d="M56.04,29.42c.47.06.84.24,1.09.68.1.18.35.33.56.38.63.15,1.27.33,1.9.33,14.3.02,28.59.02,42.89.01.86,0,1.56-.32,2.08-1.04.11-.16.33-.24.5-.36,0,.36,0,.72,0,1.08-.42.18-.82.46-1.26.53-.62.11-1.27.09-1.91.11-.44.01-.88,0-1.33,0-14.06,0-28.12,0-42.18,0-.47,0-.94-.03-1.39-.13-.17-.04-.28-.32-.42-.48-.17-.2-.36-.38-.54-.57,0-.18,0-.36,0-.54Z"/>
  <path class="cls-1" d="M219.35,46.62c.04.11.08.21.12.32-.12.23-.34.46-.33.68.04.53.22,1.04.29,1.57.09.66.07,1.33.18,1.98.16.96.39,1.92.6,2.88.1.49.2.97.32,1.45.06.27.17.53.22.81.17.99.33,1.99.49,2.98.01.07.07.13.09.2.1.43.24.85.28,1.29.07.68.29,1.28.77,1.78-.17.03-.34.1-.51.09-.55-.02-1.09-.08-1.64-.09-.54,0-.89.29-.99.83-.32,1.69-.31,3.39-.08,5.09.05.35.38.71.66.98.27.27.7.4.96.68.43.46.92.57,1.51.54,1-.05,2.04.17,2.99-.36.21-.12.58-.04.7-.19.54-.68,1.62-1.02,1.4-2.19-.02-.11.06-.24.1-.36.38-1.35.32-2.71.03-4.04-.11-.51-.46-.95-1.08-1.15-.87-.28-1.65-.2-2.42.27-.01-.03-.02-.07-.03-.1.01-.06.02-.12.03-.18.02-.08.04-.17.06-.25.02-.13.03-.25.05-.38.02-.05.04-.11.06-.16.08-.4.16-.81.25-1.21,0,0,.03-.03.03-.03l-.02-.03c.16-.7.32-1.4.48-2.11.01-.04.03-.09.05-.13,0-.06.01-.12.02-.18.06-.03.11-.07.17-.1-.05-.04-.09-.08-.14-.13h-.05s0-.06.01-.1c.04-.23.08-.47.13-.7.02-.05.04-.1.06-.16.06-.22.11-.44.17-.66.1-.11.28-.21.28-.32.03-.4.01-.8,0-1.21,0,0,0,0,0,0,.06-.04.12-.08.19-.11-.05-.03-.11-.06-.16-.09.03-.14.06-.29.09-.43.32.02.41-.13.45-.45.07-.59.21-1.18.34-1.76.07-.3.23-.6-.23-.71v-.32c.35-.1.41-.28.19-.55.01-.11.03-.21.04-.32.58-.3.61-.45.28-1.25,0-.05.01-.1.02-.16.28-.08.27-.2.05-.35.03-.17.06-.35.09-.52.57-.24.74-1.05.32-1.51,0-.07,0-.15,0-.22.04-.11.08-.22.12-.33.02-.06.04-.12.06-.17,0,0,0-.04,0-.04.45-.21.54-.68.25-1.28.04-.22.08-.45.13-.67.02-.06.04-.11.07-.17v-.27s.01-.07,0-.1c.01-.09.02-.17.03-.26.04-.09.08-.19.12-.28.3-.18.32-.28.09-.43.26-1.34.51-2.67.77-4.01.02-.11.05-.22.07-.33.06-.26.13-.51.19-.77.08-.05.16-.1.24-.14-.06-.09-.11-.18-.17-.28.06-.32.12-.65.19-.97.06-.03.11-.06.17-.1-.05-.04-.09-.08-.14-.12.03-.18.07-.36.1-.55.02-.06.04-.12.07-.17.01-.12.02-.24.04-.36.32-.19.44-.82.21-1.08.03-.12.05-.23.08-.35.01-.03.02-.06.02-.09.03-.18.07-.36.1-.54.48-.17.61-.91.27-1.43l.1-.63s.03-.02.03-.03c0-.02-.02-.05-.04-.07.04-.11.07-.22.11-.33.31.23.66.43.94.7.49.49,1.05.71,1.74.71,4.06,0,8.12,0,12.18,0,1.43,0,2.85,0,4.28,0,.53,0,1.07-.1,1.36-.6.3-.5.52-1.04.78-1.56.03-.06.15-.08.23-.12.07.14.14.29.21.43-.02.37-.04.73-.06,1.1-.53.41-.74.96-.74,1.61,0,18.45,0,36.91,0,55.36,0,1.3.18,2.62-.19,3.98h.94c.01.11.02.22.04.32-.06.44-.42.28-.67.34-.11-.02-.22-.03-.33-.05-.18-.01-.36-.02-.54-.03-.04,0-.07,0-.11,0-.36,0-.72,0-1.08,0-2.68,0-5.35,0-8.03,0-.36,0-.72,0-1.09.01-.11,0-.23,0-.34,0-.13,0-.26.01-.39.02-.09,0-.17-.02-.26-.03-.03-.03-.06-.04-.09-.02,0-.52,0-1.03,0-1.55.09-.07.26-.13.27-.21.04-.46.04-.92.04-1.38,0-9.43,0-18.86,0-28.29,0-3.5,0-7,0-10.5,0-.32-.06-.64-.05-.96.05-1.63.11-3.27.17-4.9.01-.3-.12-.44-.42-.42-.02-.21-.04-.42-.06-.63.07-.04.14-.09.21-.13-.13-.11-.26-.22-.39-.32-.03-.1-.05-.19-.08-.29-.03,0-.06,0-.09.01-.02.09-.03.18-.05.28-.04.04-.07.07-.11.11-.14.05-.27.09-.41.14.09.11.18.22.27.33-.03.17-.07.34-.1.51-.02.06-.05.12-.07.18-.05.19-.1.39-.15.58-.45-.03-.45.34-.51.61-.05.23-.08.52.29.58-.03.18-.06.36-.08.54-.22.14-.57.24-.63.43-.1.38-.02.8-.06,1.2-.02.24-.07.51-.21.69-.32.4-.38.81-.33,1.3.03.27.05.63-.09.83-.35.49-.37.97-.25,1.53.08.36.1.73-.32,1-.13.08-.23.46-.16.6.3.58,0,1.03-.24,1.48-.34.66-.33.77.31,1.13,0,.07,0,.14-.01.21l-.3.23c.08.07.15.14.23.21-.02.14-.04.29-.06.43-.02.05-.04.11-.06.16,0,.27,0,.54,0,.81-.22.16-.46.29-.63.49-.04.05.19.32.29.49,0,.04,0,.07-.01.11-.03.11-.05.22-.08.33-.02.11-.03.22-.05.32-.02.06-.04.11-.06.17,0,.09-.02.17-.02.26-.18.08-.47.13-.51.25-.08.25-.1.58.32.62,0,.07,0,.14,0,.21h-.04c-.09.06-.19.12-.28.18.05.05.11.1.16.15,0,.11,0,.22,0,.33-.02.06-.04.12-.07.18,0,.08-.01.17-.02.25-.29-.01-.58.01-.54.41.04.34.14.67.21,1,0,.11-.02.22-.02.33-.01,0-.04.02-.03.03,0,.03.02.05.03.07-.02.11-.05.22-.07.33-.17.01-.34.02-.56.03.02.27.05.48.05.69,0,.41.09.84-.32,1.16-.1.08-.13.28-.16.43-.08.47-.05.99-.24,1.41-.29.63-.32,1.27-.31,1.93,0,.12-.03.28-.11.34-.57.41-.27.95-.27,1.46,0,.24-.03.55-.18.71-.28.31-.31.58-.25.98.05.3,0,.7-.16.94-.32.46-.52.89-.32,1.44.16.43.11.76-.23,1.12-.46.49-.33,1.16.23,1.54-.04.29-.09.58-.13.86-.02.13-.04.26-.07.39,0,0,.02.02.02.02,0,0,0,.03,0,.03-.19.08-.38.17-.57.25.12.25.25.49.37.74-.07.4-.14.79-.21,1.19-.23.03-.61-.19-.59.28.02.41.13.82.21,1.22,0,.03,0,.07.01.1-.01.11-.03.22-.04.33-.03.04-.06.08-.09.12,0,.07-.01.14-.02.21-.46.04-.54.28-.46.71.09.48.2.96-.3,1.35-.38.3-.27,1.12.12,1.4,0,.03.02.07.03.1l-.13.22c-.6.12-.88.5-.74,1.24.08.45,0,.75-.34,1.02-.18.14-.34.29-.51.43.14.19.26.37.39.55-.43.01-.87.03-1.3.04-.04,0-.07,0-.11,0-3.01,0-6.01,0-9.02,0-.07-.02-.14-.03-.21-.05q.28-.64-.4-.89s-.09-.05-.14-.07c-.04-.11-.08-.22-.12-.32,0-.11,0-.21,0-.32.11-.2.25-.39.32-.6.21-.59-.42-.62-.65-.92l-.19-.98c.05-.04.11-.07.16-.11-.05-.04-.11-.07-.16-.11.15-.3,0-.49-.23-.65h0c-.04-.35-.08-.71-.12-1.06.29-.47.24-.67-.21-.89-.04-.23-.08-.46-.12-.69-.03-.09-.05-.18-.08-.28-.02-.1-.04-.21-.07-.31.1-.26.2-.52.28-.74-.23-.15-.39-.26-.54-.36-.01-.09-.02-.19-.03-.28-.02-.09-.05-.17-.07-.26,0-.07-.01-.15-.02-.22.52-.47.34-1.04.22-1.59-.08-.38-.32-.77-.28-1.12.06-.52,0-.94-.35-1.33-.09-.09-.1-.26-.13-.39-.09-.39-.18-.79-.27-1.18l-.05.03v-1.79c-.72-.17-.79-.33-.56-1.07.25-.82.13-1.09-.66-1.49-.03-.14-.07-.28-.1-.42.37-.35.57-.76.43-1.13-.3-.2-.48-.32-.65-.43v-.04s-.09-.09-.13-.13c-.02-.04-.04-.08-.07-.12l-.09-.11s.01-.08.02-.12c.14-.21.27-.42.41-.64-.26-.13-.46-.23-.66-.33,0-.11,0-.22,0-.32-.03-.04-.06-.07-.08-.11,0-.14-.01-.29-.02-.43-.03-.11-.06-.22-.09-.33,0-.04,0-.08,0-.11.2-.32.07-.56-.21-.75-.01-.04-.02-.07-.03-.11-.03-.04-.06-.07-.09-.11,0-.15.01-.3.02-.44.08-.48.16-.95.24-1.43-.31-.09-.5-.14-.69-.19,0-.04.01-.08.02-.12.09-.3.21-.59.27-.89.08-.4-.02-.72-.52-.72h0c.13-.22.1-.38-.18-.43,0-.11,0-.22,0-.32.06-.2.15-.4.18-.61.04-.29.07-.6.05-.89-.02-.28-.1-.56-.15-.84-.06-.34-.11-.69-.15-1.03-.04-.27-.05-.56-.11-.82-.07-.3-.22-.59-.26-.89-.05-.34.09-.72-.38-.89-.07-.02-.11-.21-.1-.32.02-.53.06-1.07.1-1.62-.43-.18-.8-.35-.61-.98.3-1.01.25-1.03-.71-1.51,0-.07-.02-.14-.03-.22.47-.36.5-.71.23-1.24-.16-.32-.17-.71-.26-1.07-.09-.34-.15-.7-.29-1.02-.08-.18-.29-.31-.45-.46,0-.06-.02-.11-.03-.17.11-.38.27-.76.33-1.15.08-.5-.12-.64-.64-.52-.1-.51-.21-1.02-.31-1.53.08-.04.18-.06.23-.12.1-.11.16-.24.24-.37-.09-.05-.2-.16-.26-.14-.13.05-.23.17-.34.27-.11.05-.22.1-.34.15-.55.01-.8.22-.58.5.17.22.4.39.6.58.03.54.06,1.09.08,1.63.01,1.33.02,2.67.04,4-.01.22-.02.43-.04.65-.05.04-.1.07-.16.11.05.04.1.07.16.11,0,.07,0,.14,0,.22-.07.22-.19.43-.19.65,0,9.76,0,19.52,0,29.28,0,2.51,0,5.02,0,7.52,0,.18.13.36.19.54,0,.29,0,.58,0,.87-.29.41-.58.81-.87,1.22.07.11.15.26.24.4-.18,0-.36.02-.54.02-3.38,0-6.75,0-10.13,0-.36,0-.72.03-1.08.05-.14-.02-.27-.04-.41-.06,0-.36.13-.46.51-.38.3.06.64-.03.96-.05,0-.05-.01-.11-.02-.16q-.8-.21-.8-1.06v-28.38c0-9.92,0-19.84,0-29.76,0-.28-.07-.57-.1-.85.24.07.47.2.71.2.55,0,1.09-.08,1.64-.08,4.74,0,9.48,0,14.21-.01.19,0,.39-.14.58-.21.07,0,.14,0,.22,0,.18.11.37.31.55.31.9-.04,1.8-.13,2.71-.2.11.37.25.73.32,1.11.17.97.31,1.94.47,2.92,0,.03.04.06.05.1.3,1.02.59,2.04.89,3.06.02.06-.02.14,0,.21.05.36.08.73.16,1.09.08.42.2.82.3,1.24.11.46.21.93.31,1.4.09.39.29.8.23,1.17-.09.63-.06.85.53,1.14.01.04.03.07.04.11.03.03.06.07.09.1,0,.1.02.21.03.31-.55.7-.43,1.58.31,1.74ZM240.33,90.87c.55.45.64.45.89.04-.32-.01-.61-.03-.89-.04Z"/>
  <path class="cls-1" d="M185.18,91.62c-1.22-.02-2.45-.03-3.67-.05-.7,0-1.4-.01-2.11-.02-.11-.11-.22-.21-.33-.32.06-.08.12-.16.18-.24h-5.32s.04.1.06.15c-.15.17-.3.34-.45.5-.38,0-.76.01-1.13.02l-.85-.03-.03-.03-.03.03c-1.14,0-2.28-.01-3.42-.02-.1,0-.19-.02-.29-.03-.17,0-.33,0-.5,0-.09-.01-.18-.02-.26-.03.09-.19.18-.39.32-.69-.44.06-.79.12-1.15.17.18.23.29.38.4.52-.22.03-.44.06-.66.09-.11,0-.22,0-.33,0-.17-.17-.31-.44-.52-.49-.41-.11-.85-.13-1.28-.13-2.14-.01-4.28,0-6.43,0h-14.34V30.82c.39.07.77.21,1.16.21,4.61.01,9.22.01,13.83,0,.14,0,.28-.14.42-.21.22,0,.43,0,.65,0,.28.3.48.3.76,0h.22c.29.35.58.35.87,0h.54c.14.07.28.21.42.21,5.94.01,11.88.01,17.82,0,.14,0,.28-.14.42-.21.9,0,1.81,0,2.71,0,.17.07.35.2.52.2.54,0,1.07-.06,1.61-.09,0,1.37,0,2.74,0,4.11-.1-.03-.23-.03-.3-.09-.74-.59-1.59-.78-2.52-.78-5.91.01-11.81-.03-17.72.02-2.53.02-5.07-.26-7.59.27-.62.13-1.23.21-1.76.57-.86.59-1.37,1.65-.99,2.82v2.6c-.36.93.03,1.71.62,2.35.56.62,1.37.79,2.18.62.49-.1.94-.38,1.41-.58,0,1.41,0,2.81,0,4.22-.15-.04-.34-.03-.45-.11-.68-.54-1.42-.54-2.22-.31-.66.19-1.31,1.3-1.1,1.94,0,.97,0,1.95,0,2.92-.07.12-.2.24-.2.36,0,.3.06.6.1.9.13,1.01,1.52,2.08,2.52,1.95.03,0,.05-.05.08-.07.25,0,.51,0,.76,0,.14.53.51.82,1.04.86.95.06,1.9.11,2.86.11,4.3.01,8.6.02,12.9,0,2.2,0,4.4-.06,6.6-.11.64-.01.79-.19.8-.86.14,0,.29,0,.43,0,.25.18.5.36.75.54,0,2.37.01,4.74.02,7.1,0,.2.01.39.02.59,0,.14,0,.28,0,.42-.08.23-.17.45-.25.68-.07,0-.14,0-.21,0-.18-.01-.37-.03-.55-.04,0-.47-.37-.3-.6-.3-4.96,0-9.93,0-14.89,0-2.27,0-4.55,0-6.82.01-.2,0-.39.19-.58.3-.18.01-.36.02-.54.03-.04-.01-.08-.03-.11-.04-.29-.13-.36-.11-.35.12.01.08.02.15.04.23,0,.07,0,.14,0,.22,0,.14,0,.29,0,.43,0,.22,0,.43,0,.65,0,1.23,0,2.46,0,3.68h-.05c-.13.07-.36.13-.38.23-.04.24-.12.56.28.63,0,.14,0,.29,0,.43-.23-.03-.46-.06-.68-.09.02.21-.04.48.07.6.4.44.32.94.31,1.45-.03.98-.01,1.96,0,2.93,0,.3-.06.64.35.74,0,.06.02.13.03.19l-.08.04s.09.05.13.08h0s.07.07.11.11c1.12-.03,2.24-.05,3.35-.08.08,0,.15,0,.23,0,.21,0,.42,0,.64,0,.04,0,.08-.02.12-.02.02-.01.03-.02.05-.03.49,0,.99,0,1.48,0,.14,0,.28,0,.42,0,.22,0,.43,0,.65,0,.16,0,.32.02.49.02,5.52,0,11.04,0,16.56,0,.83,0,1.66-.02,2.49-.02.07,0,.14,0,.22,0,.25.02.5.04.74.07,0,4.79,0,9.58,0,14.37,0,.2,0,.4,0,.59-.04.05-.07.09-.11.14,0,0,0,0,0,0-.1,0-.2,0-.3,0l-.32-.04ZM168.1,90.78c-.06-.04-.12-.09-.14-.07-.05.02-.08.08-.11.12.04.02.09.05.13.05.04,0,.07-.05.12-.09Z"/>
  <path class="cls-1" d="M167.3,91.59c.17,0,.33,0,.5,0,.1,0,.19.02.29.03,1.14,0,2.28.01,3.42.02,0,0,.03.01.03.01h.03c.28,0,.56,0,.85.02.04.33.08.66.13.98.02.18.03.36.05.53,0,.14,0,.29,0,.43,0,.04,0,.08.01.11,0,1.15.07,2.31-.06,3.44-.07.59-.44,1.16-.75,1.69-.94,1.56-2.26,2.74-3.82,3.66-.5.29-1.01.56-1.53.83-.1.05-.25.03-.37.04-.07.03-.14.05-.21.08h0c-.18.11-.36.22-.54.32-.8.24-1.6.5-2.41.7-.54.13-1.11.16-1.67.26-.17.03-.33.15-.5.23-.03,0-.06,0-.09,0-.33-.03-.66-.1-.99-.1-1.66,0-3.31.03-4.96-.01-.73-.02-1.46-.19-2.19-.3l-2.58-.35c-.12-.06-.23-.13-.35-.19-.5-.1-1-.2-1.5-.3-.08-.01-.15-.03-.23-.04-.03,0-.06-.02-.09-.03-.32-.07-.64-.13-.97-.2-.08-.03-.16-.05-.25-.08-.1-.02-.21-.05-.31-.07-.15-.01-.3-.03-.45-.04l-1.19-.34c-.33-.07-.65-.14-.98-.2-.3-.08-.61-.17-.91-.25-.06-.02-.11-.04-.17-.07-.26-.07-.51-.14-.77-.22l-.1-.02c-.45-.12-.9-.24-1.34-.35-.06-.03-.12-.05-.17-.08-.5-.15-1-.3-1.5-.45-.04-.02-.08-.04-.12-.06-.04,0-.08-.02-.12-.03-.83-.28-1.66-.57-2.5-.85-.06-.02-.12-.03-.17-.05-.67-.24-1.33-.47-2-.71-.04,0-.07-.02-.11-.03-.02-.03-.05-.04-.09-.04-.28-.1-.56-.2-.84-.3-.05-.03-.1-.05-.15-.08-.6-.23-1.21-.45-1.81-.68-.05-.02-.09-.04-.14-.06-.23-.11-.46-.23-.69-.34.77-.84,1.47-1.7,1.57-2.91.02-.23.3-.54.53-.64.32-.14.7-.14,1.06-.14,1.62-.01,3.25,0,4.87,0,.51,0,1.01.03,1.52,0,.89-.03,1.77-.1,2.66-.14.97-.04,1.94-.36,2.88.15.43.23.64.03.66-.42.12.03.23.05.35.08.8.19,1.6.37,2.41.56.06.02.11.04.17.07.78.24,1.55.43,2.39.32.38-.05.83-.03,1.15.14.45.24.87.34,1.36.33.49-.02.98,0,1.46.03.69.04,1.39.09,2.08.14.4-.03.8-.06,1.2-.09.54-.03,1.09-.05,1.63-.08.44-.03.87-.06,1.31-.1-.17.1-.33.21-.6.38.14.64.3,1.33.46,2.02.1.44.41.64.83.61,1.21-.09,2.44.23,3.63-.29.36-.16.58-.3.55-.65-.05-.62-.09-1.26-.28-1.85-.15-.45-.38-1.01-1.11-.8-.12.03-.29-.13-.44-.21.12-.13.23-.28.38-.39.19-.14.4-.23.61-.35.12-.09.24-.17.37-.26,0,0,.04-.03.04-.03.24-.23.47-.46.71-.69.21-.24.42-.49.63-.73.06-.15.12-.3.18-.45.06-.03.12-.06.17-.09Z"/>
  <path class="cls-1" d="M112.58,24.68c.43-.37.86-.73,1.29-1.1.33-.25.65-.5.98-.75.43-.33.87-.65,1.3-.98.26-.22.51-.44.77-.65.54-.43,1.08-.86,1.62-1.29.18-.14.36-.29.54-.43.4-.32.8-.65,1.2-.97.48-.4.95-.8,1.43-1.2.47-.4.94-.79,1.41-1.19.24-.2.48-.42.74-.59.27-.18.57-.33.85-.49,0,.23,0,.47,0,.7,0,4.34,0,8.69,0,13.03,0,1.48,0,2.96,0,4.44-.02.86-.04,1.73-.05,2.59-.12-.19-.29-.36-.37-.56-.14-.39-.71-.93-1.03-.92-.49.02-.98.07-1.47.07-2.84,0-5.67,0-8.51,0-.19,0-.37-.02-.6-.03.14-.21.23-.35.33-.48l-.07-.19c-.3.04-.6.09-.99.14-.44-.38-.58-1-.58-1.66-.01-1.39,0-2.78,0-4.16,0-.37-.04-.71-.55-.65-.02-.03-.03-.06-.03-.1,0-.08,0-.17-.01-.25,0-.03-.01-.06-.04-.08,0-.18,0-.35,0-.53.03-.07.05-.14.08-.21.04-.04.08-.08.12-.12.36-.28.71-.57,1.07-.85.05-.04.11-.09.16-.13.13-.13.26-.27.39-.4Z"/>
  <path class="cls-1" d="M111.16,87.9c-1.7-1.29-3.41-2.56-5.08-3.89-.79-.62-1.51-1.34-2.23-2.04-1.2-1.16-2.37-2.35-3.55-3.52.24-.05.63-.2.69-.12.29.42.49.08.63-.07.34-.37.72-.47,1.21-.47,2.12.02,4.24.02,6.35,0,1.19,0,2.37-.05,3.56-.06.12,0,.23.07.35.12.34.14.67.29,1.01.43.04-.06.08-.12.12-.18-.13-.15-.26-.3-.4-.44-.35-.39-.97-.54-1.03-1.18.47.33.93.67,1.4,1,.12.17.22.37.38.49.54.42,1.09.83,1.66,1.21.27.18.59.31.88.46h.02s.06.08.1.11c.48.31.96.63,1.44.94,1.98,1.27,3.97,2.54,5.95,3.81,1.42.86,2.84,1.72,4.28,2.56.51.3,1.06.53,1.58.8-.01.63-.22.82-.68.74-.54-.08-1.09-.09-1.63-.14-.4-.03-.81-.03-1.2-.1-.35-.06-.69-.26-1.04-.28-.83-.04-1.66-.01-2.49-.01-2.73,0-5.46,0-8.19,0-.76,0-1.29.55-1.2,1.16.21.08.39.14.57.21-.11.16-.22.32-.32.48-.39-.23-.77-.46-1.16-.7-.03-.03-.06-.05-.09-.08h-.05c-.06-.03-.12-.08-.18-.13-.22-.15-.44-.3-.67-.44-.03-.02-.07-.04-.1-.07h0c-.1-.07-.19-.15-.29-.22-.16-.11-.32-.21-.48-.32-.03-.03-.07-.05-.1-.08ZM113.02,88.46c-.07-.1-.1-.17-.15-.19-.04-.02-.11.03-.17.05.03.06.04.14.08.17.04.02.12,0,.23-.03Z"/>
  <path class="cls-1" d="M92.82,69.14c-.32-.51-.64-1.01-.97-1.52-.04-.07-.08-.14-.12-.21-.22-.36-.44-.73-.66-1.09-.1-.19-.2-.37-.3-.56-.03-.07-.06-.14-.09-.21-.07-.18-.14-.36-.21-.54-.05-.14-.09-.28-.14-.42-.05-.19-.08-.38-.14-.57-.62-2.02-.7-4.06-.27-6.13h0c.03-.07.05-.15.08-.23.3-.75.5-1.56.93-2.22.86-1.34,1.95-2.51,3.35-3.3,1.35-.77,2.77-1.42,4.16-2.13.23-.05.46-.1.69-.15.26-.08.52-.16.77-.24l.31-.08s.07,0,.11-.01c.08-.01.15-.02.23-.03.04-.02.08-.04.11-.05.18-.04.35-.09.53-.13l.23-.04c.22-.03.43-.07.65-.1.05-.02.09-.03.14-.05.06,0,.12-.01.18-.02.22-.06.44-.12.66-.18l.43-.04c.13.02.25.03.54.07-.22.17-.35.24-.45.34-2.76,2.41-4.33,5.34-3.98,9.1.05.58.14,1.16.27,1.73.07.32.3.59.4.91.11.34.07.73.22,1.05.39.89.84,1.75,1.27,2.63.06.11.13.22.19.33l.25.43c.01.17-.03.38.05.51.28.51.6.99.97,1.59-.36.07-.63.16-.89.17-1.71.01-3.43.02-5.14,0-.57,0-.98.28-1.05.73-.14.84-.8,1.09-1.37,1.45-.32.2-.64.28-.93-.13-.1-.14-.41-.14-.62-.2-.05-.04-.09-.07-.14-.11-.03-.07-.07-.14-.1-.21,0,0,0,0,0,0-.03-.04-.07-.07-.1-.11Z"/>
  <path class="cls-1" d="M114.27,89.94c.11-.16.22-.32.32-.48-.18-.07-.36-.13-.57-.21-.09-.61.45-1.16,1.2-1.16,2.73,0,5.46,0,8.19,0,.83,0,1.66-.03,2.49.01.35.02.69.22,1.04.28.39.07.8.07,1.2.1.54.04,1.09.05,1.63.14.47.07.67-.12.68-.74,2.32,1.09,4.63,2.18,6.96,3.25.58.27,1.21.44,1.81.65.49.22.97.48,1.48.65,1.44.5,2.89.96,4.34,1.44.13.04.28.06.42.08,0,0,.04,0,.04,0,.05,0,.1.01.15.02-.02.45-.23.66-.66.42-.94-.51-1.92-.2-2.88-.15-.89.04-1.77.11-2.66.14-.5.02-1.01,0-1.52,0-1.62,0-3.25,0-4.87,0-.36,0-.74,0-1.06.14-.23.1-.51.4-.53.64-.1,1.21-.81,2.07-1.57,2.91-.56-.23-1.14-.42-1.68-.68-2.9-1.41-5.78-2.85-8.69-4.24-1.11-.53-2.05-1.32-3.16-1.83-.29-.17-.58-.35-.87-.52-.41-.28-.82-.57-1.23-.85Z"/>
  <path class="cls-1" d="M93.17,69.58c.21.06.52.06.62.2.29.41.61.34.93.13.57-.36,1.23-.61,1.37-1.45.07-.46.48-.74,1.05-.73,1.71.03,3.43.02,5.14,0,.27,0,.54-.1.89-.17-.37-.6-.69-1.08-.97-1.59-.08-.14-.03-.34-.05-.51.12.15.24.3.36.44.02.03.04.05.07.08v.02s.07.08.1.13c.02.04.05.07.07.11.05.07.1.14.15.21.12.18.24.36.37.54.02.03.05.06.07.09.66.83,1.29,1.68,1.99,2.47.87.98,1.8,1.9,2.7,2.85l.08.11c.61.54,1.22,1.09,1.83,1.63.26.22.52.44.77.66.26.23.52.47.79.7.42.34.85.67,1.28,1.01.06.64.68.79,1.03,1.18.13.15.26.3.4.44-.04.06-.08.12-.12.18-.34-.14-.67-.29-1.01-.43-.11-.05-.23-.12-.35-.12-1.19.01-2.37.06-3.56.06-2.12.01-4.24.01-6.35,0-.48,0-.87.1-1.21.47-.14.15-.34.49-.63.07-.06-.08-.45.08-.69.12-.84-.9-1.68-1.81-2.53-2.71-.03-.03-.05-.06-.08-.08-1.38-1.81-2.76-3.62-4.15-5.44-.03-.04-.05-.07-.08-.11-.1-.18-.2-.36-.3-.54Z"/>
  <path class="cls-1" d="M252.05,28.53c-.08.04-.19.06-.23.12-.27.52-.48,1.06-.78,1.56-.3.5-.83.6-1.36.6-1.43.01-2.85,0-4.28,0-4.06,0-8.12,0-12.18,0-.69,0-1.25-.23-1.74-.71-.27-.27-.62-.47-.94-.7.06-.36.12-.72.18-1.08.12-.66.24-1.33.36-1.99.02-.06.04-.11.07-.17,0-.07.02-.15.03-.22.04-.11.07-.21.11-.32.25-.04.49-.1.74-.11,5.85,0,11.7,0,17.55,0,.38,0,.76-.02,1.14-.03.14,0,.29,0,.43,0,.07,0,.15,0,.22,0,.07-.03.15-.05.22-.08.08.07.24.13.24.2.05.73.07,1.45.1,2.18,0,.14-.01.28-.02.43.03.04.05.08.08.11.02.07.05.14.07.2Z"/>
  <path class="cls-1" d="M124.72,28.77c0-4.34,0-8.69,0-13.03,0-.23,0-.47,0-.7.18.08.36.15.55.23.15.14.3.27.44.41.65.48,1.29.95,1.94,1.43.18.14.37.28.55.42,1.28,1.01,2.55,2.01,3.82,3.02.81.64,1.59,1.32,2.4,1.95.67.52,1.39.96,2.06,1.48.5.38.95.83,1.43,1.24.28.24.63.42.86.69.19.22.25.55.37.83-.21.02-.53-.04-.62.07-.26.35-.58.37-.96.36-3.72,0-7.45,0-11.17,0-.32,0-.56.03-.74.37-.25.45-.62.84-.94,1.26Z"/>
  <path class="cls-1" d="M194.17,28.01c0-.25,0-.51,0-.76.01-.36.03-.72.04-1.08.03-.07.05-.15.08-.22.25-.14.5-.28.75-.42.07-.01.14-.03.21-.04.04.01.08.03.12.04.21.03.42.09.62.09,5.61,0,11.23.02,16.84-.01.95,0,1.81.12,2.58.66l.02.32c.03.11.06.22.09.33,0,.11.01.21.02.32-.39.55-.75,1.09-1.39,1.43-.55.29-.76,1-.58,1.54-.12.06-.24.16-.37.17-.48.02-.96.01-1.43.01-4.75,0-9.5.01-14.25,0-1.11,0-1.65-.05-2.08-1.47-.03-.09-.39-.19-.42-.15-.24.3-.52.15-.79.11,0-.1-.02-.21-.03-.31,0-.04,0-.09,0-.13-.01-.14-.02-.28-.04-.42Z"/>
  <path class="cls-1" d="M158.38,49.87c7.97,0,15.94,0,23.91,0,.05,0,.11-.01.16-.02.24.02.49.03.74.05v1.48c-.19.14-.38.27-.57.41-.13.1-.23.26-.38.34-.58.31-1.34.34-1.62,1.09-.02.05-.12.1-.18.09-.77-.04-1.54-.08-2.31-.16-.4-.04-.79-.25-1.18-.25-3.47-.02-6.94-.04-10.41,0-1.14.02-2.28-.18-3.45.25-.8.3-1.78.13-2.68.16-.1,0-.24-.03-.29-.1-.4-.54-.83-.41-1.3-.1-.39.25-.76.1-.77-.34-.01-.42-.22-.6-.57-.75-.16-.07-.36-.22-.4-.37-.27-.91.33-1.71,1.3-1.8Z"/>
  <path class="cls-1" d="M224.02,62.65c.76-.48,1.54-.55,2.42-.27.61.2.96.63,1.08,1.15.29,1.34.35,2.7-.03,4.04-.03.12-.12.25-.1.36.21,1.16-.87,1.51-1.4,2.19-.12.15-.49.08-.7.19-.95.53-1.99.31-2.99.36-.59.03-1.08-.08-1.51-.54-.26-.28-.69-.41-.96-.68-.28-.28-.61-.63-.66-.98-.23-1.69-.24-3.4.08-5.09.1-.53.45-.83.99-.83.55,0,1.09.07,1.64.09.17,0,.34-.06.51-.09.05,0,.1,0,.14,0,.23,1.04.46,2.09.68,3.13.06,0,.12,0,.17,0l.3-1.72s.01-.07.02-.1c.11-.4.22-.8.32-1.19Z"/>
  <path class="cls-1" d="M195.03,30.93c.04.28.1.57.1.85,0,9.92,0,19.84,0,29.76v28.38q0,.85.8,1.06c0,.05.01.11.02.16-.32.02-.66.11-.96.05-.38-.08-.51.02-.51.38-.03.02-.06.03-.09.05-.07-.02-.13-.04-.2-.06,0-.03-.02-.07-.04-.1.01-.03.02-.06,0-.1.01-.14.03-.29.04-.43v-.23c0-.07,0-.13,0-.2,0-.08,0-.16,0-.23-.01-.43-.02-.86-.03-1.29,0-.07,0-.14,0-.22,0-.27.03-.54.03-.81,0-4.86,0-9.72,0-14.58,0-3.06-.02-6.12-.02-9.18,0-.32,0-.65,0-.97,0-.18.02-.36.02-.54,0-8.47,0-16.93,0-25.4,0-2.36.02-4.72.03-7.08.27.25.54.5.81.76Z"/>
  <path class="cls-1" d="M158.38,49.87c-.97.09-1.57.89-1.3,1.8.05.15.24.3.4.37.35.15.55.33.57.75.01.44.39.59.77.34.47-.31.9-.43,1.3.1.05.07.19.1.29.1.9-.03,1.88.14,2.68-.16,1.17-.44,2.31-.24,3.45-.25,3.47-.05,6.94-.03,10.41,0,.39,0,.78.21,1.18.25.77.08,1.54.11,2.31.16.06,0,.17-.04.18-.09.28-.75,1.04-.78,1.62-1.09.14-.08.25-.23.38-.34.18-.14.38-.28.57-.41.02.04.03.08.05.12,0,.17,0,.35,0,.52,0,.08,0,.15,0,.23v.64c0,.15,0,.3,0,.45-.02.03-.02.07,0,.1v.33s0,.07,0,.11h-.04c-.25.25-.5.5-.75.75-.14,0-.29,0-.43,0-8.03,0-16.06,0-24.09,0-.26-.53-.75-.42-1.19-.43-.07,0-.14,0-.22,0-.21-.41-.41-.82-.62-1.22-.1-.19-.17-.41-.3-.58-.82-1.05-.73-2.21-.4-3.38.21-.75.8-1.07,1.43-.88.54.17,1.07.36,1.6.54.05.39.1.79.15,1.18Z"/>
  <path class="cls-1" d="M252.2,91.01h-.94c.38-1.36.19-2.68.19-3.98.01-18.45,0-36.91,0-55.36,0-.65.21-1.2.74-1.61,0,.18.02.36.02.54,0,19.94,0,39.88,0,59.81,0,.2-.01.4-.02.59Z"/>
  <path class="cls-1" d="M185.01,36.56c.02.83.04,1.66.07,2.49,0,.22,0,.44,0,.66-.14.08-.28.22-.43.22-.88,0-1.76-.01-2.65-.03.33-.47.67-.92.97-1.4.29-.45.19-.92-.31-1.1-.56-.2-1.17-.39-1.76-.39-5.97-.03-11.93-.02-17.9-.01-.2,0-.39.05-.59.07-.78.08-1.58.29-2.35.22-.89-.08-1.71-.13-2.48.4-.06.04-.14.06-.21.06-.58,0-.94.29-1.13.82-.23.62.02,1.13.37,1.61.06.09.38.14.4.1.27-.47.57-.38.91-.09.05.04.2-.03.3-.04,0,.03.02.06.04.09,0,.26.02.51.03.77-.68.09-1.36.3-2.06.02-.1-.04-.25,0-.37.03-.73.15-1.19-.14-1.32-.88-.18-1.03-.22-1.99.61-2.84.55-.56.64-.67,1.41-.42.16.05.37,0,.55-.05.64-.16,1.28-.52,1.9-.47,1.21.09,2.35.08,3.44-.52.24-.13.55-.17.83-.17.5,0,1,.09,1.5.09,4.88,0,9.75,0,14.63,0,1.11,0,2.14.32,3.16.72.39.15.81.28,1.22.28.39,0,.78-.16,1.18-.25ZM155.74,39l-.19.02c.01.18.02.35.03.53.07,0,.14-.01.2-.02-.01-.18-.03-.35-.04-.53Z"/>
  <path class="cls-1" d="M239.32,43.38c.3-.02.43.13.42.42-.06,1.63-.12,3.27-.17,4.9,0,.32.05.64.05.96,0,3.5,0,7,0,10.5,0,9.43,0,18.86,0,28.29,0,.46,0,.92-.04,1.38,0,.08-.18.14-.27.21,0-.16-.02-.32-.02-.49,0-8.82,0-17.64,0-26.46,0-5.88,0-11.77,0-17.65,0-.18-.01-.36-.02-.54.01-.51.02-1.01.04-1.52Z"/>
  <path class="cls-1" d="M222.52,62.54s-.1,0-.14,0c-.48-.5-.7-1.09-.77-1.78-.04-.43-.18-.86-.28-1.29-.02-.07-.08-.13-.09-.2-.17-.99-.32-1.99-.49-2.98-.05-.27-.15-.54-.22-.81-.11-.48-.21-.97-.32-1.45-.2-.96-.43-1.91-.6-2.88-.11-.65-.1-1.32-.18-1.98-.07-.53-.25-1.04-.29-1.57-.02-.22.21-.45.33-.68.17.94.34,1.87.52,2.81.1.5.22,1,.32,1.5.36,1.83.72,3.66,1.08,5.5.08.38.16.76.24,1.14.1.43.19.87.29,1.3.05.29.11.57.16.86.09.44.17.87.26,1.31.06.29.11.57.17.86,0,.11,0,.22,0,.32Z"/>
  <path class="cls-1" d="M158.33,47.71c0,.18,0,.37,0,.55-.02.07-.05.14-.07.21,0,.07-.01.14-.02.21-.53-.18-1.06-.37-1.6-.54-.63-.2-1.21.13-1.43.88-.33,1.17-.42,2.33.4,3.38.13.17.2.38.3.58.21.41.41.82.62,1.22-.41.01-.81.03-1.11-.36-.53-.7-.92-1.43-.85-2.34,0-.97,0-1.95,0-2.92.7-1.66.88-1.8,2.43-1.72.22.01.43.24.63.37.24.15.47.32.7.48Z"/>
  <path class="cls-1" d="M207.28,89.06c-.07-.18-.19-.36-.19-.54-.01-2.51,0-5.02,0-7.52,0-9.76,0-19.52,0-29.28,0-.22.13-.43.19-.65,0,.31.02.61.02.92,0,12.16,0,24.32,0,36.49,0,.2-.01.4-.02.59Z"/>
  <path class="cls-1" d="M231.61,78.78c-.55-.38-.69-1.05-.23-1.54.34-.36.39-.69.23-1.12-.2-.54,0-.98.32-1.44.17-.24.21-.64.16-.94-.07-.39-.03-.67.25-.98.15-.16.18-.47.18-.71,0-.51-.29-1.05.27-1.46.08-.06.12-.22.11-.34,0-.66.02-1.29.31-1.93.19-.42.16-.94.24-1.41.03-.15.05-.35.16-.43.41-.32.31-.75.32-1.16,0-.21-.03-.42-.05-.69.21-.01.39-.02.56-.03,0,.07,0,.13-.01.2-.03.04-.06.08-.09.12-.08.54-.17,1.08-.25,1.62-.02.11-.04.22-.06.33-.01.1-.03.19-.04.29-.03.12-.05.24-.08.36-.05.3-.1.61-.15.91-.1.31-.19.62-.29.93-.04.25-.07.51-.11.76-.04.14-.08.29-.11.43-.08.6-.16,1.2-.24,1.81-.02.04-.03.09-.05.13-.38,1.9-.76,3.8-1.14,5.7-.04.2-.13.4-.2.6Z"/>
  <path class="cls-1" d="M159.33,63.93c.19-.1.39-.29.58-.3,2.27-.02,4.55-.01,6.82-.01,4.96,0,9.93,0,14.89,0,.23,0,.59-.17.6.3-.14,0-.29.02-.43.02-7.34,0-14.69,0-22.03,0-.14,0-.29-.01-.43-.02Z"/>
  <path class="cls-1" d="M216.07,29.74c.22.42.03,1.02.55,1.32-.06.11-.12.23-.18.34.07.38.14.77.2,1.16.04.14.07.28.11.43.02.11.04.22.07.34.05.32.11.65.16.97.06.25.13.5.19.76.05.32.1.65.14.97.1.43.2.86.3,1.3.03.14.06.28.1.43,0,.04,0,.09,0,.13.01.1.02.21.04.31.1.43.19.87.29,1.3.04.22.08.43.12.65.07.32.15.65.22.97.08.47.16.94.23,1.41.03.11.05.22.08.33l.2,1.51c-.59-.29-.62-.51-.53-1.14.05-.37-.15-.78-.23-1.17-.1-.47-.2-.93-.31-1.4-.1-.41-.22-.82-.3-1.24-.07-.36-.11-.73-.16-1.09,0-.07.03-.15,0-.21-.29-1.02-.59-2.04-.89-3.06,0-.03-.04-.06-.05-.1-.16-.97-.3-1.95-.47-2.92-.07-.38-.21-.74-.32-1.11.14-.4.28-.79.42-1.19Z"/>
  <path class="cls-1" d="M236.05,56.05c-.64-.36-.65-.47-.31-1.13.23-.45.54-.9.24-1.48-.07-.14.03-.52.16-.6.42-.26.4-.64.32-1-.13-.56-.1-1.03.25-1.53.14-.2.12-.55.09-.83-.05-.48,0-.9.33-1.3.14-.18.19-.45.21-.69.04-.4-.05-.83.06-1.2.05-.19.41-.29.63-.43-.08.57-.16,1.15-.24,1.72-.02.15-.04.29-.06.44-.07.32-.15.65-.22.97-.01.07-.02.14-.03.21-.02.18-.05.36-.07.54-.08.4-.17.79-.25,1.19-.02.07-.05.15-.07.22-.07.43-.14.87-.21,1.3,0,.07-.02.14-.02.22-.08.36-.16.72-.25,1.08l-.05.33c-.16.65-.31,1.3-.47,1.95Z"/>
  <path class="cls-1" d="M213.46,71.53c.79.4.91.67.66,1.49-.23.74-.16.9.56,1.07v1.79l.05-.03c.09.39.17.79.27,1.18.03.13.05.3.13.39.36.39.41.81.35,1.33-.04.36.2.74.28,1.12.12.55.3,1.13-.22,1.59-.03-.03-.05-.05-.09-.06-.04-.19-.09-.39-.13-.58-.18-.77-.35-1.54-.53-2.31-.01-.06-.02-.12-.03-.18-.05-.3-.1-.59-.15-.89-.03-.1-.05-.2-.08-.31-.15-.71-.31-1.43-.45-2.14-.22-1.16-.42-2.32-.64-3.48Z"/>
  <path class="cls-1" d="M173.55,91.64c.15-.17.3-.34.45-.5-.02-.05-.04-.1-.06-.15h5.32c-.06.08-.12.16-.18.24-.3,0-.61-.05-.9.02-.24.06-.44.25-.65.39-.24.02-.49.03-.73.05-.18,0-.36,0-.54,0-.9-.01-1.81-.03-2.71-.04Z"/>
  <path class="cls-1" d="M228.56,91.55c-.13-.18-.26-.36-.39-.55.16-.14.33-.29.51-.43.33-.27.42-.57.34-1.02-.14-.74.14-1.12.74-1.24,0,.04,0,.07.01.11-.01.14-.02.28-.04.42-.02.07-.05.15-.07.22-.11.72-.22,1.44-.33,2.17-.15.12-.3.24-.45.36-.07,0-.14,0-.21,0-.04-.02-.07-.03-.11-.05Z"/>
  <path class="cls-1" d="M229.86,87.98c-.39-.29-.5-1.1-.12-1.4.5-.4.39-.88.3-1.35-.08-.42,0-.67.46-.71,0,.14,0,.29,0,.43,0,0,0,0,0,0,0,0-.03.01-.03.02,0,.02,0,.04,0,.07-.06.3-.12.59-.18.89-.04.22-.08.43-.11.65-.01.07-.02.14-.04.22-.03.11-.05.22-.08.33,0,0,0,0,0,0l-.03.03.02.03c-.04.24-.08.49-.12.73-.03.02-.06.04-.09.06Z"/>
  <path class="cls-1" d="M226.29,50.96c.46.12.3.41.23.71-.14.58-.27,1.17-.34,1.76-.04.31-.13.47-.45.45.04-.32.07-.65.11-.97.08-.43.17-.87.25-1.3.07-.22.13-.43.2-.65Z"/>
  <path class="cls-1" d="M207.31,90.47c0,.16-.04.32-.01.47.07.52-.13.73-.65.6-.09-.15-.17-.29-.24-.4.29-.41.58-.81.87-1.22.01.18.02.36.04.54Z"/>
  <path class="cls-1" d="M213.36,71.11s-.05-.02-.08-.02c-.01-.07-.03-.14-.04-.21-.03-.04-.06-.08-.09-.11,0-.03,0-.07-.02-.1,0-.37,0-.75,0-1.12.18.12.36.24.65.43.14.38-.06.78-.43,1.13Z"/>
  <path class="cls-1" d="M219.35,46.62c-.74-.16-.86-1.04-.31-1.74.1.58.21,1.16.31,1.74Z"/>
  <path class="cls-1" d="M182.45,54.64c.25-.25.5-.51.75-.76,0,.43,0,.87,0,1.3-.25-.18-.5-.36-.75-.54Z"/>
  <path class="cls-1" d="M86.64,91.69c-.86,0-1.73,0-2.59-.02-.19,0-.39-.05-.58-.08,1.51,0,3.02-.01,4.53-.02.27,0,.57.04.61-.35.03.15.05.3.08.45-.11,0-.21.02-.32.03-.51,0-1.01,0-1.52,0-.07,0-.14,0-.22,0Z"/>
  <path class="cls-1" d="M177.53,91.63c.22-.13.42-.33.66-.39.28-.07.6-.02.9-.02.11.11.22.21.33.32-.4.03-.8.05-1.21.08-.14,0-.29,0-.43,0-.06-.01-.11-.02-.17-.04-.02.03-.04.04-.07.05Z"/>
  <path class="cls-1" d="M227.28,45.99c.42.46.25,1.27-.32,1.51-.01-.04-.03-.07-.04-.11.05-.23.09-.46.14-.69.02-.06.04-.12.07-.17.01-.12.03-.25.04-.37.02-.06.05-.12.07-.18h.04Z"/>
  <path class="cls-1" d="M217.39,90.58s.09.05.14.07q.68.25.4.89s-.07.03-.11.04c-.14-.08-.29-.17-.43-.25,0-.25,0-.5,0-.75Z"/>
  <path class="cls-1" d="M230.63,83.77c-.07-.41-.18-.81-.21-1.22-.02-.47.36-.25.59-.28-.03.14-.05.27-.08.41-.04.25-.08.5-.12.75-.02.08-.04.15-.05.23-.04.04-.09.08-.13.12Z"/>
  <path class="cls-1" d="M234.53,63.84c-.07-.33-.17-.66-.21-1-.05-.4.24-.42.54-.41,0,.11,0,.21-.01.32-.06.17-.12.34-.18.51-.04.19-.09.39-.13.58Z"/>
  <path class="cls-1" d="M230.21,30.83c.04-.12.09-.24.13-.35.35.52.21,1.26-.27,1.43,0-.14,0-.29.01-.43.04-.21.08-.43.12-.64Z"/>
  <path class="cls-1" d="M231.22,81.07c-.12-.25-.25-.49-.37-.74.19-.08.38-.17.57-.25-.07.33-.13.66-.2.99Z"/>
  <path class="cls-1" d="M235.1,61.14c-.42-.04-.4-.38-.32-.62.04-.13.33-.17.51-.25-.04.28-.07.57-.11.85-.02.01-.05.02-.08.02Z"/>
  <path class="cls-1" d="M226.8,48.52c.33.8.3.95-.28,1.25.02-.18.04-.36.06-.54.07-.24.14-.47.22-.71Z"/>
  <path class="cls-1" d="M227.7,43.94c.29.6.2,1.07-.25,1.28.01-.23.03-.46.04-.69.02-.06.04-.11.07-.17.05-.14.09-.28.14-.42Z"/>
  <path class="cls-1" d="M225.62,54.52c0,.4.03.81,0,1.21,0,.11-.19.21-.28.32.1-.51.2-1.02.29-1.53Z"/>
  <path class="cls-1" d="M235.5,59.08c-.1-.17-.33-.44-.29-.49.17-.2.41-.33.63-.49-.11.32-.22.65-.34.97Z"/>
  <path class="cls-1" d="M158.27,70.01s-.02.07-.04.11c-.41-.07-.33-.39-.28-.63.02-.1.24-.17.38-.25-.02.26-.04.51-.05.77Z"/>
  <path class="cls-1" d="M226.29,50.43c.07-.11.13-.23.2-.34.22.27.16.45-.17.55,0-.07-.01-.14-.02-.21Z"/>
  <path class="cls-1" d="M235.97,56.7c-.08-.07-.15-.14-.23-.21l.3-.23c-.02.15-.05.29-.07.44Z"/>
  <path class="cls-1" d="M234.95,61.68c-.05-.05-.11-.1-.16-.15.09-.06.19-.12.28-.18-.04.11-.08.22-.12.33Z"/>
  <path class="cls-1" d="M226.79,48.25c.03-.08.06-.16.09-.24.22.15.23.27-.05.35-.01-.04-.02-.07-.03-.11Z"/>
  <path class="cls-1" d="M231.41,80.04c.02-.13.04-.26.07-.39-.02.13-.04.26-.07.39Z"/>
  <path class="cls-1" d="M235.42,59.52c.03-.11.05-.22.08-.33-.03.11-.05.22-.08.33Z"/>
  <path class="cls-1" d="M225.01,57.66s.09.08.14.13c-.06.03-.11.07-.17.1,0-.08.02-.15.02-.23Z"/>
  <path class="cls-1" d="M111.74,88.3c.1.07.19.15.29.22-.1-.07-.19-.15-.29-.22Z"/>
  <path class="cls-1" d="M225.64,54.31c.05.03.11.06.16.09-.06.04-.12.08-.19.11,0-.07.02-.14.03-.21Z"/>
  <path class="cls-1" d="M207.28,50.85c-.05-.04-.1-.07-.16-.11.05-.04.1-.07.16-.11,0,.07,0,.14,0,.22Z"/>
  <path class="cls-1" d="M158.25,48.47c.02-.07.05-.14.07-.21,0,.07,0,.13.01.2-.03,0-.05,0-.08.01Z"/>
  <path class="cls-1" d="M72.1,41.83c.07,0,.14,0,.21,0-.07,0-.14,0-.21,0Z"/>
  <path class="cls-1" d="M112.02,88.52s.07.04.1.07c-.03-.02-.07-.04-.1-.07Z"/>
  <path class="cls-1" d="M234.88,62.18c.02-.06.04-.12.07-.18-.02.06-.04.12-.07.18Z"/>
  <path class="cls-1" d="M113.02,89.17s.06.05.09.08c-.03-.03-.06-.05-.09-.08Z"/>
  <path class="cls-1" d="M234.5,64.27s-.02-.05-.03-.07c0,0,.02-.02.03-.03.02.04.02.07,0,.1Z"/>
  <path class="cls-1" d="M227.39,45.43s-.02-.07-.03-.11c.03-.02.06-.05.09-.07-.02.06-.04.12-.06.17Z"/>
  <path class="cls-1" d="M227.9,43.1c-.02.06-.04.11-.07.17.02-.06.04-.11.07-.17Z"/>
  <path class="cls-1" d="M230.52,84.31s.06-.08.09-.12c-.03.04-.06.08-.09.12Z"/>
  <path class="cls-1" d="M235.31,60.01c.02-.06.04-.11.06-.17-.02.06-.04.11-.06.17Z"/>
  <path class="cls-1" d="M224.97,58.07s-.03.09-.05.13c.02-.04.03-.09.05-.13Z"/>
  <path class="cls-1" d="M172.59,93.61s.06.07.08.1c-.02,0-.05.01-.07.01,0-.04,0-.08-.01-.11Z"/>
  <path class="cls-1" d="M235.85,57.3c.02-.05.04-.11.06-.16-.02.05-.04.11-.06.16Z"/>
  <path class="cls-1" d="M88.57,79.21c-.1-.48-.29-.96-.29-1.45-.02-3.62-.01-7.25-.01-10.87,0-.93-.01-1.86,0-2.78.02-.93.1-1.87.1-2.8,0-1.06-.1-2.12-.09-3.18.01-2.47.06-4.93.11-7.39,0-.15.13-.29.19-.43,0,5.11.01,10.23.01,15.34,0,4.52-.01,9.04-.02,13.56Z"/>
  <path class="cls-1" d="M88.57,79.21c0-4.52.02-9.04.02-13.56,0-5.11,0-10.23-.01-15.34,0-.22,0-.43,0-.65,0-.5.02-1.01.02-1.51.03,0,.06,0,.08-.01.01.18.02.37.04.55,0,3.41,0,6.81,0,10.22,0,10.38,0,20.76,0,31.14,0,.14-.01.29-.02.43-.03-.19-.09-.38-.09-.57-.01-1.47-.02-2.94-.02-4.42,0-1.84,0-3.68,0-5.52,0-.07,0-.14,0-.21,0-.18,0-.36,0-.54Z"/>
  <path class="cls-1" d="M88.57,85.49c0,1.47,0,2.94.02,4.42,0,.19.06.38.09.57-.04.07-.07.14-.11.21-.1-.13-.28-.27-.28-.4.01-1.47.04-2.94.09-4.42,0-.13.12-.25.19-.38Z"/>
  <path class="cls-1" d="M88.59,48.15c0,.5-.02,1.01-.02,1.51-.42-.44-.41-1.17.02-1.51Z"/>
  <path class="cls-1" d="M88.57,79.75c0,.07,0,.14,0,.21-.05-.04-.1-.07-.15-.11.05-.04.1-.07.16-.11Z"/>
  <path class="cls-1" d="M103.56,41.84h-.05s-.05,0-.05,0c.03,0,.07,0,.1,0Z"/>
  <path class="cls-1" d="M102.15,41.83h-.05s-.05,0-.05,0c.03,0,.07,0,.1,0Z"/>
  <path class="cls-1" d="M90.86,41.83h-.05s-.05,0-.05,0c.03,0,.07,0,.1,0Z"/>
  <path class="cls-1" d="M89.56,41.83h-.05s-.05,0-.05,0c.03,0,.07,0,.1,0Z"/>
  <path class="cls-1" d="M89.13,41.83l-.05.02h-.05s.07-.02.1-.02Z"/>
  <path class="cls-1" d="M194.2,29.3c0-.14.02-.28.03-.43.27.04.55.19.79-.11.03-.04.39.06.42.15.43,1.42.97,1.46,2.08,1.47,4.75.02,9.5,0,14.25,0,.48,0,.96,0,1.43-.01.13,0,.25-.11.37-.17-.19-.54.02-1.25.58-1.54.64-.34,1.01-.88,1.39-1.43.17.76.34,1.53.51,2.29-.15.13-.34.23-.44.39-.37.65-.91.93-1.65.9-.52-.02-1.05,0-1.57,0-.07,0-.14,0-.22,0-5.15,0-10.3,0-15.45.01-.71,0-1.31-.12-1.79-.69-.17-.2-.42-.42-.71-.11,0-.2-.02-.41-.03-.61.01-.01.03-.03.03-.04,0-.03-.02-.06-.03-.09Z"/>
  <path class="cls-1" d="M211.23,61.24c-.29-1.34-.57-2.68-.86-4.02-.28-1.29-.57-2.58-.84-3.88-.17-.83-.31-1.67-.46-2.5.96.47,1.01.5.71,1.51-.19.63.18.79.61.98-.04.55-.08,1.08-.1,1.62,0,.11.04.3.1.32.47.16.33.55.38.89.04.3.19.59.26.89.06.27.07.55.11.82.05.34.1.69.15,1.03.05.28.13.56.15.84.02.3,0,.6-.05.89-.03.21-.12.4-.18.61Z"/>
  <path class="cls-1" d="M194.23,30.04c.29-.31.54-.09.71.11.48.57,1.08.69,1.79.69,5.15-.02,10.3-.01,15.45-.01-.19.07-.39.21-.58.21-4.74.01-9.48,0-14.21.01-.55,0-1.09.09-1.64.08-.24,0-.47-.13-.71-.2-.27-.25-.54-.5-.81-.76,0-.05,0-.09,0-.14Z"/>
  <path class="cls-1" d="M209.04,50.63c-.26-1.26-.51-2.53-.77-3.79.15.15.37.28.45.46.14.32.21.67.29,1.02.09.36.09.75.26,1.07.27.52.24.87-.23,1.24Z"/>
  <path class="cls-1" d="M212.39,30.82c.52,0,1.05-.02,1.57,0,.74.03,1.28-.25,1.65-.9.09-.16.29-.26.44-.39,0,.07,0,.14.01.2-.14.4-.28.79-.42,1.19-.9.07-1.8.16-2.71.2-.18,0-.37-.2-.55-.31Z"/>
  <path class="cls-1" d="M208.05,45.98c-.03-.32-.07-.65-.1-.97.51-.12.72.02.64.52-.06.39-.22.77-.33,1.15-.07-.23-.13-.47-.2-.7Z"/>
  <path class="cls-1" d="M217.27,89.93c-.11-.5-.22-1.01-.33-1.51.24.29.86.32.65.92-.07.21-.21.4-.32.6Z"/>
  <path class="cls-1" d="M212.1,65.35c-.15-.54-.3-1.08-.45-1.62.19.05.38.1.69.19-.08.47-.16.95-.24,1.43Z"/>
  <path class="cls-1" d="M211.67,63.61c-.08-.54-.17-1.08-.25-1.61.5,0,.6.33.52.72-.06.3-.18.59-.27.89Z"/>
  <path class="cls-1" d="M207.22,43.62c0,.06,0,.11,0,.17,0,.09,0,.18,0,.26,0,.1-.01.2-.02.3-.2-.19-.43-.36-.6-.58-.21-.28.03-.49.58-.5.01.12.03.23.04.35Z"/>
  <path class="cls-1" d="M238.31,44.14c-.07.4-.15.79-.22,1.19-.37-.05-.34-.34-.29-.58.06-.27.06-.65.51-.61Z"/>
  <path class="cls-1" d="M212.87,69.03c-.08-.32-.17-.64-.25-.96.2.1.4.2.66.33-.14.22-.27.43-.41.64Z"/>
  <path class="cls-1" d="M215.92,83.34c-.09-.37-.17-.73-.26-1.1.15.1.31.2.54.36-.08.22-.18.48-.28.74Z"/>
  <path class="cls-1" d="M240.33,90.87c.29.01.57.03.89.04-.25.4-.35.41-.89-.04Z"/>
  <path class="cls-1" d="M207.51,43.12c.11-.09.21-.21.34-.27.06-.02.17.09.26.14-.08.12-.15.26-.24.37-.05.06-.15.08-.23.12,0,0-.02.01-.02.01-.03-.12-.07-.25-.1-.37Z"/>
  <path class="cls-1" d="M229.66,33.96c.07-.36.14-.72.21-1.08.24.26.12.89-.21,1.08Z"/>
  <path class="cls-1" d="M239.26,42.75c-.06-.02-.12-.04-.18-.05-.03,0-.06,0-.1,0-.08.01-.15.02-.23.04,0-.11,0-.21,0-.32.04-.04.07-.07.11-.11.07,0,.14,0,.22,0,.13.11.26.22.39.32-.07.04-.14.09-.21.13Z"/>
  <path class="cls-1" d="M216.39,85.52l-.21-.89c.45.22.5.42.21.89Z"/>
  <path class="cls-1" d="M238.76,42.41c0,.11,0,.21,0,.32-.05.05-.09.1-.14.15-.09-.11-.18-.22-.27-.33.14-.05.27-.09.41-.14Z"/>
  <path class="cls-1" d="M212.41,66.76c-.07-.25-.14-.5-.21-.75.28.19.4.43.21.75Z"/>
  <path class="cls-1" d="M207.51,43.12c.03.12.07.25.1.37-.13.04-.27.09-.4.13-.01-.12-.03-.23-.04-.35.11-.05.22-.1.34-.15Z"/>
  <path class="cls-1" d="M228.05,42.19c.03-.14.06-.29.09-.43.23.15.2.25-.09.43Z"/>
  <path class="cls-1" d="M229.17,36.66c.03-.14.05-.28.08-.42.06.09.11.18.17.28-.08.05-.16.1-.24.14Z"/>
  <path class="cls-1" d="M211.42,62c-.06-.14-.12-.29-.18-.43.28.05.31.21.18.43Z"/>
  <path class="cls-1" d="M228.91,37.75c.02-.11.05-.22.07-.33-.02.11-.05.22-.07.33Z"/>
  <path class="cls-1" d="M239.09,42.3h-.22c.02-.09.03-.18.05-.28.03,0,.06,0,.09-.01.03.1.05.19.08.29Z"/>
  <path class="cls-1" d="M212.5,67.2c-.03-.11-.06-.22-.09-.33.03.11.06.22.09.33Z"/>
  <path class="cls-1" d="M229.43,35.26c0-.07.02-.14.03-.22.05.04.09.08.14.12-.06.03-.11.06-.17.1Z"/>
  <path class="cls-1" d="M216.75,87.44c0-.07,0-.14,0-.22.05.04.11.07.16.11-.05.04-.11.07-.16.11Z"/>
  <path class="cls-1" d="M212.61,67.74s-.06-.07-.08-.11c.03.04.06.07.08.11Z"/>
  <path class="cls-1" d="M215.63,81.97c-.02-.09-.05-.17-.07-.26.02.09.05.17.07.26Z"/>
  <path class="cls-1" d="M216.07,83.93c-.03-.09-.05-.18-.08-.28.03.09.05.18.08.28Z"/>
  <path class="cls-1" d="M238.52,43.38c-.02.06-.05.12-.07.18.02-.06.05-.12.07-.18Z"/>
  <path class="cls-1" d="M212.18,65.9s-.06-.07-.09-.11c.03.04.06.07.09.11Z"/>
  <path class="cls-1" d="M212.94,69.25l-.09-.11.09.11Z"/>
  <path class="cls-1" d="M213.15,69.5s-.09-.09-.14-.13c.05.04.09.09.14.13Z"/>
  <path class="cls-1" d="M229.56,34.5c.02-.06.04-.11.07-.17-.02.06-.04.11-.07.17Z"/>
  <path class="cls-1" d="M229.95,32.53s-.02-.06.02-.09c0,.03,0,.06-.02.09Z"/>
  <path class="cls-1" d="M230.44,29.84s-.02-.06,0-.1c.01.02.03.04.04.07,0,0-.02.02-.03.03Z"/>
  <path class="cls-1" d="M158.31,41c0,.08,0,.15,0,.23,0,.18,0,.35.01.53,0,.04,0,.07,0,.11-.2.13-.46.22-.59.4-.58.83-1.52.9-2.31.23-.65-.56-1.03-1.25-1.31-2.03v-2.6c.07-.2.17-.39.22-.59.32-1.26,1.59-2.44,2.83-2.53,1.5-.11,3.01-.21,4.52-.22,5.8-.02,11.6-.01,17.4,0,.97,0,1.95.01,2.91.12.65.07,1.34.07,1.83.72.25.33.77.45,1.17.67,0,.18,0,.36,0,.54-.39.09-.78.25-1.18.25-.41,0-.83-.13-1.22-.28-1.02-.4-2.06-.72-3.16-.72-4.88,0-9.75,0-14.63,0-.5,0-1-.09-1.5-.09-.28,0-.59.04-.83.17-1.09.6-2.23.61-3.44.52-.62-.05-1.27.31-1.9.47-.18.04-.39.1-.55.05-.77-.25-.86-.14-1.41.42-.83.85-.79,1.82-.61,2.84.13.74.58,1.03,1.32.88.12-.03.27-.07.37-.03.69.28,1.37.07,2.06-.02Z"/>
  <path class="cls-1" d="M142.44,30.6c0-.07,0-.14,0-.2.03-.04.06-.08.09-.12.18.18.35.36.53.54v60.19h14.34c2.14,0,4.28,0,6.43,0,.43,0,.87.02,1.28.13.2.05.35.32.52.49-2.89,0-5.78.02-8.67.02-4.57,0-9.14,0-13.71,0-.83,0-.84,0-.84-.81,0-.67.01-1.33.02-2,.03-.21.09-.41.09-.62,0-13.24,0-26.48,0-39.73,0-.19-.05-.39-.07-.58,0-.07,0-.14,0-.21,0-.08,0-.15,0-.23,0-.07,0-.14,0-.2,0-.08,0-.15,0-.23,0-.07,0-.14,0-.21.02-.17.07-.35.07-.52,0-5.07,0-10.13,0-15.2,0-.17-.05-.35-.07-.52Z"/>
  <path class="cls-1" d="M142.43,26.6c0-.25,0-.51,0-.76.61-.07,1.22-.14,1.82-.22-.07.72-.16,1.43-.18,2.15,0,.22.1.54.27.65.33.22.38.49.35.83-.04.4.11.69.52.74.92.1,1.85.22,2.78.24,3.16.04,6.33.05,9.49.04,1.06,0,2.12-.09,3.18-.09.7,0,1.4.09,2.1.09,1.02,0,2.05-.04,3.08-.04,3.97,0,7.95-.01,11.92,0,1.31,0,2.61.05,3.92.05.84,0,.96-.14.99-.95,0-.2.07-.5.2-.57.67-.36,1.38-.65,2.08-.97,0,.72,0,1.44,0,2.16-.12.07-.27.11-.36.21-.47.47-1.02.73-1.7.66-.9,0-1.81,0-2.71,0-6.22,0-12.44,0-18.66,0-.18,0-.36,0-.54,0-.29,0-.58,0-.87,0-.07,0-.14,0-.22,0-.25,0-.51,0-.76,0-.22,0-.43,0-.65,0-4.46,0-8.93,0-13.39,0-.79,0-1.47-.27-2.08-.76-.13-.1-.31-.15-.47-.22,0-.69,0-1.37,0-2.06.11.08.21.2.33.24.11.04.37,0,.37-.01,0-.47,0-.95-.04-1.42,0-.04-.22-.09-.33-.09-.14,0-.28.06-.42.09Z"/>
  <path class="cls-1" d="M157.92,54.64c8.03,0,16.06,0,24.09,0-.01.68-.16.85-.8.86-2.2.04-4.4.1-6.6.11-4.3.02-8.6.01-12.9,0-.95,0-1.91-.05-2.86-.11-.53-.03-.9-.32-1.04-.86.04,0,.07,0,.11,0Z"/>
  <path class="cls-1" d="M185.01,36.02c-.4-.22-.92-.34-1.17-.67-.49-.65-1.18-.65-1.83-.72-.96-.11-1.94-.12-2.91-.12-5.8,0-11.6-.02-17.4,0-1.51,0-3.02.1-4.52.22-1.24.09-2.51,1.28-2.83,2.53-.05.2-.15.4-.22.59-.38-1.17.13-2.22.99-2.82.53-.36,1.13-.44,1.76-.57,2.52-.54,5.06-.25,7.59-.27,5.91-.05,11.81-.01,17.72-.02.93,0,1.78.19,2.52.78.08.06.2.06.3.09,0,.33,0,.65,0,.98Z"/>
  <path class="cls-1" d="M161.5,30.82c6.22,0,12.44,0,18.66,0-.14.07-.28.21-.42.21-5.94.01-11.88.01-17.82,0-.14,0-.28-.14-.42-.21Z"/>
  <path class="cls-1" d="M142.53,29.85c.16.07.34.11.47.22.61.49,1.29.76,2.08.76,4.46,0,8.93,0,13.39,0-.14.07-.28.21-.42.21-4.61.01-9.22.01-13.83,0-.39,0-.77-.13-1.16-.21-.18-.18-.35-.36-.53-.54,0-.14,0-.29,0-.43Z"/>
  <path class="cls-1" d="M154.13,40.46c.28.78.66,1.47,1.31,2.03.79.68,1.72.6,2.31-.23.13-.18.39-.27.59-.4,0,.33,0,.65,0,.98-.47.2-.92.48-1.41.58-.81.17-1.62,0-2.18-.62-.58-.64-.98-1.42-.62-2.35Z"/>
  <path class="cls-1" d="M158.24,70.55c.03,1.8.06,3.6.09,5.41,0,.08-.01.16-.02.24,0,0-.02,0-.02,0-.41-.11-.35-.45-.35-.74,0-.98-.02-1.96,0-2.93.01-.52.1-1.01-.31-1.45-.11-.12-.05-.4-.07-.6.23.03.46.06.68.09Z"/>
  <path class="cls-1" d="M158.33,47.71c-.23-.16-.46-.32-.7-.48-.21-.13-.42-.36-.63-.37-1.55-.09-1.74.06-2.43,1.72-.21-.64.44-1.75,1.1-1.94.79-.23,1.53-.22,2.22.31.11.09.3.08.45.11,0,.22,0,.43,0,.65Z"/>
  <path class="cls-1" d="M154.56,51.5c-.07.91.32,1.65.85,2.34.29.39.69.38,1.11.36.07,0,.14,0,.22,0,.11.14.22.29.33.43-.03.02-.05.07-.08.07-1,.14-2.39-.94-2.52-1.95-.04-.3-.1-.6-.1-.9,0-.12.13-.24.2-.36Z"/>
  <path class="cls-1" d="M182.88,30.82c.68.07,1.23-.19,1.7-.66.1-.09.24-.14.36-.21.03,0,.06,0,.09.01,0,.32-.01.64-.02.96-.54.03-1.07.09-1.61.09-.17,0-.35-.13-.52-.2Z"/>
  <path class="cls-1" d="M166.6,91.55c-.11-.14-.22-.29-.4-.52.36-.05.71-.1,1.15-.17-.14.3-.23.5-.32.69,0,.03,0,.06,0,.08-.07,0-.13-.01-.2-.02-.08-.02-.15-.05-.23-.07Z"/>
  <path class="cls-1" d="M157.06,54.64c-.11-.14-.22-.29-.33-.43.44.02.94-.1,1.19.43-.04,0-.07,0-.11,0-.25,0-.51,0-.76,0Z"/>
  <path class="cls-1" d="M160.09,30.82c.29,0,.58,0,.87,0-.29.35-.58.35-.87,0Z"/>
  <path class="cls-1" d="M159.12,30.82c.25,0,.51,0,.76,0-.28.3-.48.3-.76,0Z"/>
  <path class="cls-1" d="M166.6,91.55c.08.02.15.05.23.07-.04.02-.08.04-.12.06-.25-.01-.51-.03-.76-.04.22-.03.44-.06.66-.09Z"/>
  <path class="cls-1" d="M158.68,63.92c-.12.04-.23.08-.35.12-.02-.23.05-.26.35-.12Z"/>
  <path class="cls-1" d="M168.1,90.78c-.05.04-.08.09-.12.09-.04,0-.09-.03-.13-.05.04-.04.07-.1.11-.12.02-.01.08.04.14.07Z"/>
  <path class="cls-1" d="M168.09,91.61c-.1,0-.2-.02-.29-.03.1,0,.2.02.29.03Z"/>
  <path class="cls-1" d="M158.31,76.39s.03.07.05.11c-.04-.03-.09-.05-.13-.08l.08-.04Z"/>
  <path class="cls-1" d="M161.82,76.53c.08,0,.15,0,.23,0-.08,0-.15,0-.23,0Z"/>
  <path class="cls-1" d="M167.03,91.64s0-.06,0-.08c.09.01.17.02.26.03-.06.03-.12.06-.17.09-.04,0-.07-.01-.1-.04Z"/>
  <polygon class="cls-1" points="171.57 91.63 171.54 91.64 171.51 91.63 171.54 91.59 171.57 91.63"/>
  <path class="cls-1" d="M162.69,76.55s.08-.02.12-.02c-.04,0-.08.02-.12.02Z"/>
  <path class="cls-1" d="M158.36,76.51s.07.07.11.1c-.04-.03-.07-.07-.11-.1Z"/>
  <path class="cls-1" d="M163.02,95.04c.4-.15.79-.31,1.19-.46.15.07.33.24.44.21.73-.21.96.35,1.11.8.19.58.23,1.23.28,1.85.03.35-.19.49-.55.65-1.2.52-2.42.2-3.63.29-.42.03-.73-.16-.83-.61-.16-.69-.31-1.38-.46-2.02.27-.17.44-.28.6-.38.18-.04.36-.07.54-.11.04.09.05.24.12.27.24.12,1.02-.21,1.19-.49Z"/>
  <path class="cls-1" d="M184.95,27.79c-.7.32-1.4.61-2.08.97-.13.07-.19.37-.2.57-.03.82-.15.96-.99.95-1.31,0-2.61-.05-3.92-.05-3.97,0-7.95,0-11.92,0-1.03,0-2.05.05-3.08.04-.7,0-1.4-.1-2.1-.09-1.06,0-2.12.09-3.18.09-3.16,0-6.33,0-9.49-.04-.93-.01-1.85-.14-2.78-.24-.42-.04-.57-.33-.52-.74.04-.34-.02-.61-.35-.83-.17-.11-.27-.43-.27-.65.03-.72.12-1.44.18-2.15,13.06,0,26.13,0,39.19,0,.21,0,.42-.05.63-.08.15,0,.29,0,.44,0,.18.14.35.28.53.42,0,.36,0,.72,0,1.08-.03.11-.05.23-.08.34,0,.14,0,.28,0,.41Z"/>
  <path class="cls-1" d="M124.66,35.8c.02-.86.04-1.73.05-2.59.14-.21.34-.4.41-.63.12-.39.31-.66.74-.67.41-.02.81,0,1.22,0,3.36,0,6.72,0,10.09,0,.57,0,1.06-.09,1.48-.51.11-.11.33-.1.49-.15.01,1.23.02,2.45.03,3.68,0,.11,0,.22,0,.32.04.7-.17,1.42.17,2.12.08.16-.17.45-.17.69-.02.45.05.89.05,1.34,0,.33-.05.67-.06,1-.01.81-.02,1.62-.02,2.43-.15.07-.4.11-.45.23-.3.72-.92.74-1.54.74-3.65,0-7.3,0-10.95,0-.41,0-.78.02-1.02.44-.07.12-.3.15-.46.21,0-.91,0-1.83,0-2.74-.01-1.32-.03-2.65-.04-3.97,0-.36,0-.72,0-1.08,0-.29,0-.58,0-.87Z"/>
  <path class="cls-1" d="M139.32,57.87c0,.08,0,.17,0,.25,0,.06,0,.12,0,.18,0,.12,0,.24,0,.36-.02.03-.02.05,0,.08,0,1.23-.02,2.46-.03,3.69,0,.11,0,.22,0,.33h-.04c-.07.01-.17.01-.2.06-.38.69-.8.94-1.61.51-.46-.24-1.09.18-1.68.01-.43-.12-.92-.01-1.38,0-.66.02-1.34-.05-1.97.11-.81.21-1.59.21-2.39.04-.13-.03-.27,0-.41.01-.39.02-.78.05-1.17.07-.66.03-1.3-.48-1.97-.07-.05.03-.15.03-.21,0-.44-.18-.79.06-1.16.22-.14.06-.31.07-.46.11.03-3.5.05-7,.08-10.49.12-.07.24-.14.37-.2.33-.16.65-.39.99-.44.64-.1,1.31-.11,1.96-.11,2.09-.01,4.19,0,6.28,0,1.09,0,2.18-.03,3.26.01.59.03,1.17.27,1.68-.23,0,1.43.01,2.86.02,4.29,0,.2.02.39.03.59-.02.03-.02.06,0,.09,0,.12,0,.24,0,.35,0,.06,0,.12,0,.18Z"/>
  <path class="cls-1" d="M139.24,91.77c-.6-.22-1.23-.39-1.81-.65-2.33-1.07-4.64-2.16-6.96-3.25-.53-.26-1.08-.5-1.58-.8-1.43-.84-2.85-1.71-4.28-2.56,0-1.79,0-3.58,0-5.37,0-.23.07-.45.1-.68.57-.14,1.13-.35,1.7-.4.83-.07,1.68-.03,2.52-.03,2.69,0,5.39,0,8.08,0,.32,0,.65-.08.95-.03.4.06.7.03.9-.37.06-.11.24-.16.37-.24,0,2.45,0,4.9,0,7.36,0,.07,0,.15,0,.22,0,.1,0,.21,0,.31,0,.04,0,.08,0,.12,0,1.66,0,3.31,0,4.97,0,.47.18.94-.02,1.41Z"/>
  <path class="cls-1" d="M139.26,52.37c-.5.5-1.09.26-1.68.23-1.09-.05-2.18-.01-3.26-.01-2.09,0-4.19,0-6.28,0-.65,0-1.32.02-1.96.11-.35.05-.66.29-.99.44-.13.06-.25.13-.37.2-.01-.9-.02-1.81-.03-2.71.01-2.06.02-4.11.03-6.17.16-.07.39-.09.46-.21.24-.42.61-.44,1.02-.44,3.65,0,7.3,0,10.95,0,.62,0,1.24-.02,1.54-.74.05-.12.29-.15.45-.23,0,1.31,0,2.62.02,3.93.02.75.09,1.5.14,2.24-.02.03-.01.06,0,.09,0,.55,0,1.1,0,1.65,0,.06,0,.12,0,.18-.02.48-.04.95-.06,1.43Z"/>
  <path class="cls-1" d="M124.64,63.84c.15-.03.32-.05.46-.11.37-.16.72-.41,1.16-.22.06.03.16.03.21,0,.68-.41,1.31.1,1.97.07.39-.02.78-.04,1.17-.07.14,0,.28-.04.41-.01.8.17,1.58.17,2.39-.04.62-.16,1.31-.09,1.97-.11.46-.02.95-.12,1.38,0,.6.17,1.23-.25,1.68-.01.82.43,1.24.17,1.61-.51.03-.05.13-.05.2-.07,0,1.63,0,3.25,0,4.88-.13.13-.35.24-.39.39-.18.76-.71.8-1.35.81-4.26.11-8.54-.28-12.79.21-.02-.29-.04-.58-.05-.87-.02-.68-.04-1.37-.05-2.05,0-.76.01-1.52.02-2.27Z"/>
  <path class="cls-1" d="M139.25,77.37c-.13.08-.31.13-.37.24-.2.41-.5.44-.9.37-.31-.05-.64.03-.95.03-2.69,0-5.39,0-8.08,0-.84,0-1.69-.04-2.52.03-.57.05-1.14.26-1.7.4-.03-1.59-.06-3.18-.09-4.77,1.2-.48,2.45-.44,3.71-.44,3.2.01,6.39,0,9.59.01.44,0,.82-.02,1.01-.51.03-.08.2-.1.31-.15,0,1.59,0,3.18,0,4.76Z"/>
  <path class="cls-1" d="M139.14,31.26c-.17.05-.39.04-.49.15-.42.42-.91.51-1.48.51-3.36-.01-6.72,0-10.09,0-.41,0-.81-.02-1.22,0-.42.02-.61.29-.74.67-.07.23-.27.42-.41.63,0-1.48,0-2.96,0-4.44.32-.42.68-.81.94-1.26.19-.34.42-.37.74-.37,3.72,0,7.45,0,11.17,0,.37,0,.7-.01.96-.36.08-.11.4-.05.62-.07,0,.79.02,1.59.03,2.38,0,.14,0,.29,0,.43-.01.58-.02,1.16-.03,1.73Z"/>
  <path class="cls-1" d="M139.25,72.61c-.11.05-.28.07-.31.15-.19.49-.57.51-1.01.51-3.2-.01-6.39,0-9.59-.01-1.26,0-2.51-.05-3.71.44.03-1.55.06-3.1.09-4.65,4.26-.48,8.53-.1,12.79-.21.65-.02,1.17-.06,1.35-.81.04-.15.25-.26.39-.39,0,1.66,0,3.32,0,4.98Z"/>
  <path class="cls-1" d="M142.45,47.92c.02.19.07.39.07.58,0,13.24,0,26.48,0,39.73,0,.21-.06.41-.09.62,0-4.62-.01-9.23-.02-13.85,0-7.81,0-15.61,0-23.42,0-.67.02-1.35-.01-2.02,0-.25-.17-.49-.16-.74.01-.3.13-.6.21-.91Z"/>
  <path class="cls-1" d="M184.07,25.55c-.21.03-.42.08-.63.08-13.06,0-26.13,0-39.19,0-.61.07-1.22.14-1.82.22.13-.11.25-.29.38-.3.48-.04.97-.02,1.46-.02,13.09,0,26.17,0,39.26,0,.18,0,.36.02.54.03Z"/>
  <path class="cls-1" d="M142.44,30.6c.02.17.07.35.07.52,0,5.07,0,10.13,0,15.2,0,.17-.05.35-.07.52-.01-.14-.03-.29-.03-.43,0-5.13,0-10.26,0-15.39,0-.14.02-.29.03-.43Z"/>
  <path class="cls-1" d="M142.43,26.6c.14-.03.28-.08.42-.09.11,0,.33.05.33.09.04.47.04.95.04,1.42,0,0-.25.05-.37.01-.12-.04-.22-.16-.33-.24-.07-.15-.14-.29-.21-.44.04-.25.08-.5.12-.75Z"/>
  <path class="cls-1" d="M163.02,95.04c-.17.27-.95.61-1.19.49-.07-.03-.08-.18-.12-.27.43-.07.87-.14,1.3-.21Z"/>
  <path class="cls-1" d="M142.31,27.35c.07.15.14.29.21.44,0,.69,0,1.37,0,2.06,0,.14,0,.29,0,.43-.03.04-.06.08-.09.12-.04-1.01-.09-2.03-.13-3.04Z"/>
  <path class="cls-1" d="M184.95,27.79c0-.14,0-.28,0-.41.03,0,.06-.02.09-.02,0,.87,0,1.74-.01,2.61-.03,0-.06,0-.09-.01,0-.72,0-1.44,0-2.16Z"/>
  <path class="cls-1" d="M185.03,25.95c-.18-.14-.35-.28-.53-.42.35-.08.62-.06.53.42Z"/>
  <path class="cls-1" d="M185.04,27.36s-.06.02-.09.02c.03-.11.05-.23.08-.34,0,.11,0,.21.01.32Z"/>
  <path class="cls-1" d="M142.44,47.49c0,.08,0,.15,0,.23,0-.08,0-.15,0-.23Z"/>
  <path class="cls-1" d="M142.44,47.05c0,.08,0,.15,0,.23,0-.08,0-.15,0-.23Z"/>
  <path class="cls-1" d="M145.52,93.94s-.04,0-.04,0c0-.02.02-.05.03-.07v.07Z"/>
  <path class="cls-1" d="M124.71,44.47c-.01,2.06-.02,4.11-.03,6.17-.09-.04-.25-.07-.26-.13-.1-.64-.2-1.29-.25-1.94-.04-.49,0-.99,0-1.48-.02-.77-1.18-1.46-2.05-1.32-.29.05-.6,0-.9-.02-.57-.05-1.14-.13-1.71-.19-2.33-.23-4.61.31-6.92.45-.8.05-.98-.08-1-.88-.02-.97.07-1.97-.16-2.89-.18-.75-.27-1.47-.27-2.22,0-.61.01-1.23-.01-1.84,0-.14-.13-.28-.21-.42-.03-.69-.07-1.37-.1-2.06,0-.11,0-.22,0-.33,0-.36,0-.72,0-1.08-.01-.32-.03-.64-.04-.96,0-.08,0-.16,0-.24.01-.79.03-1.58.04-2.37,0-.14,0-.29,0-.43,0-.07,0-.14,0-.22,0-.61,0-1.23,0-1.84-.02-.03-.03-.07-.03-.1,0-.08,0-.16,0-.23,0-.07,0-.13,0-.2,0-.08,0-.16,0-.24,0-.03,0-.06.03-.09.51-.05.55.28.55.65,0,1.39-.01,2.78,0,4.16,0,.66.15,1.28.58,1.66.39-.06.69-.1.99-.14l.07.19c-.09.14-.19.28-.33.48.23.01.41.03.6.03,2.84,0,5.67,0,8.51,0,.49,0,.98-.05,1.47-.07.32-.02.89.53,1.03.92.07.2.24.37.37.56,0,.29,0,.58,0,.87-.09.17-.24.34-.25.51-.02.2-.17.53.25.57.01,1.32.03,2.65.04,3.97,0,.91,0,1.83,0,2.74Z"/>
  <path class="cls-1" d="M110.8,27.26c0-.08,0-.17-.01-.25,0,.08,0,.17.01.25Z"/>
  <path class="cls-1" d="M124.72,69.04c-.03,1.55-.06,3.1-.09,4.65.03,1.59.06,3.18.09,4.77-.03.23-.1.45-.1.68,0,1.79,0,3.58,0,5.37-1.98-1.27-3.97-2.54-5.95-3.81-.48-.31-.96-.63-1.44-.94-.03-.03-.06-.06-.1-.09,0,0-.02-.01-.02-.01-.97-.72-1.95-1.44-2.92-2.16-.47-.33-.93-.66-1.4-1-.43-.34-.86-.66-1.28-1.01-.27-.22-.53-.46-.79-.7.04-.22.09-.44.13-.67,0-.14,0-.28,0-.43,0-.11,0-.22,0-.33,0-.61,0-1.23,0-1.84,0-.07,0-.14,0-.21,0-.07,0-.15,0-.22-.01-.18-.02-.35-.03-.53,0-.08,0-.16,0-.23,0-.07,0-.13,0-.2,0-.08,0-.16,0-.23,0-.07,0-.13,0-.2.02-.07.03-.14.05-.22.03-.14.08-.27.08-.41,0-2.93,0-5.85,0-8.78,0-.15-.06-.3-.1-.45-.02-.03-.03-.06-.03-.1,0-.08,0-.15,0-.23,0,0,.03,0,.03,0,0-.04,0-.07,0-.11-.02-.03-.03-.06-.03-.1,0-.08,0-.16,0-.23,0-.07,0-.13,0-.2,0-.08,0-.16,0-.24,0-.07,0-.13,0-.2,0-.08,0-.16,0-.24,0-.07,0-.13,0-.2,0-.08,0-.16,0-.23,0-.07,0-.13,0-.2,0-.08,0-.16,0-.23,0-.07,0-.13,0-.2,0-.08,0-.16,0-.24,0-.07,0-.13,0-.2,0-.08,0-.16,0-.24,0-.07,0-.13,0-.2,0-.08,0-.16,0-.24,0-.07,0-.13,0-.2,0-.08,0-.16,0-.24,0-.07,0-.13,0-.2,0-.08,0-.16,0-.24,0-.1,0-.2,0-.3,0-.04,0-.09,0-.13,0-.07,0-.13,0-.2,0-.08,0-.16,0-.24,0-.07,0-.13,0-.2,0-.08,0-.16,0-.24,0-.07,0-.13,0-.2,0-.08,0-.16,0-.24,0-.04.02-.07.04-.1.33-.03.32.2.32.43.03,2.39.07,4.78.11,7.17,0,.14-.03.3,0,.43.09.3.21.6.33.89.09.21.18.43.32.61.12.16.29.37.45.38.53.02,1.06-.06,1.59-.06,2.74,0,5.49.03,8.23-.02.9-.02,1.24.35,1.32,1.36.09,1.15.03,1.15,1.11,1.58.02.68.03,1.37.05,2.05,0,.29.03.58.05.87Z"/>
  <path class="cls-1" d="M114.19,77.49c.97.72,1.95,1.44,2.92,2.16-.3-.15-.61-.27-.88-.46-.57-.38-1.12-.79-1.66-1.21-.16-.12-.25-.32-.38-.49Z"/>
  <path class="cls-1" d="M113.02,88.46c-.12.02-.19.05-.23.03-.04-.03-.06-.11-.08-.17.06-.02.12-.07.17-.05.05.02.08.1.15.19Z"/>
  <path class="cls-1" d="M117.13,79.66s.06.06.1.09c-.03-.03-.06-.06-.1-.09Z"/>
  <path class="cls-1" d="M101.72,64.71c.06.11.13.22.19.33-.06-.11-.13-.22-.19-.33Z"/>
  <path class="cls-1" d="M251.89,28.22s.05.08.08.11c-.03-.04-.05-.08-.08-.11Z"/>
  <path class="cls-1" d="M195.36,25.53c1.9,0,3.79-.02,5.69-.02,4.71,0,9.43,0,14.14,0,.04.03.09.07.13.1.02.08.04.15.06.23.01.03.03.07.04.1,0,.1-.01.21-.02.31-.78-.55-1.63-.67-2.58-.66-5.61.04-11.23.02-16.84.01-.21,0-.42-.06-.62-.09Z"/>
  <path class="cls-1" d="M194.39,25.54c.18-.02.36-.04.54-.05.03.02.07.03.1.05-.25.14-.5.28-.75.42,0-.11-.01-.22-.02-.33,0,0,0,0,0,0,.04-.03.08-.06.12-.09Z"/>
  <path class="cls-1" d="M194.27,25.63c0,.11.01.22.02.33-.03.07-.05.15-.08.22,0-.19-.36-.41.06-.55Z"/>
  <path class="cls-1" d="M215.43,26.6c.03.11.06.22.09.33-.03-.11-.06-.22-.09-.33Z"/>
  <path class="cls-1" d="M194.2,28.56s0-.09,0-.13c0,.04,0,.09,0,.13Z"/>
  <path class="cls-1" d="M194.22,90.91c0-.08,0-.16,0-.23,0,.08,0,.16,0,.23Z"/>
  <path class="cls-1" d="M194.21,90.48c0-.08,0-.16,0-.23,0,.08,0,.16,0,.23Z"/>
  <path class="cls-1" d="M194.06,91.47s.08-.08.12-.12c.01.03,0,.06,0,.1-.04,0-.07.02-.11.02Z"/>
  <path class="cls-1" d="M159.66,39.9c-.3,0-.61,0-.91.03-.15.02-.29.13-.44.2-.02,0-.04,0-.06,0-.1.02-.25.09-.3.04-.35-.29-.64-.38-.91.09-.02.04-.33-.01-.4-.1-.35-.48-.6-.99-.37-1.61.19-.53.55-.83,1.13-.82.07,0,.15-.02.21-.06.76-.54,1.59-.48,2.48-.4.77.07,1.57-.14,2.35-.22.2-.02.39-.07.59-.07,5.97,0,11.93-.01,17.9.01.59,0,1.2.18,1.76.39.5.18.6.65.31,1.1-.3.48-.65.93-.97,1.4-.85,0-1.69.02-2.54.02-5.84,0-11.69,0-17.53,0-.22,0-.43-.01-.65-.02-.4-.67-1.1-.67-1.63,0Z"/>
  <path class="cls-1" d="M155.74,39c.01.18.03.35.04.53-.07,0-.14.01-.2.02-.01-.18-.02-.35-.03-.53l.19-.02Z"/>
  <path class="cls-1" d="M158.24,40.14s.04,0,.06,0c.02.04.01.07-.02.1-.02-.03-.03-.05-.04-.09Z"/>
  <path class="cls-1" d="M194.39,25.54s-.08.06-.12.09c.04-.03.08-.06.12-.09Z"/>
  <path class="cls-1" d="M158.3,76.2c0-.08.01-.16.02-.24,0,.08-.01.16-.02.24Z"/>
  <path class="cls-1" d="M159.66,39.9c.53-.67,1.22-.67,1.63,0-.54,0-1.09,0-1.63,0Z"/>
  <path class="cls-1" d="M158.33,41.75c0-.18,0-.35-.01-.53,0,.18,0,.35.01.53Z"/>
  <path class="cls-1" d="M124.62,66.11c-1.08-.42-1.02-.43-1.11-1.58-.08-1.02-.41-1.38-1.32-1.36-2.74.05-5.49.01-8.23.02-.53,0-1.06.08-1.59.06-.16,0-.33-.22-.45-.38-.14-.18-.23-.4-.32-.61-.12-.29-.24-.59-.33-.89-.04-.13,0-.29,0-.43-.04-2.39-.07-4.78-.11-7.17,0-.23.01-.45-.32-.43-.02-.03-.03-.06-.04-.1,0-.08,0-.16,0-.24,0-.07,0-.13,0-.2,0-.08,0-.16,0-.24,0-.07,0-.13,0-.2,0-.08,0-.16,0-.24,0-.07,0-.13,0-.2,0-.08,0-.16,0-.23,0-.07,0-.13,0-.2,0-.08,0-.16,0-.23,0-.07,0-.13,0-.2,0-.08,0-.16,0-.23,0-.07,0-.13,0-.2,0-.08,0-.16,0-.23,0-.1,0-.2,0-.31,0-.04,0-.09,0-.13,0-.07,0-.13,0-.2,0-.08,0-.16,0-.23,0-.07,0-.13,0-.2,0-.08,0-.16,0-.23,0-.1,0-.2,0-.31,0-.04,0-.09,0-.13.01-.21.02-.43.03-.64,0-.11,0-.22,0-.32-.01-.18-.02-.36-.03-.53,0-.08,0-.16,0-.24,0-.35,0-.71,0-1.06,0-.08,0-.16,0-.24,0-.07,0-.13,0-.2,0-.08,0-.16,0-.23,0-.21,0-.42,0-.63,0-.04,0-.08,0-.13,0-.25,0-.49,0-.74,0-.08,0-.16,0-.23.01-.25.02-.5.03-.75.03-.19.1-.37.1-.56,0-1.47,0-2.94,0-4.42.07.14.2.28.21.42.02.61,0,1.22.01,1.84,0,.75.08,1.47.27,2.22.23.92.14,1.92.16,2.89.02.8.2.93,1,.88,2.31-.14,4.59-.68,6.92-.45.57.06,1.14.13,1.71.19.3.03.61.07.9.02.87-.14,2.03.56,2.05,1.32.01.49-.03.99,0,1.48.05.65.15,1.3.25,1.94,0,.06.17.09.26.13.01.9.02,1.81.03,2.71-.03,3.5-.05,7-.08,10.49,0,.76-.01,1.52-.02,2.27ZM111.62,51.19c.22.24.43.42.56.64.44.73,1.13.77,1.87.71.52-.04,1.03-.15,1.55-.17,1.08-.03,2.17,0,3.25,0,.66,0,1.32.01,1.98-.02.14,0,.28-.16.46-.27-.26-.19-.45-.31-.63-.46-.34-.3-.71-.22-.98.01-.53.46-1.07.42-1.71.27-.73-.18-1.5-.23-2.26-.27-.58-.03-1.16.06-1.75.1-.11,0-.21.05-.31.06-.13,0-.27,0-.4,0,.08-.14.13-.35.24-.39.38-.13.78-.2,1.33-.33-.27-.17-.47-.41-.64-.39-.87.1-1.84-.17-2.58.53Z"/>
  <path class="cls-1" d="M110.84,59.83c.03.15.1.3.1.45,0,2.93,0,5.85,0,8.78,0,.14-.05.27-.08.41-.02-.29-.04-.59-.05-.88,0-.07,0-.13,0-.2,0-.08,0-.16,0-.24,0-.07,0-.13,0-.2,0-1.23,0-2.46,0-3.7,0-.07,0-.13,0-.2,0-1.38,0-2.75,0-4.13.01-.03.02-.07.03-.1Z"/>
  <path class="cls-1" d="M110.94,37.75c0,1.47,0,2.94,0,4.42,0,.19-.06.37-.1.56,0-2.34,0-4.69,0-7.03.03.69.07,1.37.1,2.06Z"/>
  <path class="cls-1" d="M110.81,59.94c0,1.38,0,2.75,0,4.13-.02-.84-.06-1.68-.07-2.52,0-.53.04-1.07.07-1.6Z"/>
  <path class="cls-1" d="M110.81,64.27c0,1.23,0,2.46,0,3.7,0-1.23,0-2.46,0-3.7Z"/>
  <path class="cls-1" d="M110.84,71.52c0,.61,0,1.23,0,1.84,0-.14-.02-.28-.03-.43,0-.29,0-.58,0-.88,0-.18.02-.36.03-.54Z"/>
  <path class="cls-1" d="M110.84,28.23c0,.61,0,1.23,0,1.84,0-.61,0-1.23,0-1.84Z"/>
  <path class="cls-1" d="M110.81,68.59c.02.29.04.59.05.88-.02.07-.03.14-.05.22,0-.37,0-.73,0-1.1Z"/>
  <path class="cls-1" d="M110.84,34.29c0,.36,0,.72,0,1.08,0-.36,0-.72,0-1.08Z"/>
  <path class="cls-1" d="M110.81,72.06c0,.29,0,.58,0,.88,0-.29,0-.58,0-.88Z"/>
  <path class="cls-1" d="M110.85,73.69c0,.14,0,.28,0,.43,0-.14,0-.28,0-.43Z"/>
  <path class="cls-1" d="M110.83,30.28c0,.14,0,.29,0,.43,0-.14,0-.29,0-.43Z"/>
  <path class="cls-1" d="M110.84,47.71c0,.11,0,.22,0,.32,0-.11,0-.22,0-.32Z"/>
  <path class="cls-1" d="M110.8,57.34c0,.08,0,.16,0,.23,0-.08,0-.16,0-.23Z"/>
  <path class="cls-1" d="M110.8,53.87c0,.08,0,.16,0,.24,0-.08,0-.16,0-.24Z"/>
  <path class="cls-1" d="M110.81,43.48c0,.08,0,.16,0,.23,0-.08,0-.16,0-.23Z"/>
  <path class="cls-1" d="M110.8,27.45c0,.08,0,.16,0,.24-.03-.08-.06-.15-.09-.23.03,0,.05-.01.08-.02Z"/>
  <path class="cls-1" d="M110.84,71.09c0,.07,0,.15,0,.22,0-.07,0-.15,0-.22Z"/>
  <path class="cls-1" d="M110.8,52.57c0,.08,0,.16,0,.24,0-.08,0-.16,0-.24Z"/>
  <path class="cls-1" d="M110.81,27.89c0,.08,0,.16,0,.23,0-.08,0-.16,0-.23Z"/>
  <path class="cls-1" d="M110.8,57.77c0,.08,0,.16,0,.23,0-.08,0-.16,0-.23Z"/>
  <path class="cls-1" d="M110.81,70.33c0,.08,0,.16,0,.23,0-.08,0-.16,0-.23Z"/>
  <path class="cls-1" d="M110.8,49.11c0,.08,0,.16,0,.23,0-.08,0-.16,0-.23Z"/>
  <path class="cls-1" d="M110.81,69.89c0,.08,0,.16,0,.23,0-.08,0-.16,0-.23Z"/>
  <path class="cls-1" d="M110.79,33.09c0,.08,0,.16,0,.24,0-.08,0-.16,0-.24Z"/>
  <path class="cls-1" d="M110.8,56.9c0,.08,0,.16,0,.24,0-.08,0-.16,0-.24Z"/>
  <path class="cls-1" d="M110.8,58.2c0,.08,0,.16,0,.24,0-.08,0-.16,0-.24Z"/>
  <path class="cls-1" d="M110.81,46.94c0,.08,0,.16,0,.24,0-.08,0-.16,0-.24Z"/>
  <path class="cls-1" d="M110.8,49.54c0,.08,0,.16,0,.23,0-.08,0-.16,0-.23Z"/>
  <path class="cls-1" d="M110.81,68.16c0,.08,0,.16,0,.24,0-.08,0-.16,0-.24Z"/>
  <path class="cls-1" d="M110.8,58.63c0,.08,0,.16,0,.24,0-.08,0-.16,0-.24Z"/>
  <path class="cls-1" d="M110.81,59.07c0,.08,0,.16,0,.23,0-.08,0-.16,0-.23Z"/>
  <path class="cls-1" d="M110.8,50.41c0,.08,0,.16,0,.23,0-.08,0-.16,0-.23Z"/>
  <path class="cls-1" d="M110.8,56.47c0,.08,0,.16,0,.24,0-.08,0-.16,0-.24Z"/>
  <path class="cls-1" d="M110.8,56.04c0,.08,0,.16,0,.24,0-.08,0-.16,0-.24Z"/>
  <path class="cls-1" d="M110.8,50.84c0,.08,0,.16,0,.23,0-.08,0-.16,0-.23Z"/>
  <path class="cls-1" d="M110.8,51.27c0,.08,0,.16,0,.23,0-.08,0-.16,0-.23Z"/>
  <path class="cls-1" d="M110.8,55.6c0,.08,0,.16,0,.24,0-.08,0-.16,0-.24Z"/>
  <path class="cls-1" d="M110.8,51.71c0,.08,0,.16,0,.23,0-.08,0-.16,0-.23Z"/>
  <path class="cls-1" d="M110.81,45.64c0,.08,0,.16,0,.24,0-.08,0-.16,0-.24Z"/>
  <path class="cls-1" d="M110.8,52.14c0,.08,0,.16,0,.24,0-.08,0-.16,0-.24Z"/>
  <path class="cls-1" d="M110.81,45.21c0,.08,0,.16,0,.23,0-.08,0-.16,0-.23Z"/>
  <path class="cls-1" d="M110.81,59.51c0,.08,0,.15,0,.23,0-.08,0-.15,0-.23Z"/>
  <path class="cls-1" d="M110.8,53.01c0,.08,0,.16,0,.24,0-.08,0-.16,0-.24Z"/>
  <path class="cls-1" d="M110.8,53.44c0,.08,0,.16,0,.24,0-.08,0-.16,0-.24Z"/>
  <path class="cls-1" d="M110.8,55.17c0,.08,0,.16,0,.24,0-.08,0-.16,0-.24Z"/>
  <path class="cls-1" d="M110.8,54.3c0,.08,0,.16,0,.24,0-.08,0-.16,0-.24Z"/>
  <path class="cls-1" d="M110.81,44.45s0,.08,0,.13c-.01-.03-.03-.06-.03-.09,0-.01.02-.02.03-.04Z"/>
  <path class="cls-1" d="M110.8,54.74s0,.09,0,.13c0-.04,0-.09,0-.13Z"/>
  <path class="cls-1" d="M110.84,59.4s0,.07,0,.11c0-.04,0-.07,0-.11Z"/>
  <path class="cls-1" d="M110.8,49.97s0,.09,0,.13c0-.04,0-.09,0-.13Z"/>
  <path class="cls-1" d="M110.81,48.67s0,.09,0,.13c0-.04,0-.09,0-.13Z"/>
  <path class="cls-1" d="M194.2,29.3s.03.06.03.09c0,.01-.02.03-.03.04,0-.04,0-.09,0-.13Z"/>
  <path class="cls-1" d="M238.99,42.69s.06,0,.1,0h-.05s-.05,0-.05,0Z"/>
  <path class="cls-1" d="M177.77,91.62c-.06-.01-.11-.02-.17-.04.06.01.11.02.17.04Z"/>
  <path class="cls-1" d="M207.21,44.05c0-.09,0-.18,0-.26,0,.09,0,.18,0,.26Z"/>
  <path class="cls-1" d="M124.66,37.75c-.42-.03-.27-.37-.25-.57.01-.18.16-.34.25-.51,0,.36,0,.72,0,1.08Z"/>
  <path class="cls-1" d="M111.62,51.19c.73-.7,1.7-.43,2.58-.53.17-.02.37.22.64.39-.55.13-.95.2-1.33.33-.11.04-.16.26-.24.39.13,0,.27.02.4,0,.11,0,.21-.05.31-.06.58-.04,1.17-.13,1.75-.1.76.04,1.52.1,2.26.27.64.15,1.17.19,1.71-.27.27-.23.64-.31.98-.01.17.15.37.27.63.46-.18.11-.32.27-.46.27-.66.03-1.32.02-1.98.02-1.08,0-2.17-.02-3.25,0-.52.01-1.03.12-1.55.17-.73.06-1.42.02-1.87-.71-.13-.22-.35-.4-.56-.64Z"/>
  <path class="cls-1" d="M258.95,21.01c.16.1.25.27.25.51s-.08.41-.23.52c-.16.12-.41.18-.76.18h-.35v-1.36h.32c.35,0,.61.05.77.15Z"/>
  <path class="cls-1" d="M258.35,16.85c-3.09,0-5.61,2.51-5.61,5.61s2.52,5.61,5.61,5.61,5.61-2.51,5.61-5.61-2.51-5.61-5.61-5.61ZM259.64,25.03l-1.21-1.94h-.57v1.94h-1.07v-5.06h1.47c.46,0,.84.06,1.14.17.3.11.52.28.66.5.15.23.22.51.22.85,0,.23-.04.43-.13.61-.09.17-.2.32-.35.44-.14.12-.29.21-.46.29l1.49,2.2h-1.19Z"/>
</svg>