<?xml version="1.0" encoding="UTF-8"?>
<svg id="Layer_1" data-name="Layer 1" xmlns="http://www.w3.org/2000/svg" viewBox="0 0 320 120">
  <defs>
    <style>
      .cls-1 {
        fill: #fff;
      }
    </style>
  </defs>
  <path class="cls-1" d="M160,112.34c-13.97,0-27.11-5.44-36.99-15.32-9.88-9.88-15.32-23.01-15.32-36.99s5.44-27.11,15.32-36.99,23.01-15.32,36.99-15.32,27.11,5.44,36.99,15.32,15.32,23.01,15.32,36.99-5.44,27.11-15.32,36.99c-9.88,9.88-23.01,15.32-36.99,15.32ZM160,8.4c-28.47,0-51.64,23.16-51.64,51.64s23.16,51.64,51.64,51.64,51.64-23.16,51.64-51.64-23.16-51.64-51.64-51.64ZM160,96.15c-19.92,0-36.12-16.2-36.12-36.12s16.2-36.12,36.12-36.12,36.12,16.2,36.12,36.12-16.2,36.12-36.12,36.12ZM160,24.59c-19.55,0-35.45,15.9-35.45,35.45s15.9,35.45,35.45,35.45,35.45-15.9,35.45-35.45-15.9-35.45-35.45-35.45Z"/>
  <g>
    <path class="cls-1" d="M112.62,52.48l1.66.16-.33,3.47,1.79.17.25-2.59,1.61.15-.25,2.59,3.44.33-.2,2.07-8.51-.81.53-5.54Z"/>
    <path class="cls-1" d="M121.24,47.02l-.9,3.06,1.31.91-.61,2.09-7.33-5.37.68-2.31,9.07-.57-.62,2.11-1.59.07ZM119.55,47.08l-3.3.14,2.71,1.88.59-2.02Z"/>
    <path class="cls-1" d="M121.03,31.8l7.39,4.3-1.05,1.8-4.43-2.58,3.47,4.23-.84,1.45-5.41-.92,4.44,2.58-1.05,1.8-7.39-4.3,1.24-2.13,6.32.9-3.92-5.03,1.23-2.11Z"/>
    <path class="cls-1" d="M124.23,28.2l6.5,5.54-1.35,1.58-6.5-5.54,1.35-1.58Z"/>
    <path class="cls-1" d="M132.14,30.04l2-1.85,1.09,1.18-3.53,3.27-5.81-6.27,1.53-1.41,4.71,5.09Z"/>
    <path class="cls-1" d="M137.24,17.71l.64,6.41,1.54,2.37-1.74,1.14-1.54-2.37-5.6-3.18,1.98-1.29,3.34,2.09-.58-3.9,1.96-1.28Z"/>
    <path class="cls-1" d="M150.74,12.96l.42,1.61-3.37.88.46,1.74,2.52-.66.41,1.57-2.52.66.88,3.34-2.01.53-2.16-8.27,5.38-1.41Z"/>
    <path class="cls-1" d="M154.9,12.41l1.08,8.48-2.06.26-1.09-8.48,2.06-.26Z"/>
    <path class="cls-1" d="M163.61,12.21l-.03,1.67-2.26-.04-.11,6.88-2.08-.03.11-6.88-2.26-.04.03-1.67,6.61.11Z"/>
    <path class="cls-1" d="M171.68,22.27l-2.04-.42-2.35-5.86-1.06,5.16-2.04-.42,1.72-8.37,2.04.42,2.35,5.89,1.06-5.19,2.04.42-1.72,8.37Z"/>
    <path class="cls-1" d="M177.31,17.17l-.66,1.6,2.57,1.07-.62,1.48-2.57-1.07-.72,1.73,2.91,1.21-.64,1.54-4.83-2.01,3.28-7.89,4.83,2.01-.64,1.54-2.91-1.21Z"/>
    <path class="cls-1" d="M179.85,25.78c-.31-.44-.48-.9-.52-1.4-.04-.49.09-.98.37-1.46l1.87,1.19c-.14.28-.18.55-.11.79.07.24.23.44.48.6.26.17.5.24.73.21.23-.02.41-.14.54-.35.11-.18.15-.36.1-.56-.05-.19-.13-.38-.26-.57-.13-.19-.32-.43-.58-.73-.37-.44-.66-.83-.87-1.16s-.32-.7-.36-1.12c-.03-.42.09-.85.38-1.3.43-.67,1-1.04,1.73-1.11.73-.07,1.48.14,2.26.64.79.5,1.31,1.1,1.56,1.79.24.69.17,1.38-.23,2.08l-1.9-1.21c.13-.24.17-.48.09-.71-.07-.23-.23-.43-.48-.59-.21-.14-.42-.19-.62-.16-.2.03-.37.15-.51.36-.15.23-.15.48-.02.75.14.27.39.63.76,1.07.37.45.65.84.85,1.17.2.33.32.7.36,1.11.04.41-.08.83-.35,1.26-.26.41-.6.72-1.03.92s-.9.28-1.42.22c-.52-.05-1.06-.25-1.6-.6-.53-.34-.95-.72-1.25-1.16Z"/>
    <path class="cls-1" d="M185.72,29.95c-.23-.49-.31-.97-.26-1.47.05-.49.26-.95.63-1.37l1.62,1.51c-.19.25-.28.51-.25.75.02.25.15.48.37.68.23.21.45.32.68.34.23.02.43-.07.6-.25.14-.15.21-.33.2-.53-.01-.2-.06-.4-.15-.61-.09-.21-.24-.48-.44-.82-.29-.5-.5-.93-.64-1.29-.14-.36-.19-.75-.15-1.17.04-.42.24-.82.61-1.21.54-.58,1.18-.84,1.9-.78.73.06,1.43.41,2.11,1.04.69.64,1.09,1.32,1.21,2.04.12.72-.08,1.39-.6,2.01l-1.65-1.53c.18-.21.25-.44.22-.68-.03-.24-.15-.46-.37-.66-.18-.17-.38-.26-.58-.27-.2,0-.39.08-.56.27-.19.2-.24.45-.15.74.09.29.27.69.55,1.19.28.51.49.95.62,1.31.14.36.19.74.15,1.15-.04.41-.23.8-.58,1.18-.33.36-.72.6-1.17.72-.45.12-.93.11-1.44-.04-.51-.15-.99-.44-1.46-.87-.46-.42-.8-.88-1.03-1.36Z"/>
    <path class="cls-1" d="M203.22,39.2l-1.45.82-1.71-3.03-1.57.88,1.28,2.27-1.41.79-1.28-2.27-3.01,1.69-1.02-1.81,7.45-4.19,2.73,4.85Z"/>
    <path class="cls-1" d="M204.88,43.26l-4.84,1.64c-.48.16-.82.41-1,.74-.18.33-.19.72-.04,1.18.16.46.41.77.75.93.34.16.76.15,1.24,0l4.84-1.64.67,1.97-4.83,1.64c-.72.24-1.39.3-1.99.16-.6-.14-1.12-.42-1.55-.86-.43-.43-.75-.97-.97-1.61-.22-.64-.28-1.25-.2-1.84.08-.59.32-1.11.73-1.58.4-.46.97-.82,1.69-1.06l4.83-1.64.67,1.97Z"/>
    <path class="cls-1" d="M199.51,59.39l-.23-2.07,4.85-4.05-5.24.59-.23-2.07,8.49-.95.23,2.07-4.87,4.05,5.26-.59.23,2.07-8.49.95Z"/>
  </g>
  <path class="cls-1" d="M160,24.68c-19.53,0-35.35,15.83-35.35,35.35s15.83,35.35,35.35,35.35,35.35-15.83,35.35-35.35-15.83-35.35-35.35-35.35ZM160,92.84c-18.12,0-32.81-14.69-32.81-32.81s14.69-32.81,32.81-32.81,32.81,14.69,32.81,32.81-14.69,32.81-32.81,32.81Z"/>
  <path class="cls-1" d="M160,112.1c-7.06,0-13.92-1.38-20.37-4.1-6.23-2.63-11.83-6.4-16.63-11.19-4.81-4.8-8.58-10.38-11.21-16.6-2.73-6.44-4.11-13.28-4.11-20.33s1.38-13.89,4.11-20.33c2.64-6.22,6.41-11.8,11.21-16.6s10.4-8.56,16.63-11.19c6.45-2.72,13.3-4.1,20.37-4.1s13.92,1.38,20.37,4.1c6.23,2.63,11.83,6.4,16.63,11.19,4.81,4.8,8.58,10.38,11.21,16.6,2.73,6.44,4.11,13.28,4.11,20.33s-1.38,13.89-4.11,20.33c-2.64,6.22-6.41,11.8-11.21,16.6-4.81,4.8-10.4,8.56-16.63,11.19-6.45,2.72-13.3,4.1-20.37,4.1ZM160,7.76c-28.79,0-52.22,23.38-52.22,52.12s23.43,52.12,52.22,52.12,52.22-23.38,52.22-52.12S188.8,7.76,160,7.76Z"/>
  <circle class="cls-1" cx="118.58" cy="74.34" r="3.26"/>
  <circle class="cls-1" cx="201.72" cy="74.34" r="3.26"/>
  <path class="cls-1" d="M160,34.41c10.53,0,19.13,8.24,19.71,18.61.02-.38.03-.75.03-1.13,0-10.91-8.84-19.75-19.75-19.75s-19.75,8.84-19.75,19.75c0,.38.01.76.03,1.13.59-10.38,9.19-18.61,19.71-18.61Z"/>
  <path class="cls-1" d="M154.24,59.64c-1.32-2.7-2.15-4-6.61-4.57.86-.43.75-1.46.75-2.63,0-1.56-.37-2.68-1.7-2.8-2.67-.25-2.42,1.27-2.42,2.83,0,.82.3,1.56.77,2.07-5.06-1.88-7.48-8.51-7.48-8.51,0,0-.75,5.4,5.34,10.67,0,0,3.84,4.25,3.5,9.64-.4,6.43-6.25,12.47-6.25,12.47,6.2-3.17,8.31-11.1,8.76-12.63.57,3.29.5,7.17-.75,11.27,0,0,4.17-5.16,2.89-12.67-.92-5.41-1.19-6.54.17-5.82,1.81.96,2.81,5.56,6.72,6.1,0,0-1.14-.19-3.69-5.41Z"/>
  <g>
    <path class="cls-1" d="M160.03,63.38c.91,0,1.65-.82,1.65-1.82s-.74-1.82-1.65-1.82-1.64.82-1.64,1.82.74,1.82,1.64,1.82Z"/>
    <path class="cls-1" d="M161.75,65.21c.23-1.78,2.47-2.33,2.7-6.26,0,0-.61,2.05-2.41,3.49-1.17.94-2.85.94-4.02,0-1.8-1.44-2.41-3.49-2.41-3.49.23,3.93,2.47,4.48,2.7,6.26.03.2-.14,3.97-1.56,7.41-.57,1.37,0,3.53,0,3.53,0-2.8,2.22-6.06,3.29-6.03,1.06.03,3.29,3.22,3.29,6.03,0,0,.73-1.73,0-3.53-1.48-3.66-1.58-7.24-1.56-7.41Z"/>
  </g>
  <path class="cls-1" d="M175.61,71.52c0-2.84-1.45-7.16-1.84-8.26.65-4.03,3.02-6.91,3.02-6.91,6.09-5.26,5.68-10.67,5.68-10.67,0,0-2.42,7.14-7.48,9.01-.33.14-.6.24-.82.32.37-.47.45-1.13.61-1.83.52-2.28-.97-2.84-2.11-2.61-1.44.29-1.48,1.02-1.68,2.45-.24,1.68-.06,1.87.51,2.34-3.59.66-3.94,2.13-5.42,4.37-3.2,4.84-3.97,4.97-3.97,4.97,3.92-.54,4.71-5.01,6.52-5.97.33-.17.57-.25.74-.18-.17.58-.25,1.32-.01,2.09.06.18.11.38.15.58-.11.83-.29,1.89-.51,3.21-1.48,3.11-.15,7.53-.15,7.53l.55-.04c.92,3.23,2.48,5.17,2.48,5.17-.55-1.81-.88-3.58-1.02-5.27l2.56-.16c1.36,2.53,3.42,5.24,6.46,6.79,0,0-2.85-2.94-4.71-6.9l.44-.03Z"/>
  <path class="cls-1" d="M160,79.59c6.79,0,13.16.75,18.63,2.07-4.8-2.69-11.38-4.35-18.63-4.35s-13.83,1.66-18.63,4.35c5.47-1.31,11.84-2.07,18.63-2.07Z"/>
  <polygon class="cls-1" points="160 37.82 160.58 39.59 162.44 39.59 160.93 40.68 161.51 42.45 160 41.36 158.49 42.45 159.07 40.68 157.56 39.59 159.42 39.59 160 37.82"/>
  <polygon class="cls-1" points="153.04 40.53 153.37 41.55 154.44 41.55 153.57 42.18 153.9 43.19 153.04 42.56 152.17 43.19 152.5 42.18 151.63 41.55 152.7 41.55 153.04 40.53"/>
  <polygon class="cls-1" points="148.38 43.42 148.64 44.22 149.48 44.22 148.8 44.71 149.06 45.51 148.38 45.02 147.7 45.51 147.96 44.71 147.29 44.22 148.12 44.22 148.38 43.42"/>
  <polygon class="cls-1" points="166.96 40.53 166.63 41.55 165.56 41.55 166.43 42.18 166.1 43.19 166.96 42.56 167.83 43.19 167.5 42.18 168.36 41.55 167.3 41.55 166.96 40.53"/>
  <polygon class="cls-1" points="171.62 43.42 171.36 44.22 170.52 44.22 171.2 44.71 170.94 45.51 171.62 45.02 172.3 45.51 172.04 44.71 172.71 44.22 171.88 44.22 171.62 43.42"/>
  <g>
    <path class="cls-1" d="M154.09,86.45c.31-.26.56-.47.74-.64.18-.17.33-.34.46-.52s.19-.36.19-.53c0-.13-.03-.23-.09-.31-.06-.07-.15-.11-.27-.11s-.22.05-.29.14c-.07.09-.1.22-.1.39h-.79c0-.27.06-.5.18-.68.11-.18.26-.32.44-.4.18-.09.38-.13.6-.13.38,0,.67.1.86.29.19.2.29.45.29.76,0,.34-.12.66-.35.95-.23.29-.53.58-.89.86h1.3v.67h-2.41v-.61c.11-.09.16-.13.15-.12Z"/>
    <path class="cls-1" d="M157.22,84.13c.21-.32.56-.47,1.03-.47s.82.16,1.03.47c.21.32.32.75.32,1.3s-.11.99-.32,1.31c-.21.32-.56.47-1.03.47s-.82-.16-1.03-.47c-.21-.32-.32-.75-.32-1.31s.11-.98.32-1.3ZM158.69,84.68c-.07-.17-.22-.26-.44-.26s-.37.09-.44.26-.11.42-.11.75c0,.22.01.4.04.54s.08.26.16.35c.08.09.19.13.35.13s.27-.04.35-.13c.08-.09.13-.2.16-.35.03-.14.04-.32.04-.54,0-.32-.04-.57-.11-.75Z"/>
    <path class="cls-1" d="M160.34,86.45c.31-.26.56-.47.74-.64.18-.17.33-.34.46-.52.12-.18.19-.36.19-.53,0-.13-.03-.23-.09-.31-.06-.07-.15-.11-.27-.11s-.22.05-.29.14c-.07.09-.1.22-.1.39h-.79c0-.27.06-.5.18-.68.11-.18.26-.32.44-.4.18-.09.38-.13.6-.13.38,0,.67.1.86.29s.29.45.29.76c0,.34-.12.66-.35.95-.23.29-.53.58-.89.86h1.3v.67h-2.41v-.61c.11-.09.16-.13.15-.12Z"/>
    <path class="cls-1" d="M165.62,84.44h-1.5v.66c.06-.07.15-.13.27-.17s.24-.07.37-.07c.24,0,.44.05.6.16s.27.25.35.42c.07.17.11.36.11.56,0,.37-.11.67-.32.89-.21.22-.51.33-.89.33-.26,0-.48-.04-.67-.13-.19-.09-.33-.21-.44-.37-.1-.16-.16-.34-.17-.54h.8c.02.1.07.18.14.25.07.07.17.1.3.1.15,0,.26-.05.34-.14.07-.1.11-.22.11-.38s-.04-.28-.12-.36c-.08-.08-.19-.12-.34-.12-.11,0-.2.03-.27.08-.07.05-.12.12-.14.21h-.79v-2.09h2.24v.72Z"/>
  </g>
  <g>
    <path class="cls-1" d="M125.52,91.93l-.59-.83.6-.62c-.88-.05-1.58-.45-2.11-1.2-.59-.83-.78-1.72-.56-2.65.22-.94.8-1.74,1.73-2.4.94-.67,1.9-.94,2.89-.81.98.13,1.78.62,2.39,1.48.48.68.7,1.4.64,2.14-.06.75-.38,1.39-.96,1.92l-.9-1.27c.28-.29.42-.61.44-.96.01-.35-.1-.71-.35-1.05-.35-.5-.81-.76-1.38-.78-.57-.02-1.18.19-1.83.66-.66.47-1.07.98-1.24,1.53-.16.55-.06,1.08.31,1.6.29.41.65.65,1.09.74.44.08.87-.01,1.29-.29l-.94-1.33.99-.7,1.78,2.51-3.29,2.34Z"/>
    <path class="cls-1" d="M136.51,93.41c.02.98-.36,1.91-1.14,2.78-.77.87-1.65,1.36-2.62,1.46-.97.1-1.86-.21-2.66-.92-.81-.72-1.23-1.57-1.25-2.54s.35-1.9,1.13-2.78c.78-.88,1.66-1.38,2.63-1.47s1.87.22,2.69.94c.8.71,1.21,1.55,1.22,2.53ZM132.84,91.42c-.58.11-1.12.45-1.63,1.03-.53.6-.82,1.19-.85,1.77-.03.58.18,1.07.64,1.49.46.4.97.55,1.54.44.57-.11,1.12-.47,1.64-1.07.52-.59.8-1.17.83-1.75.04-.58-.17-1.07-.63-1.48-.45-.4-.96-.55-1.54-.44Z"/>
    <path class="cls-1" d="M142.07,95.8c.6.33,1.01.74,1.24,1.22.23.48.19,1-.11,1.55-.17.31-.4.53-.68.68-.29.15-.6.21-.94.18.65.66.75,1.41.29,2.24-.34.62-.81.98-1.41,1.1-.6.11-1.21,0-1.84-.35l-3.2-1.77,3.61-6.53,3.03,1.68ZM137.42,100.28l1.41.78c.37.2.69.3.97.3.28,0,.52-.18.71-.53.2-.35.21-.65.06-.9-.16-.24-.43-.47-.82-.69l-1.34-.74-.98,1.78ZM138.95,97.53l1.28.71c.71.39,1.2.33,1.48-.18.17-.3.18-.56.05-.77-.13-.21-.36-.41-.68-.59l-1.28-.71-.85,1.53Z"/>
    <path class="cls-1" d="M149.62,106.65l-1.61-.5-.05-1.76-2.6-.81-1.07,1.42-1.57-.49,4.88-6.31,1.58.49.44,7.97ZM147.84,100.18l-1.76,2.36,1.86.58-.1-2.94Z"/>
    <path class="cls-1" d="M156.44,99.97c.72.07,1.3.29,1.72.68s.61.94.54,1.65c-.04.43-.18.8-.41,1.1-.23.31-.54.51-.91.62.62.19.92.8.92,1.83,0,.03,0,.14,0,.33,0,.18,0,.33,0,.44,0,.11,0,.24.02.4,0,.15.03.29.06.39s.07.19.12.24l-1.66-.15c-.04-.12-.07-.26-.08-.43-.01-.17-.02-.39-.01-.66,0-.27,0-.42.01-.45,0-.53-.1-.9-.28-1.12-.18-.22-.53-.35-1.04-.4l-1.42-.13-.27,2.91-1.59-.15.68-7.44,3.62.33ZM154.09,103.13l1.52.14c.44.04.8,0,1.06-.12s.41-.39.45-.81c.04-.39-.06-.67-.29-.83-.23-.16-.55-.26-.96-.3l-1.59-.15-.19,2.06Z"/>
    <path class="cls-1" d="M160.46,100.16l2.94-.37c1.13-.14,2.04.07,2.73.63.69.56,1.11,1.44,1.26,2.63.15,1.19-.04,2.15-.57,2.86s-1.36,1.14-2.48,1.29l-2.94.37-.94-7.41ZM163.97,105.87c1.41-.18,2.01-1.05,1.81-2.62-.1-.76-.34-1.32-.75-1.68-.4-.36-.96-.5-1.66-.41l-1.16.15.59,4.7,1.16-.15Z"/>
    <path class="cls-1" d="M176.78,103.89l-1.59.56-1.09-1.38-2.57.9v1.77s-1.57.54-1.57.54l.16-7.98,1.56-.55,5.1,6.14ZM171.51,99.76v2.95s1.83-.64,1.83-.64l-1.83-2.31Z"/>
    <path class="cls-1" d="M175.12,96.4l1.4-.85,5.17,2.71-2.6-4.28,1.32-.8,3.88,6.38-1.37.83-5.2-2.71,2.6,4.28-1.33.81-3.88-6.38Z"/>
    <path class="cls-1" d="M191.67,92.97l-.73.71-.7-.5c.08.87-.21,1.63-.87,2.27-.73.71-1.58,1.03-2.54.95-.96-.07-1.84-.52-2.63-1.35-.8-.83-1.22-1.74-1.24-2.73-.03-.99.34-1.86,1.1-2.59.6-.58,1.27-.9,2.02-.96.75-.06,1.43.16,2.04.66l-1.12,1.08c-.33-.23-.67-.32-1.02-.28s-.68.21-.99.5c-.44.42-.63.92-.56,1.49.06.57.37,1.14.93,1.71.56.58,1.13.91,1.7.99.57.08,1.08-.1,1.54-.55.36-.35.55-.75.56-1.19.02-.45-.15-.86-.48-1.24l-1.17,1.14-.85-.87,2.21-2.14,2.81,2.9Z"/>
    <path class="cls-1" d="M197.22,85.12l-.93,1.4-1.71-.44-1.51,2.27,1.06,1.42-.91,1.37-4.69-6.46.92-1.38,7.77,1.82ZM190.52,85.02l1.78,2.35,1.07-1.62-2.85-.73Z"/>
  </g>
</svg>