<?xml version="1.0" encoding="UTF-8"?>
<svg id="Layer_1" xmlns="http://www.w3.org/2000/svg" version="1.1" viewBox="0 0 320 120">
  <!-- Generator: Adobe Illustrator 30.2.1, SVG Export Plug-In . SVG Version: 2.1.1 Build 1)  -->
  <defs>
    <style>
      .st0, .st1 {
        fill: #fff;
      }

      .st1 {
        fill-rule: evenodd;
      }

      .st2 {
        fill: #033574;
      }
    </style>
  </defs>
  <g>
    <path class="st0" d="M114.04,55.3l.09.39-1.64.84c-.57-1.11-1.11-2.14-1.67-3.32-.09-.19-.19-.34-.3-.45-.21-.22-.49-.31-.89-.31-.83.02-1.66-.06-2.6-.1l-.22-.96-.09-.39s0,0,0,0c.17,0,.34.02.51.03.17,0,.33.02.5.03.54.03,1.06.06,1.58.05.6,0,.93.21,1.19.75.71,1.48,1.37,2.73,2.12,4.18l1.43-.73Z"/>
    <path class="st0" d="M112.47,56.57l-.25-.49c-.49-.95-.95-1.84-1.44-2.86-.09-.19-.19-.34-.3-.44-.2-.21-.47-.3-.87-.3-.58.01-1.16-.02-1.78-.06-.27-.02-.54-.03-.82-.04h-.03s-.33-1.41-.33-1.41l.04-.02h.02c.16.01.32.02.5.03.08,0,.17,0,.25.01.08,0,.17,0,.25.01.59.03,1.08.06,1.58.05.61,0,.95.21,1.23.77.53,1.1,1.03,2.07,1.56,3.1.18.34.36.69.54,1.05l1.44-.74.11.46-1.7.87ZM109.63,52.42c.41,0,.69.1.9.32.11.11.21.26.31.46.49,1.01.95,1.91,1.44,2.86l.22.43,1.59-.81-.07-.32-1.42.73-.02-.03c-.19-.37-.38-.73-.56-1.08-.53-1.03-1.03-1.99-1.56-3.1-.26-.54-.58-.74-1.16-.73-.51.01-1-.01-1.59-.05-.08,0-.17,0-.25-.01-.08,0-.17,0-.25-.01-.17-.01-.32-.02-.47-.02l.3,1.28c.27.01.54.03.8.04.61.04,1.19.07,1.77.06,0,0,0,0,.01,0Z"/>
  </g>
  <g>
    <path class="st0" d="M131.53,46.49s.01.05.02.08l-.02-.1s0,.01,0,.02Z"/>
    <path class="st0" d="M131.51,46.57l-.02-.1.07-.02s0,.02,0,.03h0s0,.02,0,.03c0,.01,0,.03,0,.05h-.07Z"/>
  </g>
  <g>
    <path class="st0" d="M134.78,53.11c.17.33.34.67.52,1.01h0c-.06.13-.12.25-.18.38-.91-1.77-1.82-3.53-2.74-5.28-.25-.47-.42-.93-.53-1.39l-.29-1.25s.01.05.02.07c.01.06.03.11.05.17.02.06.04.12.06.17.1.29.22.58.38.87.51.97,1.02,1.95,1.52,2.92.4.78.8,1.56,1.21,2.33Z"/>
    <path class="st0" d="M135.11,54.57l-.03-.06c-.8-1.56-1.75-3.41-2.74-5.28-.25-.47-.43-.94-.53-1.4l-.29-1.25.07-.02s.01.05.02.07c.01.05.03.11.05.17.02.06.03.11.06.17.1.29.22.58.38.87.54,1.03,1.07,2.05,1.52,2.92.4.78.8,1.56,1.21,2.33h0c.12.22.23.45.35.67l.18.36-.02.02c-.06.12-.12.25-.18.37l-.03.06ZM131.75,47.28l.12.52c.11.46.28.92.53,1.38.98,1.85,1.92,3.68,2.71,5.22.05-.1.1-.2.15-.3l-.16-.32c-.11-.22-.23-.45-.34-.67h0c-.4-.78-.8-1.56-1.21-2.33-.45-.86-.98-1.89-1.52-2.92-.1-.19-.19-.39-.27-.59Z"/>
  </g>
  <g>
    <path class="st0" d="M194.18,9.03l.12.51.2.84c-1.08,1.56-2.16,3.12-3.24,4.67-3.23,4.66-6.44,9.3-9.72,14.03-.11-.22-.22-.43-.33-.65-.62-1.2-1.24-2.41-1.85-3.61-.16-.31-.33-.61-.52-.89h0c-1.02-1.56-2.45-2.68-4.27-3.35-3.01-1.1-5.96-1-7.92-.83-6.05.52-12.04,2.39-18.85,5.87-.35.18-.69.36-1.04.54-5.49,2.91-9.89,6.13-13.44,9.84-1.68,1.75-3.75,4.17-4.97,7.4-.1.25-.18.5-.25.76-.02.08-.04.16-.06.24-.05.17-.09.35-.13.52-.02.09-.03.18-.05.27-.03.15-.05.3-.07.45h0s0,.04,0,.05c0,.09-.02.18-.03.27-.02.19-.03.37-.04.56,0,.07,0,.14,0,.21,0,.04,0,.07,0,.11,0,.16,0,.33.02.49,0,.05,0,.1,0,.14.02.19.04.38.06.56,0,0,0,.01,0,.02,0,.03.01.05.01.08.03.2.07.4.11.59l-.29-1.25-.03-.1s-.02-.09-.03-.13c-.02-.05-.03-.1-.03-.16-.02-.1-.04-.2-.05-.3,0-.02,0-.04-.01-.05,0-.04-.01-.08-.02-.13-.03-.16-.04-.32-.05-.48,0-.05,0-.1,0-.14-.01-.16-.02-.33-.02-.49,0-.04,0-.08,0-.12h0s0-.03,0-.05c0-.02,0-.03,0-.05,0-.03,0-.07,0-.1,0-.09,0-.19.01-.28,0-.09,0-.18.02-.28,0-.05,0-.09.01-.13,0-.04,0-.08.02-.13.02-.17.04-.33.07-.5,0-.09.03-.18.05-.27.04-.17.08-.35.13-.52.02-.08.04-.16.06-.24.04-.13.08-.25.12-.38.04-.13.09-.26.13-.38,1.22-3.22,3.29-5.65,4.97-7.39,3.55-3.71,7.95-6.93,13.44-9.84.35-.18.69-.36,1.04-.54,6.8-3.48,12.8-5.35,18.85-5.87,1.96-.17,4.91-.27,7.92.83,2.16.79,3.77,2.22,4.79,4.24.72,1.42,1.45,2.84,2.18,4.26,4.37-6.31,8.63-12.46,12.96-18.71Z"/>
    <path class="st0" d="M127.9,48.73h0s0,0,0,0l-.31-1.35s-.01-.06-.02-.09c0-.01,0-.03,0-.04-.01-.05-.02-.1-.03-.16-.02-.1-.04-.2-.05-.3,0,0,0-.02,0-.03,0,0,0-.02,0-.02-.01-.05-.02-.1-.02-.13-.03-.17-.04-.33-.05-.49,0-.02,0-.05,0-.07,0-.02,0-.05,0-.07-.01-.16-.02-.33-.02-.49,0-.02,0-.04,0-.06,0-.02,0-.04,0-.06h0s0-.03,0-.04h0s0-.03,0-.04c0,0,0-.01,0-.02,0-.04,0-.07,0-.11,0-.09,0-.18.01-.27,0-.09,0-.18.02-.28,0-.04,0-.08.01-.13,0-.05,0-.09.02-.14.02-.16.04-.33.07-.5,0-.08.02-.16.05-.27.04-.19.08-.36.13-.52,0-.03.01-.06.02-.08.01-.05.03-.11.04-.16.04-.13.08-.25.12-.38.04-.13.09-.26.13-.38,1.22-3.24,3.3-5.66,4.98-7.41,3.54-3.7,7.94-6.92,13.45-9.84.34-.18.69-.36,1.04-.54,6.81-3.48,12.8-5.35,18.86-5.87,1.97-.17,4.93-.27,7.93.83,2.16.79,3.78,2.22,4.81,4.26.54,1.07,1.1,2.16,1.64,3.21.17.33.34.67.52,1,2.97-4.29,5.94-8.58,8.81-12.73,1.37-1.97,2.73-3.95,4.11-5.93l.04-.06.33,1.44h0c-1.08,1.58-2.16,3.13-3.24,4.69-3.23,4.66-6.44,9.3-9.72,14.03l-.03.05-.36-.7c-.69-1.35-1.3-2.53-1.85-3.62-.16-.31-.33-.6-.51-.89h0c-1.02-1.56-2.45-2.67-4.25-3.33-3-1.1-5.95-1-7.91-.83-6.05.52-12.03,2.38-18.84,5.86-.35.18-.7.36-1.04.54-5.5,2.92-9.89,6.13-13.43,9.83-1.67,1.74-3.75,4.16-4.96,7.38-.09.23-.17.48-.25.75,0,.03-.01.05-.02.08-.01.05-.03.11-.04.16-.04.16-.08.33-.13.52,0,.04-.02.09-.03.14,0,.05-.02.09-.03.14-.03.16-.05.3-.07.43h0s0,.02,0,.02c0,.01,0,.03,0,.04,0,.03,0,.06-.01.09,0,.06-.01.12-.02.17-.02.17-.03.35-.04.56,0,.04,0,.09,0,.13,0,.03,0,.05,0,.08,0,.02,0,.04,0,.07,0,.02,0,.03,0,.05,0,.16,0,.33.02.49,0,.04,0,.08,0,.11v.03c.02.18.04.38.07.56h-.03s0,.01,0,.01h.03s0,0,0,.01c0,.02.01.05.01.08.04.22.07.4.11.59h-.07ZM168.58,18.33c-.83,0-1.59.05-2.24.1-6.05.52-12.04,2.38-18.84,5.86-.35.18-.7.36-1.04.54-5.51,2.92-9.9,6.14-13.43,9.83-1.67,1.74-3.75,4.16-4.96,7.38-.05.12-.09.25-.13.38-.04.13-.08.25-.12.38-.02.05-.03.1-.04.16,0,.03-.01.06-.02.08-.04.16-.08.33-.13.52-.03.11-.04.19-.05.27-.03.17-.06.33-.07.5-.01.05-.02.08-.02.13,0,.06-.01.1-.01.14-.02.1-.02.19-.02.28,0,.09-.01.19-.01.28,0,.04,0,.07,0,.1,0,.01,0,.02,0,.03,0,0,0,.01,0,.02h0s0,.03,0,.04h0s0,.02,0,.02c0,.02,0,.03,0,.05,0,.02,0,.04,0,.06,0,.16,0,.33.02.49,0,.02,0,.05,0,.07,0,.02,0,.05,0,.07.01.15.03.32.05.48,0,.03,0,.08.02.12,0,0,0,.02,0,.03,0,0,0,.02,0,.02.02.11.03.2.05.3,0,.06.02.11.03.16,0,.02,0,.03,0,.05,0,.03.01.06.02.08l.07.29c0-.06-.01-.12-.02-.18v-.03s0-.08,0-.11c-.01-.16-.02-.33-.02-.49,0-.02,0-.03,0-.05,0-.02,0-.05,0-.07,0-.03,0-.05,0-.08,0-.04,0-.08,0-.13,0-.21.02-.39.04-.56,0-.06.01-.12.02-.18,0-.03,0-.06.01-.09,0,0,0-.03,0-.04h0c.02-.14.04-.29.07-.46,0-.05.02-.09.03-.14,0-.04.02-.09.03-.14.04-.2.09-.37.13-.53.02-.05.03-.1.04-.16,0-.03.01-.06.02-.08.08-.28.16-.53.25-.76,1.22-3.24,3.3-5.66,4.98-7.41,3.54-3.7,7.94-6.92,13.45-9.84.34-.18.69-.36,1.04-.54,6.81-3.48,12.81-5.35,18.86-5.87,1.96-.17,4.93-.27,7.93.83,1.82.66,3.26,1.79,4.29,3.35h0c.19.3.36.59.52.91.55,1.09,1.15,2.27,1.85,3.61l.31.6c3.27-4.72,6.47-9.34,9.69-13.99,1.07-1.55,2.15-3.1,3.23-4.66l-.29-1.26c-1.36,1.96-2.71,3.92-4.07,5.87-2.88,4.16-5.87,8.47-8.85,12.77l-.03.05-.03-.05c-.18-.35-.36-.7-.54-1.06-.54-1.05-1.1-2.14-1.64-3.21-1.03-2.02-2.63-3.44-4.78-4.23-2-.73-3.98-.93-5.67-.93Z"/>
  </g>
  <g>
    <path class="st0" d="M111.96,51.24l.31,1.35c5.93.27,11.76.54,17.77.82l-.31-1.35c-3-.14-5.96-.27-8.91-.41s-5.89-.27-8.85-.41Z"/>
    <path class="st0" d="M130.09,53.45h-.04c-2.36-.11-4.7-.22-7.03-.32-3.58-.16-7.14-.33-10.74-.49h-.03s-.33-1.42-.33-1.42h.04c2.96.14,5.9.27,8.85.41l1.84.08c2.34.11,4.7.21,7.08.32h.03s.33,1.42.33,1.42ZM112.3,52.56c3.59.17,7.14.33,10.71.49,2.31.11,4.63.21,6.98.32l-.3-1.28c-2.37-.11-4.72-.22-7.05-.32l-1.84-.08c-2.93-.13-5.86-.27-8.81-.4l.3,1.28Z"/>
  </g>
  <g>
    <path class="st0" d="M122.68,68.92c.41-.22.65-.46.75-.73l.02.11s0,.02,0,.03c0,.02,0,.03,0,.04,0,.04.01.09.01.13,0,.01,0,.02,0,.03,0,0,0,.02,0,.02,0,.08-.02.15-.04.22,0,0,0,.01,0,.02-.03.07-.07.13-.11.19,0,.01-.02.02-.03.04-.05.06-.12.12-.19.18-.02.01-.03.02-.05.03-.08.06-.17.12-.28.18-.73.39-1.46.78-2.2,1.16-.77.39-1.54.78-2.33,1.15-.79.38-1.15.15-1.51-.62.12.14.25.23.39.28.28.1.6.05,1.02-.15.78-.37,1.56-.76,2.33-1.16.57-.29,1.14-.59,1.71-.89l.5-.27Z"/>
    <path class="st0" d="M117.61,71.94c-.09,0-.17-.01-.24-.04-.25-.09-.45-.32-.67-.78l-.1-.21.15.17c.12.13.24.22.38.27.27.1.58.05.99-.15.69-.33,1.46-.71,2.33-1.16.64-.33,1.2-.62,1.71-.89l.5-.27c.4-.22.64-.45.74-.72l.04-.11.05.22s0,.03.01.04c0,0,0,.02,0,.03,0,0,0,0,0,.01,0,.05.01.09.01.14,0,0,0,0,0,.01,0,0,0,0,0,.01h0s0,.02,0,.02c0,0,0,.01,0,.01,0,.08-.02.16-.04.23h0c-.03.09-.07.15-.12.22,0,0-.01.01-.02.02,0,0,0,.01-.01.02-.06.07-.12.13-.2.19-.01.01-.03.03-.05.04-.1.07-.19.13-.28.18-.79.43-1.51.8-2.21,1.16-.86.44-1.62.82-2.33,1.15-.26.12-.47.18-.65.18ZM116.85,71.27c.17.33.34.5.54.57.22.08.48.03.84-.14.7-.34,1.46-.71,2.32-1.15.7-.35,1.42-.73,2.2-1.16.09-.05.17-.1.28-.18.02-.01.03-.02.05-.03.07-.06.14-.12.19-.18,0,0,0-.01.01-.02,0,0,0-.01.01-.02.04-.06.08-.12.11-.18h0c.02-.08.04-.15.04-.22,0,0,0-.02,0-.03,0,0,0,0,0-.01,0,0,0,0,0-.01,0-.04,0-.09-.01-.13,0,0,0-.01,0-.02,0,0,0-.01,0-.02,0-.01,0-.02,0-.03v-.02c-.13.24-.36.45-.73.65h0l-.5.27c-.51.27-1.07.56-1.71.89-.88.45-1.64.83-2.33,1.16-.43.21-.76.25-1.05.15-.1-.03-.18-.08-.27-.15Z"/>
  </g>
  <g>
    <path class="st0" d="M123.16,67.3s0,.01,0,.02c0,0,0,.02,0,.03.05.12.09.23.11.34,0,0,0,.01,0,.02.07.43-.15.74-.7,1.05-.73.39-1.46.78-2.2,1.16-.77.4-1.55.78-2.33,1.16-.8.39-1.16.15-1.52-.64-.66-1.43-1.21-2.88-1.64-4.37-.01-.04-.02-.07-.03-.11-.07-.25-.13-.5-.19-.75l-.32-1.35c.47,2.02,1.16,3.98,2.04,5.9.36.79.72,1.03,1.52.64.78-.38,1.56-.76,2.33-1.15.74-.38,1.47-.76,2.2-1.16.11-.06.2-.12.28-.18.02-.01.03-.02.05-.03.08-.06.14-.12.19-.18.01-.01.02-.03.03-.04.04-.06.08-.13.11-.19,0,0,0,0,0-.01.01-.04.02-.08.03-.12Z"/>
    <path class="st0" d="M117.42,71.28c-.09,0-.17-.01-.24-.04-.25-.09-.45-.33-.67-.8-.67-1.45-1.22-2.92-1.64-4.37-.01-.03-.02-.07-.03-.11-.07-.25-.13-.5-.19-.75l-.31-1.32s0-.02,0-.03l.07-.02s0,0,0,0v.03c.46,1.94,1.14,3.91,2.04,5.87.21.45.4.68.63.77.22.08.48.03.84-.14.84-.41,1.6-.78,2.32-1.15.7-.36,1.42-.73,2.2-1.16.09-.05.18-.11.28-.18,0,0,.02-.01.03-.02,0,0,.01,0,.02-.02.08-.06.14-.12.19-.18h0s.01-.03.02-.04c.05-.07.08-.13.1-.18,0,0,0-.01,0-.01,0-.02.01-.05.02-.08,0-.01,0-.02,0-.04l.02-.09.04.08s0,.02,0,.03c0,0,0,.02,0,.02.06.12.09.23.11.33,0,0,0,.02,0,.03.07.43-.15.77-.72,1.08-.79.42-1.51.8-2.2,1.16-.86.44-1.63.82-2.33,1.16-.26.12-.47.18-.65.18ZM114.89,65.88s0,.03.01.05c0,.04.02.07.03.1.42,1.46.97,2.92,1.64,4.37.21.45.4.68.63.77.22.08.48.03.84-.14.7-.34,1.46-.71,2.33-1.16.69-.35,1.41-.73,2.2-1.16.54-.3.75-.6.68-1.01v-.02c-.02-.08-.05-.17-.09-.27,0,0,0,.01,0,.02,0,0,0,.01,0,.01-.02.06-.06.12-.11.2h0s0,.02-.02.03h0c-.05.08-.12.14-.2.2,0,0-.02.01-.03.02,0,0-.01,0-.02.02-.1.07-.19.13-.29.18-.79.42-1.51.8-2.21,1.16-.73.37-1.49.75-2.33,1.15-.38.18-.66.23-.9.14-.25-.09-.45-.33-.67-.8-.59-1.29-1.09-2.58-1.49-3.86Z"/>
  </g>
  <g>
    <g>
      <path class="st0" d="M178.82,31.21c-1.98-.29-3.98-.43-5.99-.43-1.21,0-2.43.05-3.64.16-2.89.26-5.67.79-8.28,1.58-2.7.81-5.32,1.89-7.8,3.2-2.48,1.34-4.84,2.92-7,4.7-2.13,1.76-4.12,3.78-5.92,6.01-1.9,2.36-3.55,4.95-4.9,7.69h0c-.17-.33-.34-.67-.51-1.01-.4-.78-.8-1.56-1.21-2.33-.51-.97-1.01-1.95-1.52-2.92-.15-.29-.28-.58-.38-.87-.02-.06-.04-.11-.06-.17-.02-.06-.04-.12-.05-.17,0-.03-.01-.05-.02-.07,0-.03-.01-.05-.02-.08,0,0,0-.02,0-.02-.24-1.03-.14-2.05.26-3.12.9-2.36,2.43-4.29,4.16-6.09,3.61-3.77,7.87-6.67,12.45-9.09.32-.17.65-.34.97-.51,5.49-2.81,11.22-4.93,17.44-5.46,2.12-.19,4.23-.14,6.26.61,1.2.45,2.09,1.2,2.68,2.36,1.02,2.02,2.05,4.03,3.09,6.04Z"/>
      <path class="st0" d="M135.29,54.17l-.02-.04c-.09-.17-.17-.33-.26-.5-.09-.17-.17-.34-.26-.51-.4-.78-.8-1.56-1.2-2.33-.45-.86-.98-1.89-1.52-2.92-.15-.29-.28-.59-.38-.88-.02-.06-.04-.12-.06-.17-.02-.06-.04-.12-.05-.17,0-.03-.01-.05-.02-.07,0-.02,0-.03,0-.05,0-.01,0-.02,0-.03,0,0,0-.01,0-.02-.24-1.02-.15-2.05.26-3.14.98-2.58,2.74-4.62,4.16-6.1,3.27-3.41,7.35-6.39,12.46-9.1.16-.08.32-.17.48-.25.16-.08.32-.17.48-.25,6.36-3.25,11.9-4.99,17.45-5.47,2.57-.23,4.5-.04,6.27.61,1.24.46,2.12,1.24,2.7,2.38,1.01,1.99,2.05,4.02,3.09,6.04l.03.06h-.07c-1.96-.3-3.97-.44-5.99-.44-1.2,0-2.42.05-3.63.16-2.88.26-5.66.79-8.27,1.58-2.7.81-5.32,1.89-7.8,3.2-2.49,1.34-4.84,2.92-6.99,4.69-2.13,1.76-4.12,3.78-5.92,6-1.89,2.35-3.54,4.94-4.89,7.68h0s-.03.04-.03.04ZM168.74,22.13c-.61,0-1.25.03-1.94.09-5.54.48-11.07,2.21-17.42,5.46-.16.08-.32.17-.48.25-.16.08-.32.17-.48.25-5.11,2.71-9.18,5.68-12.44,9.09-1.42,1.48-3.18,3.51-4.15,6.08-.41,1.08-.49,2.09-.26,3.1,0,0,0,.01,0,.02,0,.01,0,.02,0,.03,0,.01,0,.03,0,.05,0,.02.01.04.02.07.01.05.03.11.05.17.02.06.03.11.06.17.1.29.22.58.38.87.54,1.03,1.07,2.05,1.52,2.92.4.78.8,1.56,1.21,2.33.09.17.17.34.26.51.08.15.15.29.23.44,1.35-2.73,2.99-5.3,4.87-7.64,1.8-2.23,3.79-4.25,5.93-6.01,2.16-1.78,4.51-3.36,7-4.7,2.48-1.32,5.11-2.4,7.81-3.21,2.62-.79,5.4-1.32,8.29-1.58,1.22-.11,2.44-.16,3.64-.16,2,0,3.99.14,5.93.42-1.03-2-2.06-4.01-3.06-5.98-.57-1.13-1.44-1.9-2.66-2.35-1.29-.47-2.66-.7-4.3-.7Z"/>
    </g>
    <g>
      <path class="st0" d="M178.82,31.21c-1.98-.29-3.98-.43-5.99-.43-1.21,0-2.43.05-3.64.16-2.89.26-5.67.79-8.28,1.58-2.7.81-5.32,1.89-7.8,3.2-2.48,1.34-4.84,2.92-7,4.7-2.13,1.76-4.12,3.78-5.92,6.01-1.9,2.36-3.55,4.95-4.9,7.69h0c-.17-.33-.34-.67-.51-1.01-.4-.78-.8-1.56-1.21-2.33-.51-.97-1.01-1.95-1.52-2.92-.15-.29-.28-.58-.38-.87-.02-.06-.04-.11-.06-.17-.02-.06-.04-.12-.05-.17,0-.03-.01-.05-.02-.07,0-.03-.01-.05-.02-.08,0,0,0-.02,0-.02-.24-1.03-.14-2.05.26-3.12.9-2.36,2.43-4.29,4.16-6.09,3.61-3.77,7.87-6.67,12.45-9.09.32-.17.65-.34.97-.51,5.49-2.81,11.22-4.93,17.44-5.46,2.12-.19,4.23-.14,6.26.61,1.2.45,2.09,1.2,2.68,2.36,1.02,2.02,2.05,4.03,3.09,6.04Z"/>
      <path class="st0" d="M135.29,54.17l-.02-.04c-.09-.17-.17-.33-.26-.5-.09-.17-.17-.34-.26-.51-.4-.78-.8-1.56-1.2-2.33-.45-.86-.98-1.89-1.52-2.92-.15-.29-.28-.59-.38-.88-.02-.06-.04-.12-.06-.17-.02-.06-.04-.12-.05-.17,0-.03-.01-.05-.02-.07,0-.02,0-.03,0-.05,0-.01,0-.02,0-.03,0,0,0-.01,0-.02-.24-1.02-.15-2.05.26-3.14.98-2.58,2.74-4.62,4.16-6.1,3.27-3.41,7.35-6.39,12.46-9.1.16-.08.32-.17.48-.25.16-.08.32-.17.48-.25,6.36-3.25,11.9-4.99,17.45-5.47,2.57-.23,4.5-.04,6.27.61,1.24.46,2.12,1.24,2.7,2.38,1.01,1.99,2.05,4.02,3.09,6.04l.03.06h-.07c-1.96-.3-3.97-.44-5.99-.44-1.2,0-2.42.05-3.63.16-2.88.26-5.66.79-8.27,1.58-2.7.81-5.32,1.89-7.8,3.2-2.49,1.34-4.84,2.92-6.99,4.69-2.13,1.76-4.12,3.78-5.92,6-1.89,2.35-3.54,4.94-4.89,7.68h0s-.03.04-.03.04ZM168.74,22.13c-.61,0-1.25.03-1.94.09-5.54.48-11.07,2.21-17.42,5.46-.16.08-.32.17-.48.25-.16.08-.32.17-.48.25-5.11,2.71-9.18,5.68-12.44,9.09-1.42,1.48-3.18,3.51-4.15,6.08-.41,1.08-.49,2.09-.26,3.1,0,0,0,.01,0,.02,0,.01,0,.02,0,.03,0,.01,0,.03,0,.05,0,.02.01.04.02.07.01.05.03.11.05.17.02.06.03.11.06.17.1.29.22.58.38.87.54,1.03,1.07,2.05,1.52,2.92.4.78.8,1.56,1.21,2.33.09.17.17.34.26.51.08.15.15.29.23.44,1.35-2.73,2.99-5.3,4.87-7.64,1.8-2.23,3.79-4.25,5.93-6.01,2.16-1.78,4.51-3.36,7-4.7,2.48-1.32,5.11-2.4,7.81-3.21,2.62-.79,5.4-1.32,8.29-1.58,1.22-.11,2.44-.16,3.64-.16,2,0,3.99.14,5.93.42-1.03-2-2.06-4.01-3.06-5.98-.57-1.13-1.44-1.9-2.66-2.35-1.29-.47-2.66-.7-4.3-.7Z"/>
    </g>
  </g>
  <g>
    <g>
      <path class="st0" d="M194.18,9.03h0s.12.51.12.51h0c-2.21,3.2-4.4,6.36-6.6,9.53-1.94,2.8-6.09,8.8-6.49,9.37-.62-1.2-1.24-2.41-1.85-3.61-.16-.31-.33-.61-.52-.89h0c-.04-.1-.09-.19-.14-.28-.99-1.94-2.52-3.3-4.58-4.05-2.92-1.07-5.83-.97-7.76-.81-6,.52-11.94,2.37-18.7,5.83-.33.17-.66.34-1,.51l-.23.12c-5.38,2.87-9.67,6.03-13.14,9.66-1.65,1.72-3.7,4.1-4.89,7.27-.44,1.16-.65,2.32-.61,3.46h0c.03,1.33.38,2.62,1.05,3.88.41.79.82,1.57,1.23,2.36l.31.59s-14.4-.66-17.77-.82l1.95,3.81-.43.22-1.64.84-.04.02s-.56-1.09-.75-1.45c-.41-.78-.8-1.53-1.19-2.34-.12-.24-.24-.49-.36-.74-.21-.42-.39-.54-.84-.54-.59.01-1.19-.02-1.81-.06-.23-.01-.46-.03-.7-.04h0s-.09-.39-.09-.39h0s0-.01,0-.01h0c.12-.21.2-.38.3-.53,10.04-14.5,20.08-29,30.11-43.5.13-.19.27-.32.42-.4.21-.11.44-.13.74-.11,18.08.84,36.16,1.68,54.24,2.52.49.02.99.05,1.66.08h0Z"/>
      <path class="st0" d="M112.44,56.59l-.02-.03s-.56-1.09-.75-1.45c-.38-.72-.78-1.5-1.19-2.34-.12-.23-.23-.47-.35-.72v-.02c-.21-.41-.39-.52-.82-.52-.58.01-1.16-.02-1.78-.06h-.03c-.17-.01-.34-.02-.52-.03h-.17s-.03,0-.03,0v-.04s-.11-.4-.11-.4h0s0-.06,0-.06h.02c.04-.06.07-.12.1-.18.06-.12.12-.22.18-.32,2.95-4.27,5.91-8.53,8.86-12.8,6.97-10.06,14.17-20.46,21.25-30.7.13-.19.28-.33.44-.41.19-.1.41-.13.76-.12,17.97.84,36.24,1.68,53.9,2.5l.34.02c.22,0,.45.02.69.03.28.01.59.03.94.04l.02-.05.05.08.12.51v.02c-1.32,1.89-2.62,3.77-3.92,5.65-.9,1.29-1.79,2.59-2.69,3.88-.84,1.21-2.1,3.03-3.29,4.74-1.53,2.21-2.98,4.3-3.21,4.63l-.03.05-.03-.05c-.69-1.35-1.3-2.53-1.85-3.62-.16-.31-.33-.6-.51-.89h0c-.02-.06-.05-.1-.07-.15-.02-.05-.05-.09-.07-.14-.98-1.93-2.52-3.29-4.56-4.04-2.9-1.07-5.81-.97-7.74-.81-6,.52-11.94,2.37-18.69,5.83-.33.17-.67.34-1,.51l-.23.12c-5.37,2.86-9.66,6.02-13.14,9.65-1.65,1.72-3.69,4.1-4.88,7.25-.44,1.16-.64,2.31-.61,3.43h0c.03,1.32.38,2.62,1.05,3.88v.02c.41.77.83,1.56,1.23,2.34l.33.65h-.06c-.14,0-14.27-.66-17.71-.82l1.94,3.79-.46.24-1.71.87ZM109.34,51.45c.43,0,.63.13.84.55v.02c.13.25.24.48.36.71.41.83.81,1.62,1.19,2.34.17.32.64,1.24.73,1.42h0s2.05-1.05,2.05-1.05l-1.96-3.83h.06c3.22.15,16.7.77,17.71.82l-.28-.54c-.4-.78-.82-1.58-1.22-2.34v-.02c-.68-1.27-1.03-2.58-1.07-3.89h0c-.04-1.14.17-2.31.61-3.48,1.19-3.17,3.24-5.55,4.9-7.28,3.48-3.64,7.78-6.8,13.15-9.67l.23-.12c.33-.17.66-.35,1-.51,6.76-3.46,12.71-5.31,18.72-5.83,1.94-.16,4.85-.26,7.77.81,2.06.75,3.61,2.12,4.6,4.07.02.05.05.09.07.14.02.05.05.09.07.14h0c.19.29.36.59.52.9.54,1.07,1.14,2.24,1.82,3.56.31-.44,1.7-2.45,3.17-4.58,1.19-1.71,2.44-3.53,3.29-4.74.9-1.29,1.79-2.59,2.69-3.88,1.3-1.88,2.6-3.75,3.91-5.64l-.11-.47c-.35-.02-.66-.03-.94-.04-.24-.01-.47-.02-.69-.03l-.34-.02c-17.67-.82-35.94-1.66-53.9-2.5-.33-.01-.54.02-.72.11-.15.08-.28.2-.41.39-7.08,10.24-14.28,20.64-21.25,30.7-2.95,4.27-5.91,8.53-8.86,12.8-.06.09-.12.19-.18.31-.04.07-.07.14-.12.22h0s.08.35.08.35h.16c.18.02.35.03.52.04h.03c.61.04,1.19.07,1.77.06.01,0,.02,0,.03,0Z"/>
    </g>
    <g>
      <path class="st0" d="M181.23,27.74c-.73-1.42-1.46-2.84-2.18-4.26-1.03-2.02-2.63-3.45-4.79-4.24-3-1.1-5.96-1-7.92-.83-6.05.52-12.05,2.39-18.85,5.87-.35.18-.69.36-1.04.54-5.49,2.91-9.89,6.13-13.44,9.84-1.68,1.75-3.75,4.17-4.97,7.39-.99,2.62-.84,5.2.46,7.66.41.79.82,1.57,1.23,2.36-6.01-.28-11.84-.54-17.77-.82l2.08,4.05-1.43.73c-.74-1.45-1.41-2.69-2.12-4.18-.27-.55-.59-.76-1.19-.75-.52.01-1.04-.02-1.58-.05-.17,0-.33-.02-.5-.03-.17-.01-.34-.02-.51-.03,0,0,0,0,0,0h0s0,0,0-.01c.12-.21.2-.38.3-.53,10.04-14.5,20.08-29,30.11-43.5.13-.19.27-.32.42-.4.21-.11.44-.13.74-.11,18.08.84,36.16,1.68,54.24,2.52.49.02.99.05,1.66.08-4.33,6.25-8.59,12.39-12.96,18.71Z"/>
      <path class="st0" d="M112.6,56.07l-.02-.03c-.19-.37-.38-.73-.56-1.08-.53-1.03-1.03-1.99-1.56-3.1-.26-.54-.58-.74-1.16-.73-.51.01-1-.01-1.59-.05-.08,0-.17,0-.25-.01-.08,0-.17,0-.25-.01-.18-.01-.35-.02-.51-.03l-.06.03.03-.1c.04-.08.08-.15.12-.21.06-.12.12-.22.18-.32,2.95-4.27,5.91-8.53,8.86-12.8,6.97-10.06,14.17-20.46,21.24-30.7.13-.19.28-.33.44-.41.19-.1.41-.13.76-.12,17.97.84,36.24,1.68,53.9,2.5l.34.02c.22,0,.45.02.69.03.29.01.6.03.96.04h.06s-.04.05-.04.05c-1.38,1.99-2.74,3.96-4.11,5.93-2.88,4.16-5.87,8.47-8.85,12.77l-.03.05-.03-.05c-.18-.35-.36-.7-.54-1.06-.54-1.05-1.1-2.14-1.64-3.21-1.03-2.02-2.63-3.44-4.78-4.23-2.99-1.1-5.94-1-7.9-.83-6.05.52-12.04,2.38-18.84,5.86-.35.18-.7.36-1.04.54-5.51,2.92-9.9,6.14-13.43,9.83-1.67,1.74-3.75,4.16-4.96,7.38-.99,2.61-.83,5.18.46,7.63v.02c.41.77.83,1.56,1.23,2.35l.03.05h-.06c-3.71-.17-7.35-.34-10.99-.51-2.24-.1-4.47-.2-6.72-.31l2.07,4.03-1.49.76ZM109.34,51.06c.59,0,.93.22,1.2.77.53,1.1,1.03,2.07,1.56,3.1.18.34.36.69.54,1.05l1.37-.7-2.09-4.08h.06c2.27.11,4.52.21,6.78.31,3.62.17,7.24.33,10.93.5-.4-.77-.8-1.54-1.19-2.29v-.02c-1.31-2.47-1.47-5.05-.47-7.69,1.22-3.24,3.3-5.66,4.98-7.4,3.54-3.7,7.94-6.92,13.45-9.84.34-.18.69-.36,1.04-.54,6.81-3.48,12.8-5.35,18.86-5.87,1.97-.17,4.93-.27,7.93.83,2.16.79,3.78,2.22,4.81,4.26.54,1.07,1.1,2.16,1.64,3.21.17.33.34.67.52,1,2.97-4.29,5.94-8.58,8.81-12.73,1.36-1.96,2.71-3.91,4.08-5.88-.34-.01-.63-.03-.9-.04-.24-.01-.47-.02-.69-.03l-.34-.02c-17.67-.82-35.94-1.66-53.9-2.5-.33-.01-.54.02-.72.11-.15.08-.28.2-.41.39-7.08,10.24-14.28,20.64-21.25,30.7-2.95,4.27-5.91,8.53-8.86,12.8-.06.09-.12.19-.18.31-.03.06-.06.12-.1.18.14,0,.29.01.46.02.08,0,.17,0,.25.01.08,0,.17,0,.25.01.59.03,1.08.06,1.58.05.01,0,.02,0,.03,0Z"/>
    </g>
  </g>
  <g>
    <path class="st0" d="M123.29,67.7c.04.15.09.3.12.4,0,0,0,0,0,.01,0,.02,0,.03.01.04,0,.02,0,.03,0,.03-.1.28-.34.51-.75.73l-.5.27c-.57.3-1.13.6-1.71.89-.77.39-1.55.79-2.33,1.16-.42.2-.74.25-1.02.15-.15-.05-.27-.14-.39-.28v-.02c-.76-1.64-1.37-3.32-1.83-5.04.43,1.49.98,2.94,1.64,4.37.36.79.72,1.03,1.52.64.78-.37,1.56-.76,2.33-1.16.74-.38,1.47-.76,2.2-1.16.55-.3.77-.62.7-1.05Z"/>
    <path class="st0" d="M117.42,71.47c-.11,0-.21-.02-.31-.05-.15-.06-.28-.15-.41-.29h0s0-.02,0-.02c-.76-1.67-1.38-3.36-1.82-5.05l.07-.02c.42,1.45.97,2.92,1.63,4.37.21.45.4.68.63.77.22.08.48.03.84-.14.7-.34,1.46-.71,2.33-1.16.69-.35,1.41-.73,2.2-1.16.54-.3.75-.6.68-1.01l.07-.02c.03.11.07.22.09.31l.03.1s0,.01,0,.02c0,0,0,.01,0,.02,0,.02.01.04.01.04h0s0,.02,0,.02c-.1.28-.35.52-.77.75l-.5.27c-.51.27-1.07.56-1.71.89-.88.45-1.64.83-2.33,1.16-.28.14-.53.2-.74.2ZM116.76,71.08c.12.13.24.22.38.27.27.1.58.05.99-.15.69-.33,1.46-.71,2.33-1.16.64-.33,1.2-.62,1.71-.89l.5-.27c.4-.22.63-.44.73-.71,0,0,0-.01,0-.02,0,0,0-.01,0-.02,0,0,0-.01,0-.02h0s0-.02,0-.02h0l-.03-.09s-.01-.04-.02-.06c-.04.32-.27.58-.72.82-.79.42-1.51.8-2.2,1.16-.86.44-1.63.82-2.33,1.16-.38.18-.66.23-.9.14-.25-.09-.45-.33-.67-.8-.25-.53-.48-1.07-.69-1.61.28.75.59,1.5.93,2.25h0Z"/>
  </g>
  <g>
    <path class="st0" d="M123,67c.06.11.12.2.16.3h0s0,.02,0,.02c0,0,0,.02,0,.03.03.06.06.19.11.34,0,0,0,.01,0,.02.07.43-.15.74-.7,1.05-.73.39-1.46.78-2.2,1.16-.77.4-1.55.78-2.33,1.16-.8.39-1.16.15-1.52-.64-.66-1.43-1.21-2.88-1.64-4.37-.01-.04-.02-.07-.03-.11-.55-1.9-.9-3.84-1.02-5.86-.05-.78-.27-1.55-.45-2.35l1.32-.67c1.14,1.71,2.93,2.79,4.28,4.31,1.01,1.14,1.9,2.39,2.79,3.62.46.63.81,1.33,1.21,2Z"/>
    <path class="st0" d="M117.42,71.28c-.09,0-.17-.01-.24-.04-.25-.09-.45-.33-.67-.8-.67-1.45-1.22-2.92-1.64-4.37-.01-.03-.02-.07-.03-.11-.56-1.93-.9-3.91-1.03-5.86-.04-.62-.18-1.23-.34-1.87-.04-.16-.07-.31-.11-.47v-.03s1.37-.7,1.37-.7l.02.03c.67,1,1.59,1.81,2.47,2.59.61.54,1.25,1.1,1.8,1.72.93,1.05,1.77,2.22,2.59,3.34l.2.28c.32.45.6.93.87,1.41.11.2.23.4.34.6.07.11.12.21.16.3,0,0,0,.02.01.03,0,0,0,.02,0,.03.02.05.04.13.07.22l.04.12s0,.01,0,.03c.07.43-.15.77-.72,1.08-.79.42-1.51.8-2.2,1.16-.86.44-1.63.82-2.33,1.16-.26.12-.47.18-.65.18ZM113.44,57.75c.03.15.07.3.1.44.15.65.3,1.26.34,1.89.12,1.95.46,3.92,1.02,5.85,0,.04.02.07.03.1.42,1.46.97,2.92,1.64,4.37.21.45.4.68.63.77.22.08.48.03.84-.14.7-.34,1.46-.71,2.33-1.16.69-.35,1.41-.73,2.2-1.16.54-.3.75-.6.68-1.01h0s-.04-.13-.04-.13c-.03-.09-.05-.17-.07-.22h0s0-.02,0-.02h0s0-.02,0-.02h0c-.04-.1-.09-.2-.16-.3h0c-.12-.2-.23-.4-.35-.6-.27-.47-.54-.96-.86-1.4l-.2-.28c-.81-1.12-1.66-2.29-2.59-3.34-.55-.62-1.18-1.18-1.8-1.72-.88-.77-1.79-1.58-2.47-2.58l-1.27.65Z"/>
  </g>
  <g>
    <path class="st0" d="M123,67c.06.11.12.2.16.3h0s0,.02,0,.02c0,0,0,.02,0,.03.05.12.09.23.11.34,0,0,0,.01,0,.02.07.43-.15.74-.7,1.05-.73.39-1.46.78-2.2,1.16-.77.4-1.55.78-2.33,1.16-.8.39-1.16.15-1.52-.64-.66-1.43-1.21-2.88-1.64-4.37-.01-.04-.02-.07-.03-.11-.55-1.9-.9-3.84-1.02-5.86-.05-.78-.27-1.55-.45-2.35l1.32-.67c1.14,1.71,2.93,2.79,4.28,4.31,1.01,1.14,1.9,2.39,2.79,3.62.46.63.81,1.33,1.21,2Z"/>
    <path class="st0" d="M117.42,71.28c-.09,0-.17-.01-.24-.04-.25-.09-.45-.33-.67-.8-.67-1.45-1.22-2.92-1.64-4.37-.01-.03-.02-.07-.03-.11-.56-1.93-.9-3.91-1.03-5.86-.04-.62-.18-1.23-.34-1.87-.04-.16-.07-.31-.11-.47v-.03s1.37-.7,1.37-.7l.02.03c.67,1,1.59,1.81,2.47,2.59.61.54,1.25,1.1,1.8,1.72.93,1.05,1.77,2.22,2.59,3.34l.2.28c.32.45.6.93.87,1.41.11.2.23.4.34.6.07.11.12.21.16.3,0,0,0,.02.01.03,0,0,0,.02,0,.02.06.12.09.23.11.33,0,0,0,.02,0,.03.07.43-.15.77-.72,1.08-.79.42-1.51.8-2.2,1.16-.86.44-1.63.82-2.33,1.16-.26.12-.47.18-.65.18ZM113.44,57.75c.03.15.07.3.1.44.15.65.3,1.26.34,1.89.12,1.95.46,3.92,1.02,5.85,0,.04.02.07.03.1.42,1.46.97,2.92,1.64,4.37.21.45.4.68.63.77.22.08.48.03.84-.14.7-.34,1.46-.71,2.33-1.16.69-.35,1.41-.73,2.2-1.16.54-.3.75-.6.68-1.01v-.02c-.02-.1-.06-.2-.11-.33h0s0-.02,0-.02h0s0-.02,0-.02h0c-.04-.1-.09-.2-.16-.3h0c-.12-.2-.23-.4-.35-.6-.27-.47-.54-.96-.86-1.4l-.2-.28c-.81-1.12-1.66-2.29-2.59-3.34-.55-.62-1.18-1.18-1.8-1.72-.88-.77-1.79-1.58-2.47-2.58l-1.27.65Z"/>
  </g>
  <g>
    <line class="st0" x1="194.19" y1="9.03" x2="194.18" y2="9.03"/>
    <polygon class="st0" points="194.18 9.07 194.17 9.07 194.19 9 194.18 9.07"/>
  </g>
  <g>
    <g>
      <g>
        <path class="st0" d="M144.45,51.08c15.25-18.3,39.24-17.63,53.21-6.03,8.86,7.13,15.24,20.37,12.63,34.03-2.76,15.35-15.4,27.53-31.26,30.13,15.56-1.34,29.43-11.48,33.58-29.51,2.99-16.77-3.94-29.4-13.99-37.32-18.24-13.7-42.72-8.4-54.17,8.7Z"/>
        <path class="st0" d="M179.04,109.25v-.07c15.91-2.61,28.46-14.71,31.22-30.1,2.73-14.28-4.37-27.36-12.62-34-13.68-11.36-37.9-12.29-53.16,6.03l-.05-.04c2.85-4.26,6.51-7.82,10.87-10.59,4.27-2.72,8.98-4.52,14-5.38,10.36-1.76,20.78.82,29.35,7.26,2.59,2.04,4.89,4.34,6.85,6.82,2.08,2.64,3.78,5.51,5.04,8.53,2.81,6.7,3.51,14.1,2.11,22-1.01,4.39-2.63,8.44-4.81,12.05-2.08,3.43-4.67,6.46-7.71,9-5.84,4.88-13.13,7.82-21.09,8.5ZM174.16,36.73c8.65,0,17.1,2.96,23.53,8.29,4.54,3.65,8.31,8.83,10.63,14.58,2.55,6.33,3.24,13.07,2.01,19.49-.68,3.78-1.96,7.42-3.82,10.83-1.81,3.33-4.14,6.37-6.9,9.04-2.77,2.67-5.92,4.9-9.36,6.64-3.27,1.65-6.74,2.83-10.34,3.5,16.42-1.75,28.9-12.95,32.68-29.4,3.57-20.03-7.22-31.96-13.97-37.28-8.56-6.43-18.96-9-29.3-7.25-9.92,1.68-18.79,7.28-24.45,15.39,3.57-4.16,7.73-7.45,12.36-9.8,4.48-2.26,9.3-3.59,14.32-3.94.87-.06,1.75-.09,2.62-.09Z"/>
      </g>
      <g>
        <path class="st0" d="M149.24,102.69c-13.9-11.49-17.41-31.42-11.47-44.95,9.65-23.28,34.91-28.48,51.46-22.27-19.65-8.6-44.33-.32-53.74,21.83-6.73,16.99-.96,36.33,12.3,46.95,17.29,14.3,43.83,11.91,57.6-5.87-17.73,18.99-42.88,15.61-56.16,4.3Z"/>
        <path class="st0" d="M173.81,113.6c-3.86,0-7.68-.54-11.42-1.61-5.4-1.55-10.32-4.14-14.62-7.7-6.52-5.22-11.37-12.72-13.66-21.11-1.15-4.22-1.63-8.55-1.44-12.86.2-4.49,1.14-8.87,2.79-13.02,4.39-10.33,12.42-18.25,22.61-22.3,4.98-1.98,10.21-2.95,15.56-2.89,5.43.06,10.68,1.18,15.61,3.34l-.03.06c-17.55-6.6-42.2.03-51.42,22.25-5.61,12.78-2.86,33.07,11.46,44.91h0c6.83,5.81,16.09,9.24,25.74,9.24,10.53,0,21.52-4.07,30.37-13.54l.05.04c-3.3,4.27-7.39,7.74-12.16,10.32-4.57,2.48-9.56,4.03-14.83,4.61-1.54.17-3.09.26-4.62.26ZM173.17,32.18c-5.11,0-10.25.96-15.08,2.88-10.18,4.04-18.19,11.95-22.57,22.26-6.57,16.56-1.51,35.86,12.29,46.91,8.42,6.96,19.58,10.26,30.61,9.04,10.61-1.18,19.98-6.25,26.48-14.31-4.11,4.26-8.77,7.54-13.88,9.73-4.86,2.09-10.03,3.18-15.37,3.24-4.96.05-9.85-.77-14.54-2.44-4.44-1.59-8.56-3.93-11.89-6.77-3.36-2.78-6.22-6.14-8.5-9.98-2.15-3.62-3.72-7.57-4.69-11.75-.93-4.04-1.26-8.13-.97-12.14.29-4.02,1.19-7.76,2.67-11.13,2.3-5.55,5.6-10.33,9.79-14.18,3.83-3.52,8.33-6.22,13.37-8.03,4.68-1.68,9.62-2.51,14.66-2.49,4.35.02,8.66.71,12.52,2.01-4.74-1.9-9.81-2.85-14.91-2.85Z"/>
      </g>
    </g>
    <g>
      <g>
        <path class="st1" d="M172.99,53.68l-7.27,14.01c-.67,1.21-1.75,4.78,2.09,6.63l-12.41.91,17.59-31.93,17.59,31.93-12.41-.91c3.84-1.86,2.77-5.42,2.09-6.63l-7.27-14.01h0Z"/>
        <path class="st0" d="M190.64,75.27h-.06s-12.54-.92-12.54-.92l.11-.06c1.33-.64,2.19-1.55,2.55-2.7.45-1.43.03-2.99-.47-3.89l-7.24-13.96-7.24,13.95c-.5.9-.93,2.46-.47,3.89.36,1.15,1.22,2.05,2.55,2.7l.11.06h-.13s-12.48.92-12.48.92l17.65-32.04.03.05,17.62,31.98ZM172.99,43.37l-17.53,31.82,12.23-.89c-1.28-.65-2.12-1.55-2.47-2.68-.46-1.46-.03-3.03.48-3.94l7.3-14.07.03.06,7.27,14.01c.51.91.94,2.49.48,3.94-.36,1.13-1.19,2.03-2.47,2.68l12.23.89-17.53-31.82Z"/>
      </g>
      <g>
        <path class="st1" d="M154.71,76.6c7.31.99,14.67-3.42,18.28,1.68,3.61-5.11,10.97-.69,18.28-1.68l2.3,4.18c-5.6,1.78-17.24-3.52-20.59,2.99-3.34-6.52-14.99-1.21-20.59-2.99l2.3-4.18h0ZM172.99,68.23c1.76,0,3.18,1.42,3.18,3.18s-1.43,3.18-3.18,3.18-3.18-1.43-3.18-3.18,1.43-3.18,3.18-3.18h0Z"/>
        <path class="st0" d="M172.99,83.85l-.03-.06c-2.09-4.08-7.42-3.51-12.57-2.95-3.04.33-5.92.64-8-.02h-.04s2.33-4.25,2.33-4.25h.02c2.74.37,5.43,0,8.04-.38,4.27-.6,7.97-1.13,10.24,2.04,2.27-3.16,5.96-2.64,10.24-2.04,2.61.37,5.3.75,8.04.38h.02s.01.02.01.02l2.32,4.22h-.04c-2.08.67-4.95.36-8,.04-5.15-.56-10.48-1.13-12.57,2.95l-.03.06ZM165.7,80.38c3.16,0,5.9.68,7.29,3.32,2.14-4.06,7.46-3.49,12.61-2.93,3.02.33,5.87.63,7.93,0l-2.27-4.12c-2.74.37-5.43-.01-8.04-.38-4.27-.6-7.96-1.13-10.2,2.05l-.03.04-.03-.04c-2.25-3.17-5.93-2.65-10.2-2.05-2.6.37-5.3.75-8.04.38l-2.27,4.12c2.06.64,4.91.33,7.93,0,1.8-.19,3.62-.39,5.32-.39ZM172.99,74.63c-1.77,0-3.22-1.44-3.22-3.22s1.44-3.22,3.22-3.22,3.22,1.44,3.22,3.22-1.44,3.22-3.22,3.22ZM172.99,68.26c-1.74,0-3.15,1.41-3.15,3.15s1.41,3.15,3.15,3.15,3.15-1.41,3.15-3.15-1.41-3.15-3.15-3.15Z"/>
      </g>
    </g>
    <g>
      <g>
        <path class="st2" d="M156.03,92.52c.08.17.21.3.39.39.17.09.31.14.4.14v.02h-2.38v-.02c.14,0,.27-.05.39-.14.12-.09.15-.23.09-.41-.29-.66-.68-1.57-1.17-2.71h-3.98l-1.18,2.72c-.05.13-.03.26.05.37.08.11.2.17.34.17v.02h-1.41v-.02c.19,0,.36-.05.51-.15.16-.1.27-.23.34-.39l3.26-7.49h1.07c.51,1.18.95,2.19,1.32,3.03.37.84.73,1.67,1.08,2.49.36.82.64,1.48.86,1.99ZM149.84,89.65h3.86c-.31-.72-.62-1.42-.91-2.1-.29-.68-.63-1.46-1.02-2.36l-1.93,4.45Z"/>
        <path class="st2" d="M158.68,93.03c-.24-.06-.45-.1-.62-.12-.18-.02-.32-.02-.44,0-.12.01-.22.03-.29.06-.07.02-.14.06-.2.1v-7.44c0-.16-.06-.3-.19-.42-.12-.12-.27-.17-.45-.17v-.02h.85c.21,0,.39.07.54.21.15.14.22.31.22.51v2.69c.5-.51,1.17-.81,2.01-.89.84-.07,1.54.14,2.1.63.5.45.79,1.03.88,1.74.07.78-.12,1.46-.59,2.06-.54.66-1.33,1.05-2.36,1.15-.19.02-.38.03-.55.03-.35,0-.65-.04-.9-.12ZM158.86,88.03c-.29.15-.54.35-.75.6v3.52c0,.18.02.3.05.37.03.07.07.12.11.15.4.3,1.01.4,1.85.31.52-.08.94-.28,1.25-.63.31-.34.52-.75.63-1.23.11-.48.13-.96.04-1.44-.08-.48-.26-.9-.53-1.26-.27-.36-.62-.58-1.07-.68-.45-.1-.97,0-1.59.29Z"/>
        <path class="st2" d="M169.7,92.87c.12.11.27.17.45.17v.02h-2.25v-.02c.17,0,.31-.05.43-.15.12-.1.19-.23.2-.39v-2.96c0-.33-.05-.64-.14-.93-.1-.29-.24-.53-.42-.71-.19-.18-.42-.27-.7-.27h-.04c-.58,0-1.09.16-1.54.47-.45.32-.76.72-.93,1.22v3.13c0,.16.06.3.19.42s.27.17.45.17v.02h-2.26v-.02c.17,0,.32-.06.45-.17.12-.11.19-.25.19-.42v-6.84c0-.16-.06-.3-.19-.42-.12-.11-.27-.17-.45-.17v-.02h.85c.21,0,.39.07.54.21.15.14.22.31.22.5v3.22c.23-.44.56-.79,1-1.06.44-.27.93-.4,1.47-.4h.04c.43,0,.82.09,1.16.26.34.17.61.41.8.72.19.31.29.67.29,1.07v2.92c0,.16.06.3.19.42Z"/>
        <path class="st2" d="M171.97,92.45c0,.16.06.3.19.42s.27.17.45.17v.02h-2.26v-.02c.17,0,.32-.06.45-.17.12-.11.19-.25.19-.42v-4.29c0-.16-.06-.3-.19-.42-.12-.12-.27-.17-.45-.17v-.02h.85c.21,0,.39.07.54.21.15.14.22.31.22.51v4.18ZM170.83,86.58c0-.12.05-.23.14-.32s.21-.13.34-.13.25.04.34.13c.1.09.14.2.14.32s-.05.23-.14.32c-.1.09-.21.13-.34.13s-.25-.04-.34-.13-.14-.2-.14-.32Z"/>
        <path class="st2" d="M178.15,97.96c-.51.54-1.17.94-1.98,1.2-.59.18-1.18.27-1.77.27-.28,0-.54-.02-.81-.06-.89-.14-1.58-.47-2.06-.99-.35-.4-.55-.86-.58-1.36-.03-.51.1-.99.4-1.44.26-.36.57-.65.95-.87.37-.23.73-.4,1.06-.52.38-.13.77-.25,1.16-.34.4-.09.79-.18,1.19-.25.02,0,.05,0,.07-.01.04,0,.09-.02.13-.02.55-.11.93-.23,1.13-.36.21-.13.3-.25.28-.38-.02-.12-.08-.23-.19-.33-.11-.09-.21-.16-.29-.19-.44.2-.92.31-1.45.32-.86-.02-1.57-.26-2.14-.74-.57-.48-.87-1.08-.89-1.8.02-.72.31-1.32.88-1.8.57-.48,1.28-.73,2.14-.76.08,0,.15,0,.23,0h0c.21,0,.45-.01.72-.03s.53-.08.77-.17c.25-.09.44-.24.59-.45.07-.1.17-.15.3-.15.1,0,.18.03.24.09.07.06.1.14.1.23,0,.08-.03.15-.08.21-.14.13-.41.23-.79.28-.39.06-.76.09-1.14.1.62.18,1.12.48,1.5.91.38.43.58.93.6,1.51,0,.46-.13.87-.38,1.25-.25.37-.59.68-1.02.91.56.22.87.47.93.75.07.29-.07.56-.4.82-.33.26-.82.46-1.46.6-.78.15-1.54.36-2.29.62-.33.12-.67.28-1.03.5-.36.22-.67.5-.91.84-.19.28-.32.58-.37.91-.05.33,0,.65.17.95.17.3.48.55.94.75.53.22,1.11.33,1.75.33.17,0,.34-.01.5-.03.16-.02.31-.05.46-.08.67-.15,1.21-.4,1.63-.73.42-.33.73-.7.94-1.11.21-.41.33-.81.37-1.2.04-.39,0-.72-.1-.99-.1-.27-.25-.43-.44-.48v-.02c.49.12.82.33,1,.6.18.28.26.59.23.93-.03.35-.12.68-.28,1-.15.32-.33.58-.52.79ZM174.19,87.94c-.44.24-.71.57-.83,1s-.11.88.02,1.36c.13.48.36.9.68,1.28.32.38.7.64,1.14.78.44.14.91.09,1.42-.16.47-.26.77-.6.9-1.02.13-.43.13-.87,0-1.33-.14-.46-.37-.88-.7-1.25-.33-.37-.72-.62-1.18-.77-.45-.14-.93-.11-1.44.1Z"/>
        <path class="st2" d="M179.32,88.03c-.07-.14-.18-.25-.31-.33-.14-.08-.29-.12-.45-.12v-.02h2.19v.02c-.12,0-.22.05-.29.14-.08.09-.09.19-.05.3.16.32.38.75.64,1.28s.54,1.07.81,1.62.61,1.21,1,1.99h0s2.43-4.8,2.43-4.8c.02-.05.04-.1.04-.15,0-.1-.04-.18-.11-.26s-.17-.11-.28-.11v-.02h1.41v.02h-.1c-.16,0-.31.04-.44.12-.13.08-.23.19-.31.32-.57,1.12-1.06,2.07-1.45,2.85-.39.77-.76,1.51-1.11,2.2h0s0,0,0,0c-.25.49-.45.89-.6,1.21-.1.22-.23.47-.4.76-.17.29-.39.55-.65.77-.26.23-.57.35-.94.37-.12,0-.22-.04-.3-.12-.08-.08-.12-.17-.12-.28s.04-.2.12-.28c.08-.08.18-.12.3-.12.29,0,.54-.04.75-.12.21-.08.39-.18.53-.31.15-.13.27-.25.36-.39.1-.13.17-.26.23-.37l.57-1.12h-.93l-2.53-5.04Z"/>
        <path class="st2" d="M190.82,92.4c0,.19.03.31.1.35.07.04.16.05.26,0,.1-.04.21-.08.33-.14-.11.14-.26.25-.44.34-.18.08-.37.12-.56.12s-.35-.05-.49-.16c-.13-.11-.2-.28-.2-.52v-.3c-.15.19-.36.39-.65.58-.29.19-.65.32-1.09.38-.16.02-.31.03-.46.03-.64,0-1.15-.17-1.54-.51-.34-.32-.48-.71-.42-1.18,0-.15.08-.33.23-.55.15-.22.4-.42.77-.6.37-.18.9-.29,1.58-.32.36,0,.67,0,.92.04.26.04.48.09.65.15v-.66c0-.28-.06-.56-.18-.82s-.28-.49-.5-.66c-.22-.17-.48-.26-.77-.26-.28,0-.51.05-.7.14-.18.09-.33.21-.45.34-.12.14-.2.27-.27.41-.06.14-.11.26-.14.36-.06.16-.17.24-.33.24-.1,0-.18-.03-.24-.09-.07-.06-.1-.14-.1-.23,0-.05,0-.09.03-.13.03-.11.09-.23.17-.37.08-.14.2-.27.36-.39.16-.12.37-.23.64-.31.27-.08.61-.12,1.03-.12.46,0,.85.05,1.16.16.31.11.56.25.75.42.19.18.32.38.41.61.08.23.12.46.12.71v2.95ZM188.06,92.91c.49-.08.88-.23,1.17-.46.29-.23.49-.44.58-.61v-1.59c-.23-.07-.48-.13-.77-.17-.28-.04-.56-.05-.83-.02-.47.05-.82.17-1.03.36-.22.19-.36.38-.42.59-.06.21-.1.38-.1.5,0,.02,0,.04,0,.06-.02.15,0,.34.07.57.07.23.21.43.41.59.21.17.51.23.92.18Z"/>
        <path class="st2" d="M195.8,87.63c-.58,0-1.09.16-1.54.47-.45.32-.76.72-.93,1.22v3.13c0,.16.06.3.19.42.12.11.27.17.45.17v.02h-2.26v-.02c.17,0,.32-.06.45-.17s.19-.25.19-.42v-4.29c0-.16-.06-.3-.19-.42-.12-.12-.27-.17-.45-.17v-.02h.85c.21,0,.39.07.54.21.15.14.22.31.22.51v.67c.23-.44.56-.79,1-1.06.44-.27.93-.4,1.48-.4h.04c.43,0,.82.09,1.16.26.34.17.61.41.8.72.19.31.29.67.29,1.07v2.92c0,.16.06.3.19.42s.27.17.45.17v.02h-2.25v-.02c.17,0,.31-.05.43-.15.12-.1.18-.23.2-.39v-2.96c0-.33-.05-.64-.14-.93-.09-.29-.23-.53-.42-.71-.19-.18-.42-.27-.7-.27h-.04Z"/>
      </g>
      <g>
        <path class="st0" d="M156.03,92.52c.08.17.21.3.39.39.17.09.31.14.4.14v.02h-2.38v-.02c.14,0,.27-.05.39-.14.12-.09.15-.23.09-.41-.29-.66-.68-1.57-1.17-2.71h-3.98l-1.18,2.72c-.05.13-.03.26.05.37.08.11.2.17.34.17v.02h-1.41v-.02c.19,0,.36-.05.51-.15.16-.1.27-.23.34-.39l3.26-7.49h1.07c.51,1.18.95,2.19,1.32,3.03.37.84.73,1.67,1.08,2.49.36.82.64,1.48.86,1.99ZM149.84,89.65h3.86c-.31-.72-.62-1.42-.91-2.1-.29-.68-.63-1.46-1.02-2.36l-1.93,4.45Z"/>
        <path class="st0" d="M158.68,93.03c-.24-.06-.45-.1-.62-.12-.18-.02-.32-.02-.44,0-.12.01-.22.03-.29.06-.07.02-.14.06-.2.1v-7.44c0-.16-.06-.3-.19-.42-.12-.12-.27-.17-.45-.17v-.02h.85c.21,0,.39.07.54.21.15.14.22.31.22.51v2.69c.5-.51,1.17-.81,2.01-.89.84-.07,1.54.14,2.1.63.5.45.79,1.03.88,1.74.07.78-.12,1.46-.59,2.06-.54.66-1.33,1.05-2.36,1.15-.19.02-.38.03-.55.03-.35,0-.65-.04-.9-.12ZM158.86,88.03c-.29.15-.54.35-.75.6v3.52c0,.18.02.3.05.37.03.07.07.12.11.15.4.3,1.01.4,1.85.31.52-.08.94-.28,1.25-.63.31-.34.52-.75.63-1.23.11-.48.13-.96.04-1.44-.08-.48-.26-.9-.53-1.26-.27-.36-.62-.58-1.07-.68-.45-.1-.97,0-1.59.29Z"/>
        <path class="st0" d="M169.7,92.87c.12.11.27.17.45.17v.02h-2.25v-.02c.17,0,.31-.05.43-.15.12-.1.19-.23.2-.39v-2.96c0-.33-.05-.64-.14-.93-.1-.29-.24-.53-.42-.71-.19-.18-.42-.27-.7-.27h-.04c-.58,0-1.09.16-1.54.47-.45.32-.76.72-.93,1.22v3.13c0,.16.06.3.19.42s.27.17.45.17v.02h-2.26v-.02c.17,0,.32-.06.45-.17.12-.11.19-.25.19-.42v-6.84c0-.16-.06-.3-.19-.42-.12-.11-.27-.17-.45-.17v-.02h.85c.21,0,.39.07.54.21.15.14.22.31.22.5v3.22c.23-.44.56-.79,1-1.06.44-.27.93-.4,1.47-.4h.04c.43,0,.82.09,1.16.26.34.17.61.41.8.72.19.31.29.67.29,1.07v2.92c0,.16.06.3.19.42Z"/>
        <path class="st0" d="M171.97,92.45c0,.16.06.3.19.42s.27.17.45.17v.02h-2.26v-.02c.17,0,.32-.06.45-.17.12-.11.19-.25.19-.42v-4.29c0-.16-.06-.3-.19-.42-.12-.12-.27-.17-.45-.17v-.02h.85c.21,0,.39.07.54.21.15.14.22.31.22.51v4.18ZM170.83,86.58c0-.12.05-.23.14-.32s.21-.13.34-.13.25.04.34.13c.1.09.14.2.14.32s-.05.23-.14.32c-.1.09-.21.13-.34.13s-.25-.04-.34-.13-.14-.2-.14-.32Z"/>
        <path class="st0" d="M178.15,97.96c-.51.54-1.17.94-1.98,1.2-.59.18-1.18.27-1.77.27-.28,0-.54-.02-.81-.06-.89-.14-1.58-.47-2.06-.99-.35-.4-.55-.86-.58-1.36-.03-.51.1-.99.4-1.44.26-.36.57-.65.95-.87.37-.23.73-.4,1.06-.52.38-.13.77-.25,1.16-.34.4-.09.79-.18,1.19-.25.02,0,.05,0,.07-.01.04,0,.09-.02.13-.02.55-.11.93-.23,1.13-.36.21-.13.3-.25.28-.38-.02-.12-.08-.23-.19-.33-.11-.09-.21-.16-.29-.19-.44.2-.92.31-1.45.32-.86-.02-1.57-.26-2.14-.74-.57-.48-.87-1.08-.89-1.8.02-.72.31-1.32.88-1.8.57-.48,1.28-.73,2.14-.76.08,0,.15,0,.23,0h0c.21,0,.45-.01.72-.03s.53-.08.77-.17c.25-.09.44-.24.59-.45.07-.1.17-.15.3-.15.1,0,.18.03.24.09.07.06.1.14.1.23,0,.08-.03.15-.08.21-.14.13-.41.23-.79.28-.39.06-.76.09-1.14.1.62.18,1.12.48,1.5.91.38.43.58.93.6,1.51,0,.46-.13.87-.38,1.25-.25.37-.59.68-1.02.91.56.22.87.47.93.75.07.29-.07.56-.4.82-.33.26-.82.46-1.46.6-.78.15-1.54.36-2.29.62-.33.12-.67.28-1.03.5-.36.22-.67.5-.91.84-.19.28-.32.58-.37.91-.05.33,0,.65.17.95.17.3.48.55.94.75.53.22,1.11.33,1.75.33.17,0,.34-.01.5-.03.16-.02.31-.05.46-.08.67-.15,1.21-.4,1.63-.73.42-.33.73-.7.94-1.11.21-.41.33-.81.37-1.2.04-.39,0-.72-.1-.99-.1-.27-.25-.43-.44-.48v-.02c.49.12.82.33,1,.6.18.28.26.59.23.93-.03.35-.12.68-.28,1-.15.32-.33.58-.52.79ZM174.19,87.94c-.44.24-.71.57-.83,1s-.11.88.02,1.36c.13.48.36.9.68,1.28.32.38.7.64,1.14.78.44.14.91.09,1.42-.16.47-.26.77-.6.9-1.02.13-.43.13-.87,0-1.33-.14-.46-.37-.88-.7-1.25-.33-.37-.72-.62-1.18-.77-.45-.14-.93-.11-1.44.1Z"/>
        <path class="st0" d="M179.32,88.03c-.07-.14-.18-.25-.31-.33-.14-.08-.29-.12-.45-.12v-.02h2.19v.02c-.12,0-.22.05-.29.14-.08.09-.09.19-.05.3.16.32.38.75.64,1.28s.54,1.07.81,1.62.61,1.21,1,1.99h0s2.43-4.8,2.43-4.8c.02-.05.04-.1.04-.15,0-.1-.04-.18-.11-.26s-.17-.11-.28-.11v-.02h1.41v.02h-.1c-.16,0-.31.04-.44.12-.13.08-.23.19-.31.32-.57,1.12-1.06,2.07-1.45,2.85-.39.77-.76,1.51-1.11,2.2h0s0,0,0,0c-.25.49-.45.89-.6,1.21-.1.22-.23.47-.4.76-.17.29-.39.55-.65.77-.26.23-.57.35-.94.37-.12,0-.22-.04-.3-.12-.08-.08-.12-.17-.12-.28s.04-.2.12-.28c.08-.08.18-.12.3-.12.29,0,.54-.04.75-.12.21-.08.39-.18.53-.31.15-.13.27-.25.36-.39.1-.13.17-.26.23-.37l.57-1.12h-.93l-2.53-5.04Z"/>
        <path class="st0" d="M190.82,92.4c0,.19.03.31.1.35.07.04.16.05.26,0,.1-.04.21-.08.33-.14-.11.14-.26.25-.44.34-.18.08-.37.12-.56.12s-.35-.05-.49-.16c-.13-.11-.2-.28-.2-.52v-.3c-.15.19-.36.39-.65.58-.29.19-.65.32-1.09.38-.16.02-.31.03-.46.03-.64,0-1.15-.17-1.54-.51-.34-.32-.48-.71-.42-1.18,0-.15.08-.33.23-.55.15-.22.4-.42.77-.6.37-.18.9-.29,1.58-.32.36,0,.67,0,.92.04.26.04.48.09.65.15v-.66c0-.28-.06-.56-.18-.82s-.28-.49-.5-.66c-.22-.17-.48-.26-.77-.26-.28,0-.51.05-.7.14-.18.09-.33.21-.45.34-.12.14-.2.27-.27.41-.06.14-.11.26-.14.36-.06.16-.17.24-.33.24-.1,0-.18-.03-.24-.09-.07-.06-.1-.14-.1-.23,0-.05,0-.09.03-.13.03-.11.09-.23.17-.37.08-.14.2-.27.36-.39.16-.12.37-.23.64-.31.27-.08.61-.12,1.03-.12.46,0,.85.05,1.16.16.31.11.56.25.75.42.19.18.32.38.41.61.08.23.12.46.12.71v2.95ZM188.06,92.91c.49-.08.88-.23,1.17-.46.29-.23.49-.44.58-.61v-1.59c-.23-.07-.48-.13-.77-.17-.28-.04-.56-.05-.83-.02-.47.05-.82.17-1.03.36-.22.19-.36.38-.42.59-.06.21-.1.38-.1.5,0,.02,0,.04,0,.06-.02.15,0,.34.07.57.07.23.21.43.41.59.21.17.51.23.92.18Z"/>
        <path class="st0" d="M195.8,87.63c-.58,0-1.09.16-1.54.47-.45.32-.76.72-.93,1.22v3.13c0,.16.06.3.19.42.12.11.27.17.45.17v.02h-2.26v-.02c.17,0,.32-.06.45-.17s.19-.25.19-.42v-4.29c0-.16-.06-.3-.19-.42-.12-.12-.27-.17-.45-.17v-.02h.85c.21,0,.39.07.54.21.15.14.22.31.22.51v.67c.23-.44.56-.79,1-1.06.44-.27.93-.4,1.48-.4h.04c.43,0,.82.09,1.16.26.34.17.61.41.8.72.19.31.29.67.29,1.07v2.92c0,.16.06.3.19.42s.27.17.45.17v.02h-2.25v-.02c.17,0,.31-.05.43-.15.12-.1.18-.23.2-.39v-2.96c0-.33-.05-.64-.14-.93-.09-.29-.23-.53-.42-.71-.19-.18-.42-.27-.7-.27h-.04Z"/>
      </g>
      <g>
        <path class="st0" d="M156.99,93.24h-2.72v-.36h.17c.1,0,.2-.03.29-.11.03-.02.08-.06.03-.21-.28-.64-.65-1.51-1.12-2.6h-3.76l-1.14,2.62c-.03.08-.02.14.03.21.05.07.11.1.21.1h.17v.36h-1.75v-.36h.17c.16,0,.29-.04.42-.12.13-.08.22-.19.28-.32l3.3-7.59h.16l.03-.08.03.08h1.07l.04.1c.51,1.18.95,2.19,1.32,3.03.37.84.73,1.67,1.08,2.49.35.82.64,1.48.86,1.98.07.13.17.24.31.31.19.1.29.12.32.12h.17v.36ZM155.07,92.9h1.03c-.09-.08-.17-.18-.22-.3h0c-.22-.52-.51-1.18-.86-2-.36-.82-.72-1.65-1.08-2.49-.36-.82-.78-1.79-1.27-2.93h-.7c.38.87.71,1.64.99,2.3.29.68.6,1.39.91,2.1l.1.24h0c.47,1.1.85,1.97,1.12,2.61h0c.07.21.04.36-.02.46ZM148.36,92.9h.09s-.02-.04-.03-.06c-.02.02-.04.04-.06.06ZM150.1,89.48h3.34c-.27-.63-.55-1.26-.8-1.86-.25-.58-.54-1.25-.86-2l-1.67,3.86Z"/>
        <path class="st0" d="M156.95,93.38v-7.76c0-.12-.04-.21-.13-.29-.09-.09-.2-.13-.33-.13h-.17v-.36h1.02c.26,0,.48.09.66.26.18.17.28.38.28.63v2.31c.49-.38,1.1-.61,1.82-.68.88-.07,1.63.15,2.23.67.53.48.84,1.1.93,1.85.08.82-.13,1.56-.63,2.19-.57.7-1.41,1.11-2.48,1.22-.61.06-1.11.03-1.51-.09-.23-.06-.43-.1-.59-.11-.16-.02-.3-.02-.41,0-.11.01-.19.03-.25.05-.06.02-.11.05-.16.08l-.26.18ZM158.28,88.69v3.45c0,.21.02.29.03.31.02.06.04.07.05.08h0c.36.27.94.37,1.73.28.48-.07.85-.26,1.14-.57.29-.32.49-.71.59-1.16.11-.46.12-.92.04-1.38-.08-.45-.24-.85-.49-1.18-.24-.33-.56-.53-.97-.62-.41-.09-.9,0-1.48.28-.25.13-.47.3-.65.51ZM157.14,85.18c.1.13.15.28.15.44v7.17c.08-.03.18-.04.31-.06.13-.01.29-.01.48,0,0,0,.01,0,.02,0-.04-.04-.07-.1-.09-.16-.04-.1-.06-.23-.06-.44v-6.42c0-.15-.06-.27-.17-.38-.12-.11-.26-.16-.42-.16h-.2ZM160.94,87.73c.28.13.51.33.71.59.28.38.47.82.56,1.33.09.5.07,1.01-.04,1.51-.12.51-.34.95-.67,1.31-.06.07-.12.13-.19.19.43-.19.78-.45,1.07-.8.44-.56.63-1.21.56-1.94-.08-.66-.36-1.21-.82-1.63-.33-.29-.72-.48-1.15-.56Z"/>
        <path class="st0" d="M170.32,93.23h-2.59v-.36h.17c.13,0,.23-.04.32-.11.08-.07.13-.16.15-.27v-2.95c0-.31-.05-.61-.13-.88-.09-.26-.21-.48-.38-.64-.16-.15-.34-.22-.58-.22h-.04c-.54,0-1.03.15-1.44.44-.41.29-.7.66-.86,1.11v3.1c0,.12.04.21.13.29.09.08.2.13.34.13h.17v.36h-2.6v-.36h.17c.13,0,.24-.04.33-.13.09-.08.13-.17.13-.29v-6.84c0-.12-.04-.21-.13-.29-.09-.08-.2-.13-.33-.13h-.17v-.36h1.02c.26,0,.48.09.66.25.18.17.28.38.28.63v2.66c.2-.25.45-.46.74-.64.46-.28.99-.42,1.56-.42h.04c.46,0,.87.09,1.23.28.37.19.66.45.87.78.21.34.32.73.32,1.16v2.92c0,.12.04.21.13.29h0c.09.08.2.13.33.13h.17v.36ZM168.55,92.89h.94c-.1-.13-.14-.27-.14-.44v-2.92c0-.37-.09-.7-.27-.98-.18-.28-.42-.5-.73-.66-.08-.04-.16-.08-.25-.11.2.2.35.45.45.76.1.31.15.64.15.98v2.98c-.02.14-.07.27-.15.37ZM163.79,92.89h.94c-.1-.13-.14-.27-.14-.44v-6.73c0-.15-.06-.27-.17-.38-.12-.11-.26-.16-.43-.16h-.2c.1.13.14.27.14.44v6.84c0,.16-.05.31-.14.44Z"/>
        <path class="st0" d="M172.77,93.23h-2.6v-.36h.17c.13,0,.24-.04.33-.13.09-.08.13-.17.13-.29v-4.29c0-.12-.04-.21-.13-.29-.09-.09-.2-.13-.33-.13h-.17v-.36h1.02c.26,0,.48.09.66.26.18.17.28.38.28.63v4.18c0,.12.04.21.13.29.09.08.2.13.34.13h.17v.36ZM171.01,92.89h.94c-.1-.13-.14-.27-.14-.44v-4.18c0-.15-.06-.27-.17-.38-.12-.11-.26-.16-.42-.16h-.2c.1.13.15.28.15.44v4.29c0,.16-.05.31-.14.44ZM171.32,87.2c-.18,0-.33-.06-.46-.18-.13-.12-.2-.27-.2-.45s.07-.33.2-.45c.13-.12.28-.18.46-.18s.33.06.46.18c.13.12.2.27.2.45s-.07.32-.2.45c-.13.12-.28.18-.46.18ZM171.32,86.29c-.09,0-.16.03-.23.09-.06.06-.09.12-.09.2s.03.14.09.2c.06.06.14.09.23.09s.16-.03.23-.09c.06-.06.09-.12.09-.2s-.03-.14-.09-.2c-.06-.06-.14-.09-.23-.09Z"/>
        <path class="st0" d="M174.39,99.6c-.28,0-.56-.02-.83-.06-.93-.15-1.65-.5-2.16-1.04-.38-.43-.59-.92-.63-1.47-.04-.54.11-1.06.43-1.55h0c.27-.38.61-.69,1-.92.38-.23.75-.41,1.1-.53.38-.14.78-.25,1.18-.35.4-.09.8-.18,1.2-.25h0s.04,0,.05-.01c.05-.01.1-.02.15-.03.52-.11.88-.22,1.07-.34.17-.11.21-.18.21-.21-.01-.08-.05-.15-.13-.22-.07-.06-.13-.1-.18-.14-.44.19-.92.29-1.44.3-.9-.02-1.65-.28-2.26-.78-.61-.51-.93-1.16-.95-1.93h0s0,0,0,0c.02-.77.34-1.42.94-1.93.6-.51,1.35-.77,2.24-.8h0c.06,0,.12,0,.18,0h.05c.21,0,.44,0,.71-.03.25-.02.5-.07.73-.16.21-.08.38-.21.51-.39.11-.15.26-.23.44-.23.14,0,.26.05.36.14.1.09.16.22.16.35,0,.13-.05.24-.13.33h0c-.17.16-.46.27-.88.33-.14.02-.27.04-.41.05.34.18.63.41.87.68.41.46.63,1,.64,1.62,0,.49-.14.94-.41,1.34-.21.31-.47.57-.79.79.43.21.67.46.73.74.08.35-.07.69-.46.99-.35.27-.87.49-1.53.63-.77.15-1.54.35-2.27.61-.31.11-.65.27-1,.48-.34.2-.63.47-.86.79-.18.25-.29.54-.34.84-.05.3,0,.57.15.84.15.27.44.5.86.68.51.21,1.07.32,1.68.32.16,0,.32-.01.47-.03.15-.02.3-.05.45-.07.63-.15,1.16-.38,1.55-.7.4-.32.7-.67.9-1.06.2-.39.32-.77.35-1.14.03-.36,0-.67-.09-.92-.08-.22-.18-.34-.32-.37l-.19-.05.15-.34.14.04c.52.14.88.36,1.09.68.2.31.29.66.26,1.04-.03.36-.13.72-.29,1.06-.16.33-.34.61-.55.83h0c-.52.56-1.22.98-2.06,1.25-.61.19-1.22.28-1.82.28ZM178.31,95.07s0,0,0,.01c.11.29.14.65.11,1.07-.04.41-.17.84-.38,1.27-.22.43-.55.83-.99,1.17-.02.02-.05.04-.07.06.41-.22.76-.48,1.05-.79.18-.19.34-.45.49-.75.14-.3.23-.62.26-.94.03-.31-.04-.58-.2-.83-.06-.1-.15-.19-.26-.26ZM171.49,95.68c-.28.42-.4.87-.37,1.33.02.29.1.57.23.82-.04-.2-.05-.4-.02-.61.06-.35.19-.69.4-.99.26-.36.59-.66.96-.89.37-.22.73-.39,1.06-.51.75-.26,1.53-.47,2.31-.62.61-.13,1.08-.32,1.39-.56.28-.22.39-.43.34-.65-.03-.14-.15-.27-.35-.4.03.06.05.13.06.19.03.19-.1.38-.36.54-.22.14-.61.27-1.19.38h0s-.08.01-.12.02c-.02,0-.05.01-.09.02-.39.07-.79.16-1.18.25-.39.09-.77.2-1.14.33-.32.11-.67.28-1.03.5-.35.21-.65.49-.9.82ZM172.54,90.08c.02.68.29,1.22.83,1.67.41.34.9.56,1.46.65-.34-.16-.65-.4-.92-.71-.33-.4-.57-.85-.71-1.35-.14-.5-.15-.99-.02-1.45.06-.22.16-.41.29-.59-.04.03-.08.06-.12.1-.53.45-.8,1-.82,1.67ZM174.26,88.09c-.39.22-.64.51-.74.9-.11.4-.1.82.02,1.27.13.45.34.86.65,1.22.3.35.66.6,1.07.72.4.13.82.08,1.29-.14.43-.24.69-.54.81-.92.12-.39.12-.81,0-1.23-.13-.44-.35-.83-.66-1.18-.31-.34-.68-.59-1.1-.72-.41-.13-.85-.1-1.31.09ZM175.77,87.71c.44.16.83.42,1.15.78.35.39.59.83.74,1.31.15.49.15.97,0,1.43-.06.2-.15.37-.28.54.2-.16.37-.35.51-.55.23-.34.35-.73.35-1.15-.01-.53-.19-.99-.55-1.39-.36-.4-.84-.69-1.42-.86l-.39-.11s-.07,0-.1,0v.02h-.02ZM178,86.89c-.07,0-.12.02-.16.08-.11.16-.26.3-.43.4.01,0,.02,0,.03,0,.43-.06.61-.16.7-.24.02-.03.03-.05.03-.09,0-.04-.01-.07-.05-.1-.04-.03-.08-.05-.13-.05Z"/>
        <path class="st0" d="M180.34,96.35h0c-.16,0-.3-.05-.42-.16-.12-.11-.18-.25-.18-.41s.06-.29.18-.4c.12-.11.25-.16.42-.16.27,0,.5-.04.69-.11.19-.07.35-.17.48-.28.14-.12.25-.24.34-.36.09-.13.16-.25.21-.35l.44-.88h-.76l-2.57-5.13c-.06-.11-.14-.2-.25-.26-.11-.07-.23-.1-.36-.1h-.17v-.36h2.53v.36h-.17c-.07,0-.12.02-.16.08-.03.04-.04.07-.02.12.16.32.38.75.64,1.27.27.53.54,1.07.81,1.62.24.48.52,1.04.85,1.69l2.27-4.51s.02-.05.02-.08c0-.03,0-.08-.06-.14-.04-.04-.09-.06-.16-.06h-.17v-.36h1.75v.36h-.27c-.13,0-.24.03-.35.09-.11.06-.19.15-.24.25-.57,1.13-1.06,2.08-1.45,2.84-.37.73-.72,1.43-1.05,2.09l.23.21h-.33c-.22.44-.41.82-.55,1.11-.1.22-.23.48-.41.77-.18.3-.41.58-.69.81-.29.25-.64.39-1.04.41h0ZM181.65,95.15c-.15.11-.31.2-.51.28-.23.09-.5.13-.81.13-.07,0-.13.02-.18.07-.05.05-.07.09-.07.15,0,.06.02.11.07.16.05.05.11.07.18.07.33-.02.6-.13.83-.33.19-.16.35-.34.49-.53ZM181.95,92.9h.71c-.37-.74-.69-1.37-.96-1.9-.28-.55-.55-1.09-.81-1.62-.27-.53-.48-.96-.64-1.28h0c-.05-.13-.05-.25,0-.37h-.93c.06.07.12.14.16.22h0s2.48,4.95,2.48,4.95ZM185.44,87.73s.01.02.02.04c.01-.01.02-.02.03-.04h-.05Z"/>
        <path class="st0" d="M187.62,93.25c-.68,0-1.24-.19-1.65-.55-.38-.36-.54-.8-.48-1.33.01-.18.09-.39.26-.63.16-.25.44-.46.84-.66.39-.19.94-.3,1.65-.34.37-.01.69,0,.96.04.17.02.32.05.46.09v-.44c0-.26-.05-.51-.16-.76-.1-.24-.26-.44-.45-.59-.19-.15-.41-.22-.67-.22s-.46.04-.62.12c-.16.08-.3.18-.39.3-.1.12-.19.25-.24.37-.06.13-.1.24-.13.33v.02c-.1.22-.27.34-.49.34-.14,0-.26-.05-.36-.14-.1-.09-.16-.22-.16-.35,0-.07.01-.13.04-.19.04-.12.1-.25.18-.4.09-.15.23-.3.4-.44.18-.14.41-.25.7-.34.28-.09.65-.13,1.08-.13.48,0,.88.06,1.21.17.33.11.61.27.81.46.21.2.36.42.45.67.09.24.13.5.13.76v2.95c0,.14.02.2.03.21.03.01.07,0,.11,0,.1-.03.2-.08.3-.13l.72-.37-.51.63c-.13.16-.3.29-.51.38-.2.09-.42.14-.63.14-.23,0-.43-.07-.59-.19-.15-.12-.24-.3-.26-.53-.11.1-.25.2-.39.3-.31.21-.7.34-1.16.4-.16.02-.32.03-.48.03ZM189.99,91.58v.81c0,.19.04.31.13.38.1.08.23.12.38.12.1,0,.19-.01.29-.04-.13-.11-.15-.32-.15-.47v-2.95c0-.22-.04-.44-.11-.65-.07-.2-.19-.38-.36-.54-.17-.16-.4-.29-.69-.39-.09-.03-.18-.06-.29-.08.02.01.03.02.05.04.24.19.42.43.55.72.13.29.19.59.19.89v2.14ZM187.13,90.25c-.15.04-.28.09-.4.15-.34.17-.58.35-.71.54-.16.24-.2.38-.2.46h0c-.05.43.07.77.37,1.05.22.2.5.33.83.4-.23-.19-.38-.41-.46-.67-.07-.25-.1-.46-.08-.63,0-.02,0-.04,0-.06,0-.14.04-.31.11-.53.07-.24.23-.47.48-.67.02-.01.03-.03.05-.04ZM188.53,90.21c-.1,0-.19,0-.29.01-.43.05-.75.16-.94.32-.19.16-.32.34-.37.51-.06.19-.09.35-.09.46v.02s0,.03,0,.03v.02c-.02.13,0,.29.06.5.06.2.17.36.36.51.17.14.44.19.79.15.45-.07.82-.21,1.09-.43.25-.2.43-.38.52-.53v-1.42c-.19-.05-.39-.09-.62-.12-.17-.02-.34-.03-.5-.03ZM191.02,92.61h0ZM187.33,87.86c-.22.07-.39.16-.52.26-.14.11-.25.23-.32.35-.07.12-.13.23-.15.33v.02s-.02.04-.02.06c0,.04.01.07.05.1.04.03.08.05.13.05.07,0,.13-.02.17-.12.03-.1.08-.23.14-.37.07-.15.17-.3.29-.45.07-.08.15-.15.24-.22Z"/>
        <path class="st0" d="M198.89,93.23h-2.59v-.36h.17c.13,0,.23-.04.32-.11.08-.07.13-.16.14-.27v-2.95c0-.31-.04-.61-.13-.88-.08-.26-.21-.48-.38-.64-.16-.15-.34-.22-.58-.22h-.04c-.54,0-1.03.15-1.44.44-.41.29-.7.66-.86,1.11v3.1c0,.12.04.21.13.29.09.08.2.13.34.13h.17v.36h-2.6v-.36h.17c.13,0,.24-.04.33-.13.09-.08.13-.17.13-.29v-4.29c0-.12-.04-.21-.13-.29-.09-.09-.2-.13-.33-.13h-.17v-.36h1.02c.26,0,.48.09.66.26.18.17.28.38.28.63v.11c.2-.25.45-.46.74-.64.46-.28.99-.42,1.56-.42h.04c.46,0,.87.09,1.23.28.37.19.66.45.87.78.21.34.32.73.32,1.16v2.92c0,.12.04.21.13.29.09.08.2.13.33.13h.17v.36ZM197.13,92.89h.94c-.1-.13-.14-.27-.14-.44v-2.92c0-.37-.09-.7-.27-.98-.18-.28-.42-.5-.73-.66-.08-.04-.16-.08-.25-.11.2.2.35.45.45.76.1.31.15.64.15.98v2.97c-.01.14-.06.27-.14.38ZM192.37,92.89h.94c-.1-.13-.14-.27-.14-.44v-4.18c0-.15-.06-.27-.17-.38-.12-.11-.26-.16-.42-.16h-.2c.1.13.15.28.15.44v4.29c0,.16-.05.31-.14.44Z"/>
      </g>
    </g>
  </g>
  <g>
    <g>
      <path class="st0" d="M184.72,95.13l-.03-.36h3.46v.36h-3.43ZM187.73,97.52l-2.56-.68v-.92c.45-.12.91-.23,1.38-.32.47-.09.95-.16,1.45-.22l.03.41c-.29.03-.58.08-.88.12-.3.05-.59.1-.88.16-.29.06-.56.13-.83.21l.22-.19v.66l-.22-.23,2.28.61-.03.14-.03-.42v-1.8h.49v2.48h-.42ZM187.97,95.13v-.36h.81l.03.36h-.84ZM187.97,94.91h.18v.78h-.18v-.78Z"/>
      <path class="st0" d="M188.19,97.56h-.46s-2.58-.69-2.58-.69v-.97h.02c.45-.13.91-.24,1.38-.33.35-.07.72-.13,1.09-.18v-.23h-2.94l-.04-.43h4.16l.04.43h-.66v2.4ZM187.74,97.49h.38v-1.76h-.06v.08s-.03,0-.03,0c-.11.01-.22.03-.33.04v.99l.02.24h.05s-.08.39-.08.39l.06.02ZM185.21,96.82l2.46.66-.02-.33-1.95-.52v.21l-.36-.38.29.08v-.27c-.06.02-.12.03-.18.05l-.15.04.39-.34v.16c.18-.05.37-.09.57-.13.29-.06.58-.11.88-.16.16-.03.32-.05.49-.07v-.34c-.36.05-.72.11-1.07.18-.46.09-.91.19-1.35.31v.87ZM185.7,96.55l1.94.52v-.22s-.01-.98-.01-.98c-.16.02-.32.05-.48.07-.3.05-.59.1-.87.16-.2.04-.39.09-.58.14v.31ZM185.55,96.58l.08.08v-.06l-.08-.02ZM185.63,96.16l-.05.04s.03,0,.05-.01v-.03ZM187.7,95.45v.34c.1-.01.2-.03.29-.04v-.02h-.05v-.31c-.08.01-.16.02-.24.03ZM188.05,95.66h.07v-.5h-.11v.18h.02s.02.32.02.32ZM187.7,95.16v.22c.08-.01.16-.02.24-.03v-.19h-.24ZM188.19,95.09h.59l-.03-.3h-.56v.3ZM188.01,95.09h.11s-.11-.01-.11-.01h0ZM187.7,95.09h.24s-.24-.01-.24-.01h0ZM184.76,95.09h2.87v-.08h.31v-.21h-3.21l.03.3ZM188.01,95.01h.11v-.06h-.11v.06ZM188.01,94.88h.12v-.08h-.12v.08Z"/>
    </g>
    <g>
      <path class="st0" d="M188.4,95.13l-.03-.36h1.12v.36h-1.09ZM189.03,97.52v-2.48h.49v2.48h-.49ZM189.34,95.13v-.36h.81l.03.36h-.84ZM189.34,94.91h.18v.78h-.18v-.78Z"/>
      <path class="st0" d="M189.55,97.55h-.56v-2.39h-.63l-.04-.43h1.85l.04.43h-.66v2.39ZM189.06,97.49h.42v-1.76h-.18v-.57h-.24v2.33ZM189.37,95.66h.11v-.5h-.11v.5ZM189.55,95.09h.59l-.03-.3h-.59v.08h.03v.21ZM189.37,95.09h.08s-.08-.01-.08-.01h0ZM189.06,95.09h.24s-.24-.01-.24-.01h0ZM188.43,95.09h.57v-.08h.31v-.21h-.9l.03.3ZM189.37,95.01h.08v-.06h-.08v.06ZM189.37,94.88h.08v-.08h-.08v.08Z"/>
    </g>
    <g>
      <path class="st0" d="M191.43,96.19c-.39,0-.69-.06-.89-.19-.2-.13-.3-.31-.3-.54h0c0-.24.1-.42.3-.55.2-.13.5-.19.89-.19s.68.06.88.19c.2.13.3.31.3.54h0c0,.24-.1.42-.3.55s-.5.19-.89.19ZM192.78,97.71l-2.52-.8.04-.4,2.52.8-.04.41ZM191.43,95.87c.24,0,.43-.04.55-.11.12-.07.19-.17.19-.31h0c0-.14-.06-.24-.19-.32-.12-.07-.31-.11-.55-.11s-.43.04-.56.11c-.12.07-.19.18-.19.31h0c0,.14.06.24.19.31.12.07.31.11.56.11Z"/>
      <path class="st0" d="M192.81,97.75l-2.58-.82.05-.47,2.58.82-.05.48ZM190.3,96.88l2.45.78.03-.34-2.45-.78-.03.34ZM191.43,96.22c-.4,0-.7-.06-.91-.19-.21-.13-.32-.32-.32-.57s.11-.44.32-.58c.21-.13.51-.2.91-.2s.69.07.9.2c.21.13.32.33.32.57s-.11.45-.32.58c-.21.13-.51.19-.9.19ZM191.43,94.75c-.38,0-.68.06-.87.19-.19.12-.29.29-.29.51s.09.4.29.52c.19.12.49.18.87.18s.67-.06.87-.18c.19-.12.28-.29.28-.51s-.09-.4-.29-.52c-.2-.12-.49-.19-.87-.19ZM191.43,95.91c-.25,0-.45-.04-.58-.11-.13-.08-.2-.19-.2-.34s.07-.27.2-.34c.13-.08.32-.11.58-.11s.44.04.57.11c.14.08.2.19.2.34s-.07.27-.2.34c-.13.07-.32.11-.57.11ZM191.43,95.07c-.24,0-.42.04-.54.1-.11.07-.17.16-.17.28,0,.13.06.22.17.29.12.07.3.1.54.1s.42-.03.54-.1c.11-.07.17-.16.17-.28,0-.13-.06-.22-.17-.29-.12-.07-.3-.1-.54-.1Z"/>
    </g>
    <g>
      <path class="st0" d="M192.85,95.13l-.03-.36h4.23v.36h-4.2ZM194.29,97.16c-.35,0-.62-.07-.8-.21-.18-.14-.28-.34-.28-.61h0c0-.27.1-.48.29-.62s.46-.21.81-.21c.24,0,.45.04.63.13.17.09.28.21.33.36h.01c.04-.16.12-.28.24-.36.12-.09.28-.13.48-.13.17,0,.3.03.4.09.1.06.17.15.21.26h.1l-.15.37c-.03-.1-.08-.17-.17-.23s-.19-.08-.31-.08c-.14,0-.25.02-.33.07s-.14.1-.18.18-.06.16-.06.25v.1h-.44v-.1c-.01-.16-.08-.28-.2-.36-.13-.08-.29-.13-.49-.13s-.37.04-.49.11c-.12.07-.18.18-.18.31v.02c0,.13.05.23.16.3s.26.1.47.1c.06,0,.12,0,.18,0,.06,0,.12-.01.18-.02l-.03.4c-.06.01-.12.02-.18.02s-.13,0-.19,0ZM196.56,97.52v-1.46l.02-.13-.02-.46v-.43h.49v2.48h-.49ZM196.87,95.13v-.36h.81l.03.36h-.84ZM196.87,94.91h.18v.78h-.18v-.78Z"/>
      <path class="st0" d="M197.08,97.55h-.56v-1.35c-.03-.07-.07-.13-.14-.17-.08-.05-.18-.08-.29-.08-.13,0-.24.02-.32.06-.08.04-.13.09-.17.16-.04.07-.06.15-.06.23v.13h-.5v-.13c-.01-.15-.07-.25-.19-.33-.12-.08-.28-.12-.47-.12s-.36.04-.47.11c-.11.07-.16.16-.16.29v.02c0,.12.05.21.14.27.1.06.25.1.45.1.06,0,.12,0,.18,0,.06,0,.12-.01.18-.02h.04s-.04.46-.04.46h-.03c-.06.02-.12.02-.19.03-.07,0-.13,0-.2,0-.36,0-.63-.07-.82-.22-.19-.15-.29-.36-.29-.64h0c0-.29.1-.5.3-.64.2-.14.48-.22.83-.22.25,0,.46.04.64.13.15.08.26.18.32.31.04-.13.12-.23.23-.31.13-.09.3-.14.5-.14.17,0,.31.03.42.09.04.02.08.05.11.09v-.18s0-.32,0-.32h-3.71s-.04-.43-.04-.43h4.93l.04.43h-.66v2.39ZM196.59,97.49h.42v-1.76h-.18v-.57h-.24v.6s.04.05.05.07h.13l-.17.44v1.22ZM194.31,95.55c-.34,0-.61.07-.79.2-.18.13-.27.32-.27.58h0c0,.27.09.47.26.6.18.13.44.2.78.2.06,0,.13,0,.19,0,.06,0,.11-.01.16-.02l.03-.33s-.09.01-.14.02c-.06,0-.12,0-.19,0-.21,0-.38-.04-.49-.11-.11-.08-.17-.18-.17-.32v-.02c0-.15.06-.26.19-.34.12-.08.29-.12.51-.12s.38.04.51.13c.14.09.21.22.21.39v.07h.37v-.07c0-.1.03-.18.07-.26.04-.08.11-.14.2-.19.09-.05.2-.07.35-.07.13,0,.24.03.33.09.04.03.08.06.1.09h0s.02-.14.02-.14v-.15c-.04-.06-.09-.11-.16-.14-.1-.06-.22-.08-.38-.08-.19,0-.35.04-.46.12-.11.08-.19.2-.22.34v.03h-.07v-.02c-.05-.15-.16-.26-.32-.34-.17-.08-.37-.13-.61-.13ZM196.61,95.9v.04s-.02.15-.02.15l.07-.19h-.06ZM196.9,95.66h.11v-.5h-.11v.5ZM197.08,95.09h.59l-.03-.3h-.56v.3ZM192.86,94.8l.03.3h3.64v-.09h.31v-.21h-3.98ZM196.59,95.07v.02h.24v-.02h-.24ZM196.9,95.07v.02h.11v-.02h-.11ZM196.9,95.01h.11v-.06h-.11v.06ZM196.9,94.88h.11v-.08h-.11v.08Z"/>
    </g>
    <g>
      <path class="st0" d="M197.29,95.13l-.03-.36h1.12v.36h-1.09ZM197.92,97.52v-2.48h.49v2.48h-.49ZM198.23,95.13v-.36h.81l.03.36h-.84ZM198.23,94.91h.18v.78h-.18v-.78Z"/>
      <path class="st0" d="M198.45,97.55h-.56v-2.39h-.63l-.04-.43h1.85l.04.43h-.66v2.39ZM197.96,97.49h.42v-1.76h-.18v-.57h-.24v2.33ZM198.27,95.66h.11v-.5h-.11v.5ZM198.45,95.09h.59l-.03-.3h-.59v.08h.03v.21ZM198.27,95.09h.08s-.08-.01-.08-.01h0ZM197.96,95.09h.24s-.24-.01-.24-.01h0ZM197.32,95.09h.57v-.08h.31v-.21h-.9l.03.3ZM198.27,95.01h.08v-.06h-.08v.06ZM198.27,94.88h.08v-.08h-.08v.08Z"/>
    </g>
  </g>
</svg>