<?xml version="1.0" encoding="UTF-8"?>
<svg id="Layer_1" xmlns="http://www.w3.org/2000/svg" version="1.1" viewBox="0 0 320 120">
  <!-- Generator: Adobe Illustrator 30.2.1, SVG Export Plug-In . SVG Version: 2.1.1 Build 1)  -->
  <defs>
    <style>
      .st0 {
        fill: #fff;
      }

      .st1 {
        fill: none;
        stroke: #fff;
        stroke-miterlimit: 10;
        stroke-width: 2px;
      }
    </style>
  </defs>
  <path class="st1" d="M161.53,1.77c-28.36,0-51.35,22.99-51.35,51.35s22.99,51.35,51.35,51.35,51.35-22.99,51.35-51.35S189.89,1.77,161.53,1.77ZM161.53,91.88c-21.4,0-38.75-17.35-38.75-38.75s17.35-38.75,38.75-38.75,38.75,17.35,38.75,38.75-17.35,38.75-38.75,38.75Z"/>
  <g>
    <path class="st0" d="M125.09,33.8c-.23.43-.49.76-.79.99-.3.23-.65.39-1.07.49l-.35-1.14c.28-.06.52-.17.73-.31.21-.15.39-.35.53-.62.13-.24.18-.45.16-.63-.02-.18-.11-.31-.26-.4-.14-.07-.27-.09-.4-.05-.13.04-.27.11-.41.23-.14.11-.28.24-.43.38-.15.14-.3.28-.47.41-.17.13-.35.24-.54.32-.19.08-.39.12-.61.12-.22,0-.46-.08-.72-.21-.32-.17-.55-.39-.7-.67-.15-.27-.21-.58-.18-.92.03-.34.14-.68.32-1.03.19-.36.43-.66.72-.89.28-.23.58-.38.9-.46l.35,1.15c-.24.07-.44.16-.61.28-.16.12-.29.27-.4.47-.11.2-.15.38-.14.53s.09.27.23.35c.13.07.25.08.38.03.13-.04.26-.12.39-.23.13-.11.28-.24.43-.38.15-.14.31-.28.48-.41.17-.13.35-.24.54-.31.2-.08.41-.11.64-.1.23,0,.48.08.75.23.49.26.78.64.87,1.14s-.03,1.06-.36,1.68Z"/>
    <path class="st0" d="M128.46,28.47c-.26.35-.55.63-.89.84-.34.21-.7.35-1.09.41-.39.06-.77.05-1.16-.04-.39-.09-.75-.26-1.09-.51-.34-.25-.62-.54-.82-.88-.21-.34-.33-.7-.39-1.08-.05-.38-.03-.77.06-1.15.09-.39.27-.76.53-1.11.27-.37.57-.66.9-.87.33-.2.68-.34,1.05-.4l.2,1.23c-.22.02-.43.09-.64.22-.2.12-.39.3-.56.53-.15.2-.25.42-.3.64-.05.22-.06.44-.02.66.04.22.12.43.26.63.13.2.31.38.52.53.22.16.45.27.68.34s.45.08.68.05c.22-.03.43-.1.62-.22s.36-.28.51-.48c.17-.24.29-.48.35-.71.06-.23.06-.46.01-.68l1.23-.19c.05.38.03.76-.07,1.13-.1.38-.28.76-.56,1.15Z"/>
    <path class="st0" d="M130.46,25.75l-4.13-4.09.92-.93,4.13,4.09-.92.93ZM129.29,23.49l-.8-.79,2.29-2.31.8.79-2.29,2.31ZM132.99,23.19l-4.13-4.09.92-.93,4.13,4.09-.92.93Z"/>
    <path class="st0" d="M137.38,19.69c-.36.26-.73.43-1.12.53-.39.09-.78.11-1.17.05-.39-.06-.75-.19-1.09-.4-.34-.21-.63-.48-.88-.82-.25-.35-.42-.71-.51-1.1-.09-.38-.1-.77-.04-1.15s.2-.74.42-1.08c.21-.34.5-.64.86-.9.35-.25.72-.43,1.11-.52.39-.09.78-.11,1.16-.06.39.06.75.19,1.08.4.34.21.63.48.88.83.25.34.42.71.51,1.09.09.39.1.77.04,1.15-.06.38-.2.74-.41,1.08-.21.34-.49.64-.84.89ZM136.67,18.73c.28-.2.48-.44.6-.72.12-.28.16-.57.11-.88-.04-.31-.17-.61-.38-.9-.16-.22-.34-.39-.53-.53-.2-.13-.41-.22-.63-.26-.22-.04-.44-.03-.66.02-.22.06-.44.16-.64.31-.28.2-.48.44-.61.72-.12.28-.16.57-.12.87.04.3.17.6.38.9.16.22.34.4.54.54.2.13.41.22.63.26.22.04.44.03.66-.02.22-.05.44-.16.65-.31Z"/>
    <path class="st0" d="M140.93,17.24l-2.67-5.17,1.16-.6,2.67,5.17-1.16.6ZM141.82,16.77l-.52-1.01,2.55-1.32.52,1.01-2.55,1.32Z"/>
    <path class="st0" d="M144.93,15.15l.22-6.25,1.11-.39,4.1,4.72-1.3.46-3.25-3.96.45-.16-.06,5.14-1.27.45ZM145.83,13.73l-.35-.99,2.98-1.06.35.99-2.98,1.06Z"/>
    <path class="st0" d="M151.41,12.99l-1.13-5.71,1.28-.25,1.14,5.71-1.28.25ZM151.93,10.45l-.19-.95,1.2-.24c.25-.05.43-.15.54-.31.11-.15.15-.34.11-.56-.04-.2-.14-.36-.31-.47-.16-.11-.37-.14-.62-.09l-1.21.24-.2-.99,1.36-.27c.38-.08.73-.07,1.05.01.31.09.58.24.78.46.21.22.35.49.41.82.07.34.05.66-.06.94-.11.28-.3.52-.56.72-.26.2-.59.34-.98.41l-1.32.26ZM154.52,12.37l-2.27-2.1,1.11-.56,2.67,2.36-1.51.3Z"/>
    <path class="st0" d="M156.49,8.59l.49-1.18.37-.14c-.03.08-.07.15-.12.21-.05.06-.11.09-.18.1-.16.02-.32-.04-.46-.16-.14-.12-.23-.28-.25-.48-.02-.22.03-.41.17-.58.13-.16.31-.26.52-.28.2-.02.39.04.56.17.17.14.26.31.28.53,0,.09,0,.19-.02.31-.02.12-.08.28-.16.47l-.55,1.28-.65-.27Z"/>
    <path class="st0" d="M161.19,11.87c-.48,0-.9-.07-1.24-.22-.34-.15-.66-.39-.94-.7l.84-.85c.19.21.4.38.63.49.23.12.49.17.8.17.27,0,.48-.05.63-.16.15-.1.22-.24.22-.42,0-.15-.05-.28-.15-.38-.1-.1-.23-.18-.39-.25-.17-.07-.34-.14-.54-.2-.19-.06-.39-.14-.58-.22-.2-.09-.38-.19-.54-.32-.16-.13-.29-.29-.39-.48-.1-.2-.15-.44-.15-.73,0-.36.08-.67.25-.93.17-.26.41-.46.73-.59.31-.14.67-.21,1.06-.21.41,0,.79.07,1.12.21.34.14.61.33.84.57l-.84.85c-.18-.18-.36-.31-.53-.4-.18-.09-.38-.13-.6-.13-.23,0-.4.05-.53.13-.13.09-.2.21-.2.37,0,.14.05.26.15.35s.23.17.39.23c.16.06.34.13.54.19.2.06.39.14.59.22.2.08.37.19.53.33.16.14.29.31.39.51s.16.46.16.77c0,.56-.19.99-.58,1.31-.39.32-.94.48-1.65.48Z"/>
    <path class="st0" d="M166.21,11.94l3.32-5.3,1.16.21,1.18,6.14-1.35-.25-.83-5.06.47.09-2.63,4.42-1.32-.25ZM167.7,11.15l.19-1.04,3.11.58-.19,1.04-3.11-.58Z"/>
    <path class="st0" d="M175.19,14.2c-.41-.14-.77-.34-1.07-.6-.3-.26-.54-.57-.72-.92-.17-.35-.28-.72-.3-1.12s.03-.79.16-1.19c.14-.4.34-.75.6-1.05.26-.3.57-.53.92-.69.35-.17.72-.26,1.12-.29.4-.02.8.03,1.22.17.44.15.8.35,1.1.61.29.26.53.55.7.88l-1.11.55c-.09-.2-.22-.38-.39-.54-.18-.16-.4-.28-.67-.37-.24-.08-.47-.11-.7-.1-.23.01-.44.07-.63.17-.2.1-.37.25-.52.43-.15.19-.27.41-.35.65-.09.26-.13.51-.12.75s.06.46.15.66c.09.2.23.38.4.53.17.15.38.26.61.34.28.1.54.14.78.12.24-.02.46-.08.66-.19l.55,1.12c-.34.16-.71.25-1.1.27-.39.02-.81-.04-1.26-.2Z"/>
    <path class="st0" d="M177.86,15.04l4.71-4.12,1.05.54-.63,6.22-1.22-.63.66-5.08.43.22-3.79,3.47-1.19-.61ZM179.52,14.71l.48-.94,2.81,1.45-.48.94-2.81-1.45Z"/>
    <path class="st0" d="M183.88,18.26l3.43-4.7,1.05.77-3.43,4.7-1.05-.77ZM184.6,18.78l.67-.92,1.16.85c.28.21.57.33.87.37.29.04.58,0,.85-.14.27-.13.52-.35.73-.64.21-.29.34-.59.38-.89s0-.59-.13-.85c-.13-.27-.33-.5-.61-.71l-1.19-.87.67-.92,1.2.88c.36.26.64.55.86.89s.36.69.43,1.06c.07.37.06.75-.02,1.12-.08.37-.25.74-.51,1.09-.25.34-.54.61-.87.81-.33.2-.69.32-1.06.37-.38.05-.76.02-1.14-.08-.38-.1-.75-.28-1.1-.54l-1.18-.87Z"/>
    <path class="st0" d="M189.17,22.32l4.08-4.14.93.91-4.08,4.14-.93-.91ZM189.88,23.02l.79-.8,2.28,2.24-.79.8-2.28-2.24ZM191.58,21.29l.77-.78,2.07,2.04-.77.78-2.07-2.04ZM193.18,19.67l.79-.8,2.24,2.21-.79.8-2.24-2.21Z"/>
    <path class="st0" d="M193.07,26.22l4.69-3.45.56.76-1.52,3.96-.29-.39,4.23-.28.56.76-4.69,3.45-.77-1.04,2.93-2.15.08.22-2.74.18-.51-.69.99-2.57.19.14-2.93,2.15-.77-1.04Z"/>
    <path class="st0" d="M198.1,33.83l2.46-1.25.59,1.17-2.46,1.25-.59-1.17ZM200.1,33l2.25-3.65.68,1.34-1.85,2.87-.44-.87,3.41.2.67,1.32-4.28-.36-.43-.85Z"/>
  </g>
  <g>
    <path class="st0" d="M113.06,48.05l6.02,2.7-.02.5-6.19,2.26.02-.71,5.46-1.96v.26s-5.32-2.36-5.32-2.36l.02-.69ZM114.61,49.25l.57.02-.11,3.19-.57-.02.11-3.19Z"/>
    <path class="st0" d="M113.02,55.21l6.27-.4.04.63-6.27.4-.04-.63Z"/>
    <path class="st0" d="M113.41,59.74l6.49,1.18.1.49-5.46,3.68-.15-.69,4.83-3.21.05.25-5.72-1.02-.14-.68ZM115.2,60.53l.56-.12.66,3.13-.56.12-.66-3.13Z"/>
    <path class="st0" d="M115.09,66.7l5.99-1.89.19.6-5.99,1.89-.19-.6Z"/>
    <path class="st0" d="M115.87,69.02l3.91-1.46.22.59-3.91,1.46-.22-.59ZM120.73,67.55c-.04-.11-.03-.22.02-.33.05-.11.14-.18.25-.22.12-.04.23-.04.33,0,.11.05.18.13.22.24.05.12.04.23,0,.34-.05.1-.13.18-.25.22-.11.04-.22.04-.33,0-.11-.04-.19-.13-.23-.25Z"/>
    <path class="st0" d="M117.04,71.93l4.44-2.01c.27-.12.53-.17.79-.15.26.02.49.11.7.27.21.15.37.36.49.63.09.2.14.4.14.59,0,.19-.04.38-.11.57l-.55-.21c.05-.12.07-.24.08-.35,0-.11-.03-.23-.08-.36-.11-.25-.28-.41-.49-.48-.21-.07-.45-.05-.71.07l-4.43,2.01-.26-.57ZM119.88,69.48l.52-.23,1.27,2.81-.52.23-1.27-2.81Z"/>
    <path class="st0" d="M119.91,77.53l5.1-3.36.36.55-5.1,3.36-.36-.55ZM122.19,76.54l.48-.32.99,1.5c.14.21.31.37.5.48.19.11.4.16.62.15.22,0,.43-.08.65-.23.22-.14.37-.31.47-.51.09-.2.13-.41.1-.63-.03-.22-.11-.44-.25-.65l-.99-1.5.48-.32,1.02,1.54c.2.31.32.62.35.95.03.33-.02.63-.15.93-.14.29-.36.54-.66.74-.31.21-.63.31-.95.32-.32,0-.62-.07-.91-.23-.29-.16-.53-.39-.73-.7l-1.02-1.54Z"/>
    <path class="st0" d="M124.3,83.75c-.25-.3-.41-.63-.46-.99-.06-.36-.02-.72.11-1.07.13-.35.35-.66.66-.92.32-.27.66-.44,1.03-.51.37-.07.73-.05,1.08.06.35.11.65.32.9.62.21.24.34.5.41.78.07.27.06.55,0,.81-.07.27-.21.51-.42.73l-1,.84c-.25.17-.52.27-.8.3-.28.03-.55,0-.8-.12-.26-.11-.49-.28-.7-.53ZM124.82,83.44c.28.33.62.51,1.01.52.39.01.76-.14,1.13-.44.24-.2.41-.43.52-.67.1-.24.14-.49.1-.74-.04-.25-.15-.49-.34-.71-.19-.22-.41-.37-.66-.46-.25-.09-.51-.1-.78-.05-.27.05-.52.18-.75.38-.23.2-.4.43-.49.68-.09.25-.12.51-.07.78.05.26.16.51.35.73ZM125.34,84.84l.85-.72.87-.57.69-.74.78-.66.41.48-3.18,2.7-.41-.48Z"/>
    <path class="st0" d="M127.17,86.77l2.88-3.02.46.43-2.88,3.02-.46-.43ZM129.3,85.44l-.11-.25c.37-.39.75-.6,1.15-.65.4-.05.76.09,1.09.4.15.14.26.3.33.47.07.17.11.37.11.58l-.6.03c0-.14-.02-.27-.08-.39-.06-.12-.14-.23-.25-.34-.23-.22-.49-.33-.78-.31-.29.01-.57.16-.86.46Z"/>
    <path class="st0" d="M130.29,89.65l3.89-4.94.5.39-3.89,4.94-.49-.39ZM132.41,91.32l-.35-3,2.9-.3.61.48-3.15.32.25-.27.4,3.28-.65-.51Z"/>
    <path class="st0" d="M133.72,93.36l.97-.54.22.08s-.1.05-.16.06c-.06,0-.11,0-.16-.04-.09-.06-.15-.16-.18-.28-.03-.13,0-.25.07-.36.08-.12.19-.19.33-.22.14-.03.27,0,.4.08.11.08.18.18.21.33.03.14,0,.27-.07.39-.03.05-.08.1-.14.16-.06.05-.16.12-.28.19l-1,.54-.2-.38Z"/>
    <path class="st0" d="M139.11,95.56l2.59-5.53.59.28-2.59,5.53-.59-.28ZM139.5,95.74l.24-.52,1.75.82c.36.17.69.2,1,.09.31-.1.53-.31.67-.62.09-.2.13-.4.11-.6-.02-.2-.09-.39-.22-.57-.12-.17-.3-.31-.53-.42l-1.8-.84.24-.51,1.71.8c.29.14.57.17.82.09.25-.08.44-.27.58-.56.14-.29.15-.56.03-.81-.11-.25-.32-.45-.63-.59l-1.65-.77.24-.52,1.66.78c.34.16.61.36.79.59.18.24.29.49.31.75.03.27-.02.53-.15.79-.15.31-.35.54-.62.69s-.58.21-.95.18l.15-.17c.31.28.5.6.58.95.08.35.04.7-.13,1.06-.14.3-.33.53-.58.69-.25.17-.54.26-.88.27-.33.01-.69-.07-1.07-.25l-1.71-.8Z"/>
    <path class="st0" d="M146.55,98.72c-.37-.12-.68-.32-.92-.6-.24-.28-.4-.6-.47-.97-.08-.37-.05-.74.07-1.13.13-.39.33-.72.6-.98.27-.26.59-.43.94-.52.35-.09.72-.07,1.09.04.3.1.56.24.76.44.2.2.34.43.43.69.08.27.09.55.03.84l-.4,1.24c-.13.28-.3.5-.52.67-.22.17-.47.28-.74.33-.28.05-.57.02-.87-.08ZM146.82,98.18c.42.13.79.1,1.13-.1.34-.2.58-.52.72-.97.1-.3.12-.58.08-.84-.04-.26-.15-.49-.31-.68-.17-.19-.39-.33-.67-.42-.28-.09-.54-.1-.8-.04-.26.06-.49.18-.69.37-.2.19-.34.42-.44.72-.09.29-.11.57-.06.84.06.27.17.5.35.7.18.2.41.34.68.43ZM148,99.09l.34-1.07.43-.94.19-.99.31-.97.6.19-1.27,3.97-.6-.19Z"/>
    <path class="st0" d="M150.57,99.75l.84-4.09.62.13-.84,4.09-.62-.13ZM151.68,97.49l-.23-.16c.11-.52.32-.91.63-1.16s.69-.33,1.13-.24c.2.04.38.12.53.22.15.11.29.25.4.44l-.5.34c-.07-.12-.16-.22-.27-.29-.11-.07-.24-.12-.39-.15-.31-.06-.59-.01-.83.15-.24.16-.4.44-.48.84Z"/>
    <path class="st0" d="M156.37,100.8c-.34-.04-.63-.15-.88-.33-.25-.18-.44-.42-.55-.71-.12-.29-.16-.61-.12-.97l.26-2.41.63.07-.26,2.38c-.03.25,0,.48.07.68.07.2.19.36.35.48.16.12.35.2.57.22.35.04.63-.05.86-.26.22-.21.36-.5.4-.89l.26-2.38.63.07-.26,2.41c-.04.36-.15.67-.32.93-.18.26-.4.45-.68.58-.28.12-.59.17-.94.13Z"/>
    <path class="st0" d="M159.97,100.97l.11-4.17.63.02-.11,4.17-.63-.02ZM160.42,95.91c-.12,0-.22-.05-.3-.14s-.12-.2-.12-.31c0-.12.05-.23.13-.31.08-.08.19-.12.31-.12.13,0,.23.05.31.13.08.08.11.19.11.31,0,.12-.05.22-.13.31-.08.09-.19.13-.32.12Z"/>
    <path class="st0" d="M162.67,102.78l-.36-5.92.63-.04.06,1.06-.06,1.03.19,1.01.17,2.82-.63.04ZM164.73,100.98c-.32.02-.61-.03-.87-.14s-.48-.28-.66-.5c-.18-.22-.29-.48-.35-.77l-.08-1.3c.02-.31.1-.58.25-.82s.35-.43.6-.57c.25-.14.53-.22.83-.24.38-.02.74.05,1.05.22.32.17.58.42.78.74.2.32.31.68.34,1.1.02.41-.04.78-.2,1.11-.16.34-.39.61-.68.82-.3.21-.64.33-1.02.35ZM164.58,100.39c.3-.02.55-.1.77-.25.22-.15.38-.34.5-.59.12-.25.16-.52.14-.83-.02-.31-.1-.58-.24-.81-.14-.23-.33-.41-.56-.53-.23-.12-.49-.17-.78-.15-.29.02-.54.1-.75.25-.21.15-.37.34-.48.59-.11.25-.15.52-.14.83.02.31.1.58.24.81.14.23.32.41.55.53.23.12.48.17.77.15Z"/>
    <path class="st0" d="M170.21,100.31c-.33.06-.64.04-.94-.07-.29-.11-.54-.28-.73-.53-.19-.24-.32-.54-.39-.9l-.43-2.38.62-.11.43,2.36c.05.25.13.46.25.63.12.17.28.29.47.37.19.07.39.09.61.05.34-.06.59-.22.75-.49.16-.26.2-.58.13-.96l-.43-2.36.62-.11.43,2.38c.06.36.05.68-.05.98-.1.3-.26.55-.49.75-.23.2-.52.33-.86.39Z"/>
    <path class="st0" d="M173.78,99.44l-1.15-4.01.61-.17,1.15,4.01-.61.17ZM173.71,96.93l-.28-.03c-.15-.51-.14-.95.02-1.32.16-.37.46-.61.89-.74.2-.06.39-.07.58-.05.19.02.37.09.56.2l-.28.53c-.12-.08-.25-.12-.38-.13-.13-.01-.27,0-.42.05-.31.09-.53.26-.66.51-.14.25-.15.58-.03.97Z"/>
    <path class="st0" d="M177.62,99.22l.15-1.1.2-.13c0,.06-.02.11-.05.16-.03.05-.07.09-.13.11-.11.04-.22.03-.33-.03-.12-.06-.2-.15-.24-.28-.05-.13-.04-.27.02-.4.06-.13.16-.22.3-.27.13-.05.26-.04.39.03.13.06.22.16.27.3.02.06.03.12.04.21,0,.08,0,.2-.02.34l-.17,1.12-.43-.06Z"/>
    <path class="st0" d="M182.62,96.23l-2.89-5.38.58-.31,2.89,5.38-.58.31ZM186.03,94.39l-4.44-1.23,1.49-4.11.77-.42-1.6,4.38-.18-.33,4.74,1.29-.79.42Z"/>
    <path class="st0" d="M189.49,92.24c-.33.23-.69.37-1.07.39-.38.03-.74-.04-1.09-.2-.35-.16-.64-.41-.87-.74-.23-.33-.36-.68-.39-1.06-.03-.38.03-.74.19-1.08.16-.34.4-.63.74-.87.33-.23.68-.36,1.06-.4.38-.03.74.03,1.09.19.35.16.63.4.87.73.24.34.37.7.4,1.08.03.38-.03.74-.19,1.09-.16.35-.4.64-.73.87ZM189.14,91.75c.24-.17.41-.37.52-.62.11-.24.15-.5.12-.78-.03-.27-.14-.53-.31-.78-.17-.24-.38-.42-.62-.54s-.5-.16-.76-.14c-.26.02-.52.11-.75.28s-.41.37-.52.62c-.11.24-.15.5-.12.77.03.27.13.52.3.76.18.25.39.44.63.56.24.12.5.17.77.15.27-.02.52-.11.76-.28Z"/>
    <path class="st0" d="M192.49,89.84l-4.03-4.82.48-.4,4.03,4.82-.48.4Z"/>
    <path class="st0" d="M193.06,86.79l-.41-.43,2.04-1.98.41.43-2.04,1.98Z"/>
    <path class="st0" d="M193.05,81.77l-.44-.39,1.22-1.38.44.39-1.22,1.38ZM198.04,84.46l-4.58-4.04.43-.49,4.58,4.04-.43.49Z"/>
    <path class="st0" d="M198.05,81.4l-1.99-4.23.43-.6,1.97,4.26-.4.56ZM198.38,81.63l-.33-.24.02-.33,2.54-3.53.48.34-2.7,3.76ZM201.48,80.08l-3.31-2.37.38-.53,3.31,2.37-.38.53Z"/>
    <path class="st0" d="M201.31,76.73l-2.5-3.95.35-.65,2.48,3.99-.33.61ZM204.56,75l-3.58-1.95.31-.57,3.58,1.95-.31.57ZM201.67,76.92l-.36-.2-.02-.33,2.08-3.82.51.28-2.21,4.06Z"/>
    <path class="st0" d="M206.66,72.76l-.7-.86.04-.23s.07.09.09.14c.02.05.01.11-.01.17-.05.1-.13.18-.25.23s-.24.04-.37-.01c-.13-.06-.22-.15-.28-.29-.05-.13-.05-.27,0-.4.05-.12.15-.21.29-.27.14-.05.27-.05.4,0,.05.02.11.06.18.11.06.05.14.13.24.24l.7.89-.34.27Z"/>
    <path class="st0" d="M208.38,65.46l-6.4.54.15-.64,5.49-.42-.04.19-4.75-2.78.11-.48,5.49-.41-.05.2-4.74-2.82.15-.64,5.5,3.31-.11.47-5.48.42.04-.19,4.74,2.79-.11.47Z"/>
    <path class="st0" d="M209.92,57.63c-.02.15-.08.26-.19.35-.11.08-.24.12-.38.1-.14-.02-.26-.08-.34-.18-.09-.1-.12-.23-.11-.38.02-.14.08-.25.18-.34.11-.08.23-.12.37-.1.14.02.26.08.35.18.09.11.13.23.11.37Z"/>
    <path class="st0" d="M210.1,54.83l-6.11-.06v-.66s6.11.06,6.11.06v.66ZM210.11,54.4h-.58s.02-1.94.02-1.94c0-.4-.1-.71-.33-.95-.22-.24-.5-.36-.84-.36-.22,0-.42.05-.6.15-.18.1-.32.25-.43.43-.11.19-.16.4-.16.65l-.02,1.99h-.57s.02-1.9.02-1.9c0-.33-.08-.59-.26-.78-.18-.19-.43-.29-.75-.3-.32,0-.57.1-.75.3-.18.21-.27.48-.27.82l-.02,1.82h-.58s.02-1.84.02-1.84c0-.38.08-.7.21-.97.14-.26.32-.46.56-.6s.49-.2.78-.2c.34,0,.64.1.88.28.24.18.43.44.56.79l-.21-.06c.13-.4.34-.7.62-.92.29-.22.62-.33,1.02-.32.33,0,.62.08.87.24.26.16.46.39.61.69.15.3.22.66.22,1.08l-.02,1.89Z"/>
    <path class="st0" d="M210.02,48.02c.01.15-.03.27-.12.38-.09.1-.21.16-.35.17-.14.01-.27-.02-.37-.11-.11-.09-.17-.2-.18-.35-.01-.14.03-.26.11-.37.09-.1.2-.16.35-.17.14-.01.27.02.38.11.11.09.17.2.18.34Z"/>
  </g>
  <polygon class="st0" points="120.66 44.21 118.4 43.26 116.33 44.59 116.53 42.14 114.63 40.59 117.02 40.02 117.91 37.73 119.19 39.83 121.64 39.97 120.04 41.83 120.66 44.21"/>
  <polygon class="st0" points="207.63 43.36 205.36 42.41 203.29 43.74 203.5 41.29 201.59 39.74 203.99 39.17 204.88 36.88 206.15 38.98 208.61 39.12 207 40.98 207.63 43.36"/>
  <g>
    <path class="st0" d="M175.58,54.85c-.45.25-.81.44-1.18.64-1.42.75-2.85,1.48-4.25,2.25-1.86,1.02-3.71,2.08-5.56,3.11-.65.36-1.31.71-1.95,1.07-.66.37-1.31.41-1.99.06-1.62-.82-3.26-1.61-4.88-2.44-.81-.42-1.58-.93-2.4-1.35-1.33-.68-2.7-1.29-4.02-1.98-1.06-.56-2.13-1.12-3.11-1.81-2.19-1.53-4.48-2.83-6.96-3.83-.75-.3-1.39-.89-2.1-1.31-.73-.44-1.47-.86-2.23-1.24-.99-.49-2.01-.91-3-1.41-.55-.28-1.04-.69-1.59-.98-.69-.37-1.43-.65-2.11-1.03-.94-.51-1-1.76-.13-2.33,1.07-.7,2.12-1.43,3.24-2.03,1.1-.6,2.32-.99,3.43-1.58,2.36-1.24,4.69-2.52,7.02-3.81,2.19-1.21,4.36-2.47,6.55-3.69,2.15-1.2,4.31-2.4,6.48-3.58,1.54-.84,3.1-1.64,4.66-2.46.37-.19.74-.38,1.09-.6.6-.38,1.2-.35,1.79-.02,3.03,1.67,6.05,3.36,9.09,5.02,1.65.9,3.35,1.7,5,2.59,1.33.72,2.62,1.51,3.93,2.28.36.21.71.44,1.08.63,1.2.64,2.4,1.26,3.6,1.89,2,1.06,4,2.12,5.98,3.2,1.3.71,2.58,1.45,3.86,2.21.85.5.86,1.37,0,1.87-1.54.91-3.11,1.76-4.67,2.63-.53.29-1.04.64-1.61.84-.52.19-.69.44-.69,1.01.02,6.4,0,12.81.02,19.21,0,.49.05.98.17,1.45.05.2.41.32.49.53.23.57.54,1.16.55,1.75.02,1.05.24,2.13-.37,3.14-.64,1.07-2.43,1.72-3.63,1.36-1.48-.45-2.11-1.72-2.16-3.22,0-.14,0-.28,0-.42-.08-1.06.08-2.02.89-2.82.23-.23.35-.67.35-1.01.02-7.99,0-15.99.04-23.98,0-.77-.39-1.05-.9-1.34-1.74-.99-3.47-1.99-5.22-2.95-.95-.52-1.94-.97-2.9-1.49-1.14-.61-2.25-1.27-3.39-1.89-.75-.41-1.52-.81-2.31-1.13-.72-.29-1.39-.5-1.99-1.13-.64-.67-1.63-1.01-2.49-1.47-1.1-.6-2.2-1.21-3.34-1.73-.25-.12-.72.06-1.01.23-1.33.78-2.63,1.64-3.97,2.42-1.23.71-2.51,1.36-3.77,2.02-.6.31-1.22.56-1.81.89-1.54.84-3.05,1.71-4.59,2.55-1.1.6-2.22,1.16-3.32,1.75-1.03.56-2.05,1.14-3.26,1.81.49.3.79.49,1.1.67,2.18,1.26,4.34,2.54,6.54,3.77,1.23.69,2.53,1.24,3.77,1.92,1.39.75,2.73,1.58,4.11,2.36,1.67.94,3.37,1.84,5.03,2.81.73.43,1.3.39,1.98-.11.65-.48,1.37-.85,2.08-1.23,2.25-1.21,4.5-2.4,6.75-3.61.76-.41,1.53-.8,2.27-1.23.72-.41,1.4-.88,2.11-1.3.63-.38,1.24-.35,1.89.04.75.45,1.56.8,2.35,1.18.64.31.96.75.96,1.53-.03,5.87-.04,11.73.02,17.6,0,1.06-.34,1.65-1.27,2.11-1.34.67-2.59,1.5-3.91,2.22-1.54.84-3.13,1.61-4.67,2.46-1.74.96-3.42,2.02-5.17,2.97-1.25.69-2.54,1.32-3.86,1.88-.5.22-1.05.09-1.59-.22-1.31-.73-2.7-1.32-4.02-2.03-1.13-.61-2.21-1.31-3.33-1.95-1.07-.62-2.15-1.22-3.23-1.82-1.35-.74-2.71-1.47-4.06-2.21-.93-.51-1.85-1.07-2.79-1.56-.64-.34-.89-.87-.89-1.54,0-3.95,0-7.9,0-11.85,0-.56.29-.85.77-.9.36-.04.78-.02,1.09.14,1.07.55,2.12,1.13,3.13,1.78.23.15.37.6.37.92.02,2.1-.02,4.21,0,6.31,0,.19.19.47.37.56.88.46,1.8.85,2.69,1.31,1.71.88,3.42,1.74,5.09,2.69,1.52.87,2.98,1.84,4.46,2.77.9.57,1.72.67,2.71.03,1.69-1.09,3.47-2.06,5.24-3.02,1.99-1.09,4.03-2.1,6.03-3.17.95-.5,1.56-1.14,1.51-2.41-.11-2.71-.03-5.42-.03-8.25ZM128.38,43.21c.02.09.04.17.06.26.37.22.73.44,1.1.65,2.16,1.18,4.33,2.36,6.5,3.53.16.08.36.08.51.17,1.9,1.09,3.79,2.19,5.69,3.28,1.04.59,2.1,1.14,3.15,1.71,1.07.57,2.14,1.13,3.21,1.7.95.51,1.9,1.04,2.84,1.57,1.84,1.03,3.66,2.07,5.5,3.09,1.11.62,2.22,1.25,3.36,1.81.54.27,1.05.74,1.77.34,2.61-1.46,5.23-2.89,7.86-4.33,1.9-1.04,3.82-2.06,5.72-3.1.6-.33.73-.28.74.35.02,3.44.03,6.87.04,10.31,0,.43-.15.69-.58.87-.66.28-1.28.66-1.9,1.02-1.82,1.02-3.63,2.05-5.46,3.05-2.1,1.15-4.23,2.25-6.33,3.41-.48.26-.87.29-1.33,0-.51-.33-1.05-.61-1.58-.89-1.19-.64-2.39-1.24-3.56-1.9-1.57-.88-3.11-1.82-4.69-2.69-1.1-.61-2.22-1.17-3.36-1.7-.77-.35-.93-.97-.92-1.71.02-1.7.04-3.39.09-5.09.02-.68-.09-1.16-.88-1.28-.27-.04-.51-.29-.76-.43-.66-.39-1.33-.78-2.05-1.2-.05.25-.11.4-.11.55,0,3.83-.01,7.67.02,11.5,0,.26.22.59.44.75.47.33,1,.57,1.51.85,2.08,1.16,4.15,2.33,6.24,3.47,1.28.7,2.6,1.33,3.89,2.03,2.01,1.09,3.99,2.22,6,3.3.23.12.63.11.87,0,1.32-.63,2.61-1.3,3.9-1.99,1.73-.92,3.46-1.87,5.18-2.81,1.3-.71,2.59-1.43,3.88-2.16,1.61-.91,3.23-1.81,4.82-2.75.22-.13.4-.49.41-.75.04-1.38.02-2.76.02-4.14,0-4.49,0-8.98,0-13.46,0-.38.08-.77-.43-.99-.78-.34-1.51-.83-2.3-1.15-.37-.15-.89-.21-1.26-.08-.66.23-1.25.63-1.87.96-1.88,1.03-3.75,2.06-5.63,3.08-1.03.56-2.07,1.12-3.09,1.69-.92.52-1.81,1.08-2.74,1.57-.64.34-1.28.81-2.08.26-.38-.27-.85-.39-1.26-.62-1.35-.76-2.68-1.56-4.04-2.31-2.14-1.18-4.28-2.35-6.43-3.51-1.73-.93-3.49-1.82-5.22-2.74-1.27-.68-2.52-1.38-3.77-2.09-.59-.34-1.16-.71-1.91-1.17.67-.37,1.15-.63,1.62-.89,1.88-1.04,3.75-2.08,5.64-3.1,1.17-.63,2.37-1.2,3.53-1.84,1.35-.75,2.72-1.42,4.03-2.27,2.43-1.58,5.05-2.88,7.6-4.26.52-.28,1.11-.48,1.71-.1.33.21.67.4,1.01.59,1.33.73,2.65,1.46,3.98,2.18,1.59.85,3.19,1.67,4.77,2.54,1.34.74,2.65,1.53,3.99,2.27,1.52.84,3.05,1.64,4.58,2.46,1.17.63,2.34,1.25,3.5,1.87.62.33.95.73.95,1.55-.04,8.16-.02,16.32-.04,24.47,0,.42-.14.93-.39,1.26-1.06,1.35-.9,2.78-.33,4.21.39.97,1.61,1.45,2.46,1.12,1-.39,1.82-1.94,1.61-3.06-.16-.85-.17-1.77-.96-2.38-.12-.09-.16-.33-.16-.5-.03-.89-.04-1.78-.04-2.67,0-5.77.04-11.55-.03-17.32-.02-1.33.21-2.28,1.6-2.66.06-.02.12-.06.18-.09,1.09-.61,2.17-1.23,3.26-1.84.87-.48,1.75-.96,2.81-1.53-1.46-.76-2.73-1.39-3.97-2.08-1.58-.88-3.13-1.83-4.72-2.7-1.41-.77-2.86-1.46-4.28-2.23-1.35-.73-2.65-1.54-3.99-2.28-1.34-.73-2.71-1.4-4.06-2.13-1.23-.67-2.42-1.39-3.65-2.06-1.43-.78-2.89-1.5-4.32-2.28-1.35-.73-2.67-1.51-4.02-2.22-.27-.14-.72-.21-.97-.08-1.25.62-2.47,1.31-3.7,1.99-4.02,2.21-8.03,4.43-12.04,6.64-1.69.93-3.37,1.86-5.06,2.79-1.63.9-3.25,1.82-4.88,2.71-1.25.68-2.54,1.3-3.78,1.99-1.08.59-2.13,1.25-3.19,1.87Z"/>
    <path class="st0" d="M128.38,43.21c1.06-.63,2.11-1.28,3.19-1.87,1.25-.69,2.53-1.31,3.78-1.99,1.64-.89,3.25-1.81,4.88-2.71,1.68-.93,3.37-1.86,5.06-2.79,4.01-2.22,8.03-4.43,12.04-6.64,1.23-.68,2.45-1.37,3.7-1.99.25-.13.7-.06.97.08,1.36.71,2.67,1.49,4.02,2.22,1.43.77,2.89,1.5,4.32,2.28,1.23.67,2.42,1.39,3.65,2.06,1.34.73,2.72,1.4,4.06,2.13,1.34.74,2.65,1.55,3.99,2.28,1.41.77,2.87,1.46,4.28,2.23,1.59.87,3.13,1.82,4.72,2.7,1.24.69,2.51,1.32,3.97,2.08-1.06.58-1.94,1.05-2.81,1.53-1.09.61-2.17,1.23-3.26,1.84-.06.03-.12.08-.18.09-1.39.38-1.62,1.33-1.6,2.66.07,5.77.03,11.55.03,17.32,0,.89.01,1.78.04,2.67,0,.17.05.41.16.5.79.61.8,1.53.96,2.38.21,1.11-.62,2.66-1.61,3.06-.85.33-2.07-.15-2.46-1.12-.57-1.43-.73-2.86.33-4.21.26-.33.39-.83.39-1.26.02-8.16,0-16.32.04-24.47,0-.82-.33-1.22-.95-1.55-1.17-.62-2.34-1.25-3.5-1.87-1.53-.82-3.06-1.62-4.58-2.46-1.34-.74-2.65-1.54-3.99-2.27-1.58-.86-3.19-1.68-4.77-2.54-1.33-.72-2.66-1.45-3.98-2.18-.34-.19-.68-.38-1.01-.59-.6-.38-1.19-.18-1.71.1-2.55,1.38-5.17,2.68-7.6,4.26-1.31.85-2.68,1.52-4.03,2.27-1.16.64-2.36,1.21-3.53,1.84-1.89,1.02-3.76,2.07-5.64,3.1-.47.26-.94.52-1.62.89.75.46,1.31.84,1.91,1.17,1.25.71,2.5,1.42,3.77,2.09,1.73.93,3.49,1.81,5.22,2.74,2.15,1.15,4.3,2.32,6.43,3.51,1.36.75,2.69,1.55,4.04,2.31.41.23.88.36,1.26.62.79.55,1.43.08,2.08-.26.93-.49,1.82-1.05,2.74-1.57,1.02-.57,2.06-1.13,3.09-1.69,1.88-1.03,3.75-2.06,5.63-3.08.62-.34,1.21-.74,1.87-.96.37-.13.88-.07,1.26.08.79.32,1.51.81,2.3,1.15.51.22.43.61.43.99,0,4.49,0,8.98,0,13.46,0,1.38.02,2.76-.02,4.14,0,.26-.2.62-.41.75-1.59.94-3.2,1.85-4.82,2.75-1.29.73-2.58,1.45-3.88,2.16-1.72.94-3.45,1.89-5.18,2.81-1.29.69-2.59,1.35-3.9,1.99-.24.12-.64.13-.87,0-2.01-1.08-3.99-2.21-6-3.3-1.28-.7-2.61-1.33-3.89-2.03-2.09-1.14-4.16-2.31-6.24-3.47-.51-.28-1.04-.52-1.51-.85-.22-.16-.44-.49-.44-.75-.03-3.83-.02-7.67-.02-11.5,0-.15.06-.31.11-.55.73.43,1.39.81,2.05,1.2.25.15.49.39.76.43.79.12.9.61.88,1.28-.05,1.7-.07,3.39-.09,5.09,0,.73.15,1.35.92,1.71,1.14.52,2.26,1.09,3.36,1.7,1.58.87,3.12,1.81,4.69,2.69,1.17.66,2.38,1.26,3.56,1.9.53.29,1.08.56,1.58.89.46.3.85.27,1.33,0,2.1-1.15,4.22-2.26,6.33-3.41,1.83-1,3.64-2.04,5.46-3.05.63-.35,1.25-.73,1.9-1.02.43-.18.58-.44.58-.87-.02-3.44-.02-6.87-.04-10.31,0-.63-.14-.68-.74-.35-1.9,1.04-3.82,2.06-5.72,3.1-2.62,1.43-5.25,2.87-7.86,4.33-.71.4-1.23-.07-1.77-.34-1.14-.56-2.24-1.2-3.36-1.81-1.84-1.02-3.67-2.06-5.5-3.09-.94-.53-1.89-1.05-2.84-1.57-1.07-.57-2.14-1.13-3.21-1.7-1.05-.56-2.11-1.12-3.15-1.71-1.9-1.08-3.79-2.19-5.69-3.28-.15-.09-.36-.08-.51-.17-2.17-1.17-4.33-2.35-6.5-3.53-.37-.2-.74-.43-1.1-.65-.02-.09-.04-.17-.06-.26Z"/>
  </g>
</svg>