<?xml version="1.0" encoding="UTF-8"?>
<svg id="Layer_1" xmlns="http://www.w3.org/2000/svg" version="1.1" viewBox="0 0 320 120">
  <!-- Generator: Adobe Illustrator 30.2.1, SVG Export Plug-In . SVG Version: 2.1.1 Build 1)  -->
  <defs>
    <style>
      .st0, .st1, .st2 {
        fill: #fff;
      }

      .st3, .st1, .st2 {
        isolation: isolate;
      }

      .st1 {
        font-family: AdobeSongStd-Light-GBpc-EUC-H, 'Adobe Song Std';
        font-size: 68.18px;
        font-weight: 300;
      }

      .st2 {
        font-family: AbeatbyKai, abeatbyKai;
        font-size: 12.03px;
      }
    </style>
  </defs>
  <g>
    <g>
      <g class="st3">
        <text class="st2" transform="translate(144.21 87.78) scale(1.09 1)"><tspan x="0" y="0">Sparkle</tspan></text>
      </g>
      <g>
        <path class="st0" d="M150.26,84.99c0,.75-.28,1.4-.87,1.93s-1.3.8-2.14.8-1.55-.26-2.14-.79-.88-1.19-.89-1.99h1.06c0,.51.18.95.56,1.32s.85.56,1.39.57c.57,0,1.05-.17,1.46-.53s.6-.8.58-1.32c-.03-.86-.64-1.46-1.85-1.81l-1.07-.31c-.57-.16-1.01-.44-1.32-.84-.31-.4-.48-.87-.48-1.43,0-.68.27-1.26.83-1.74s1.22-.71,1.98-.7c.75,0,1.39.26,1.91.75.53.49.79,1.08.79,1.77h-1.06c0-.44-.15-.81-.46-1.13-.32-.32-.71-.49-1.17-.51-.49-.02-.92.12-1.29.44s-.55.7-.53,1.14c.02.73.4,1.2,1.15,1.41l1.22.35c1.56.45,2.34,1.32,2.36,2.6l-.02.02Z"/>
        <path class="st0" d="M158.79,84.11c0,1-.39,1.86-1.17,2.58s-1.7,1.06-2.78,1.03c-1.1-.04-2.02-.44-2.77-1.22v3.45h-.97v-5.84c0-.99.39-1.84,1.17-2.56s1.71-1.06,2.79-1.03c1.04.02,1.92.38,2.64,1.08.72.7,1.08,1.53,1.08,2.49v.02ZM157.79,84.19c0-.73-.25-1.36-.79-1.9s-1.19-.83-1.96-.85c-.83-.04-1.53.22-2.11.79s-.87,1.22-.85,1.98c.02.73.3,1.35.84,1.86.55.52,1.2.77,1.98.77s1.47-.26,2.03-.77c.56-.52.85-1.14.87-1.87h0Z"/>
        <path class="st0" d="M167.43,84.11v3.44h-1v-1.07c-.81.85-1.8,1.26-2.98,1.23-1.03-.03-1.9-.4-2.62-1.09-.72-.7-1.08-1.53-1.08-2.49s.39-1.86,1.17-2.58,1.71-1.06,2.79-1.02c1.05.03,1.94.4,2.67,1.1s1.08,1.53,1.05,2.49h0ZM166.43,84.05c-.02-.72-.3-1.34-.84-1.86-.54-.51-1.19-.77-1.96-.77s-1.48.26-2.04.77c-.56.52-.85,1.14-.85,1.87-.02.72.24,1.36.78,1.9s1.19.83,1.95.86c.82.03,1.53-.23,2.11-.79s.86-1.22.85-1.98Z"/>
        <path class="st0" d="M171.41,81.48c-.46.02-.84.13-1.13.35s-.49.4-.59.57c-.17.26-.25.62-.25,1.06v4.1h-1.05v-6.86h.93v.97c.21-.37.52-.65.93-.85.38-.18.76-.27,1.15-.25v.91h.01Z"/>
        <path class="st0" d="M178.18,87.56h-1.29l-2.43-2.7-1.19,1.38v1.31h-1.07v-9.28h1.03v6.54l3.47-4.12h1.24l-2.85,3.46,3.09,3.4h0Z"/>
        <path class="st0" d="M179.9,87.56h-.99v-9.28h.99v9.28Z"/>
        <path class="st0" d="M188.76,84.44h-6.71c.08.69.4,1.26.96,1.71.56.45,1.22.67,1.98.66,1.18-.02,2.02-.52,2.53-1.5h1.06c-.28.74-.75,1.32-1.42,1.76s-1.4.65-2.21.66c-1.02.02-1.93-.33-2.71-1.03-.79-.7-1.19-1.54-1.21-2.51-.03-1.03.37-1.91,1.19-2.65s1.78-1.08,2.89-1.03c1,.06,1.86.43,2.59,1.13.71.69,1.06,1.46,1.06,2.31v.49h0ZM187.76,83.6c-.14-.64-.47-1.16-.98-1.56-.52-.4-1.13-.6-1.85-.61-.72,0-1.34.19-1.88.59s-.88.93-1.02,1.58h5.73Z"/>
        <path class="st0" d="M200.37,84.92c.03.74-.28,1.36-.91,1.87s-1.37.76-2.22.76h-3.21v-9.27h2.86c.8,0,1.5.22,2.08.65.62.46.93,1.03.93,1.73,0,.83-.38,1.47-1.15,1.92,1.04.45,1.58,1.22,1.62,2.32v.02ZM196.87,79.16h-1.79v3.09h1.84c.53,0,.99-.14,1.39-.43s.6-.65.6-1.1c0-.5-.21-.89-.63-1.17-.38-.26-.85-.4-1.41-.4h0ZM199.33,84.83c-.04-.58-.29-1.03-.76-1.33-.43-.27-1-.41-1.72-.41h-1.78v3.57h1.84c.78,0,1.38-.17,1.82-.5s.64-.78.6-1.33h0Z"/>
        <path class="st0" d="M209.07,84.44h-6.71c.08.69.4,1.26.96,1.71.56.45,1.22.67,1.98.66,1.18-.02,2.02-.52,2.53-1.5h1.06c-.28.74-.75,1.32-1.42,1.76s-1.4.65-2.21.66c-1.02.02-1.93-.33-2.71-1.03-.79-.7-1.19-1.54-1.21-2.51-.03-1.03.37-1.91,1.19-2.65s1.78-1.08,2.89-1.03c1,.06,1.86.43,2.59,1.13.71.69,1.06,1.46,1.06,2.31v.49h0ZM208.08,83.6c-.14-.64-.47-1.16-.98-1.56-.52-.4-1.13-.6-1.85-.61-.72,0-1.34.19-1.88.59s-.88.93-1.02,1.58h5.73Z"/>
        <path class="st0" d="M217.62,84.11v3.44h-1v-1.07c-.81.85-1.8,1.26-2.98,1.23-1.03-.03-1.9-.4-2.62-1.09-.72-.7-1.08-1.53-1.08-2.49s.39-1.86,1.17-2.58,1.71-1.06,2.79-1.02c1.05.03,1.94.4,2.67,1.1s1.08,1.53,1.05,2.49h0ZM216.62,84.05c-.02-.72-.3-1.34-.84-1.86-.54-.51-1.19-.77-1.96-.77s-1.48.26-2.04.77c-.56.52-.85,1.14-.85,1.87-.02.72.24,1.36.78,1.9s1.19.83,1.95.86c.82.03,1.53-.23,2.11-.79s.86-1.22.85-1.98Z"/>
        <path class="st0" d="M225.27,84.61c0,.89-.31,1.63-.94,2.23-.63.59-1.41.89-2.37.89s-1.74-.3-2.37-.89-.94-1.34-.94-2.23v-3.91h.99v4.03c0,.58.23,1.07.69,1.49.46.41,1,.62,1.61.62s1.15-.21,1.62-.62c.46-.41.69-.91.69-1.49v-4.03h.99v3.91h.03Z"/>
        <path class="st0" d="M229.12,87.7c-1.82,0-2.73-.71-2.73-2.13v-7.28h.99v2.39h1.73v.85h-1.73v3.87c0,1.02.58,1.53,1.73,1.53v.76h0Z"/>
        <path class="st0" d="M236.72,80.7l-4.23,9.25h-1.07l1.12-2.61-2.86-6.65h1.08l2.39,5.46,2.53-5.46h1.04Z"/>
      </g>
    </g>
    <g>
      <g class="st3">
        <text class="st1" transform="translate(205.4 73.11) scale(1.1 1)"><tspan x="0" y="0">S</tspan></text>
      </g>
      <g>
        <path class="st0" d="M79.68,73.11l-5.98-16.7h-17.05l-5.83,16.7h-4.41l16.75-47.73h3.96l17.05,47.73h-4.49ZM65.09,31.31l-7.26,21.34h14.74s-7.48-21.34-7.48-21.34Z"/>
        <path class="st0" d="M86.86,73.11v-34.16h4.19l-.22,2.39c4.49-3.82,10.77-3.14,14.74-2.39l-1.12,3.48c-4.64-1.43-13.39-.82-13.39,3.95v26.73h-4.2Z"/>
        <path class="st0" d="M126.28,84.5c3.37-1.16,5.01-3.55,5.01-7.09v-7.64c-2.09,3.14-6.51,4.16-10.4,4.16-8.68,0-13.69-4.3-13.69-12.82v-22.16h4.04v22.84c0,6,4.04,8.66,9.65,8.66s10.32-2.45,10.32-8.66v-13.43c0-4.64-.3-8.39,5.46-10.02l1.12,2.59c-1.87.75-2.54,2.59-2.54,4.77v31.57c0,5.52-2.17,8.52-7.85,10.16,0,0-1.12-2.93-1.12-2.93Z"/>
        <path class="st0" d="M169.51,73.11c-11.89,1.02-28.8,3.07-28.8-11.52v-5.66c0-4.91,2.09-7.7,5.16-9.07,5.31-2.39,14.59-.82,19.45,2.66,0-4.09-1.57-8.18-11.59-8.18l.22-2.93c15.56,0,15.56,7.84,15.56,14.39v20.32h0ZM165.32,52.45c-6.66-2.86-20.5-6.95-20.5,3.68v5.93c0,7.98,8.45,9.41,20.5,7.91,0,0,0-17.52,0-17.52Z"/>
        <path class="st0" d="M199.29,73.11v-23.39c0-10.02-12.94-8.86-19.3-5.59v28.98h-4.19v-34.16h4.19l-.3,2.32c4.26-3.27,12.57-3.68,17.35-1.64,3.74,1.57,6.36,4.7,6.36,9.89v23.59h-4.11Z"/>
        <path class="st0" d="M233.24,40.31c-1.27-3.95-3.07-9.34-10.32-9.34-5.39,0-8.08,3.2-8.08,7.64,0,5.73,4.56,7.98,9.42,10.23,3.29,1.5,12.49,4.43,12.49,12.95,0,7.09-5.98,12.2-15.41,12.34-3.07-.14-5.68-.55-7.56-1.09-1.8-.55-2.77-1.02-3.22-1.29-.6-1.77-1.35-6.68-1.8-10.77h1.2c1.2,3.68,4.41,11.39,13.16,11.39,5.76,0,9.28-2.86,9.28-8.86,0-6.89-6.13-9.2-10.1-11.25-.67-.34-11.67-3.55-11.67-11.86,0-5.66,5.09-10.98,13.91-10.98,2.47,0,4.64.2,8.75,1.43.3,2.32.67,4.84,1.2,9.48h-1.27l.02-.02Z"/>
      </g>
    </g>
  </g>
  <polygon class="st0" points="222.04 69.78 239.59 42.72 243.59 40.09 222.04 69.78"/>
  <path class="st0" d="M244.66,36.62c.12-.15,3.6-10.23,7.3-13.31.69-.57,1.46-1.52,1.95-2.03.3-.31.62-.26.91-.26.19,0,.37.07.56.1.19.02.41-.02.51-.18.13-.21.05-.35-.05-.48-.13-.17-1.13-.94-1.1-1.52v-1.65c.03-2.14-.73-2.5-1.4-2.82-1.38-.66-2.85-1.16-4.46-1.14-2.77.02-4.39,2.36-5,4.39-.51,1.72-.41,3.76,2.52,6.26,1.62,1.39,2.19,2.37,1.23,4.18-3.27,6.16-5.72,10.03-5.72,10.03,2.24-1.78,2.73-1.54,2.73-1.54l.02-.03ZM251.9,22.08c-1.71,1.75-3.55,1.63-4.95.83-2.29-1.3-2.8-3.12-2.19-5.12.61-2.05,2.38-3.62,4.78-3.57,1.5.03,3.17.91,3.81,2.68.76,2.11-.29,3.88-1.44,5.18h0Z"/>
  <path class="st0" d="M269.25,23.53c2.44-1.24,4.34,0,4.34,0-.26-.66-2.41-1.93-4.9-.76-1.74.82-1.9,1.53-3.37,1.6-1.86.09-3.39.18-5.56,1.89-3.46,2.73-10.43,10.38-14.46,10.45h-.03c-.16,0-.32-.02-.47-.03-.31,0-.57.02-.88.21-.25.16-.5.37-.77.58l-.78.65-2.7,2.25.81,1.06-.91-.97-.16.13.8,1.04-.89-.96-.08.07-.08.07.78,1.02-.88-.94-.16.13.77,1-.86-.92-.17.14.76.99-.85-.91-.16.14.75.97-.84-.9-.17.14.73.96-.82-.88-.17.14.72.94-.81-.87-.17.14.71.92-.79-.85-.17.14.69.91-.78-.83-.17.14.68.89-.76-.82-.17.14.67.87-.75-.8-.18.15.66.86-.74-.8-.18.15.65.85-.73-.78-.18.15.64.83-.71-.76-.18.15.62.81-.7-.75-.18.15.61.8-.69-.73-.18.15.6.78-.67-.72-.18.15.58.76-.66-.7-.19.15.57.74-.64-.69-.19.15.56.73-.62-.67-.19.16.54.71-.61-.65-.19.16.53.69-.59-.64-.2.16.52.68-.59-.63-.19.16.51.66-.57-.61-.2.16.5.65-.56-.6-.2.16.48.63-.54-.58-.2.16.47.61-.53-.57-.2.16.46.6-.51-.55-.2.17.44.58-.5-.53-.2.17.43.56-.48-.52-.21.17.43.55-.48-.51-.21.17.41.54-.46-.5-.21.17.4.52-.45-.48-.21.17.38.5-.43-.46-.21.17.37.49-.42-.45-.21.17.36.47-.4-.43-.21.18.35.45-.39-.42-.22.18.33.43-.37-.4-.22.18.32.42-.36-.39-.22.18.31.41-.35-.37-.22.18.3.39-.33-.36-.22.18.28.37-.32-.34-.22.18.27.35-.31-.33-.22.18.26.34-.29-.31-.23.19.24.32-.28-.29-.23.19.23.3-.26-.28-.23.19.23.3-.26-.27-.23.19.21.28-.24-.26-.23.19.2.26-.22-.24-.23.19.19.24-.21-.22-.06.05-.17.14.17.23-.2-.21-.24.2.16.21-.18-.19-.24.2.15.19-.16-.18-.24.2.13.17-.15-.16-.24.2.12.15-.13-.14-11.96,9.52s13.86-10.1,17.09-12.43l9.99-7.23,1.31-.95c3.9-2.76,8.71-5.93,12.66-8.91.6-.46,1.1-.55,2.04-.39,1.03.17,1.53,1.41,3.96,2.81.5.29,2.04.96,3.68.89,3.73-.18,7.7-3.75,4.78-8.4-.91-1.45-.91-2.88.25-3.47v-.02ZM243.15,39.17c-.11.11-.28.11-.39,0s-.11-.28,0-.39.28-.11.39,0,.11.28,0,.39ZM268.73,30.3c-.04,1.75-1.21,3.33-2.99,3.94-1.8.62-3.55.45-5.17-.53-1.26-.76-2.34-1.75-2.27-3.37.07-1.73,1.01-2.99,2.43-3.84,0,0,.02,0,.03-.02,1.67-.78,3.33-1.03,5.04-.41,1.79.65,2.97,2.39,2.93,4.22h0Z"/>
</svg>