<?xml version="1.0" encoding="UTF-8"?>
<svg id="Layer_1" xmlns="http://www.w3.org/2000/svg" version="1.1" viewBox="0 0 320 120">
  <!-- Generator: Adobe Illustrator 30.2.1, SVG Export Plug-In . SVG Version: 2.1.1 Build 1)  -->
  <defs>
    <style>
      .st0 {
        fill: #fff;
      }

      .st1 {
        fill: #e42726;
      }

      .st2 {
        fill: #055ca8;
      }

      .st3 {
        fill: #85b122;
      }

      .st4 {
        fill: #5d5e5c;
      }
    </style>
  </defs>
  <path class="st1" d="M205.56,77.84c-.68-.68-1.01-1.48-1.01-2.43,0-.07,0-.14,0-.22h6.93c0,.07,0,.14,0,.22,0,.94-.35,1.75-1.04,2.43-.7.68-1.52,1.01-2.46,1.01s-1.75-.34-2.43-1.01Z"/>
  <path class="st0" d="M249.55,75.2v22.25h-78.21v-22.25h32.06c0,.07,0,.14,0,.22,0,1.25.45,2.33,1.35,3.23.9.9,1.98,1.35,3.23,1.35s2.34-.45,3.27-1.35c.93-.9,1.39-1.97,1.39-3.23,0-.07,0-.14,0-.22h36.92Z"/>
  <path class="st3" d="M215.87,42.31l-.5-.43c.2.14.37.29.5.43Z"/>
  <path class="st3" d="M215.37,41.88s-.07-.05-.1-.07h.02l.09.07Z"/>
  <path class="st2" d="M224.52,69.3c-2.82.21-5.47,1.39-8.15,1.39-.15,0-.3,0-.44-.01-6.57-.33-12.73-1.97-18.74-4.42l1.63-4.05c2.82-6.99,2.98-16.6-2.44-22.53l1.64.19c-.04-.12-.05-.24-.02-.35.27-1.32,4.59-1.53,9.66-.49,3.33.69,6.16,1.76,7.62,2.78.04.02.07.05.1.07l.5.43.32.28,8.33,26.71Z"/>
  <g>
    <path class="st0" d="M224.52,69.3c-2.82.21-5.47,1.39-8.15,1.39-.15,0-.3,0-.44-.01-6.57-.33-12.73-1.97-18.74-4.42l1.63-4.05c2.82-6.99,2.98-16.6-2.44-22.53l1.16-.61c-.22-.41-.43-.64-.73-1.07,1.25-.6,2.82-.87,4.53-.87,4.93,0,11,2.2,13.94,4.68-2.02-.82-3.87-1.55-5.93-2.24-2.62-.86-8.75-1.76-10.94-.57,5.27,7.87,4.67,17.63,1.96,26.23,4.88,2.15,10.53,2.57,15.84,2.69v-25.33c1.9-2.69,4.73-4.52,8.29-4.68l.02,31.39Z"/>
    <path class="st0" d="M214.65,65.08c-3.89-2.04-7.31-3.07-11.57-3.68,3.97-1.27,9,.73,11.57,3.68Z"/>
    <path class="st0" d="M214.69,55.1c-3.58-1.89-7.33-2.85-11.34-3.54,3.67-1.24,8.83.72,11.34,3.54Z"/>
    <path class="st0" d="M214.69,50.18c-3.58-1.89-7.33-2.85-11.34-3.54,3.67-1.24,8.83.72,11.34,3.54Z"/>
    <path class="st0" d="M214.99,45.33c-4.3-2.13-8.75-3.15-13.51-3.85,4.31-1.58,10.46.58,13.51,3.85Z"/>
    <path class="st0" d="M214.69,60.04c-3.58-1.89-7.33-2.85-11.34-3.54,3.67-1.24,8.83.72,11.34,3.54Z"/>
  </g>
  <path class="st4" d="M211.49,75.42c0,.94-.35,1.75-1.04,2.43-.7.68-1.52,1.01-2.46,1.01s-1.75-.34-2.43-1.01c-.68-.68-1.01-1.48-1.01-2.43s.34-1.75,1.01-2.43c.68-.68,1.49-1.01,2.43-1.01s1.76.34,2.46,1.01c.7.68,1.04,1.49,1.04,2.43Z"/>
  <g>
    <path class="st0" d="M92.98,37.84v6.45c-1.29-1.81-2.57-3.2-3.84-4.19-1.27-.99-2.49-1.67-3.68-2.03-1.18-.37-2.31-.48-3.39-.35-1.08.13-2.09.41-3.03.84-2.19.99-4.28,2.73-6.26,5.23.26.35.49.64.71.9.22.22.41.45.58.71.17.26.3.45.39.58,1.55,2.5,2.28,5.55,2.19,9.16,0,.39-.05.89-.16,1.52-.11.62-.2,1.24-.29,1.84-.13.73-.26,1.49-.39,2.26l17.16-9.16v10.54c-.28.36-.61.72-.98,1.09-.66.66-1.49,1.24-2.49,1.75-1,.51-2.19.88-3.56,1.1-1.37.22-2.96.21-4.78-.06-.97-.26-1.95-.64-2.95-1.13-.85-.41-1.74-1-2.67-1.75-.93-.75-1.72-1.73-2.37-2.94v-.06c-.12-.19-.23-.36-.35-.51-.12-.15-.21-.32-.29-.51l-.06-.06c0-.07-.04-.19-.12-.34l-.06.06-1.8.62h-.06c.04.15.1.3.17.45.08.15.15.33.23.54.08.21.19.42.35.65.35.68.93,1.58,1.77,2.69.83,1.11,1.85,2.2,3.07,3.25s2.6,1.97,4.14,2.74c1.54.77,3.22,1.16,5.04,1.16.81.04,1.68,0,2.61-.13.77-.11,1.65-.3,2.64-.55.81-.2,1.64-.51,2.52-.91v2.04h6.45v-33.49h-6.45ZM80.98,52.88c.17-1.51.19-2.87.07-4.1-.13-1.23-.39-2.4-.77-3.52.86-.6,1.68-.99,2.45-1.16.77-.17,1.44-.26,2-.26.6,0,1.08.04,1.42.13.34.09.52.15.52.19,1.38.39,2.43.97,3.16,1.74.73.77,1.33,1.61,1.81,2.52l-10.65,4.45Z"/>
    <path class="st0" d="M145.84,55.91v.06c0,1.29-.12,2.58-.35,3.87-.24,1.29-.64,2.54-1.22,3.74-.58,1.21-1.37,2.35-2.36,3.42-.99,1.08-2.22,2.02-3.68,2.84-.04,0-.09.02-.13.06h-.07c-2.02.9-4.35,1.38-6.97,1.42-2.62.04-5.57-.71-8.84-2.26-1.81-.86-3.42-2.15-4.84-3.87-.6-.73-1.18-1.58-1.74-2.55-.56-.97-1.04-2.09-1.45-3.35-.41-1.27-.71-2.7-.9-4.29-.19-1.59-.25-3.35-.16-5.29l1.55-.45c.17,2.24.64,4.37,1.42,6.39.64,1.72,1.59,3.42,2.84,5.1,1.25,1.68,2.99,2.93,5.23,3.74,2.41.99,4.65,1.57,6.71,1.74.86.09,1.73.06,2.61-.07.88-.13,1.71-.41,2.48-.84.78-.43,1.46-1.02,2.06-1.77.6-.75,1.05-1.75,1.35-3,.47-3.4.6-6.41.39-9.03-.13-1.12-.33-2.2-.61-3.23-.28-1.03-.69-1.94-1.23-2.71-.54-.78-1.24-1.38-2.1-1.81-.86-.43-1.91-.58-3.16-.45-.86.17-1.59.47-2.19.9-.52.35-.96.87-1.32,1.58-.37.71-.42,1.65-.16,2.81.09.43.24.82.45,1.16.21.3.52.56.9.77.39.22.94.28,1.68.19.34-.09.64-.24.9-.45.22-.17.43-.42.64-.74.22-.32.32-.74.32-1.26l2,.13c-.04,1.08-.28,2.04-.71,2.9-.35.73-.9,1.42-1.68,2.06-.78.65-1.85.99-3.23,1.03-.52-.04-1.01-.15-1.48-.32-.43-.17-.89-.45-1.39-.84-.49-.39-.94-.95-1.32-1.68-.09-.04-.15-.13-.19-.26-.09-.09-.14-.19-.16-.32-.02-.13-.08-.3-.16-.52v-.07c-.3-.69-.47-1.66-.52-2.9v-.81c0-.24.02-.48.06-.74v-.06c.09-.43.16-.87.23-1.32.06-.45.2-.91.42-1.39.16-.51.39-.99.68-1.47h-16.69l.06,8.18.13,21.55h-6.52l-.32-14.26-.13-7.29-.13-3.35v-.19c-.09-3.31.03-5.89.35-7.74.32-1.85.59-3.08.81-3.68l.19-.52c.52-1.33,1.24-2.71,2.16-4.13.92-1.42,2.11-2.71,3.55-3.87,1.44-1.16,3.18-2.1,5.23-2.81,2.04-.71,4.48-1.06,7.32-1.06,2.02.04,4.04.54,6.06,1.49.86.43,1.75.97,2.68,1.61.93.64,1.84,1.46,2.74,2.45.9.99,1.78,2.16,2.65,3.52.86,1.35,1.65,2.94,2.39,4.74l-1.23,1.1c-1.16-1.93-2.5-3.66-4-5.16-.64-.64-1.37-1.26-2.16-1.84-.8-.58-1.66-1.1-2.58-1.55-.93-.45-1.93-.8-3-1.03-1.08-.24-2.19-.31-3.35-.23-2.19.09-4.17.62-5.94,1.61-.78.43-1.54.98-2.29,1.64-.75.67-1.45,1.49-2.1,2.48-.64.99-1.19,2.15-1.64,3.48-.1.31-.2.63-.29.96h24.25c.1,0,.21,0,.31,0,.02,0,.03,0,.05,0,1.12.04,2.34.31,3.68.81,1.33.49,2.56,1.47,3.68,2.93h.06c.73,1.12,1.31,2.26,1.74,3.42.43,1.16.82,2.64,1.16,4.45.34,1.81.52,3.96.52,6.45Z"/>
    <path class="st0" d="M167.89,69.65c-4.47,0-8.71-1.81-12.71-5.42-.99-.86-1.86-1.72-2.61-2.58-.75-.86-1.4-1.65-1.94-2.35-.54-.71-.97-1.3-1.29-1.77-.32-.47-.51-.77-.55-.9v-.06l-.06-.06,2.06-2.65.13.19c.43.52.85,1,1.26,1.45.41.45.81.91,1.19,1.39l1.16,1.16c1.29,1.29,2.56,2.33,3.81,3.13,1.25.8,2.42,1.42,3.52,1.87,1.1.45,2.12.75,3.06.9.95.15,1.81.23,2.58.23,1.07,0,2.11-.13,3.1-.39h.06c.21-.09.44-.17.68-.26.24-.09.46-.17.68-.26h.06c2.67-1.29,4.54-2.88,5.61-4.77v-.13l.13-.06v-.06c.09-.17.17-.33.26-.48.09-.15.15-.29.19-.42l.06-.06c.56-1.51.68-2.96.35-4.36-.32-1.4-.72-2.59-1.19-3.58l-.58-1.23-.65,1.16c-.69,1.33-1.44,2.41-2.26,3.23s-1.67,1.46-2.55,1.94c-.88.47-1.75.8-2.61.97-.86.17-1.66.26-2.39.26-1.03,0-1.91-.09-2.65-.26-.73-.17-1.16-.3-1.29-.39h-.06c-3.44-.99-5.53-3.23-6.26-6.71-.3-1.29-.4-2.42-.29-3.39.11-.97.16-1.49.16-1.58h.06c.3-1.42.75-2.53,1.35-3.32.6-.8,1.2-1.39,1.81-1.77.6-.39,1.14-.61,1.61-.68.47-.06.77-.1.9-.1h.06c1.59,0,2.8.39,3.61,1.16.82.77,1.4,1.53,1.74,2.26.21.43.37.83.45,1.19.09.37.17.7.26,1,.09.34.13.69.13,1.03l.06.13-2.39.19v-.19c0-.73-.2-1.3-.61-1.71-.41-.41-.83-.68-1.26-.81h-.52c-.9,0-1.57.24-2,.71-.43.47-.69.95-.77,1.42-.34,1.55-.15,2.77.58,3.68.52.73,1.13,1.2,1.84,1.42.71.22,1.15.34,1.32.39h.52c1.85,0,3.29-.6,4.32-1.81.65-.73,1.12-1.6,1.42-2.61.3-1.01.49-2,.58-2.97.09-.97.11-1.81.06-2.52-.04-.71-.06-1.15-.06-1.32v-.13l8.13,1.55c3.74,5.59,5.51,10.73,5.29,15.42-.13,2.71-.9,5.12-2.32,7.23v.06l-.06.06c-.6.95-1.25,1.74-1.94,2.39-.69.64-1.29,1.16-1.81,1.55h-.06l-.06.06-.97.58-.45.26c-2.97,1.68-5.98,2.52-9.03,2.52Z"/>
    <path class="st0" d="M194.8,71.39h-6.45v-33.55h6.45v33.55Z"/>
    <path class="st0" d="M249.55,37.84v33.49h-6.39c-.04-.64-.07-1.25-.07-1.81v-2.26c-.04-.69-.16-1.62-.36-2.81-.19-1.18-.57-2.31-1.13-3.39-.56-1.07-1.35-1.97-2.39-2.68-1.03-.71-2.41-.91-4.13-.61-.86.3-1.59.69-2.19,1.16-.52.47-.93,1.08-1.22,1.81-.3.73-.24,1.72.19,2.97.13.47.34.86.64,1.16.26.26.6.47,1.03.64s1.01.19,1.74.07c.34-.13.64-.32.9-.58.21-.21.41-.51.58-.87.17-.36.24-.83.19-1.39l2.06-.06c.09,1.16-.04,2.22-.39,3.16-.3.82-.81,1.59-1.52,2.32-.71.73-1.8,1.2-3.26,1.42-.56.09-1.1.04-1.61-.13-.47-.13-.99-.38-1.55-.74-.56-.36-1.1-.91-1.61-1.64-.04-.04-.11-.13-.19-.26-.09-.09-.16-.18-.23-.29-.06-.11-.14-.27-.23-.48v-.07c-.17-.34-.33-.76-.48-1.26-.15-.49-.27-1.06-.36-1.71,0-.04-.02-.09-.06-.13-.04-.26-.07-.52-.07-.78v-.84c0-.47.02-.95.07-1.42.04-.47.13-.97.26-1.48.22-.95.58-1.81,1.1-2.58v-.06c.21-.3.45-.59.71-.87.26-.28.56-.55.9-.81.04,0,.07-.02.07-.07.34-.21.68-.42,1-.61.32-.19.7-.38,1.13-.55,1.07-.52,2.17-.86,3.29-1.03.99-.17,2.1-.17,3.32,0,1.23.17,2.46.67,3.71,1.48v-11.52h-15.12v-3.9h21.64Z"/>
    <path class="st0" d="M134.96,37.84h0c-.1,0-.21,0-.31,0h.31Z"/>
  </g>
  <path class="st0" d="M211.49,75.42c0,.94-.35,1.75-1.04,2.43-.7.68-1.52,1.01-2.46,1.01s-1.75-.34-2.43-1.01c-.68-.68-1.01-1.48-1.01-2.43s.34-1.75,1.01-2.43c.68-.68,1.49-1.01,2.43-1.01s1.76.34,2.46,1.01c.7.68,1.04,1.49,1.04,2.43Z"/>
  <g>
    <path class="st2" d="M185.28,90.72c.56-.52.84-1.21.84-2.07,0-.77-.27-1.41-.81-1.94-.54-.53-1.24-.79-2.12-.79-.83,0-1.49.22-1.99.67-.5.45-.74,1.02-.74,1.72,0,.36.05.69.15,1h1.64c-.07-.24-.11-.52-.11-.81,0-.33.1-.6.3-.81.2-.21.46-.31.79-.31.36,0,.64.11.84.34.2.22.31.54.31.94,0,.57-.18,1.02-.55,1.34-.37.32-.9.49-1.61.5h-1.46v1.43l2.91,2.04h2.38v-.18l-3.02-2.09c.94-.12,1.69-.44,2.25-.97Z"/>
    <path class="st2" d="M241.41,85.15v-1.46h-1.3c.05-.31.08-.57.08-.78,0-.69-.2-1.24-.59-1.65-.39-.4-.97-.61-1.74-.61-.38,0-.9.06-1.58.19-.67.13-1.17.19-1.47.19-.58,0-1.06-.09-1.44-.26v1.38c.38.21.91.32,1.58.32.35,0,.83-.05,1.45-.15.62-.1,1.05-.15,1.3-.15.33,0,.55.08.68.25.12.16.18.4.18.72,0,.12-.01.31-.03.55h-7.18c.05-.26.08-.54.08-.84,0-.69-.22-1.22-.65-1.61-.43-.39-1.04-.58-1.83-.58-.36,0-.98.06-1.86.19-.89.13-1.48.19-1.79.19-.64,0-1.2-.09-1.66-.26v1.38c.43.21,1.03.32,1.81.32.42,0,1.01-.05,1.76-.15.76-.1,1.27-.15,1.53-.15.71,0,1.06.31,1.06.92,0,.03-.02.23-.05.6h-8.44c.02-.2.03-.36.03-.46,0-.56-.18-1.03-.55-1.41-.37-.38-.92-.57-1.66-.57-.34,0-.84.03-1.51.09-.67.06-1.13.09-1.37.09-.44,0-.77-.09-1-.28-.22-.19-.38-.48-.46-.87,1.53.02,2.9.2,4.11.54v-1.35c-1.52-.41-2.95-.61-4.3-.61-1.22,0-2.15.27-2.79.81-.64.54-.97,1.33-.97,2.38v1.64h-2.38c.02-.2.03-.36.03-.46,0-.56-.19-1.03-.56-1.41-.37-.38-.93-.57-1.68-.57-.37,0-.91.03-1.61.09-.71.06-1.2.09-1.47.09-.44,0-.77-.09-.99-.28-.22-.18-.37-.47-.45-.84,1.15.08,2.17.24,3.05.46v-1.33c-1.46-.39-2.84-.58-4.14-.58-1.22,0-2.15.27-2.79.81-.64.54-.97,1.33-.97,2.38v1.64h-10.89c.05-.31.08-.57.08-.78,0-.69-.2-1.24-.59-1.65-.39-.4-.97-.61-1.74-.61-.35,0-.78.06-1.29.19-.51.13-.89.19-1.13.19-.4,0-.79-.09-1.17-.26v1.38c.4.21.84.32,1.32.32.28,0,.65-.05,1.11-.15.47-.1.8-.15.99-.15.33,0,.55.08.68.25.13.16.19.4.19.72,0,.18-.02.37-.05.55h-4.91v1.46h13.39v4.53c-.59-1.31-1.53-1.96-2.81-1.96-.86,0-1.53.27-2.02.81-.49.54-.74,1.22-.74,2.02,0,.26.04.57.12.95h1.73c-.05-.26-.08-.52-.08-.8,0-.43.11-.77.31-1.03.21-.26.52-.38.93-.38.38,0,.72.15,1.03.44.31.29.57.68.77,1.15.2.47.36.95.48,1.43.12.48.21.97.27,1.47v.03h1.78v-8.67h2.22v8.67h1.78v-8.67h4.25c0,.62-.1,1.08-.3,1.37-.2.29-.55.44-1.05.44-.42,0-.86-.1-1.33-.31v1.5c.43.24.91.35,1.44.35s.94-.12,1.28-.36c.34-.24.58-.52.73-.84.17.38.41.68.72.91-.77.3-1.39.71-1.88,1.24-.49.53-.73,1.17-.73,1.92,0,.93.33,1.64.99,2.13.66.49,1.55.74,2.68.74.95,0,1.73-.21,2.34-.62.61-.42.91-.98.91-1.68,0-.67-.24-1.19-.74-1.57-.49-.38-1.13-.58-1.9-.58-.26,0-.5.02-.74.05v1.41c.2-.02.4-.03.6-.03.78,0,1.17.24,1.17.72,0,.27-.15.47-.45.61-.3.14-.69.21-1.17.21-1.29,0-1.93-.46-1.93-1.38,0-.32.08-.6.23-.86.15-.26.38-.48.67-.67.3-.2.58-.36.86-.51.28-.14.62-.3,1.02-.48.4-.17.71-.32.93-.44.88-.39,1.32-1.13,1.32-2.22,0-.37-.03-.72-.09-1.04h2.36v8.67h1.78v-8.67h2.32v6.18c0,.78.27,1.4.81,1.86.54.46,1.19.69,1.97.69,1.19,0,2.14-.42,2.86-1.25.72-.83,1.08-1.79,1.08-2.88,0-.9-.27-1.62-.8-2.17-.53-.55-1.27-.82-2.22-.82-.29,0-.58.03-.89.09v1.56c.19-.04.4-.06.63-.06,1,0,1.5.47,1.5,1.4,0,.67-.2,1.26-.6,1.79-.4.53-.92.79-1.56.79-.3,0-.54-.09-.72-.26-.18-.17-.28-.42-.28-.74v-6.18h9.46v2.09c0,.78.2,1.37.6,1.79.4.41.98.62,1.73.62.59,0,1.19-.15,1.78-.46v.17c0,.87-.22,1.56-.66,2.06-.44.51-1.08.76-1.93.76-.92,0-1.65-.34-2.18-1.01-.53-.68-.8-1.63-.8-2.85,0-.45.02-.86.06-1.23h-1.76c-.05.46-.08.89-.08,1.29,0,1.67.43,2.97,1.3,3.93.87.95,2.02,1.43,3.45,1.43,1.34,0,2.39-.41,3.14-1.24.75-.83,1.13-1.86,1.13-3.1,0-.83-.14-1.59-.41-2.27-1.23.67-2.13,1-2.72,1s-.87-.3-.87-.89v-2.07h5.77v6.18c0,.78.27,1.4.8,1.86.54.46,1.19.69,1.97.69,1.19,0,2.14-.42,2.86-1.25.72-.83,1.08-1.79,1.08-2.88,0-.9-.27-1.62-.8-2.17-.53-.55-1.27-.82-2.22-.82-.29,0-.58.03-.89.09v1.56c.2-.04.4-.06.63-.06,1,0,1.5.47,1.5,1.4,0,.67-.2,1.26-.6,1.79-.4.53-.92.79-1.56.79-.3,0-.54-.09-.72-.26-.18-.17-.28-.42-.28-.74v-6.18h5.91ZM205.86,87.16c-.84,0-1.25-.67-1.23-2.01h2.16c.04.21.06.48.06.8,0,.81-.33,1.21-1,1.21ZM206.88,83.69h-8.21v-1.64c0-1.04.53-1.62,1.58-1.73.04.72.28,1.31.72,1.79.44.48,1.11.71,2.01.71.36,0,.86-.03,1.5-.09.64-.06,1.13-.09,1.47-.09.62,0,.93.25.93.75,0,.13,0,.24-.01.31ZM219.72,83.69h-7.09v-1.64c0-.71.24-1.21.72-1.49.08.65.34,1.19.78,1.62.44.42,1.08.64,1.92.64.33,0,.8-.03,1.4-.09.61-.06,1.06-.09,1.37-.09.6,0,.91.25.91.75,0,.13,0,.24-.02.31Z"/>
  </g>
</svg>