<?xml version="1.0" encoding="UTF-8"?>
<svg id="Layer_1" data-name="Layer 1" xmlns="http://www.w3.org/2000/svg" viewBox="0 0 320 120">
  <defs>
    <style>
      .cls-1 {
        fill: #fff;
      }
    </style>
  </defs>
  <g>
    <path class="cls-1" d="M72.9,13.66c.09.41.18.58.16.73-.21,1.45-.42,2.91-.66,4.36-.16.96-.34,1.91-.57,2.86-.39,1.57-.74,3.16-1.25,4.69-.61,1.82-1.32,3.61-2.13,5.35-.46.99-1.16,1.87-1.82,2.76-1.06,1.43-2.16,2.82-3.27,4.21-.17.21-.44.33-.66.5-.08-.06-.17-.11-.25-.17.26-.53.52-1.05.77-1.58.89-1.88,1.79-3.77,2.67-5.66.07-.16,0-.4-.02-.6-.18.11-.43.17-.54.33-.64.86-1.25,1.75-1.88,2.61-.4.54-.8,1.1-1.26,1.58-.22.23-.59.3-1.06.52,1.14-2.53,1.62-5.02,1.4-7.46,1.27-.86,2.48-1.6,3.58-2.47,1.1-.88,2.16-1.83,2.76-3.42-.45.17-.8.23-1.07.4-1.49.94-3.16,1.4-4.85,1.8-.14.03-.35-.05-.46-.15-.4-.4-.77-.83-1.24-1.34.49-.21.92-.52,1.39-.58,1.82-.23,3.49-.9,4.8-2.12,1.33-1.23,2.49-2.66,3.62-4.09.56-.71.88-1.61,1.33-2.41.1-.19.27-.34.53-.65Z"/>
    <path class="cls-1" d="M68.14,17.66c-.09,1.93-1.6,3.3-3.29,3.3-1.41,0-3.23-1.22-3.21-3.26.02-1.7,1.72-3.44,3.36-3.37,1.6.06,3.14,1.7,3.14,3.33Z"/>
    <path class="cls-1" d="M64.86,10.64v2.53c-1.71.56-3.09,1.52-4.11,3.15-.19-.41-.31-.68-.42-.9-.51.2-1.02.39-1.74.67.19-.68.31-1.1.43-1.53.35-1.16.68-2.33,1.07-3.47.06-.19.34-.42.52-.42,1.44-.03,2.88-.02,4.25-.02Z"/>
    <path class="cls-1" d="M74.38,8.33c-.42.89-.83,1.78-1.26,2.66-.76,1.56-1.49,3.15-2.34,4.66-.26.46-.88.71-1.36,1.08-.77-1.46.19-2.37.78-3.28,1.08-1.65,2.32-3.21,3.5-4.79.13-.18.31-.34.44-.5.06.04.18.13.24.17Z"/>
    <path class="cls-1" d="M75.54,6.32c-.11.48-.19,1.13-.26,1.61-.41-.19-1.05-.58-1.46-.77.07-.02.12.04,0,0,.45-.24,1.28-.6,1.72-.84-.02.05-.06.05,0,0Z"/>
  </g>
  <path class="cls-1" d="M62.79,56.19h-19.9c-1.26,0-2.45-.61-3.18-1.63-.49-.67-.74-1.47-.74-2.3v-.48h18.85v.64h-18.21c.03.64.24,1.24.62,1.76.62.85,1.61,1.36,2.66,1.36h19.9v.64Z"/>
  <path class="cls-1" d="M78.35,55.87h11.81c1.2,0,2.27-.59,2.92-1.49.43-.59.68-1.32.68-2.11v-.16h-21.37v.04c0,.29-.19.52-.43.52h-.75c2.38,1.32,4.78,2.4,7.13,3.21ZM85.06,53.08c0-.11.09-.2.2-.2h2.93c.11,0,.2.09.2.2v.05c0,.11-.09.2-.2.2h-2.93c-.11,0-.2-.09-.2-.2v-.05Z"/>
  <path class="cls-1" d="M80.1,25.16h6.16c.22,0,.42.06.6.15.35.19.59.55.59.96v20.84c0,.61-.53,1.11-1.19,1.11h-21.74c1.15.89,2.31,1.72,3.49,2.49h21.26c.14-.26.21-.55.21-.86v-24.77c0-1.02-.83-1.85-1.85-1.85h-11.46c-.02.65-.1,1.3-.24,1.92h4.17Z"/>
  <path class="cls-1" d="M56.21,51.04h-12.62l-.09-.17c-.16-.31-.25-.66-.25-1.01v-14.91h.64v14.91c0,.19.03.37.1.54h12.22v.64Z"/>
  <path class="cls-1" d="M53.59,48.55h-6.8c-.42,0-.83-.17-1.11-.47-.25-.26-.39-.61-.39-.96v-8.74h.64v8.74c0,.19.08.38.21.52.17.17.4.27.65.27h6.8v.64Z"/>
  <path class="cls-1" d="M46.76,25.16s.02,0,.04,0h10.32c-.15-.63-.22-1.27-.24-1.92h-10.8c.21.64.44,1.28.68,1.93Z"/>
  <g>
    <path class="cls-1" d="M83.55,42.9c.44,0,.88-.03,1.3-.08.53-.07,1.1-.19,1.72-.36l.1-.03v-5.12c-1.61.9-3.13,1.99-4.59,3.11-.82.63-1.64,1.28-2.46,1.91,1.3.34,2.61.57,3.91.57Z"/>
    <path class="cls-1" d="M86.68,44.47c-1.46.33-2.93.71-4.35,1.08-2.25.59-4.57,1.2-6.9,1.58-.9.15-1.79.25-2.66.31v.02h13.48c.24,0,.43-.16.43-.35v-2.64h0Z"/>
  </g>
  <path class="cls-1" d="M58.86,43.25c1.51,1.51,3.08,2.92,4.7,4.22h6.17c-2.33-.14-4.6-.67-6.65-1.78-3.89-2.12-6.4-6-9.28-9.36-.84-.98-1.77-1.94-2.78-2.8,2.14,3.36,4.77,6.66,7.84,9.73Z"/>
  <path class="cls-1" d="M52.85,47.63h-6.05c-.17,0-.34-.07-.45-.19-.09-.09-.14-.21-.14-.33v-7.6h.32v7.6s.02.07.05.1c.05.06.13.09.22.09h6.05v.32Z"/>
  <path class="cls-1" d="M86.26,47.47c.24,0,.43-.16.43-.35v-2.64c-3.76.83-7.44,2.04-11.25,2.66-1,.16-2.01.28-3.02.33h13.85Z"/>
  <path class="cls-1" d="M84.9,43.2c-6.8.85-13.39-5.22-19.99-3.36-1.89.53-3.6,1.69-5.33,2.69,1.11,1.1,2.31,2.08,3.68,2.83,1.84,1,4.03,1.59,6.49,1.74,0,0,1.52.09,2.64,0,.97-.05,1.97-.17,2.98-.33,2.31-.37,4.62-.98,6.86-1.57,1.43-.37,2.9-.76,4.37-1.09l.08-.02v-1.26c-.58.16-1.17.3-1.78.37Z"/>
  <path class="cls-1" d="M57.77,44.33c-13.5-13.5-18.46-30.72-11.88-39.81-.56.41-1.1.86-1.6,1.36-8.53,8.53-3.82,27.07,10.52,41.41,14.34,14.34,32.88,19.05,41.41,10.52.5-.5.95-1.03,1.36-1.6-9.09,6.59-26.31,1.62-39.81-11.88Z"/>
  <g>
    <path class="cls-1" d="M102.11,38.65v-15.35h3.56v15.35h-3.56ZM104.84,26.25v-2.96h8.61v2.96h-8.61ZM104.84,32.26v-2.89h7.94v2.89h-7.94ZM104.84,38.65v-2.96h8.75v2.96h-8.75Z"/>
    <path class="cls-1" d="M115.98,38.65v-15.35h3.56v15.35h-3.56ZM118.73,38.65v-3h7.87v3h-7.87Z"/>
    <path class="cls-1" d="M128.62,38.65v-15.35h3.56v15.35h-3.56Z"/>
    <path class="cls-1" d="M134.15,26.3v-3h13.53v3h-13.53ZM139.13,38.65v-15.16h3.58v15.16h-3.58Z"/>
    <path class="cls-1" d="M149.64,38.65v-15.35h3.56v15.35h-3.56ZM152.37,26.25v-2.96h8.61v2.96h-8.61ZM152.37,32.26v-2.89h7.94v2.89h-7.94ZM152.37,38.65v-2.96h8.75v2.96h-8.75Z"/>
    <path class="cls-1" d="M175.32,38.91c-1.17,0-2.27-.21-3.28-.62-1.01-.41-1.9-.98-2.65-1.71-.75-.72-1.34-1.57-1.77-2.52-.43-.96-.64-1.99-.64-3.11s.22-2.17.65-3.12c.44-.95,1.04-1.78,1.83-2.5.78-.72,1.69-1.28,2.72-1.69,1.03-.41,2.14-.61,3.33-.61,1.37,0,2.62.24,3.74.73,1.13.49,2.06,1.15,2.8,1.99l-2.43,2.35c-.5-.64-1.09-1.12-1.79-1.45-.7-.33-1.48-.49-2.33-.49-.93,0-1.77.2-2.5.6-.74.4-1.31.96-1.72,1.67-.41.72-.62,1.55-.62,2.51s.2,1.78.61,2.5c.41.73.96,1.29,1.67,1.71.71.41,1.52.62,2.43.62s1.7-.17,2.36-.51c.65-.34,1.16-.84,1.51-1.49.35-.65.53-1.44.53-2.35l2.37,1.52-7.1-.11v-2.89h8.36v.5c0,1.83-.34,3.37-1.03,4.63-.68,1.26-1.63,2.21-2.84,2.86-1.21.65-2.6.97-4.18.97Z"/>
    <path class="cls-1" d="M183.64,38.65l6.29-15.35h3.22l6.25,15.35h-3.77l-4.76-12.72h1.31l-4.87,12.72h-3.67ZM187.24,35.89v-2.78h8.66v2.78h-8.66Z"/>
    <path class="cls-1" d="M198.2,26.3v-3h13.53v3h-13.53ZM203.18,38.65v-15.16h3.58v15.16h-3.58Z"/>
    <path class="cls-1" d="M213.69,38.65v-15.35h3.56v15.35h-3.56ZM216.42,26.25v-2.96h8.61v2.96h-8.61ZM216.42,32.26v-2.89h7.94v2.89h-7.94ZM216.42,38.65v-2.96h8.75v2.96h-8.75Z"/>
    <path class="cls-1" d="M235.83,38.65l-5.14-15.35h3.54l3.74,11.81h-1.38l3.63-11.81h2.8l3.65,11.81h-1.38l3.74-11.81h3.52l-5.14,15.35h-2.77l-3.7-11.79h1.33l-3.67,11.79h-2.77Z"/>
    <path class="cls-1" d="M251.5,38.65l6.29-15.35h3.22l6.25,15.35h-3.77l-4.76-12.72h1.31l-4.87,12.72h-3.67ZM255.11,35.89v-2.78h8.66v2.78h-8.66Z"/>
    <path class="cls-1" d="M271.84,32.95l-6.13-9.65h4.1l4.71,7.78h-2.66l4.71-7.78h4.04l-6.18,9.65h-2.59ZM271.38,38.65v-7.28h3.58v7.28h-3.58Z"/>
  </g>
  <g>
    <path class="cls-1" d="M102.48,47.59c-.49,0-.95-.08-1.37-.24-.42-.16-.78-.38-1.09-.67-.31-.29-.55-.63-.72-1.02s-.26-.81-.26-1.28.09-.89.26-1.28.41-.73.72-1.02c.31-.29.67-.51,1.09-.67s.87-.24,1.37-.24.96.08,1.39.25c.42.16.78.41,1.08.73l-.6.56c-.25-.25-.53-.44-.84-.56-.31-.12-.64-.18-.99-.18s-.7.06-1.02.18c-.31.12-.58.29-.81.5-.23.21-.41.47-.53.77-.13.3-.19.62-.19.96s.06.67.19.96c.13.3.3.55.53.77.23.21.5.38.81.5.31.12.65.18,1.02.18s.68-.06.99-.18c.31-.12.59-.31.84-.57l.6.56c-.3.32-.66.57-1.08.73-.42.17-.89.25-1.4.25Z"/>
    <path class="cls-1" d="M113.39,47.58c-.49,0-.93-.1-1.31-.31-.39-.21-.69-.5-.91-.86-.22-.37-.33-.78-.33-1.25s.11-.89.33-1.25c.22-.36.53-.65.91-.85.38-.21.82-.31,1.32-.31s.93.1,1.31.31c.39.21.69.49.91.85s.33.78.33,1.25-.11.89-.33,1.25c-.22.36-.52.65-.91.86-.39.21-.82.31-1.31.31ZM113.39,46.82c.32,0,.6-.07.85-.21.25-.14.45-.33.59-.59s.21-.55.21-.88-.07-.63-.21-.88c-.14-.25-.34-.44-.59-.58-.25-.14-.53-.21-.85-.21s-.6.07-.84.21c-.25.14-.45.33-.59.58-.15.25-.22.54-.22.88s.07.63.22.88c.15.25.35.45.59.59.25.14.53.21.84.21Z"/>
    <path class="cls-1" d="M128.65,42.73c.4,0,.75.07,1.05.22s.54.38.71.68c.17.3.26.69.26,1.15v2.73h-.89v-2.63c0-.46-.11-.81-.33-1.04-.22-.23-.54-.35-.94-.35-.3,0-.56.06-.78.18-.22.12-.39.3-.51.53-.12.23-.18.52-.18.87v2.44h-.89v-2.63c0-.46-.11-.81-.33-1.04-.22-.23-.53-.35-.94-.35-.29,0-.55.06-.77.18-.22.12-.4.3-.52.53-.12.23-.19.52-.19.87v2.44h-.89v-4.74h.85v1.26l-.14-.32c.15-.31.39-.55.71-.72s.7-.26,1.12-.26c.47,0,.88.11,1.22.34.34.22.56.56.67,1.02l-.36-.14c.15-.36.41-.66.78-.88.37-.22.8-.33,1.3-.33Z"/>
    <path class="cls-1" d="M137.64,49.26v-6.48h.85v1.28l-.06,1.1.09,1.1v3h-.89ZM140.24,47.58c-.41,0-.78-.09-1.12-.27-.34-.18-.61-.45-.81-.81-.2-.36-.3-.81-.3-1.34s.1-.98.29-1.34c.19-.36.46-.63.8-.81.34-.18.72-.27,1.14-.27.48,0,.91.1,1.28.3.37.2.66.49.88.85.22.36.32.78.32,1.27s-.11.91-.32,1.27c-.22.36-.51.65-.88.85-.37.2-.8.3-1.28.3ZM140.17,46.82c.32,0,.6-.07.85-.21.25-.14.45-.33.59-.59.15-.25.22-.55.22-.88s-.07-.63-.22-.88c-.15-.25-.34-.44-.59-.58-.25-.14-.53-.21-.85-.21s-.59.07-.84.21c-.25.14-.45.33-.59.58-.15.25-.22.54-.22.88s.07.63.22.88c.15.25.34.45.59.59.25.14.53.21.84.21Z"/>
    <path class="cls-1" d="M151.36,47.58c-.42,0-.79-.07-1.11-.22-.32-.15-.57-.38-.74-.68-.18-.31-.26-.69-.26-1.16v-2.73h.89v2.63c0,.47.12.81.35,1.05.23.23.56.35.98.35.31,0,.58-.06.81-.18.23-.12.41-.3.53-.54.12-.24.19-.52.19-.85v-2.45h.89v4.74h-.84v-1.28l.14.34c-.16.32-.4.56-.72.73-.32.17-.68.26-1.09.26Z"/>
    <path class="cls-1" d="M160.19,43.49v-.71h3.14v.71h-3.14ZM162.59,47.58c-.5,0-.88-.13-1.15-.38-.27-.26-.41-.62-.41-1.1v-4.35h.89v4.31c0,.26.07.45.2.59.13.14.32.21.57.21.28,0,.51-.07.7-.22l.28.62c-.14.11-.3.2-.49.25-.19.05-.39.08-.59.08Z"/>
    <path class="cls-1" d="M172.09,47.58c-.53,0-.99-.1-1.39-.31s-.71-.5-.93-.86c-.22-.36-.33-.78-.33-1.25s.11-.89.32-1.25c.21-.36.51-.65.88-.85.37-.21.8-.31,1.27-.31s.9.1,1.26.3c.36.2.65.49.86.85.21.37.31.8.31,1.28,0,.04,0,.08,0,.13s0,.09-.01.13h-4.19v-.62h3.72l-.36.21c0-.3-.06-.58-.19-.81-.14-.24-.32-.43-.56-.56-.24-.13-.52-.2-.83-.2s-.58.07-.83.2c-.24.13-.43.32-.57.56-.14.24-.2.52-.2.83v.14c0,.32.08.6.23.85.15.25.36.44.64.58.27.14.58.21.94.21.29,0,.56-.05.79-.14s.45-.24.63-.43l.49.55c-.22.25-.5.44-.83.57-.33.13-.7.2-1.11.2Z"/>
    <path class="cls-1" d="M180.91,47.52v-4.74h.85v1.29l-.08-.32c.14-.33.36-.58.69-.75.32-.17.72-.26,1.19-.26v.83s-.07,0-.11,0h-.1c-.48,0-.85.14-1.13.41-.28.27-.42.67-.42,1.19v2.36h-.89Z"/>
    <path class="cls-1" d="M197.01,47.52l2.94-6.27h.92l2.95,6.27h-.97l-2.63-5.76h.37l-2.63,5.76h-.96ZM198.26,45.96l.25-.72h3.66l.27.72h-4.18Z"/>
    <path class="cls-1" d="M212.08,47.58c-.5,0-.95-.1-1.34-.31s-.7-.5-.92-.86c-.22-.36-.33-.78-.33-1.25s.11-.89.33-1.25c.22-.36.53-.65.92-.85s.84-.31,1.34-.31c.45,0,.84.09,1.19.26.35.17.62.42.81.76l-.68.42c-.16-.23-.36-.4-.59-.51-.23-.11-.48-.17-.75-.17-.32,0-.61.07-.86.21-.25.14-.45.33-.6.58-.15.25-.22.54-.22.88s.07.64.22.89c.15.25.35.44.6.58.25.14.54.21.86.21.27,0,.52-.05.75-.17.23-.11.43-.28.59-.51l.68.41c-.19.33-.46.58-.81.76s-.75.26-1.19.26Z"/>
    <path class="cls-1" d="M222,47.58c-.37,0-.69-.06-.96-.18-.28-.12-.49-.28-.64-.5s-.22-.45-.22-.72.06-.49.19-.7c.13-.21.33-.38.62-.5s.68-.19,1.16-.19h1.56v.62h-1.52c-.45,0-.75.07-.9.21-.15.14-.23.32-.23.52,0,.23.1.42.29.56s.46.21.8.21.63-.07.88-.21c.25-.14.43-.35.54-.63l.18.59c-.12.28-.33.5-.62.67s-.67.25-1.12.25ZM223.61,47.52v-1l-.05-.19v-1.71c0-.36-.11-.65-.33-.85-.22-.2-.55-.3-.99-.3-.29,0-.58.05-.85.14-.28.09-.51.22-.71.37l-.37-.64c.25-.2.56-.35.91-.45.36-.1.73-.16,1.12-.16.67,0,1.19.16,1.56.47.36.32.55.8.55,1.45v2.86h-.84Z"/>
    <path class="cls-1" d="M233.47,47.58c-.48,0-.9-.1-1.28-.3-.37-.2-.67-.49-.89-.85s-.32-.79-.32-1.27.11-.91.32-1.27c.22-.36.51-.64.89-.85.37-.2.8-.3,1.28-.3.41,0,.79.09,1.12.27.33.18.6.45.8.81.2.36.3.81.3,1.34s-.1.98-.29,1.34-.46.63-.79.81c-.33.18-.71.27-1.14.27ZM233.54,46.82c.31,0,.59-.07.84-.21.25-.14.45-.33.59-.59.15-.25.22-.55.22-.88s-.07-.63-.22-.88c-.15-.25-.34-.44-.59-.58-.25-.14-.53-.21-.84-.21s-.6.07-.84.21c-.25.14-.45.33-.59.58-.15.25-.22.54-.22.88s.07.63.22.88c.15.25.35.45.59.59.25.14.53.21.84.21ZM235.22,47.52v-1.28l.06-1.1-.09-1.1v-3.16h.89v6.64h-.85Z"/>
    <path class="cls-1" d="M245.28,47.58c-.53,0-.99-.1-1.39-.31-.4-.21-.71-.5-.93-.86-.22-.36-.33-.78-.33-1.25s.11-.89.32-1.25.51-.65.88-.85c.37-.21.8-.31,1.27-.31s.9.1,1.26.3c.36.2.65.49.86.85.21.37.31.8.31,1.28,0,.04,0,.08,0,.13s0,.09-.01.13h-4.19v-.62h3.72l-.36.21c0-.3-.06-.58-.19-.81-.14-.24-.32-.43-.56-.56-.24-.13-.52-.2-.83-.2s-.58.07-.83.2c-.24.13-.43.32-.57.56-.14.24-.2.52-.2.83v.14c0,.32.08.6.23.85.15.25.36.44.64.58.27.14.58.21.94.21.29,0,.56-.05.79-.14s.45-.24.63-.43l.49.55c-.22.25-.5.44-.83.57-.33.13-.7.2-1.11.2Z"/>
    <path class="cls-1" d="M260.25,42.73c.4,0,.75.07,1.05.22s.54.38.71.68c.17.3.26.69.26,1.15v2.73h-.89v-2.63c0-.46-.11-.81-.33-1.04s-.54-.35-.94-.35c-.3,0-.56.06-.78.18-.22.12-.39.3-.52.53-.12.23-.18.52-.18.87v2.44h-.89v-2.63c0-.46-.11-.81-.33-1.04-.22-.23-.53-.35-.94-.35-.29,0-.55.06-.77.18-.22.12-.4.3-.52.53s-.19.52-.19.87v2.44h-.89v-4.74h.85v1.26l-.14-.32c.16-.31.39-.55.71-.72s.7-.26,1.12-.26c.47,0,.88.11,1.22.34.34.22.56.56.67,1.02l-.36-.14c.15-.36.41-.66.78-.88.37-.22.8-.33,1.3-.33Z"/>
    <path class="cls-1" d="M269.35,49.31c-.24,0-.46-.04-.69-.11s-.41-.18-.58-.33l.38-.64c.12.11.26.2.41.26.15.06.31.09.47.09.22,0,.4-.05.54-.16.14-.11.28-.3.4-.57l.31-.65.09-.11,1.93-4.31h.87l-2.39,5.22c-.14.33-.3.6-.48.79-.18.19-.37.33-.58.41-.21.08-.44.12-.7.12ZM270.52,47.67l-2.25-4.9h.93l1.91,4.22-.59.67Z"/>
  </g>
  <g>
    <g>
      <path class="cls-1" d="M125.74,57.71v-3.62h-1.4v-.36h3.22v.36h-1.4v3.62h-.42Z"/>
      <path class="cls-1" d="M129.68,57.74c-.31,0-.58-.07-.82-.2-.24-.13-.42-.31-.55-.54-.13-.23-.2-.49-.2-.79s.06-.56.19-.79.3-.41.52-.54c.22-.13.47-.2.75-.2s.53.06.75.19c.22.13.39.31.51.53.13.23.19.49.19.79,0,.02,0,.04,0,.06,0,.02,0,.04,0,.07h-2.6v-.3h2.38l-.16.12c0-.22-.05-.41-.14-.58-.09-.17-.22-.3-.38-.4-.16-.09-.34-.14-.55-.14s-.39.05-.55.14c-.16.1-.29.23-.38.4-.09.17-.14.37-.14.59v.06c0,.23.05.43.15.6.1.17.24.31.42.4.18.1.39.14.62.14.18,0,.35-.03.51-.1s.29-.16.41-.3l.23.26c-.13.16-.3.28-.5.36-.2.08-.42.13-.66.13Z"/>
      <path class="cls-1" d="M133.65,57.74c-.3,0-.56-.07-.79-.2s-.42-.31-.55-.54c-.13-.23-.2-.49-.2-.79s.07-.56.2-.79c.13-.23.32-.41.55-.53s.5-.19.79-.19c.25,0,.48.05.69.15.2.1.37.25.48.44l-.3.2c-.1-.15-.23-.26-.38-.34-.15-.07-.32-.11-.49-.11-.21,0-.4.05-.57.14-.17.1-.31.23-.4.41-.1.17-.15.38-.15.61s.05.44.15.61c.1.17.23.31.4.41.17.1.36.14.57.14.18,0,.34-.04.49-.11.15-.07.28-.18.38-.33l.3.2c-.12.19-.28.34-.48.44-.2.1-.43.15-.69.15Z"/>
      <path class="cls-1" d="M137.67,54.69c.24,0,.46.05.64.14s.33.23.43.42c.1.19.16.43.16.72v1.74h-.4v-1.7c0-.31-.08-.55-.24-.71-.16-.16-.38-.24-.66-.24-.21,0-.4.04-.55.13-.16.09-.28.21-.36.37s-.13.36-.13.58v1.57h-.4v-4.22h.4v2.05l-.08-.15c.09-.22.25-.39.46-.51.21-.12.46-.18.75-.18Z"/>
      <path class="cls-1" d="M142.08,54.69c.24,0,.46.05.64.14s.33.23.43.42c.1.19.16.43.16.72v1.74h-.4v-1.7c0-.31-.08-.55-.24-.71-.16-.16-.38-.24-.66-.24-.21,0-.4.04-.55.13-.16.09-.28.21-.36.37s-.13.36-.13.58v1.57h-.4v-2.99h.39v.82l-.06-.15c.09-.22.25-.39.46-.51.21-.12.46-.18.75-.18Z"/>
      <path class="cls-1" d="M146.19,57.74c-.29,0-.55-.07-.78-.2-.23-.13-.41-.31-.54-.54-.13-.23-.2-.49-.2-.79s.07-.56.2-.79c.13-.23.31-.41.54-.53.23-.13.49-.19.78-.19s.56.07.79.2c.23.13.41.31.54.53s.2.49.2.79-.07.56-.2.79c-.13.23-.31.41-.54.54s-.49.2-.79.2ZM146.19,57.38c.22,0,.41-.05.57-.14.17-.1.3-.23.4-.41.1-.18.15-.38.15-.61s-.05-.44-.15-.61c-.1-.17-.23-.31-.4-.41-.17-.1-.36-.14-.57-.14s-.4.05-.57.14c-.17.1-.3.23-.4.41-.1.17-.15.38-.15.61s.05.44.15.61c.1.18.23.31.4.41.17.1.35.14.57.14Z"/>
      <path class="cls-1" d="M149.11,57.71v-4.22h.4v4.22h-.4Z"/>
      <path class="cls-1" d="M152.43,57.74c-.29,0-.55-.07-.78-.2-.23-.13-.41-.31-.54-.54-.13-.23-.2-.49-.2-.79s.07-.56.2-.79c.13-.23.31-.41.54-.53.23-.13.49-.19.78-.19s.56.07.79.2c.23.13.41.31.54.53s.2.49.2.79-.07.56-.2.79c-.13.23-.31.41-.54.54s-.49.2-.79.2ZM152.43,57.38c.22,0,.41-.05.57-.14.17-.1.3-.23.4-.41.1-.18.15-.38.15-.61s-.05-.44-.15-.61c-.1-.17-.23-.31-.4-.41-.17-.1-.36-.14-.57-.14s-.4.05-.57.14c-.17.1-.3.23-.4.41-.1.17-.15.38-.15.61s.05.44.15.61c.1.18.23.31.4.41.17.1.35.14.57.14Z"/>
      <path class="cls-1" d="M156.55,57.59c-.28,0-.54-.06-.77-.18s-.41-.29-.54-.51c-.13-.22-.2-.47-.2-.76s.07-.54.2-.75c.13-.22.31-.39.54-.51s.48-.18.77-.18c.27,0,.5.05.72.17.21.11.38.27.51.49s.19.48.19.79-.06.57-.19.79c-.13.22-.29.38-.51.49-.21.11-.45.17-.72.17ZM156.62,58.84c-.27,0-.53-.04-.79-.12s-.45-.19-.61-.34l.2-.31c.14.13.31.22.52.3.21.07.43.11.66.11.38,0,.66-.09.84-.26.18-.18.27-.45.27-.82v-.75l.06-.51-.04-.51v-.9h.39v2.62c0,.52-.13.89-.38,1.14s-.63.36-1.12.36ZM156.59,57.24c.22,0,.42-.05.59-.14.17-.09.31-.22.4-.39s.15-.36.15-.57-.05-.41-.15-.57c-.1-.16-.23-.29-.4-.38-.17-.09-.37-.14-.59-.14s-.41.05-.58.14c-.17.09-.31.22-.4.38-.1.16-.15.35-.15.57s.05.41.15.57c.1.17.23.29.4.39.17.09.37.14.58.14Z"/>
      <path class="cls-1" d="M159.83,58.84c-.14,0-.27-.02-.4-.07-.13-.05-.24-.11-.33-.2l.19-.3c.08.07.16.13.25.17.09.04.19.06.3.06.13,0,.25-.04.34-.11.1-.07.19-.2.28-.39l.19-.44.05-.06,1.23-2.77h.4l-1.5,3.35c-.08.19-.18.35-.28.46-.1.11-.21.19-.33.24s-.25.07-.39.07ZM160.63,57.79l-1.38-3.07h.42l1.22,2.74-.26.33Z"/>
      <path class="cls-1" d="M166.58,57.74c-.26,0-.49-.04-.69-.13-.2-.09-.36-.2-.48-.36-.12-.15-.17-.33-.17-.53,0-.17.04-.33.11-.47.08-.14.2-.28.37-.42s.39-.28.67-.44c.24-.13.43-.25.56-.34.13-.1.23-.19.29-.28s.09-.19.09-.29c0-.15-.05-.27-.15-.36-.1-.09-.24-.14-.43-.14-.2,0-.36.05-.47.15s-.16.23-.16.39c0,.08.01.16.04.23.02.07.07.15.14.24.07.09.17.2.29.33l2.11,2.17-.23.27-2.2-2.26c-.13-.14-.24-.26-.32-.37-.08-.1-.13-.2-.16-.3-.03-.09-.05-.2-.05-.3,0-.17.04-.32.12-.45.08-.13.2-.23.35-.3.15-.07.33-.11.53-.11.19,0,.35.03.49.09.14.06.25.15.32.27.08.12.12.26.12.43,0,.14-.03.28-.11.4-.07.13-.18.25-.34.37-.16.12-.38.25-.65.4-.24.13-.43.25-.57.36-.14.11-.24.22-.29.32-.06.1-.09.22-.09.34,0,.14.04.27.12.38.08.11.2.19.34.25.15.06.31.09.5.09.27,0,.5-.05.71-.17s.38-.28.53-.5c.14-.22.25-.5.31-.84l.32.1c-.07.38-.2.7-.37.96-.17.26-.39.45-.65.59-.26.13-.55.2-.88.2Z"/>
      <path class="cls-1" d="M172.05,57.71v-3.98h.42v3.62h2.23v.36h-2.65Z"/>
      <path class="cls-1" d="M176.72,57.74c-.22,0-.42-.04-.58-.11s-.29-.18-.38-.31c-.09-.13-.13-.28-.13-.45,0-.16.04-.3.11-.42.07-.13.2-.23.36-.31s.4-.12.68-.12h1.03v.3h-1.02c-.29,0-.49.05-.6.15-.11.1-.17.23-.17.38,0,.17.07.31.2.41.13.1.32.15.56.15s.42-.05.59-.16c.17-.1.29-.26.36-.45l.09.28c-.08.2-.21.35-.4.47-.19.12-.42.18-.71.18ZM177.75,57.71v-.66l-.02-.11v-1.1c0-.25-.07-.45-.21-.59-.14-.14-.35-.2-.63-.2-.19,0-.38.03-.55.1-.17.06-.32.15-.44.26l-.18-.3c.15-.13.33-.23.55-.3.21-.07.44-.11.67-.11.39,0,.69.1.9.29.21.19.32.48.32.87v1.86h-.39Z"/>
      <path class="cls-1" d="M181.33,54.69c.24,0,.46.05.64.14s.33.23.43.42c.1.19.16.43.16.72v1.74h-.4v-1.7c0-.31-.08-.55-.24-.71-.16-.16-.38-.24-.66-.24-.21,0-.4.04-.55.13-.16.09-.28.21-.36.37s-.13.36-.13.58v1.57h-.4v-2.99h.39v.82l-.06-.15c.09-.22.25-.39.46-.51.21-.12.46-.18.75-.18Z"/>
      <path class="cls-1" d="M185.42,57.59c-.28,0-.54-.06-.77-.18-.23-.12-.41-.29-.54-.51-.13-.22-.2-.47-.2-.76s.07-.54.2-.75c.13-.22.31-.39.54-.51.23-.12.48-.18.77-.18.27,0,.5.05.72.17.21.11.38.27.51.49s.19.48.19.79-.06.57-.19.79c-.13.22-.29.38-.51.49-.21.11-.45.17-.72.17ZM185.5,58.84c-.27,0-.53-.04-.79-.12s-.45-.19-.61-.34l.2-.31c.14.13.31.22.52.3.21.07.43.11.66.11.38,0,.66-.09.84-.26.18-.18.27-.45.27-.82v-.75l.06-.51-.04-.51v-.9h.39v2.62c0,.52-.13.89-.38,1.14s-.63.36-1.12.36ZM185.46,57.24c.22,0,.42-.05.59-.14.17-.09.31-.22.4-.39.1-.17.15-.36.15-.57s-.05-.41-.15-.57c-.1-.16-.23-.29-.4-.38-.17-.09-.37-.14-.59-.14s-.41.05-.58.14c-.17.09-.31.22-.4.38-.1.16-.14.35-.14.57s.05.41.14.57.23.29.4.39c.17.09.37.14.58.14Z"/>
      <path class="cls-1" d="M189.92,57.74c-.25,0-.48-.05-.67-.14-.19-.09-.34-.24-.44-.43-.1-.19-.16-.43-.16-.71v-1.74h.4v1.69c0,.32.08.56.24.72.16.16.38.24.66.24.21,0,.39-.04.54-.13s.27-.21.35-.37c.08-.16.12-.36.12-.59v-1.56h.4v2.99h-.39v-.82l.06.15c-.09.22-.24.39-.44.51-.2.12-.43.19-.7.19Z"/>
      <path class="cls-1" d="M193.92,57.74c-.22,0-.42-.04-.58-.11s-.29-.18-.38-.31c-.09-.13-.13-.28-.13-.45,0-.16.04-.3.11-.42.07-.13.2-.23.36-.31s.4-.12.68-.12h1.03v.3h-1.02c-.29,0-.49.05-.6.15-.11.1-.17.23-.17.38,0,.17.07.31.2.41.13.1.32.15.56.15s.42-.05.59-.16c.17-.1.29-.26.36-.45l.09.28c-.08.2-.21.35-.4.47-.19.12-.42.18-.71.18ZM194.95,57.71v-.66l-.02-.11v-1.1c0-.25-.07-.45-.21-.59-.14-.14-.35-.2-.63-.2-.19,0-.38.03-.55.1-.17.06-.32.15-.44.26l-.18-.3c.15-.13.33-.23.55-.3.21-.07.44-.11.67-.11.39,0,.69.1.9.29.21.19.32.48.32.87v1.86h-.39Z"/>
      <path class="cls-1" d="M198.21,57.59c-.28,0-.54-.06-.77-.18-.23-.12-.41-.29-.54-.51s-.2-.47-.2-.76.07-.54.2-.75.31-.39.54-.51c.23-.12.48-.18.77-.18.27,0,.5.05.72.17.21.11.38.27.51.49s.19.48.19.79-.06.57-.19.79c-.13.22-.29.38-.51.49-.21.11-.45.17-.72.17ZM198.28,58.84c-.27,0-.53-.04-.79-.12s-.45-.19-.61-.34l.2-.31c.14.13.31.22.52.3.21.07.43.11.66.11.38,0,.66-.09.84-.26s.27-.45.27-.82v-.75l.06-.51-.04-.51v-.9h.39v2.62c0,.52-.13.89-.38,1.14s-.63.36-1.12.36ZM198.25,57.24c.22,0,.42-.05.59-.14.17-.09.31-.22.4-.39.1-.17.15-.36.15-.57s-.05-.41-.15-.57c-.1-.16-.23-.29-.4-.38-.17-.09-.37-.14-.59-.14s-.41.05-.58.14c-.17.09-.31.22-.4.38-.1.16-.15.35-.15.57s.05.41.15.57c.1.17.23.29.4.39.17.09.37.14.58.14Z"/>
      <path class="cls-1" d="M202.74,57.74c-.31,0-.58-.07-.82-.2-.24-.13-.42-.31-.55-.54-.13-.23-.2-.49-.2-.79s.06-.56.19-.79.3-.41.52-.54.47-.2.75-.2.53.06.75.19.39.31.51.53c.13.23.19.49.19.79,0,.02,0,.04,0,.06,0,.02,0,.04,0,.07h-2.6v-.3h2.38l-.16.12c0-.22-.05-.41-.14-.58-.09-.17-.22-.3-.38-.4-.16-.09-.34-.14-.55-.14s-.39.05-.55.14c-.16.1-.29.23-.38.4-.09.17-.14.37-.14.59v.06c0,.23.05.43.15.6.1.17.24.31.42.4.18.1.39.14.62.14.18,0,.35-.03.51-.1.16-.06.29-.16.41-.3l.23.26c-.13.16-.3.28-.5.36-.2.08-.42.13-.66.13Z"/>
      <path class="cls-1" d="M207.63,57.71v-4.7h.42v4.7h-.42Z"/>
      <path class="cls-1" d="M211.97,57.71v-3.98h.42v3.98h-.42Z"/>
      <path class="cls-1" d="M215.36,57.74c-.3,0-.58-.05-.85-.15-.27-.1-.48-.22-.63-.37l.16-.32c.14.14.33.25.57.34.24.09.49.14.75.14s.45-.03.61-.09c.16-.06.27-.15.35-.25.07-.11.11-.22.11-.35,0-.16-.04-.28-.13-.38s-.21-.17-.35-.22c-.14-.06-.3-.1-.48-.15s-.35-.09-.52-.13-.33-.11-.48-.19c-.15-.08-.26-.18-.35-.32s-.13-.3-.13-.51c0-.2.05-.38.16-.54.1-.17.26-.3.48-.4.22-.1.49-.15.83-.15.22,0,.45.03.67.09.22.06.41.15.57.26l-.14.34c-.17-.11-.35-.2-.54-.25-.19-.05-.38-.08-.56-.08-.24,0-.44.03-.59.1-.16.06-.27.15-.34.26-.07.11-.11.23-.11.37,0,.16.04.28.13.38.09.1.21.17.35.22s.31.1.48.14c.17.04.35.09.52.14.17.05.33.11.48.19s.26.18.35.31c.09.13.13.3.13.51,0,.19-.05.37-.16.54-.11.17-.27.3-.49.4-.22.1-.5.15-.84.15Z"/>
      <path class="cls-1" d="M220.07,57.74c-.3,0-.58-.05-.83-.15-.26-.1-.48-.24-.67-.43-.19-.18-.33-.4-.44-.64-.1-.24-.16-.51-.16-.81s.05-.56.16-.81c.1-.24.25-.46.44-.64.19-.18.41-.33.66-.43.25-.1.53-.15.84-.15s.58.05.83.15c.25.1.48.24.66.42.19.18.33.4.44.64.1.25.16.52.16.81s-.05.56-.16.81c-.1.25-.25.46-.44.64-.19.18-.41.32-.66.42-.25.1-.53.15-.83.15ZM220.07,57.37c.24,0,.46-.04.66-.12s.38-.2.53-.35c.15-.15.27-.32.35-.52.08-.2.13-.42.13-.66s-.04-.46-.13-.66c-.08-.2-.2-.37-.35-.52s-.33-.27-.53-.35-.42-.12-.66-.12-.46.04-.67.12c-.2.08-.38.2-.53.35-.15.15-.27.32-.35.52-.08.2-.13.42-.13.66s.04.45.13.65c.08.2.2.38.35.53.15.15.33.27.53.35.2.08.43.12.67.12Z"/>
      <path class="cls-1" d="M226.62,53.69c.35,0,.65.08.89.24.24.16.43.38.55.68s.19.65.19,1.08c0,.45-.08.83-.23,1.13-.15.31-.37.54-.64.69-.27.16-.59.23-.95.23-.18,0-.35-.02-.51-.05-.16-.03-.31-.09-.44-.17l.17-.33c.1.07.22.12.36.14.13.03.27.04.42.04.43,0,.77-.14,1.03-.41.26-.27.38-.68.38-1.22,0-.09,0-.19-.01-.31,0-.12-.03-.24-.07-.36l.14.11c-.04.2-.12.37-.24.5-.12.14-.28.24-.46.32-.18.07-.38.11-.6.11-.26,0-.49-.05-.7-.15-.2-.1-.36-.24-.48-.42s-.17-.39-.17-.63.06-.47.18-.65c.12-.18.28-.32.49-.42.21-.1.44-.15.7-.15ZM226.64,54.04c-.19,0-.36.04-.5.11-.15.07-.26.17-.34.3s-.13.28-.13.46c0,.26.09.47.27.63.18.16.42.23.73.23.2,0,.38-.04.54-.11.15-.08.27-.18.36-.31s.13-.28.13-.44c0-.15-.04-.29-.12-.42-.08-.13-.2-.23-.35-.32s-.35-.12-.58-.12Z"/>
      <path class="cls-1" d="M231,57.74c-.31,0-.58-.08-.82-.24-.24-.16-.43-.39-.56-.69s-.2-.66-.2-1.09.07-.79.2-1.09.32-.53.56-.69c.24-.16.51-.24.82-.24s.58.08.82.24c.24.16.43.39.57.69.14.3.21.66.21,1.09s-.07.79-.21,1.09c-.14.3-.33.53-.57.69-.24.16-.51.24-.82.24ZM231,57.37c.24,0,.44-.06.61-.19.17-.13.31-.31.41-.56s.15-.55.15-.9-.05-.66-.15-.9c-.1-.24-.24-.43-.41-.56-.17-.13-.38-.19-.61-.19s-.43.06-.61.19c-.18.13-.32.31-.42.56-.1.24-.15.55-.15.9s.05.66.15.9c.1.24.24.43.42.56.18.13.38.19.61.19Z"/>
      <path class="cls-1" d="M235.34,57.74c-.31,0-.58-.08-.82-.24s-.43-.39-.56-.69c-.14-.3-.2-.66-.2-1.09s.07-.79.2-1.09c.14-.3.32-.53.56-.69s.51-.24.82-.24.58.08.82.24c.24.16.43.39.57.69s.21.66.21,1.09-.07.79-.21,1.09-.33.53-.57.69c-.24.16-.51.24-.82.24ZM235.34,57.37c.24,0,.44-.06.61-.19.17-.13.31-.31.41-.56.1-.24.15-.55.15-.9s-.05-.66-.15-.9c-.1-.24-.24-.43-.41-.56-.17-.13-.38-.19-.61-.19s-.43.06-.61.19c-.18.13-.32.31-.42.56-.1.24-.15.55-.15.9s.05.66.15.9.24.43.42.56c.18.13.38.19.61.19Z"/>
      <path class="cls-1" d="M238.78,57.71v-3.81l.18.19h-1.12v-.36h1.35v3.98h-.41Z"/>
      <path class="cls-1" d="M241.02,55.31c-.08,0-.15-.03-.21-.09-.06-.06-.09-.13-.09-.22s.03-.17.09-.22c.06-.06.13-.09.21-.09s.15.03.21.09c.06.06.09.13.09.22s-.03.16-.09.22c-.06.06-.13.09-.21.09ZM241.02,57.74c-.08,0-.15-.03-.21-.09-.06-.06-.09-.13-.09-.22s.03-.17.09-.22c.06-.06.13-.09.21-.09s.15.03.21.09c.06.06.09.13.09.22s-.03.16-.09.22c-.06.06-.13.09-.21.09Z"/>
      <path class="cls-1" d="M242.41,57.71v-.29l1.66-1.62c.15-.15.27-.28.34-.39.08-.11.13-.22.15-.32.03-.1.04-.19.04-.28,0-.23-.08-.41-.24-.55-.16-.13-.39-.2-.7-.2-.24,0-.44.04-.62.11-.18.07-.34.18-.46.34l-.29-.25c.16-.18.35-.32.6-.42.24-.1.51-.15.81-.15.27,0,.5.04.7.13.2.09.35.21.46.37.11.16.16.35.16.57,0,.13-.02.26-.05.38s-.1.26-.19.4c-.09.14-.23.29-.41.47l-1.52,1.49-.11-.16h2.47v.36h-2.79Z"/>
      <path class="cls-1" d="M247.86,57.74c-.31,0-.58-.08-.82-.24s-.43-.39-.56-.69c-.14-.3-.2-.66-.2-1.09s.07-.79.2-1.09c.14-.3.32-.53.56-.69s.51-.24.82-.24.58.08.82.24c.24.16.43.39.57.69s.21.66.21,1.09-.07.79-.21,1.09-.33.53-.57.69c-.24.16-.51.24-.82.24ZM247.86,57.37c.24,0,.44-.06.61-.19.17-.13.31-.31.41-.56.1-.24.15-.55.15-.9s-.05-.66-.15-.9c-.1-.24-.24-.43-.41-.56-.17-.13-.38-.19-.61-.19s-.43.06-.61.19c-.18.13-.32.31-.42.56-.1.24-.15.55-.15.9s.05.66.15.9.24.43.42.56c.18.13.38.19.61.19Z"/>
      <path class="cls-1" d="M251.31,57.71v-3.81l.18.19h-1.12v-.36h1.35v3.98h-.41Z"/>
      <path class="cls-1" d="M254.49,57.74c-.28,0-.56-.05-.81-.14-.26-.09-.46-.22-.61-.37l.2-.32c.13.13.3.24.52.33s.45.13.71.13c.34,0,.59-.07.77-.22.18-.15.26-.35.26-.59,0-.17-.04-.32-.12-.44-.08-.12-.22-.22-.41-.29-.19-.07-.46-.1-.8-.1h-.85l.2-2h2.18v.36h-2.01l.21-.2-.18,1.67-.21-.2h.75c.4,0,.72.05.97.15.24.1.42.24.53.41.11.18.16.38.16.62s-.05.43-.16.61c-.11.18-.27.33-.48.44-.21.11-.48.16-.81.16Z"/>
    </g>
    <rect class="cls-1" x="100.58" y="50.86" width="180.46" height=".36"/>
  </g>
</svg>