<?xml version="1.0" encoding="UTF-8"?>
<svg id="Layer_1" data-name="Layer 1" xmlns="http://www.w3.org/2000/svg" viewBox="0 0 320 120">
  <defs>
    <style>
      .cls-1 {
        fill: #fff;
      }
    </style>
  </defs>
  <g>
    <path class="cls-1" d="M68.16,75.32h-8.2V23.15h8.2v52.18Z"/>
    <path class="cls-1" d="M92.41,23.15v52.18h-8.2l-5.41-22.86v22.86h-8.2V23.15h8.2l5.41,22.65v-22.65h8.2Z"/>
    <path class="cls-1" d="M116.02,68.04c0,.63-.02,1.17-.05,1.63-.1,1.2-.33,2.16-.68,2.88-.94,1.85-3.07,2.78-6.39,2.78h-14.05V23.15h14.29c3.28,0,5.37.94,6.24,2.81.36.72.57,1.68.63,2.88.03.45.05,1,.05,1.66l-.05,37.55ZM107.73,31.37c0-1.02-.49-1.72-1.46-2.1-.49-.18-.98-.26-1.46-.24h-1.76v40.46h1.76c.49.02.98-.06,1.46-.24.98-.38,1.46-1.08,1.46-2.1V31.37Z"/>
    <path class="cls-1" d="M126.7,75.32h-8.2V23.15h8.2v52.18Z"/>
    <path class="cls-1" d="M144.56,70.18h-6.29l-.93,5.15h-8.2l8.2-52.18h8.15l8.2,52.18h-8.2l-.93-5.15ZM143.53,64.52l-2.15-15.3-2.1,15.3h4.24Z"/>
    <path class="cls-1" d="M182.75,28.83h-5.46v46.49h-8.15V28.83h-5.46v-5.69h19.07v5.69Z"/>
    <path class="cls-1" d="M199.19,23.15c3.19,0,5.24.93,6.15,2.78.36.74.59,1.7.68,2.88.03.45.05.99.05,1.63v16.76c0,.79-.21,1.69-.63,2.71-.55,1.22-1.3,2.29-2.24,3.22,1.14.7,1.87,1.83,2.2,3.39.13.59.21,1.32.24,2.2v16.63h-8.05v-16.69c0-.56-.15-1.04-.44-1.42-.23-.29-.55-.52-.98-.68-.49-.18-.96-.26-1.41-.24h-1.37v19.03h-8.2V23.15h14ZM193.39,50.34h1.81c.49.02.96-.06,1.41-.24.94-.36,1.41-1.06,1.41-2.1v-16.69c0-1.02-.47-1.72-1.41-2.1-.46-.18-.93-.26-1.41-.24h-1.81v21.37Z"/>
    <path class="cls-1" d="M216.71,75.32h-8.2V23.15h8.2v52.18Z"/>
    <path class="cls-1" d="M227.34,28.83v17.57h8.15v5.69h-8.15v17.54h8.15v5.69h-16.34V23.15h16.34v5.69h-8.15Z"/>
    <path class="cls-1" d="M248.95,22.47c3.06,0,5.66.76,7.81,2.27,2.18,1.49,3.27,3.28,3.27,5.38v13.71h-8.34v-14.36c0-.54-.26-.99-.78-1.35-.55-.36-1.2-.54-1.95-.54s-1.38.18-1.9.54c-.52.36-.78.81-.78,1.35v14.59c0,.52.21.96.63,1.32.49.36,1.09.54,1.8.54h1.56c2.31,0,4.24.43,5.81,1.29,1.24.7,2.2,1.65,2.88,2.84.78,1.35,1.14,2.72,1.07,4.1v15c-.26,1.96-1.45,3.61-3.56,4.94-2.11,1.33-4.62,2-7.51,2s-5.35-.67-7.46-2c-2.11-1.33-3.3-2.97-3.56-4.91v-14.39h8.34v14.32c0,.52.26.96.78,1.32.52.36,1.15.54,1.9.54s1.4-.18,1.95-.54c.52-.36.78-.8.78-1.32v-14.93c0-1.26-.81-1.9-2.44-1.9h-.54c-3.12,0-5.77-.85-7.95-2.54-1.89-1.47-2.83-3.17-2.83-5.11v-14.53c0-2.1,1.07-3.89,3.22-5.38,2.18-1.51,4.78-2.27,7.81-2.27Z"/>
  </g>
  <g>
    <path class="cls-1" d="M65.04,93.85l-2.33-3.77h-1.27v3.77h-1.66v-9.41h3.5c.78,0,1.43.13,1.97.38.54.25.94.59,1.21,1.02.27.42.4.9.4,1.42,0,.61-.19,1.17-.58,1.67-.38.5-.97.84-1.77,1.02l2.51,3.9h-1.98ZM61.44,88.85h1.84c.62,0,1.09-.14,1.41-.43.32-.29.47-.68.47-1.16s-.16-.87-.47-1.14c-.31-.28-.78-.41-1.41-.41h-1.84v3.16Z"/>
    <path class="cls-1" d="M76.29,90.69h-6.13c.05.6.29,1.07.71,1.44.43.36.95.54,1.57.54.89,0,1.52-.35,1.89-1.04h1.79c-.24.69-.68,1.25-1.32,1.69-.64.44-1.43.66-2.37.66-.77,0-1.45-.16-2.06-.48-.61-.32-1.08-.77-1.43-1.35-.34-.58-.52-1.26-.52-2.02s.17-1.44.5-2.02c.34-.58.81-1.03,1.41-1.35.61-.32,1.3-.47,2.09-.47s1.43.15,2.02.46c.59.31,1.05.74,1.38,1.29.33.56.5,1.19.5,1.92,0,.28-.02.53-.06.76ZM74.61,89.45c0-.57-.23-1.02-.66-1.37-.43-.34-.96-.51-1.59-.51-.57,0-1.06.17-1.47.51s-.65.8-.73,1.37h4.44Z"/>
    <path class="cls-1" d="M77.92,88.09c.34-.58.79-1.03,1.37-1.35.58-.32,1.22-.48,1.92-.48.63,0,1.18.12,1.65.35.47.23.85.52,1.13.86v-1.08h1.68v7.46h-1.68v-1.11c-.28.35-.67.65-1.15.88-.49.23-1.04.35-1.66.35-.69,0-1.32-.16-1.89-.49-.57-.33-1.03-.79-1.36-1.38-.33-.59-.5-1.26-.5-2.01s.17-1.41.5-1.99ZM83.65,88.77c-.23-.38-.53-.67-.9-.87-.37-.2-.77-.3-1.19-.3s-.83.1-1.19.29c-.37.19-.67.48-.9.85-.23.37-.34.82-.34,1.33s.11.97.34,1.35c.23.39.53.68.9.89.37.2.77.3,1.19.3s.83-.1,1.19-.3c.37-.2.67-.49.9-.87.23-.38.34-.83.34-1.35s-.11-.96-.34-1.34Z"/>
    <path class="cls-1" d="M89.51,83.83v10.02h-1.66v-10.02h1.66Z"/>
    <path class="cls-1" d="M98.29,86.62c.49-.23,1.03-.35,1.65-.35.7,0,1.34.16,1.92.48.58.32,1.03.77,1.36,1.35.33.58.5,1.24.5,1.99s-.17,1.42-.5,2.01c-.33.59-.78,1.05-1.36,1.38-.58.33-1.22.49-1.92.49-.61,0-1.16-.12-1.63-.35-.48-.23-.86-.52-1.17-.86v4.63h-1.66v-11.01h1.66v1.1c.28-.34.66-.63,1.15-.87ZM101.68,88.75c-.23-.37-.53-.66-.9-.85-.37-.19-.77-.29-1.2-.29s-.81.1-1.19.3c-.37.2-.68.49-.9.87-.23.38-.34.83-.34,1.34s.11.96.34,1.35c.23.38.53.68.9.87.37.2.77.3,1.19.3s.83-.1,1.2-.3c.37-.2.67-.5.9-.89.23-.39.34-.84.34-1.35s-.11-.96-.34-1.33Z"/>
    <path class="cls-1" d="M112.66,90.69h-6.13c.05.6.29,1.07.71,1.44.43.36.95.54,1.57.54.89,0,1.52-.35,1.89-1.04h1.79c-.24.69-.68,1.25-1.32,1.69-.64.44-1.43.66-2.37.66-.77,0-1.45-.16-2.06-.48-.61-.32-1.08-.77-1.43-1.35-.34-.58-.52-1.26-.52-2.02s.17-1.44.5-2.02c.34-.58.81-1.03,1.41-1.35.61-.32,1.3-.47,2.09-.47s1.43.15,2.02.46c.59.31,1.05.74,1.38,1.29.33.56.5,1.19.5,1.92,0,.28-.02.53-.06.76ZM110.98,89.45c0-.57-.23-1.02-.66-1.37-.43-.34-.96-.51-1.59-.51-.57,0-1.06.17-1.47.51s-.65.8-.73,1.37h4.44Z"/>
    <path class="cls-1" d="M115.77,93.49c-.61-.32-1.09-.77-1.44-1.35s-.52-1.26-.52-2.02.18-1.43.54-2.02c.36-.59.85-1.04,1.47-1.35.62-.32,1.32-.47,2.08-.47s1.46.16,2.08.47c.62.32,1.11.77,1.47,1.35.36.59.54,1.26.54,2.02s-.18,1.43-.55,2.02c-.37.59-.87,1.04-1.51,1.36-.64.32-1.34.48-2.1.48s-1.44-.16-2.05-.48ZM119.03,92.34c.37-.19.68-.47.91-.85.23-.38.35-.84.35-1.38s-.11-1-.34-1.37c-.22-.37-.52-.66-.89-.85-.37-.19-.77-.28-1.19-.28s-.82.09-1.19.28c-.36.19-.65.47-.87.85-.21.37-.32.83-.32,1.37,0,.8.22,1.42.66,1.86.44.44,1,.66,1.67.66.43,0,.83-.09,1.2-.28Z"/>
    <path class="cls-1" d="M126.45,86.62c.49-.23,1.03-.35,1.65-.35.7,0,1.34.16,1.92.48.58.32,1.03.77,1.36,1.35.33.58.5,1.24.5,1.99s-.17,1.42-.5,2.01c-.33.59-.78,1.05-1.36,1.38-.58.33-1.22.49-1.92.49-.61,0-1.16-.12-1.63-.35-.48-.23-.86-.52-1.17-.86v4.63h-1.66v-11.01h1.66v1.1c.28-.34.66-.63,1.15-.87ZM129.84,88.75c-.23-.37-.53-.66-.9-.85-.37-.19-.77-.29-1.2-.29s-.81.1-1.19.3c-.37.2-.68.49-.9.87-.23.38-.34.83-.34,1.34s.11.96.34,1.35c.23.38.53.68.9.87.37.2.77.3,1.19.3s.83-.1,1.2-.3c.37-.2.67-.5.9-.89.23-.39.34-.84.34-1.35s-.11-.96-.34-1.33Z"/>
    <path class="cls-1" d="M135.17,83.83v10.02h-1.66v-10.02h1.66Z"/>
    <path class="cls-1" d="M144.66,90.69h-6.13c.05.6.29,1.07.71,1.44.43.36.95.54,1.57.54.89,0,1.52-.35,1.89-1.04h1.79c-.24.69-.68,1.25-1.32,1.69-.64.44-1.43.66-2.37.66-.77,0-1.45-.16-2.06-.48-.61-.32-1.08-.77-1.43-1.35-.34-.58-.52-1.26-.52-2.02s.17-1.44.5-2.02c.34-.58.81-1.03,1.41-1.35.61-.32,1.3-.47,2.09-.47s1.43.15,2.02.46c.59.31,1.05.74,1.38,1.29.33.56.5,1.19.5,1.92,0,.28-.02.53-.06.76ZM142.98,89.45c0-.57-.23-1.02-.66-1.37-.43-.34-.96-.51-1.59-.51-.57,0-1.06.17-1.47.51s-.65.8-.73,1.37h4.44Z"/>
    <path class="cls-1" d="M162.96,93.85l-2.33-3.77h-1.27v3.77h-1.66v-9.41h3.5c.78,0,1.43.13,1.97.38s.94.59,1.21,1.02c.27.42.4.9.4,1.42,0,.61-.19,1.17-.58,1.67-.38.5-.97.84-1.77,1.02l2.51,3.9h-1.98ZM159.37,88.85h1.84c.62,0,1.09-.14,1.41-.43.32-.29.47-.68.47-1.16s-.16-.87-.47-1.14c-.31-.28-.78-.41-1.41-.41h-1.84v3.16Z"/>
    <path class="cls-1" d="M174.21,90.69h-6.13c.05.6.29,1.07.71,1.44.43.36.95.54,1.57.54.89,0,1.52-.35,1.89-1.04h1.79c-.24.69-.68,1.25-1.32,1.69-.64.44-1.43.66-2.37.66-.77,0-1.45-.16-2.06-.48-.61-.32-1.08-.77-1.43-1.35s-.52-1.26-.52-2.02.17-1.44.5-2.02c.33-.58.81-1.03,1.41-1.35.61-.32,1.3-.47,2.09-.47s1.43.15,2.02.46,1.05.74,1.38,1.29c.33.56.5,1.19.5,1.92,0,.28-.02.53-.06.76ZM172.53,89.45c0-.57-.23-1.02-.66-1.37-.43-.34-.96-.51-1.59-.51-.57,0-1.06.17-1.47.51s-.65.8-.73,1.37h4.44Z"/>
    <path class="cls-1" d="M175.85,88.09c.33-.58.79-1.03,1.37-1.35.58-.32,1.22-.48,1.92-.48.63,0,1.18.12,1.65.35.47.23.85.52,1.13.86v-1.08h1.68v7.46h-1.68v-1.11c-.28.35-.67.65-1.15.88-.49.23-1.04.35-1.66.35-.69,0-1.32-.16-1.89-.49-.57-.33-1.03-.79-1.36-1.38-.34-.59-.5-1.26-.5-2.01s.17-1.41.5-1.99ZM181.57,88.77c-.23-.38-.53-.67-.9-.87-.37-.2-.77-.3-1.19-.3s-.83.1-1.19.29c-.37.19-.67.48-.9.85-.23.37-.34.82-.34,1.33s.11.97.34,1.35c.23.39.53.68.9.89.37.2.77.3,1.19.3s.83-.1,1.19-.3c.37-.2.67-.49.9-.87.23-.38.34-.83.34-1.35s-.11-.96-.34-1.34Z"/>
    <path class="cls-1" d="M187.43,83.83v10.02h-1.66v-10.02h1.66Z"/>
    <path class="cls-1" d="M194.62,93.65c-.5-.21-.9-.5-1.19-.87-.29-.37-.45-.77-.47-1.23h1.72c.03.32.19.58.49.79.3.21.67.32,1.11.32s.83-.08,1.09-.25c.26-.17.39-.38.39-.64,0-.28-.14-.49-.43-.62-.29-.14-.74-.28-1.36-.45-.6-.15-1.09-.3-1.47-.45-.38-.14-.71-.37-.98-.66s-.42-.69-.42-1.18c0-.4.13-.76.38-1.09.25-.33.61-.59,1.09-.78.47-.19,1.01-.28,1.62-.28.91,0,1.65.21,2.21.64.56.43.86,1.01.9,1.75h-1.66c-.03-.33-.17-.6-.44-.8-.26-.2-.62-.3-1.06-.3s-.77.08-1.01.23-.35.36-.35.61c0,.2.08.37.23.5.16.14.34.24.57.32.22.08.55.17.99.29.58.14,1.06.29,1.43.44.37.15.7.37.97.66.27.29.41.67.42,1.15,0,.42-.13.8-.38,1.14-.25.33-.61.6-1.07.79-.46.19-1,.28-1.62.28s-1.2-.11-1.7-.32Z"/>
    <path class="cls-1" d="M203.12,87.64v4.13c0,.28.07.48.21.6.14.12.38.18.72.18h1.02v1.29h-1.31c-.75,0-1.32-.16-1.72-.49-.4-.33-.6-.85-.6-1.58v-4.13h-.95v-1.26h.95v-1.86h1.67v1.86h1.95v1.26h-1.95Z"/>
    <path class="cls-1" d="M209.23,86.58c.4-.21.88-.32,1.43-.32v1.6h-.42c-.65,0-1.14.15-1.48.46-.34.31-.5.84-.5,1.6v3.93h-1.66v-7.46h1.66v1.08c.24-.38.57-.68.97-.89Z"/>
    <path class="cls-1" d="M219.46,86.39v7.46h-1.66v-.88c-.26.31-.6.55-1.03.72-.42.18-.87.26-1.35.26-.63,0-1.2-.12-1.7-.37-.5-.24-.89-.6-1.18-1.08-.29-.48-.43-1.06-.43-1.73v-4.39h1.65v4.16c0,.67.18,1.18.54,1.54.36.36.85.54,1.47.54s1.11-.18,1.48-.54c.36-.36.55-.87.55-1.54v-4.16h1.66Z"/>
    <path class="cls-1" d="M226.53,86.61c.48.23.86.52,1.13.86v-1.08h1.68v7.58c0,.69-.16,1.3-.47,1.84-.31.54-.76.96-1.35,1.27-.59.31-1.29.46-2.1.46-1.09,0-1.99-.24-2.71-.71-.72-.47-1.13-1.12-1.22-1.93h1.65c.13.39.4.7.81.94.41.24.91.36,1.48.36.67,0,1.21-.19,1.62-.57.41-.38.62-.93.62-1.65v-1.25c-.28.35-.66.65-1.14.89-.48.24-1.03.36-1.64.36-.7,0-1.34-.16-1.92-.49-.58-.33-1.03-.79-1.37-1.38-.34-.59-.5-1.26-.5-2.01s.17-1.41.5-1.99c.33-.58.79-1.03,1.37-1.35.58-.32,1.22-.48,1.92-.48.62,0,1.17.12,1.65.35ZM227.32,88.77c-.23-.38-.53-.67-.9-.87-.37-.2-.77-.3-1.19-.3s-.83.1-1.19.29c-.37.19-.67.48-.9.85-.23.37-.34.82-.34,1.33s.11.97.34,1.35c.23.39.53.68.9.89.37.2.77.3,1.19.3s.83-.1,1.19-.3c.37-.2.67-.49.9-.87.23-.38.34-.83.34-1.35s-.11-.96-.34-1.34Z"/>
    <path class="cls-1" d="M236.41,86.61c.48.23.86.52,1.13.86v-1.08h1.68v7.58c0,.69-.16,1.3-.47,1.84-.31.54-.76.96-1.35,1.27-.59.31-1.29.46-2.1.46-1.09,0-1.99-.24-2.71-.71-.72-.47-1.13-1.12-1.22-1.93h1.65c.13.39.4.7.81.94.41.24.91.36,1.48.36.67,0,1.21-.19,1.62-.57.41-.38.62-.93.62-1.65v-1.25c-.28.35-.66.65-1.14.89-.48.24-1.03.36-1.64.36-.7,0-1.34-.16-1.92-.49-.58-.33-1.03-.79-1.37-1.38-.34-.59-.5-1.26-.5-2.01s.17-1.41.5-1.99c.33-.58.79-1.03,1.37-1.35.58-.32,1.22-.48,1.92-.48.62,0,1.17.12,1.65.35ZM237.2,88.77c-.23-.38-.53-.67-.9-.87-.37-.2-.77-.3-1.19-.3s-.83.1-1.19.29c-.37.19-.67.48-.9.85-.23.37-.34.82-.34,1.33s.11.97.34,1.35c.23.39.53.68.9.89.37.2.77.3,1.19.3s.83-.1,1.19-.3c.37-.2.67-.49.9-.87.23-.38.34-.83.34-1.35s-.11-.96-.34-1.34Z"/>
    <path class="cls-1" d="M243.06,83.83v10.02h-1.66v-10.02h1.66Z"/>
    <path class="cls-1" d="M252.54,90.69h-6.13c.05.6.29,1.07.71,1.44.43.36.95.54,1.57.54.89,0,1.52-.35,1.89-1.04h1.79c-.24.69-.68,1.25-1.32,1.69-.64.44-1.43.66-2.37.66-.77,0-1.45-.16-2.06-.48-.61-.32-1.08-.77-1.43-1.35s-.52-1.26-.52-2.02.17-1.44.5-2.02c.33-.58.81-1.03,1.41-1.35.61-.32,1.3-.47,2.09-.47s1.43.15,2.02.46,1.05.74,1.38,1.29c.33.56.5,1.19.5,1.92,0,.28-.02.53-.06.76ZM250.87,89.45c0-.57-.23-1.02-.66-1.37-.43-.34-.96-.51-1.59-.51-.57,0-1.06.17-1.47.51s-.65.8-.73,1.37h4.44Z"/>
    <path class="cls-1" d="M255.45,93.65c-.5-.21-.9-.5-1.19-.87-.29-.37-.45-.77-.47-1.23h1.72c.03.32.19.58.49.79.3.21.67.32,1.11.32s.83-.08,1.09-.25c.26-.17.39-.38.39-.64,0-.28-.14-.49-.43-.62-.29-.14-.74-.28-1.36-.45-.6-.15-1.09-.3-1.47-.45-.38-.14-.71-.37-.98-.66s-.42-.69-.42-1.18c0-.4.13-.76.38-1.09.25-.33.61-.59,1.09-.78.47-.19,1.01-.28,1.62-.28.91,0,1.65.21,2.21.64.56.43.86,1.01.9,1.75h-1.66c-.03-.33-.17-.6-.44-.8-.26-.2-.62-.3-1.06-.3s-.77.08-1.01.23-.35.36-.35.61c0,.2.08.37.23.5.16.14.34.24.57.32.22.08.55.17.99.29.58.14,1.06.29,1.43.44.37.15.7.37.97.66.27.29.41.67.42,1.15,0,.42-.13.8-.38,1.14-.25.33-.61.6-1.07.79-.46.19-1,.28-1.62.28s-1.2-.11-1.7-.32Z"/>
  </g>
  <circle class="cls-1" cx="150.99" cy="90.68" r="2.06"/>
</svg>